<mxfile host="65bd71144e">
    <diagram id="L8zbWnNtphCHwOs0KB7i" name="ページ1">
        <mxGraphModel dx="1659" dy="4166" grid="1" gridSize="10" guides="1" tooltips="1" connect="1" arrows="1" fold="1" page="1" pageScale="1" pageWidth="827" pageHeight="1169" math="0" shadow="0">
            <root>
                <mxCell id="0"/>
                <mxCell id="1" parent="0"/>
                <UserObject label="" mermaidData="{&#xa;  &quot;data&quot;: &quot;    erDiagram\n    USERS ||--o{ SCAN_HISTORY : \&quot;スキャンする\&quot;\n    USERS ||--o{ NOTIFICATION_SETTINGS : \&quot;設定する\&quot;\n    USERS }|--|| COLLECTION_AREAS : \&quot;所属する\&quot;\n    GARBAGE_TYPES ||--o{ SCAN_HISTORY : \&quot;分類される\&quot;\n    COLLECTION_AREAS ||--o{ COLLECTION_SCHEDULES : \&quot;持つ\&quot;\n    GARBAGE_TYPES ||--o{ COLLECTION_SCHEDULES : \&quot;収集される\&quot;\n    LEARNING_MATERIALS ||--o{ GARBAGE_TYPES : \&quot;関連する\&quot;\n    PREFECTURES ||--o{ MUNICIPALITIES : \&quot;含む\&quot;\n    MUNICIPALITIES ||--o{ COLLECTION_AREAS : \&quot;含む\&quot;\n    \n    USERS {\n        int id PK \&quot;ユーザーID\&quot;\n        string username \&quot;ユーザー名\&quot;\n        string email \&quot;メールアドレス\&quot;\n        string password_hash \&quot;パスワードハッシュ\&quot;\n        string language \&quot;言語設定(ja/en/zh)\&quot;\n        string postal_code \&quot;郵便番号\&quot;\n        int collection_area_id FK \&quot;収集エリアID\&quot;\n        boolean is_admin \&quot;管理者フラグ\&quot;\n        datetime created_at \&quot;作成日時\&quot;\n        datetime updated_at \&quot;更新日時\&quot;\n    }\n    \n    GARBAGE_TYPES {\n        int id PK \&quot;ゴミ種類ID\&quot;\n        string name_ja \&quot;日本語名\&quot;\n        string name_en \&quot;英語名\&quot;\n        string name_zh \&quot;中国語名\&quot;\n        string description_ja \&quot;日本語説明\&quot;\n        string description_en \&quot;英語説明\&quot;\n        string description_zh \&quot;中国語説明\&quot;\n        string disposal_method_ja \&quot;日本語処理方法\&quot;\n        string disposal_method_en \&quot;英語処理方法\&quot;\n        string disposal_method_zh \&quot;中国語処理方法\&quot;\n        string color_code \&quot;色コード\&quot;\n        string icon \&quot;アイコン\&quot;\n    }\n    \n    PREFECTURES {\n        int id PK \&quot;都道府県ID\&quot;\n        string code \&quot;都道府県コード\&quot;\n        string name_ja \&quot;日本語名\&quot;\n        string name_en \&quot;英語名\&quot;\n        string name_zh \&quot;中国語名\&quot;\n    }\n    \n    MUNICIPALITIES {\n        int id PK \&quot;市区町村ID\&quot;\n        int prefecture_id FK \&quot;都道府県ID\&quot;\n        string code \&quot;市区町村コード\&quot;\n        string name_ja \&quot;日本語名\&quot;\n        string name_en \&quot;英語名\&quot;\n        string name_zh \&quot;中国語名\&quot;\n    }\n    \n    COLLECTION_AREAS {\n        int id PK \&quot;収集エリアID\&quot;\n        int municipality_id FK \&quot;市区町村ID\&quot;\n        string name_ja \&quot;日本語エリア名\&quot;\n        string name_en \&quot;英語エリア名\&quot;\n        string name_zh \&quot;中国語エリア名\&quot;\n        string postal_code_pattern \&quot;郵便番号パターン\&quot;\n        string contact_phone \&quot;連絡先電話番号\&quot;\n        string contact_email \&quot;連絡先メール\&quot;\n    }\n    \n    COLLECTION_SCHEDULES {\n        int id PK \&quot;スケジュールID\&quot;\n        int collection_area_id FK \&quot;収集エリアID\&quot;\n        int garbage_type_id FK \&quot;ゴミ種類ID\&quot;\n        int day_of_week \&quot;曜日(0-6)\&quot;\n        int week_of_month \&quot;月の何週目(0-4, 0=毎週)\&quot;\n        time start_time \&quot;収集開始時間\&quot;\n        time end_time \&quot;収集終了時間\&quot;\n        string note_ja \&quot;日本語備考\&quot;\n        string note_en \&quot;英語備考\&quot;\n        string note_zh \&quot;中国語備考\&quot;\n    }\n    \n    SCAN_HISTORY {\n        int id PK \&quot;スキャン履歴ID\&quot;\n        int user_id FK \&quot;ユーザーID\&quot;\n        int garbage_type_id FK \&quot;判定されたゴミ種類ID\&quot;\n        float confidence \&quot;信頼度\&quot;\n        string image_url \&quot;画像URL\&quot;\n        datetime scanned_at \&quot;スキャン日時\&quot;\n    }\n    \n    NOTIFICATION_SETTINGS {\n        int id PK \&quot;通知設定ID\&quot;\n        int user_id FK \&quot;ユーザーID\&quot;\n        boolean garbage_reminder \&quot;ゴミ出しリマインダー\&quot;\n        boolean app_updates \&quot;アプリ更新通知\&quot;\n        int reminder_time \&quot;リマインダー時間(分前)\&quot;\n        datetime updated_at \&quot;更新日時\&quot;\n    }\n    \n    LEARNING_MATERIALS {\n        int id PK \&quot;教材ID\&quot;\n        string title_ja \&quot;日本語タイトル\&quot;\n        string title_en \&quot;英語タイトル\&quot;\n        string title_zh \&quot;中国語タイトル\&quot;\n        string content_ja \&quot;日本語コンテンツ\&quot;\n        string content_en \&quot;英語コンテンツ\&quot;\n        string content_zh \&quot;中国語コンテンツ\&quot;\n        string image_url \&quot;画像URL\&quot;\n        int difficulty \&quot;難易度(1-3)\&quot;\n    }\n    \n    POSTAL_CODE_CACHE {\n        string postal_code PK \&quot;郵便番号\&quot;\n        int prefecture_id FK \&quot;都道府県ID\&quot;\n        int municipality_id FK \&quot;市区町村ID\&quot;\n        string town \&quot;町域\&quot;\n        string street \&quot;番地等\&quot;\n        datetime last_updated \&quot;最終更新日時\&quot;\n    }&quot;&#xa;}" id="2">
                    <mxCell style="shape=image;noLabel=1;verticalAlign=top;imageAspect=1;image=data:image/svg+xml,PHN2ZyBhcmlhLXJvbGVkZXNjcmlwdGlvbj0iZXIiIHJvbGU9ImdyYXBoaWNzLWRvY3VtZW50IGRvY3VtZW50IiB2aWV3Qm94PSItODkuNjkxMDQ3NjY4NDU3MDMgMCAxNjY3LjEwMzM5MzU1NDY4NzUgMTI3Mi44MDAwNDg4MjgxMjUiIHN0eWxlPSJtYXgtd2lkdGg6IDE2NjcuMTAzMzkzNTU0Njg3NXB4OyIgeG1sbnM9Imh0dHA6Ly93d3cudzMub3JnLzIwMDAvc3ZnIiB3aWR0aD0iMTAwJSIgaWQ9ImdlTWVybWFpZE91dHB1dC0xNzQzNjY3NTY1OTk1Ij48c3R5bGU+I2dlTWVybWFpZE91dHB1dC0xNzQzNjY3NTY1OTk1e2ZvbnQtZmFtaWx5OiJ0cmVidWNoZXQgbXMiLHZlcmRhbmEsYXJpYWwsc2Fucy1zZXJpZjtmb250LXNpemU6MTZweDtmaWxsOiMwMDAwMDA7fSNnZU1lcm1haWRPdXRwdXQtMTc0MzY2NzU2NTk5NSAuZXJyb3ItaWNvbntmaWxsOiM1NTIyMjI7fSNnZU1lcm1haWRPdXRwdXQtMTc0MzY2NzU2NTk5NSAuZXJyb3ItdGV4dHtmaWxsOiM1NTIyMjI7c3Ryb2tlOiM1NTIyMjI7fSNnZU1lcm1haWRPdXRwdXQtMTc0MzY2NzU2NTk5NSAuZWRnZS10aGlja25lc3Mtbm9ybWFse3N0cm9rZS13aWR0aDoxcHg7fSNnZU1lcm1haWRPdXRwdXQtMTc0MzY2NzU2NTk5NSAuZWRnZS10aGlja25lc3MtdGhpY2t7c3Ryb2tlLXdpZHRoOjMuNXB4O30jZ2VNZXJtYWlkT3V0cHV0LTE3NDM2Njc1NjU5OTUgLmVkZ2UtcGF0dGVybi1zb2xpZHtzdHJva2UtZGFzaGFycmF5OjA7fSNnZU1lcm1haWRPdXRwdXQtMTc0MzY2NzU2NTk5NSAuZWRnZS10aGlja25lc3MtaW52aXNpYmxle3N0cm9rZS13aWR0aDowO2ZpbGw6bm9uZTt9I2dlTWVybWFpZE91dHB1dC0xNzQzNjY3NTY1OTk1IC5lZGdlLXBhdHRlcm4tZGFzaGVke3N0cm9rZS1kYXNoYXJyYXk6Mzt9I2dlTWVybWFpZE91dHB1dC0xNzQzNjY3NTY1OTk1IC5lZGdlLXBhdHRlcm4tZG90dGVke3N0cm9rZS1kYXNoYXJyYXk6Mjt9I2dlTWVybWFpZE91dHB1dC0xNzQzNjY3NTY1OTk1IC5tYXJrZXJ7ZmlsbDojNjY2O3N0cm9rZTojNjY2O30jZ2VNZXJtYWlkT3V0cHV0LTE3NDM2Njc1NjU5OTUgLm1hcmtlci5jcm9zc3tzdHJva2U6IzY2Njt9I2dlTWVybWFpZE91dHB1dC0xNzQzNjY3NTY1OTk1IHN2Z3tmb250LWZhbWlseToidHJlYnVjaGV0IG1zIix2ZXJkYW5hLGFyaWFsLHNhbnMtc2VyaWY7Zm9udC1zaXplOjE2cHg7fSNnZU1lcm1haWRPdXRwdXQtMTc0MzY2NzU2NTk5NSBwe21hcmdpbjowO30jZ2VNZXJtYWlkT3V0cHV0LTE3NDM2Njc1NjU5OTUgLmVudGl0eUJveHtmaWxsOiNlZWU7c3Ryb2tlOiM5OTk7fSNnZU1lcm1haWRPdXRwdXQtMTc0MzY2NzU2NTk5NSAuYXR0cmlidXRlQm94T2Rke2ZpbGw6I2ZmZmZmZjtzdHJva2U6Izk5OTt9I2dlTWVybWFpZE91dHB1dC0xNzQzNjY3NTY1OTk1IC5hdHRyaWJ1dGVCb3hFdmVue2ZpbGw6I2YyZjJmMjtzdHJva2U6Izk5OTt9I2dlTWVybWFpZE91dHB1dC0xNzQzNjY3NTY1OTk1IC5yZWxhdGlvbnNoaXBMYWJlbEJveHtmaWxsOmhzbCgtMTYwLCAwJSwgOTMuMzMzMzMzMzMzMyUpO29wYWNpdHk6MC43O2JhY2tncm91bmQtY29sb3I6aHNsKC0xNjAsIDAlLCA5My4zMzMzMzMzMzMzJSk7fSNnZU1lcm1haWRPdXRwdXQtMTc0MzY2NzU2NTk5NSAucmVsYXRpb25zaGlwTGFiZWxCb3ggcmVjdHtvcGFjaXR5OjAuNTt9I2dlTWVybWFpZE91dHB1dC0xNzQzNjY3NTY1OTk1IC5yZWxhdGlvbnNoaXBMaW5le3N0cm9rZTojNjY2O30jZ2VNZXJtYWlkT3V0cHV0LTE3NDM2Njc1NjU5OTUgLmVudGl0eVRpdGxlVGV4dHt0ZXh0LWFuY2hvcjptaWRkbGU7Zm9udC1zaXplOjE4cHg7ZmlsbDojMDAwMDAwO30jZ2VNZXJtYWlkT3V0cHV0LTE3NDM2Njc1NjU5OTUgI01EX1BBUkVOVF9TVEFSVHtmaWxsOiNmNWY1ZjUhaW1wb3J0YW50O3N0cm9rZTojNjY2IWltcG9ydGFudDtzdHJva2Utd2lkdGg6MTt9I2dlTWVybWFpZE91dHB1dC0xNzQzNjY3NTY1OTk1ICNNRF9QQVJFTlRfRU5Ee2ZpbGw6I2Y1ZjVmNSFpbXBvcnRhbnQ7c3Ryb2tlOiM2NjYhaW1wb3J0YW50O3N0cm9rZS13aWR0aDoxO30jZ2VNZXJtYWlkT3V0cHV0LTE3NDM2Njc1NjU5OTUgOnJvb3R7LS1tZXJtYWlkLWZvbnQtZmFtaWx5OiJ0cmVidWNoZXQgbXMiLHZlcmRhbmEsYXJpYWwsc2Fucy1zZXJpZjt9PC9zdHlsZT48Zz48L2c+PGRlZnM+PG1hcmtlciBvcmllbnQ9ImF1dG8iIG1hcmtlckhlaWdodD0iMjQwIiBtYXJrZXJXaWR0aD0iMTkwIiByZWZZPSI3IiByZWZYPSIwIiBpZD0iTURfUEFSRU5UX1NUQVJUIj48cGF0aCBkPSJNIDE4LDcgTDksMTMgTDEsNyBMOSwxIFoiPjwvcGF0aD48L21hcmtlcj48L2RlZnM+PGRlZnM+PG1hcmtlciBvcmllbnQ9ImF1dG8iIG1hcmtlckhlaWdodD0iMjgiIG1hcmtlcldpZHRoPSIyMCIgcmVmWT0iNyIgcmVmWD0iMTkiIGlkPSJNRF9QQVJFTlRfRU5EIj48cGF0aCBkPSJNIDE4LDcgTDksMTMgTDEsNyBMOSwxIFoiPjwvcGF0aD48L21hcmtlcj48L2RlZnM+PGRlZnM+PG1hcmtlciBvcmllbnQ9ImF1dG8iIG1hcmtlckhlaWdodD0iMTgiIG1hcmtlcldpZHRoPSIxOCIgcmVmWT0iOSIgcmVmWD0iMCIgaWQ9Ik9OTFlfT05FX1NUQVJUIj48cGF0aCBkPSJNOSwwIEw5LDE4IE0xNSwwIEwxNSwxOCIgZmlsbD0ibm9uZSIgc3Ryb2tlPSJncmF5Ij48L3BhdGg+PC9tYXJrZXI+PC9kZWZzPjxkZWZzPjxtYXJrZXIgb3JpZW50PSJhdXRvIiBtYXJrZXJIZWlnaHQ9IjE4IiBtYXJrZXJXaWR0aD0iMTgiIHJlZlk9IjkiIHJlZlg9IjE4IiBpZD0iT05MWV9PTkVfRU5EIj48cGF0aCBkPSJNMywwIEwzLDE4IE05LDAgTDksMTgiIGZpbGw9Im5vbmUiIHN0cm9rZT0iZ3JheSI+PC9wYXRoPjwvbWFya2VyPjwvZGVmcz48ZGVmcz48bWFya2VyIG9yaWVudD0iYXV0byIgbWFya2VySGVpZ2h0PSIxOCIgbWFya2VyV2lkdGg9IjMwIiByZWZZPSI5IiByZWZYPSIwIiBpZD0iWkVST19PUl9PTkVfU1RBUlQiPjxjaXJjbGUgcj0iNiIgY3k9IjkiIGN4PSIyMSIgZmlsbD0id2hpdGUiIHN0cm9rZT0iZ3JheSI+PC9jaXJjbGU+PHBhdGggZD0iTTksMCBMOSwxOCIgZmlsbD0ibm9uZSIgc3Ryb2tlPSJncmF5Ij48L3BhdGg+PC9tYXJrZXI+PC9kZWZzPjxkZWZzPjxtYXJrZXIgb3JpZW50PSJhdXRvIiBtYXJrZXJIZWlnaHQ9IjE4IiBtYXJrZXJXaWR0aD0iMzAiIHJlZlk9IjkiIHJlZlg9IjMwIiBpZD0iWkVST19PUl9PTkVfRU5EIj48Y2lyY2xlIHI9IjYiIGN5PSI5IiBjeD0iOSIgZmlsbD0id2hpdGUiIHN0cm9rZT0iZ3JheSI+PC9jaXJjbGU+PHBhdGggZD0iTTIxLDAgTDIxLDE4IiBmaWxsPSJub25lIiBzdHJva2U9ImdyYXkiPjwvcGF0aD48L21hcmtlcj48L2RlZnM+PGRlZnM+PG1hcmtlciBvcmllbnQ9ImF1dG8iIG1hcmtlckhlaWdodD0iMzYiIG1hcmtlcldpZHRoPSI0NSIgcmVmWT0iMTgiIHJlZlg9IjE4IiBpZD0iT05FX09SX01PUkVfU1RBUlQiPjxwYXRoIGQ9Ik0wLDE4IFEgMTgsMCAzNiwxOCBRIDE4LDM2IDAsMTggTTQyLDkgTDQyLDI3IiBmaWxsPSJub25lIiBzdHJva2U9ImdyYXkiPjwvcGF0aD48L21hcmtlcj48L2RlZnM+PGRlZnM+PG1hcmtlciBvcmllbnQ9ImF1dG8iIG1hcmtlckhlaWdodD0iMzYiIG1hcmtlcldpZHRoPSI0NSIgcmVmWT0iMTgiIHJlZlg9IjI3IiBpZD0iT05FX09SX01PUkVfRU5EIj48cGF0aCBkPSJNMyw5IEwzLDI3IE05LDE4IFEyNywwIDQ1LDE4IFEyNywzNiA5LDE4IiBmaWxsPSJub25lIiBzdHJva2U9ImdyYXkiPjwvcGF0aD48L21hcmtlcj48L2RlZnM+PGRlZnM+PG1hcmtlciBvcmllbnQ9ImF1dG8iIG1hcmtlckhlaWdodD0iMzYiIG1hcmtlcldpZHRoPSI1NyIgcmVmWT0iMTgiIHJlZlg9IjE4IiBpZD0iWkVST19PUl9NT1JFX1NUQVJUIj48Y2lyY2xlIHI9IjYiIGN5PSIxOCIgY3g9IjQ4IiBmaWxsPSJ3aGl0ZSIgc3Ryb2tlPSJncmF5Ij48L2NpcmNsZT48cGF0aCBkPSJNMCwxOCBRMTgsMCAzNiwxOCBRMTgsMzYgMCwxOCIgZmlsbD0ibm9uZSIgc3Ryb2tlPSJncmF5Ij48L3BhdGg+PC9tYXJrZXI+PC9kZWZzPjxkZWZzPjxtYXJrZXIgb3JpZW50PSJhdXRvIiBtYXJrZXJIZWlnaHQ9IjM2IiBtYXJrZXJXaWR0aD0iNTciIHJlZlk9IjE4IiByZWZYPSIzOSIgaWQ9IlpFUk9fT1JfTU9SRV9FTkQiPjxjaXJjbGUgcj0iNiIgY3k9IjE4IiBjeD0iOSIgZmlsbD0id2hpdGUiIHN0cm9rZT0iZ3JheSI+PC9jaXJjbGU+PHBhdGggZD0iTTIxLDE4IFEzOSwwIDU3LDE4IFEzOSwzNiAyMSwxOCIgZmlsbD0ibm9uZSIgc3Ryb2tlPSJncmF5Ij48L3BhdGg+PC9tYXJrZXI+PC9kZWZzPjxwYXRoIHN0eWxlPSJzdHJva2U6IGdyYXk7IGZpbGw6IG5vbmU7IiBtYXJrZXItc3RhcnQ9InVybCgjT05MWV9PTkVfU1RBUlQpIiBtYXJrZXItZW5kPSJ1cmwoI1pFUk9fT1JfTU9SRV9FTkQpIiBkPSJNNzUuMzQ5LDQ5My41MzdMNTcuMzA5LDUwNi4yODFDMzkuMjY4LDUxOS4wMjUsMy4xODgsNTQ0LjUxMiwtMTQuODUzLDU4OS41NTZDLTMyLjg5Myw2MzQuNiwtMzIuODkzLDY5OS4yLC0zMi44OTMsNzYzLjhDLTMyLjg5Myw4MjguNCwtMzIuODkzLDg5MywtMTUuNjY3LDk0MS4xQzEuNTYsOTg5LjIsMzYuMDEzLDEwMjAuOCw1My4yNCwxMDM2LjZMNzAuNDY3LDEwNTIuNCIgY2xhc3M9ImVyIHJlbGF0aW9uc2hpcExpbmUiPjwvcGF0aD48cGF0aCBzdHlsZT0ic3Ryb2tlOiBncmF5OyBmaWxsOiBub25lOyIgbWFya2VyLXN0YXJ0PSJ1cmwoI09OTFlfT05FX1NUQVJUKSIgbWFya2VyLWVuZD0idXJsKCNaRVJPX09SX01PUkVfRU5EKSIgZD0iTTIxMC44NzcsNTIwTDIxMC44NzcsNTI4LjMzM0MyMTAuODc3LDUzNi42NjcsMjEwLjg3Nyw1NTMuMzMzLDIxMC44NzcsNTgwLjkzM0MyMTAuODc3LDYwOC41MzMsMjEwLjg3Nyw2NDcuMDY3LDIxMC44NzcsNjY2LjMzM0wyMTAuODc3LDY4NS42IiBjbGFzcz0iZXIgcmVsYXRpb25zaGlwTGluZSI+PC9wYXRoPjxwYXRoIHN0eWxlPSJzdHJva2U6IGdyYXk7IGZpbGw6IG5vbmU7IiBtYXJrZXItc3RhcnQ9InVybCgjT05FX09SX01PUkVfU1RBUlQpIiBtYXJrZXItZW5kPSJ1cmwoI09OTFlfT05FX0VORCkiIGQ9Ik0zNDYuNDA1LDQ5Ni44OTJMMzYzLjA3LDUwOS4wNzdDMzc5LjczNSw1MjEuMjYxLDQxMy4wNjUsNTQ1LjYzMSw0NDAuNjg1LDU3My40ODJDNDY4LjMwNSw2MDEuMzMzLDQ5MC4yMTUsNjMyLjY2Nyw1MDEuMTcsNjQ4LjMzM0w1MTIuMTI1LDY2NCIgY2xhc3M9ImVyIHJlbGF0aW9uc2hpcExpbmUiPjwvcGF0aD48cGF0aCBzdHlsZT0ic3Ryb2tlOiBncmF5OyBmaWxsOiBub25lOyIgbWFya2VyLXN0YXJ0PSJ1cmwoI09OTFlfT05FX1NUQVJUKSIgbWFya2VyLWVuZD0idXJsKCNaRVJPX09SX01PUkVfRU5EKSIgZD0iTTkzMC42NDgsOTA3LjZMOTMwLjY0OCw5MTUuOTMzQzkzMC42NDgsOTI0LjI2Nyw5MzAuNjQ4LDk0MC45MzMsODIzLjk3MSw5NzMuMDE0QzcxNy4yOTMsMTAwNS4wOTQsNTAzLjkzOCwxMDUyLjU4OSwzOTcuMjYsMTA3Ni4zMzZMMjkwLjU4MywxMTAwLjA4MyIgY2xhc3M9ImVyIHJlbGF0aW9uc2hpcExpbmUiPjwvcGF0aD48cGF0aCBzdHlsZT0ic3Ryb2tlOiBncmF5OyBmaWxsOiBub25lOyIgbWFya2VyLXN0YXJ0PSJ1cmwoI09OTFlfT05FX1NUQVJUKSIgbWFya2VyLWVuZD0idXJsKCNaRVJPX09SX01PUkVfRU5EKSIgZD0iTTU4MS45MTIsODYzLjZMNTgxLjkxMiw4NzkuMjY3QzU4MS45MTIsODk0LjkzMyw1ODEuOTEyLDkyNi4yNjcsNTg1LjE1NCw5NTAuMjY3QzU4OC4zOTcsOTc0LjI2Nyw1OTQuODgxLDk5MC45MzMsNTk4LjEyNCw5OTkuMjY3TDYwMS4zNjYsMTAwNy42IiBjbGFzcz0iZXIgcmVsYXRpb25zaGlwTGluZSI+PC9wYXRoPjxwYXRoIHN0eWxlPSJzdHJva2U6IGdyYXk7IGZpbGw6IG5vbmU7IiBtYXJrZXItc3RhcnQ9InVybCgjT05MWV9PTkVfU1RBUlQpIiBtYXJrZXItZW5kPSJ1cmwoI1pFUk9fT1JfTU9SRV9FTkQpIiBkPSJNMTAwNC44NDgsOTA3LjZMMTAwOS4xNDgsOTE1LjkzM0MxMDEzLjQ0OCw5MjQuMjY3LDEwMjIuMDQ4LDk0MC45MzMsOTg1LjY2MSw5NjcuNjcxQzk0OS4yNzMsOTk0LjQwOCw4NjcuODk4LDEwMzEuMjE2LDgyNy4yMTEsMTA0OS42MjFMNzg2LjUyMywxMDY4LjAyNSIgY2xhc3M9ImVyIHJlbGF0aW9uc2hpcExpbmUiPjwvcGF0aD48cGF0aCBzdHlsZT0ic3Ryb2tlOiBncmF5OyBmaWxsOiBub25lOyIgbWFya2VyLXN0YXJ0PSJ1cmwoI09OTFlfT05FX1NUQVJUKSIgbWFya2VyLWVuZD0idXJsKCNaRVJPX09SX01PUkVfRU5EKSIgZD0iTTgyMy40MzYsNTA5TDgyMy40MzYsNTE5LjE2N0M4MjMuNDM2LDUyOS4zMzMsODIzLjQzNiw1NDkuNjY3LDgyOC4wNDYsNTY4LjE2N0M4MzIuNjU2LDU4Ni42NjcsODQxLjg3Niw2MDMuMzMzLDg0Ni40ODYsNjExLjY2N0w4NTEuMDk2LDYyMCIgY2xhc3M9ImVyIHJlbGF0aW9uc2hpcExpbmUiPjwvcGF0aD48cGF0aCBzdHlsZT0ic3Ryb2tlOiBncmF5OyBmaWxsOiBub25lOyIgbWFya2VyLXN0YXJ0PSJ1cmwoI09OTFlfT05FX1NUQVJUKSIgbWFya2VyLWVuZD0idXJsKCNaRVJPX09SX01PUkVfRU5EKSIgZD0iTTExMzUuNzAzLDE2NC42TDExMzUuNzAzLDE3NC43NjdDMTEzNS43MDMsMTg0LjkzMywxMTM1LjcwMywyMDUuMjY3LDExMzUuNzAzLDIzMS4xNjdDMTEzNS43MDMsMjU3LjA2NywxMTM1LjcwMywyODguNTMzLDExMzUuNzAzLDMwNC4yNjdMMTEzNS43MDMsMzIwIiBjbGFzcz0iZXIgcmVsYXRpb25zaGlwTGluZSI+PC9wYXRoPjxwYXRoIHN0eWxlPSJzdHJva2U6IGdyYXk7IGZpbGw6IG5vbmU7IiBtYXJrZXItc3RhcnQ9InVybCgjT05MWV9PTkVfU1RBUlQpIiBtYXJrZXItZW5kPSJ1cmwoI1pFUk9fT1JfTU9SRV9FTkQpIiBkPSJNMTEzNS43MDMsNDc1LjZMMTEzNS43MDMsNDkxLjMzM0MxMTM1LjcwMyw1MDcuMDY3LDExMzUuNzAzLDUzOC41MzMsMTA2NC42MTUsNTc5LjE0NEM5OTMuNTI3LDYxOS43NTUsODUxLjM1Miw2NjkuNTA5LDc4MC4yNjQsNjk0LjM4Nkw3MDkuMTc2LDcxOS4yNjQiIGNsYXNzPSJlciByZWxhdGlvbnNoaXBMaW5lIj48L3BhdGg+PGcgdHJhbnNmb3JtPSJ0cmFuc2xhdGUoNzUuMzQ5MTc0NDk5NTExNzIsMjc1LjYwMDAwNjEwMzUxNTYgKSIgaWQ9ImVudGl0eS1VU0VSUy0xZTgyZTM5NS05MzZjLTU3YTctOGJhOS1iMDhmMDM1NzRiOTMiPjxyZWN0IGhlaWdodD0iMjQ0LjQwMDAwMDU3MjIwNDYiIHdpZHRoPSIyNzEuMDU2MjU0Mzg2OTAxODYiIHk9IjAiIHg9IjAiIGNsYXNzPSJlciBlbnRpdHlCb3giPjwvcmVjdD48dGV4dCBzdHlsZT0iZG9taW5hbnQtYmFzZWxpbmU6IG1pZGRsZTsgdGV4dC1hbmNob3I6IG1pZGRsZTsgZm9udC1zaXplOiAxMnB4OyIgdHJhbnNmb3JtPSJ0cmFuc2xhdGUoMTM1LjUyODEyNzE5MzQ1MDkzLDExLjgwMDAwMDE5MDczNDg2MykiIHk9IjAiIHg9IjAiIGlkPSJ0ZXh0LWVudGl0eS1VU0VSUy0xZTgyZTM5NS05MzZjLTU3YTctOGJhOS1iMDhmMDM1NzRiOTMiIGNsYXNzPSJlciBlbnRpdHlMYWJlbCI+VVNFUlM8L3RleHQ+PHJlY3QgaGVpZ2h0PSIyMiIgd2lkdGg9IjUxLjY2ODU1NjIxMzM3ODkwNiIgeT0iMjMuNjAwMDAwMzgxNDY5NzI3IiB4PSIwIiBjbGFzcz0iZXIgYXR0cmlidXRlQm94T2RkIj48L3JlY3Q+PHRleHQgc3R5bGU9ImRvbWluYW50LWJhc2VsaW5lOiBtaWRkbGU7IGZvbnQtc2l6ZTogMTAuMnB4OyIgdHJhbnNmb3JtPSJ0cmFuc2xhdGUoNSwzNC42MDAwMDAzODE0Njk3MykiIHk9IjAiIHg9IjAiIGlkPSJ0ZXh0LWVudGl0eS1VU0VSUy0xZTgyZTM5NS05MzZjLTU3YTctOGJhOS1iMDhmMDM1NzRiOTMtYXR0ci0xLXR5cGUiIGNsYXNzPSJlciBlbnRpdHlMYWJlbCI+aW50PC90ZXh0PjxyZWN0IGhlaWdodD0iMjIiIHdpZHRoPSI5NC43MDAwMDQ1Nzc2MzY3MiIgeT0iMjMuNjAwMDAwMzgxNDY5NzI3IiB4PSI1MS42Njg1NTYyMTMzNzg5MDYiIGNsYXNzPSJlciBhdHRyaWJ1dGVCb3hPZGQiPjwvcmVjdD48dGV4dCBzdHlsZT0iZG9taW5hbnQtYmFzZWxpbmU6IG1pZGRsZTsgZm9udC1zaXplOiAxMC4ycHg7IiB0cmFuc2Zvcm09InRyYW5zbGF0ZSg1Ni42Njg1NTYyMTMzNzg5MDYsMzQuNjAwMDAwMzgxNDY5NzMpIiB5PSIwIiB4PSIwIiBpZD0idGV4dC1lbnRpdHktVVNFUlMtMWU4MmUzOTUtOTM2Yy01N2E3LThiYTktYjA4ZjAzNTc0YjkzLWF0dHItMS1uYW1lIiBjbGFzcz0iZXIgZW50aXR5TGFiZWwiPmlkPC90ZXh0PjxyZWN0IGhlaWdodD0iMjIiIHdpZHRoPSIyMi4wODc2OTUxMjE3NjUxMzciIHk9IjIzLjYwMDAwMDM4MTQ2OTcyNyIgeD0iMTQ2LjM2ODU2MDc5MTAxNTYyIiBjbGFzcz0iZXIgYXR0cmlidXRlQm94T2RkIj48L3JlY3Q+PHRleHQgc3R5bGU9ImRvbWluYW50LWJhc2VsaW5lOiBtaWRkbGU7IGZvbnQtc2l6ZTogMTAuMnB4OyIgdHJhbnNmb3JtPSJ0cmFuc2xhdGUoMTUxLjM2ODU2MDc5MTAxNTYyLDM0LjYwMDAwMDM4MTQ2OTczKSIgeT0iMCIgeD0iMCIgaWQ9InRleHQtZW50aXR5LVVTRVJTLTFlODJlMzk1LTkzNmMtNTdhNy04YmE5LWIwOGYwMzU3NGI5My1hdHRyLTEta2V5IiBjbGFzcz0iZXIgZW50aXR5TGFiZWwiPlBLPC90ZXh0PjxyZWN0IGhlaWdodD0iMjIiIHdpZHRoPSIxMDIuNTk5OTk4NDc0MTIxMSIgeT0iMjMuNjAwMDAwMzgxNDY5NzI3IiB4PSIxNjguNDU2MjU1OTEyNzgwNzYiIGNsYXNzPSJlciBhdHRyaWJ1dGVCb3hPZGQiPjwvcmVjdD48dGV4dCBzdHlsZT0iZG9taW5hbnQtYmFzZWxpbmU6IG1pZGRsZTsgZm9udC1zaXplOiAxMC4ycHg7IiB0cmFuc2Zvcm09InRyYW5zbGF0ZSgxNzMuNDU2MjU1OTEyNzgwNzYsMzQuNjAwMDAwMzgxNDY5NzMpIiB5PSIwIiB4PSIwIiBpZD0idGV4dC1lbnRpdHktVVNFUlMtMWU4MmUzOTUtOTM2Yy01N2E3LThiYTktYjA4ZjAzNTc0YjkzLWF0dHItMS1jb21tZW50IiBjbGFzcz0iZXIgZW50aXR5TGFiZWwiPuODpuODvOOCtuODvElEPC90ZXh0PjxyZWN0IGhlaWdodD0iMjIiIHdpZHRoPSI1MS42Njg1NTYyMTMzNzg5MDYiIHk9IjQ1LjYwMDAwMDM4MTQ2OTczIiB4PSIwIiBjbGFzcz0iZXIgYXR0cmlidXRlQm94RXZlbiI+PC9yZWN0Pjx0ZXh0IHN0eWxlPSJkb21pbmFudC1iYXNlbGluZTogbWlkZGxlOyBmb250LXNpemU6IDEwLjJweDsiIHRyYW5zZm9ybT0idHJhbnNsYXRlKDUsNTYuNjAwMDAwMzgxNDY5NzMpIiB5PSIwIiB4PSIwIiBpZD0idGV4dC1lbnRpdHktVVNFUlMtMWU4MmUzOTUtOTM2Yy01N2E3LThiYTktYjA4ZjAzNTc0YjkzLWF0dHItMi10eXBlIiBjbGFzcz0iZXIgZW50aXR5TGFiZWwiPnN0cmluZzwvdGV4dD48cmVjdCBoZWlnaHQ9IjIyIiB3aWR0aD0iOTQuNzAwMDA0NTc3NjM2NzIiIHk9IjQ1LjYwMDAwMDM4MTQ2OTczIiB4PSI1MS42Njg1NTYyMTMzNzg5MDYiIGNsYXNzPSJlciBhdHRyaWJ1dGVCb3hFdmVuIj48L3JlY3Q+PHRleHQgc3R5bGU9ImRvbWluYW50LWJhc2VsaW5lOiBtaWRkbGU7IGZvbnQtc2l6ZTogMTAuMnB4OyIgdHJhbnNmb3JtPSJ0cmFuc2xhdGUoNTYuNjY4NTU2MjEzMzc4OTA2LDU2LjYwMDAwMDM4MTQ2OTczKSIgeT0iMCIgeD0iMCIgaWQ9InRleHQtZW50aXR5LVVTRVJTLTFlODJlMzk1LTkzNmMtNTdhNy04YmE5LWIwOGYwMzU3NGI5My1hdHRyLTItbmFtZSIgY2xhc3M9ImVyIGVudGl0eUxhYmVsIj51c2VybmFtZTwvdGV4dD48cmVjdCBoZWlnaHQ9IjIyIiB3aWR0aD0iMjIuMDg3Njk1MTIxNzY1MTM3IiB5PSI0NS42MDAwMDAzODE0Njk3MyIgeD0iMTQ2LjM2ODU2MDc5MTAxNTYyIiBjbGFzcz0iZXIgYXR0cmlidXRlQm94RXZlbiI+PC9yZWN0Pjx0ZXh0IHN0eWxlPSJkb21pbmFudC1iYXNlbGluZTogbWlkZGxlOyBmb250LXNpemU6IDEwLjJweDsiIHRyYW5zZm9ybT0idHJhbnNsYXRlKDE1MS4zNjg1NjA3OTEwMTU2Miw1Ni42MDAwMDAzODE0Njk3MykiIHk9IjAiIHg9IjAiIGlkPSJ0ZXh0LWVudGl0eS1VU0VSUy0xZTgyZTM5NS05MzZjLTU3YTctOGJhOS1iMDhmMDM1NzRiOTMtYXR0ci0yLWtleSIgY2xhc3M9ImVyIGVudGl0eUxhYmVsIj48L3RleHQ+PHJlY3QgaGVpZ2h0PSIyMiIgd2lkdGg9IjEwMi41OTk5OTg0NzQxMjExIiB5PSI0NS42MDAwMDAzODE0Njk3MyIgeD0iMTY4LjQ1NjI1NTkxMjc4MDc2IiBjbGFzcz0iZXIgYXR0cmlidXRlQm94RXZlbiI+PC9yZWN0Pjx0ZXh0IHN0eWxlPSJkb21pbmFudC1iYXNlbGluZTogbWlkZGxlOyBmb250LXNpemU6IDEwLjJweDsiIHRyYW5zZm9ybT0idHJhbnNsYXRlKDE3My40NTYyNTU5MTI3ODA3Niw1Ni42MDAwMDAzODE0Njk3MykiIHk9IjAiIHg9IjAiIGlkPSJ0ZXh0LWVudGl0eS1VU0VSUy0xZTgyZTM5NS05MzZjLTU3YTctOGJhOS1iMDhmMDM1NzRiOTMtYXR0ci0yLWNvbW1lbnQiIGNsYXNzPSJlciBlbnRpdHlMYWJlbCI+44Om44O844K244O85ZCNPC90ZXh0PjxyZWN0IGhlaWdodD0iMjIiIHdpZHRoPSI1MS42Njg1NTYyMTMzNzg5MDYiIHk9IjY3LjYwMDAwMDM4MTQ2OTczIiB4PSIwIiBjbGFzcz0iZXIgYXR0cmlidXRlQm94T2RkIj48L3JlY3Q+PHRleHQgc3R5bGU9ImRvbWluYW50LWJhc2VsaW5lOiBtaWRkbGU7IGZvbnQtc2l6ZTogMTAuMnB4OyIgdHJhbnNmb3JtPSJ0cmFuc2xhdGUoNSw3OC42MDAwMDAzODE0Njk3MykiIHk9IjAiIHg9IjAiIGlkPSJ0ZXh0LWVudGl0eS1VU0VSUy0xZTgyZTM5NS05MzZjLTU3YTctOGJhOS1iMDhmMDM1NzRiOTMtYXR0ci0zLXR5cGUiIGNsYXNzPSJlciBlbnRpdHlMYWJlbCI+c3RyaW5nPC90ZXh0PjxyZWN0IGhlaWdodD0iMjIiIHdpZHRoPSI5NC43MDAwMDQ1Nzc2MzY3MiIgeT0iNjcuNjAwMDAwMzgxNDY5NzMiIHg9IjUxLjY2ODU1NjIxMzM3ODkwNiIgY2xhc3M9ImVyIGF0dHJpYnV0ZUJveE9kZCI+PC9yZWN0Pjx0ZXh0IHN0eWxlPSJkb21pbmFudC1iYXNlbGluZTogbWlkZGxlOyBmb250LXNpemU6IDEwLjJweDsiIHRyYW5zZm9ybT0idHJhbnNsYXRlKDU2LjY2ODU1NjIxMzM3ODkwNiw3OC42MDAwMDAzODE0Njk3MykiIHk9IjAiIHg9IjAiIGlkPSJ0ZXh0LWVudGl0eS1VU0VSUy0xZTgyZTM5NS05MzZjLTU3YTctOGJhOS1iMDhmMDM1NzRiOTMtYXR0ci0zLW5hbWUiIGNsYXNzPSJlciBlbnRpdHlMYWJlbCI+ZW1haWw8L3RleHQ+PHJlY3QgaGVpZ2h0PSIyMiIgd2lkdGg9IjIyLjA4NzY5NTEyMTc2NTEzNyIgeT0iNjcuNjAwMDAwMzgxNDY5NzMiIHg9IjE0Ni4zNjg1NjA3OTEwMTU2MiIgY2xhc3M9ImVyIGF0dHJpYnV0ZUJveE9kZCI+PC9yZWN0Pjx0ZXh0IHN0eWxlPSJkb21pbmFudC1iYXNlbGluZTogbWlkZGxlOyBmb250LXNpemU6IDEwLjJweDsiIHRyYW5zZm9ybT0idHJhbnNsYXRlKDE1MS4zNjg1NjA3OTEwMTU2Miw3OC42MDAwMDAzODE0Njk3MykiIHk9IjAiIHg9IjAiIGlkPSJ0ZXh0LWVudGl0eS1VU0VSUy0xZTgyZTM5NS05MzZjLTU3YTctOGJhOS1iMDhmMDM1NzRiOTMtYXR0ci0zLWtleSIgY2xhc3M9ImVyIGVudGl0eUxhYmVsIj48L3RleHQ+PHJlY3QgaGVpZ2h0PSIyMiIgd2lkdGg9IjEwMi41OTk5OTg0NzQxMjExIiB5PSI2Ny42MDAwMDAzODE0Njk3MyIgeD0iMTY4LjQ1NjI1NTkxMjc4MDc2IiBjbGFzcz0iZXIgYXR0cmlidXRlQm94T2RkIj48L3JlY3Q+PHRleHQgc3R5bGU9ImRvbWluYW50LWJhc2VsaW5lOiBtaWRkbGU7IGZvbnQtc2l6ZTogMTAuMnB4OyIgdHJhbnNmb3JtPSJ0cmFuc2xhdGUoMTczLjQ1NjI1NTkxMjc4MDc2LDc4LjYwMDAwMDM4MTQ2OTczKSIgeT0iMCIgeD0iMCIgaWQ9InRleHQtZW50aXR5LVVTRVJTLTFlODJlMzk1LTkzNmMtNTdhNy04YmE5LWIwOGYwMzU3NGI5My1hdHRyLTMtY29tbWVudCIgY2xhc3M9ImVyIGVudGl0eUxhYmVsIj7jg6Hjg7zjg6vjgqLjg4njg6zjgrk8L3RleHQ+PHJlY3QgaGVpZ2h0PSIyMiIgd2lkdGg9IjUxLjY2ODU1NjIxMzM3ODkwNiIgeT0iODkuNjAwMDAwMzgxNDY5NzMiIHg9IjAiIGNsYXNzPSJlciBhdHRyaWJ1dGVCb3hFdmVuIj48L3JlY3Q+PHRleHQgc3R5bGU9ImRvbWluYW50LWJhc2VsaW5lOiBtaWRkbGU7IGZvbnQtc2l6ZTogMTAuMnB4OyIgdHJhbnNmb3JtPSJ0cmFuc2xhdGUoNSwxMDAuNjAwMDAwMzgxNDY5NzMpIiB5PSIwIiB4PSIwIiBpZD0idGV4dC1lbnRpdHktVVNFUlMtMWU4MmUzOTUtOTM2Yy01N2E3LThiYTktYjA4ZjAzNTc0YjkzLWF0dHItNC10eXBlIiBjbGFzcz0iZXIgZW50aXR5TGFiZWwiPnN0cmluZzwvdGV4dD48cmVjdCBoZWlnaHQ9IjIyIiB3aWR0aD0iOTQuNzAwMDA0NTc3NjM2NzIiIHk9Ijg5LjYwMDAwMDM4MTQ2OTczIiB4PSI1MS42Njg1NTYyMTMzNzg5MDYiIGNsYXNzPSJlciBhdHRyaWJ1dGVCb3hFdmVuIj48L3JlY3Q+PHRleHQgc3R5bGU9ImRvbWluYW50LWJhc2VsaW5lOiBtaWRkbGU7IGZvbnQtc2l6ZTogMTAuMnB4OyIgdHJhbnNmb3JtPSJ0cmFuc2xhdGUoNTYuNjY4NTU2MjEzMzc4OTA2LDEwMC42MDAwMDAzODE0Njk3MykiIHk9IjAiIHg9IjAiIGlkPSJ0ZXh0LWVudGl0eS1VU0VSUy0xZTgyZTM5NS05MzZjLTU3YTctOGJhOS1iMDhmMDM1NzRiOTMtYXR0ci00LW5hbWUiIGNsYXNzPSJlciBlbnRpdHlMYWJlbCI+cGFzc3dvcmRfaGFzaDwvdGV4dD48cmVjdCBoZWlnaHQ9IjIyIiB3aWR0aD0iMjIuMDg3Njk1MTIxNzY1MTM3IiB5PSI4OS42MDAwMDAzODE0Njk3MyIgeD0iMTQ2LjM2ODU2MDc5MTAxNTYyIiBjbGFzcz0iZXIgYXR0cmlidXRlQm94RXZlbiI+PC9yZWN0Pjx0ZXh0IHN0eWxlPSJkb21pbmFudC1iYXNlbGluZTogbWlkZGxlOyBmb250LXNpemU6IDEwLjJweDsiIHRyYW5zZm9ybT0idHJhbnNsYXRlKDE1MS4zNjg1NjA3OTEwMTU2MiwxMDAuNjAwMDAwMzgxNDY5NzMpIiB5PSIwIiB4PSIwIiBpZD0idGV4dC1lbnRpdHktVVNFUlMtMWU4MmUzOTUtOTM2Yy01N2E3LThiYTktYjA4ZjAzNTc0YjkzLWF0dHItNC1rZXkiIGNsYXNzPSJlciBlbnRpdHlMYWJlbCI+PC90ZXh0PjxyZWN0IGhlaWdodD0iMjIiIHdpZHRoPSIxMDIuNTk5OTk4NDc0MTIxMSIgeT0iODkuNjAwMDAwMzgxNDY5NzMiIHg9IjE2OC40NTYyNTU5MTI3ODA3NiIgY2xhc3M9ImVyIGF0dHJpYnV0ZUJveEV2ZW4iPjwvcmVjdD48dGV4dCBzdHlsZT0iZG9taW5hbnQtYmFzZWxpbmU6IG1pZGRsZTsgZm9udC1zaXplOiAxMC4ycHg7IiB0cmFuc2Zvcm09InRyYW5zbGF0ZSgxNzMuNDU2MjU1OTEyNzgwNzYsMTAwLjYwMDAwMDM4MTQ2OTczKSIgeT0iMCIgeD0iMCIgaWQ9InRleHQtZW50aXR5LVVTRVJTLTFlODJlMzk1LTkzNmMtNTdhNy04YmE5LWIwOGYwMzU3NGI5My1hdHRyLTQtY29tbWVudCIgY2xhc3M9ImVyIGVudGl0eUxhYmVsIj7jg5Hjgrnjg6/jg7zjg4njg4/jg4Pjgrfjg6U8L3RleHQ+PHJlY3QgaGVpZ2h0PSIyMi44MDAwMDAxOTA3MzQ4NjMiIHdpZHRoPSI1MS42Njg1NTYyMTMzNzg5MDYiIHk9IjExMS42MDAwMDAzODE0Njk3MyIgeD0iMCIgY2xhc3M9ImVyIGF0dHJpYnV0ZUJveE9kZCI+PC9yZWN0Pjx0ZXh0IHN0eWxlPSJkb21pbmFudC1iYXNlbGluZTogbWlkZGxlOyBmb250LXNpemU6IDEwLjJweDsiIHRyYW5zZm9ybT0idHJhbnNsYXRlKDUsMTIzLjAwMDAwMDQ3NjgzNzE2KSIgeT0iMCIgeD0iMCIgaWQ9InRleHQtZW50aXR5LVVTRVJTLTFlODJlMzk1LTkzNmMtNTdhNy04YmE5LWIwOGYwMzU3NGI5My1hdHRyLTUtdHlwZSIgY2xhc3M9ImVyIGVudGl0eUxhYmVsIj5zdHJpbmc8L3RleHQ+PHJlY3QgaGVpZ2h0PSIyMi44MDAwMDAxOTA3MzQ4NjMiIHdpZHRoPSI5NC43MDAwMDQ1Nzc2MzY3MiIgeT0iMTExLjYwMDAwMDM4MTQ2OTczIiB4PSI1MS42Njg1NTYyMTMzNzg5MDYiIGNsYXNzPSJlciBhdHRyaWJ1dGVCb3hPZGQiPjwvcmVjdD48dGV4dCBzdHlsZT0iZG9taW5hbnQtYmFzZWxpbmU6IG1pZGRsZTsgZm9udC1zaXplOiAxMC4ycHg7IiB0cmFuc2Zvcm09InRyYW5zbGF0ZSg1Ni42Njg1NTYyMTMzNzg5MDYsMTIzLjAwMDAwMDQ3NjgzNzE2KSIgeT0iMCIgeD0iMCIgaWQ9InRleHQtZW50aXR5LVVTRVJTLTFlODJlMzk1LTkzNmMtNTdhNy04YmE5LWIwOGYwMzU3NGI5My1hdHRyLTUtbmFtZSIgY2xhc3M9ImVyIGVudGl0eUxhYmVsIj5sYW5ndWFnZTwvdGV4dD48cmVjdCBoZWlnaHQ9IjIyLjgwMDAwMDE5MDczNDg2MyIgd2lkdGg9IjIyLjA4NzY5NTEyMTc2NTEzNyIgeT0iMTExLjYwMDAwMDM4MTQ2OTczIiB4PSIxNDYuMzY4NTYwNzkxMDE1NjIiIGNsYXNzPSJlciBhdHRyaWJ1dGVCb3hPZGQiPjwvcmVjdD48dGV4dCBzdHlsZT0iZG9taW5hbnQtYmFzZWxpbmU6IG1pZGRsZTsgZm9udC1zaXplOiAxMC4ycHg7IiB0cmFuc2Zvcm09InRyYW5zbGF0ZSgxNTEuMzY4NTYwNzkxMDE1NjIsMTIzLjAwMDAwMDQ3NjgzNzE2KSIgeT0iMCIgeD0iMCIgaWQ9InRleHQtZW50aXR5LVVTRVJTLTFlODJlMzk1LTkzNmMtNTdhNy04YmE5LWIwOGYwMzU3NGI5My1hdHRyLTUta2V5IiBjbGFzcz0iZXIgZW50aXR5TGFiZWwiPjwvdGV4dD48cmVjdCBoZWlnaHQ9IjIyLjgwMDAwMDE5MDczNDg2MyIgd2lkdGg9IjEwMi41OTk5OTg0NzQxMjExIiB5PSIxMTEuNjAwMDAwMzgxNDY5NzMiIHg9IjE2OC40NTYyNTU5MTI3ODA3NiIgY2xhc3M9ImVyIGF0dHJpYnV0ZUJveE9kZCI+PC9yZWN0Pjx0ZXh0IHN0eWxlPSJkb21pbmFudC1iYXNlbGluZTogbWlkZGxlOyBmb250LXNpemU6IDEwLjJweDsiIHRyYW5zZm9ybT0idHJhbnNsYXRlKDE3My40NTYyNTU5MTI3ODA3NiwxMjMuMDAwMDAwNDc2ODM3MTYpIiB5PSIwIiB4PSIwIiBpZD0idGV4dC1lbnRpdHktVVNFUlMtMWU4MmUzOTUtOTM2Yy01N2E3LThiYTktYjA4ZjAzNTc0YjkzLWF0dHItNS1jb21tZW50IiBjbGFzcz0iZXIgZW50aXR5TGFiZWwiPuiogOiqnuioreWumihqYS9lbi96aCk8L3RleHQ+PHJlY3QgaGVpZ2h0PSIyMiIgd2lkdGg9IjUxLjY2ODU1NjIxMzM3ODkwNiIgeT0iMTM0LjQwMDAwMDU3MjIwNDYiIHg9IjAiIGNsYXNzPSJlciBhdHRyaWJ1dGVCb3hFdmVuIj48L3JlY3Q+PHRleHQgc3R5bGU9ImRvbWluYW50LWJhc2VsaW5lOiBtaWRkbGU7IGZvbnQtc2l6ZTogMTAuMnB4OyIgdHJhbnNmb3JtPSJ0cmFuc2xhdGUoNSwxNDUuNDAwMDAwNTcyMjA0NikiIHk9IjAiIHg9IjAiIGlkPSJ0ZXh0LWVudGl0eS1VU0VSUy0xZTgyZTM5NS05MzZjLTU3YTctOGJhOS1iMDhmMDM1NzRiOTMtYXR0ci02LXR5cGUiIGNsYXNzPSJlciBlbnRpdHlMYWJlbCI+c3RyaW5nPC90ZXh0PjxyZWN0IGhlaWdodD0iMjIiIHdpZHRoPSI5NC43MDAwMDQ1Nzc2MzY3MiIgeT0iMTM0LjQwMDAwMDU3MjIwNDYiIHg9IjUxLjY2ODU1NjIxMzM3ODkwNiIgY2xhc3M9ImVyIGF0dHJpYnV0ZUJveEV2ZW4iPjwvcmVjdD48dGV4dCBzdHlsZT0iZG9taW5hbnQtYmFzZWxpbmU6IG1pZGRsZTsgZm9udC1zaXplOiAxMC4ycHg7IiB0cmFuc2Zvcm09InRyYW5zbGF0ZSg1Ni42Njg1NTYyMTMzNzg5MDYsMTQ1LjQwMDAwMDU3MjIwNDYpIiB5PSIwIiB4PSIwIiBpZD0idGV4dC1lbnRpdHktVVNFUlMtMWU4MmUzOTUtOTM2Yy01N2E3LThiYTktYjA4ZjAzNTc0YjkzLWF0dHItNi1uYW1lIiBjbGFzcz0iZXIgZW50aXR5TGFiZWwiPnBvc3RhbF9jb2RlPC90ZXh0PjxyZWN0IGhlaWdodD0iMjIiIHdpZHRoPSIyMi4wODc2OTUxMjE3NjUxMzciIHk9IjEzNC40MDAwMDA1NzIyMDQ2IiB4PSIxNDYuMzY4NTYwNzkxMDE1NjIiIGNsYXNzPSJlciBhdHRyaWJ1dGVCb3hFdmVuIj48L3JlY3Q+PHRleHQgc3R5bGU9ImRvbWluYW50LWJhc2VsaW5lOiBtaWRkbGU7IGZvbnQtc2l6ZTogMTAuMnB4OyIgdHJhbnNmb3JtPSJ0cmFuc2xhdGUoMTUxLjM2ODU2MDc5MTAxNTYyLDE0NS40MDAwMDA1NzIyMDQ2KSIgeT0iMCIgeD0iMCIgaWQ9InRleHQtZW50aXR5LVVTRVJTLTFlODJlMzk1LTkzNmMtNTdhNy04YmE5LWIwOGYwMzU3NGI5My1hdHRyLTYta2V5IiBjbGFzcz0iZXIgZW50aXR5TGFiZWwiPjwvdGV4dD48cmVjdCBoZWlnaHQ9IjIyIiB3aWR0aD0iMTAyLjU5OTk5ODQ3NDEyMTEiIHk9IjEzNC40MDAwMDA1NzIyMDQ2IiB4PSIxNjguNDU2MjU1OTEyNzgwNzYiIGNsYXNzPSJlciBhdHRyaWJ1dGVCb3hFdmVuIj48L3JlY3Q+PHRleHQgc3R5bGU9ImRvbWluYW50LWJhc2VsaW5lOiBtaWRkbGU7IGZvbnQtc2l6ZTogMTAuMnB4OyIgdHJhbnNmb3JtPSJ0cmFuc2xhdGUoMTczLjQ1NjI1NTkxMjc4MDc2LDE0NS40MDAwMDA1NzIyMDQ2KSIgeT0iMCIgeD0iMCIgaWQ9InRleHQtZW50aXR5LVVTRVJTLTFlODJlMzk1LTkzNmMtNTdhNy04YmE5LWIwOGYwMzU3NGI5My1hdHRyLTYtY29tbWVudCIgY2xhc3M9ImVyIGVudGl0eUxhYmVsIj7pg7Xkvr/nlarlj7c8L3RleHQ+PHJlY3QgaGVpZ2h0PSIyMiIgd2lkdGg9IjUxLjY2ODU1NjIxMzM3ODkwNiIgeT0iMTU2LjQwMDAwMDU3MjIwNDYiIHg9IjAiIGNsYXNzPSJlciBhdHRyaWJ1dGVCb3hPZGQiPjwvcmVjdD48dGV4dCBzdHlsZT0iZG9taW5hbnQtYmFzZWxpbmU6IG1pZGRsZTsgZm9udC1zaXplOiAxMC4ycHg7IiB0cmFuc2Zvcm09InRyYW5zbGF0ZSg1LDE2Ny40MDAwMDA1NzIyMDQ2KSIgeT0iMCIgeD0iMCIgaWQ9InRleHQtZW50aXR5LVVTRVJTLTFlODJlMzk1LTkzNmMtNTdhNy04YmE5LWIwOGYwMzU3NGI5My1hdHRyLTctdHlwZSIgY2xhc3M9ImVyIGVudGl0eUxhYmVsIj5pbnQ8L3RleHQ+PHJlY3QgaGVpZ2h0PSIyMiIgd2lkdGg9Ijk0LjcwMDAwNDU3NzYzNjcyIiB5PSIxNTYuNDAwMDAwNTcyMjA0NiIgeD0iNTEuNjY4NTU2MjEzMzc4OTA2IiBjbGFzcz0iZXIgYXR0cmlidXRlQm94T2RkIj48L3JlY3Q+PHRleHQgc3R5bGU9ImRvbWluYW50LWJhc2VsaW5lOiBtaWRkbGU7IGZvbnQtc2l6ZTogMTAuMnB4OyIgdHJhbnNmb3JtPSJ0cmFuc2xhdGUoNTYuNjY4NTU2MjEzMzc4OTA2LDE2Ny40MDAwMDA1NzIyMDQ2KSIgeT0iMCIgeD0iMCIgaWQ9InRleHQtZW50aXR5LVVTRVJTLTFlODJlMzk1LTkzNmMtNTdhNy04YmE5LWIwOGYwMzU3NGI5My1hdHRyLTctbmFtZSIgY2xhc3M9ImVyIGVudGl0eUxhYmVsIj5jb2xsZWN0aW9uX2FyZWFfaWQ8L3RleHQ+PHJlY3QgaGVpZ2h0PSIyMiIgd2lkdGg9IjIyLjA4NzY5NTEyMTc2NTEzNyIgeT0iMTU2LjQwMDAwMDU3MjIwNDYiIHg9IjE0Ni4zNjg1NjA3OTEwMTU2MiIgY2xhc3M9ImVyIGF0dHJpYnV0ZUJveE9kZCI+PC9yZWN0Pjx0ZXh0IHN0eWxlPSJkb21pbmFudC1iYXNlbGluZTogbWlkZGxlOyBmb250LXNpemU6IDEwLjJweDsiIHRyYW5zZm9ybT0idHJhbnNsYXRlKDE1MS4zNjg1NjA3OTEwMTU2MiwxNjcuNDAwMDAwNTcyMjA0NikiIHk9IjAiIHg9IjAiIGlkPSJ0ZXh0LWVudGl0eS1VU0VSUy0xZTgyZTM5NS05MzZjLTU3YTctOGJhOS1iMDhmMDM1NzRiOTMtYXR0ci03LWtleSIgY2xhc3M9ImVyIGVudGl0eUxhYmVsIj5GSzwvdGV4dD48cmVjdCBoZWlnaHQ9IjIyIiB3aWR0aD0iMTAyLjU5OTk5ODQ3NDEyMTEiIHk9IjE1Ni40MDAwMDA1NzIyMDQ2IiB4PSIxNjguNDU2MjU1OTEyNzgwNzYiIGNsYXNzPSJlciBhdHRyaWJ1dGVCb3hPZGQiPjwvcmVjdD48dGV4dCBzdHlsZT0iZG9taW5hbnQtYmFzZWxpbmU6IG1pZGRsZTsgZm9udC1zaXplOiAxMC4ycHg7IiB0cmFuc2Zvcm09InRyYW5zbGF0ZSgxNzMuNDU2MjU1OTEyNzgwNzYsMTY3LjQwMDAwMDU3MjIwNDYpIiB5PSIwIiB4PSIwIiBpZD0idGV4dC1lbnRpdHktVVNFUlMtMWU4MmUzOTUtOTM2Yy01N2E3LThiYTktYjA4ZjAzNTc0YjkzLWF0dHItNy1jb21tZW50IiBjbGFzcz0iZXIgZW50aXR5TGFiZWwiPuWPjumbhuOCqOODquOCoklEPC90ZXh0PjxyZWN0IGhlaWdodD0iMjIiIHdpZHRoPSI1MS42Njg1NTYyMTMzNzg5MDYiIHk9IjE3OC40MDAwMDA1NzIyMDQ2IiB4PSIwIiBjbGFzcz0iZXIgYXR0cmlidXRlQm94RXZlbiI+PC9yZWN0Pjx0ZXh0IHN0eWxlPSJkb21pbmFudC1iYXNlbGluZTogbWlkZGxlOyBmb250LXNpemU6IDEwLjJweDsiIHRyYW5zZm9ybT0idHJhbnNsYXRlKDUsMTg5LjQwMDAwMDU3MjIwNDYpIiB5PSIwIiB4PSIwIiBpZD0idGV4dC1lbnRpdHktVVNFUlMtMWU4MmUzOTUtOTM2Yy01N2E3LThiYTktYjA4ZjAzNTc0YjkzLWF0dHItOC10eXBlIiBjbGFzcz0iZXIgZW50aXR5TGFiZWwiPmJvb2xlYW48L3RleHQ+PHJlY3QgaGVpZ2h0PSIyMiIgd2lkdGg9Ijk0LjcwMDAwNDU3NzYzNjcyIiB5PSIxNzguNDAwMDAwNTcyMjA0NiIgeD0iNTEuNjY4NTU2MjEzMzc4OTA2IiBjbGFzcz0iZXIgYXR0cmlidXRlQm94RXZlbiI+PC9yZWN0Pjx0ZXh0IHN0eWxlPSJkb21pbmFudC1iYXNlbGluZTogbWlkZGxlOyBmb250LXNpemU6IDEwLjJweDsiIHRyYW5zZm9ybT0idHJhbnNsYXRlKDU2LjY2ODU1NjIxMzM3ODkwNiwxODkuNDAwMDAwNTcyMjA0NikiIHk9IjAiIHg9IjAiIGlkPSJ0ZXh0LWVudGl0eS1VU0VSUy0xZTgyZTM5NS05MzZjLTU3YTctOGJhOS1iMDhmMDM1NzRiOTMtYXR0ci04LW5hbWUiIGNsYXNzPSJlciBlbnRpdHlMYWJlbCI+aXNfYWRtaW48L3RleHQ+PHJlY3QgaGVpZ2h0PSIyMiIgd2lkdGg9IjIyLjA4NzY5NTEyMTc2NTEzNyIgeT0iMTc4LjQwMDAwMDU3MjIwNDYiIHg9IjE0Ni4zNjg1NjA3OTEwMTU2MiIgY2xhc3M9ImVyIGF0dHJpYnV0ZUJveEV2ZW4iPjwvcmVjdD48dGV4dCBzdHlsZT0iZG9taW5hbnQtYmFzZWxpbmU6IG1pZGRsZTsgZm9udC1zaXplOiAxMC4ycHg7IiB0cmFuc2Zvcm09InRyYW5zbGF0ZSgxNTEuMzY4NTYwNzkxMDE1NjIsMTg5LjQwMDAwMDU3MjIwNDYpIiB5PSIwIiB4PSIwIiBpZD0idGV4dC1lbnRpdHktVVNFUlMtMWU4MmUzOTUtOTM2Yy01N2E3LThiYTktYjA4ZjAzNTc0YjkzLWF0dHItOC1rZXkiIGNsYXNzPSJlciBlbnRpdHlMYWJlbCI+PC90ZXh0PjxyZWN0IGhlaWdodD0iMjIiIHdpZHRoPSIxMDIuNTk5OTk4NDc0MTIxMSIgeT0iMTc4LjQwMDAwMDU3MjIwNDYiIHg9IjE2OC40NTYyNTU5MTI3ODA3NiIgY2xhc3M9ImVyIGF0dHJpYnV0ZUJveEV2ZW4iPjwvcmVjdD48dGV4dCBzdHlsZT0iZG9taW5hbnQtYmFzZWxpbmU6IG1pZGRsZTsgZm9udC1zaXplOiAxMC4ycHg7IiB0cmFuc2Zvcm09InRyYW5zbGF0ZSgxNzMuNDU2MjU1OTEyNzgwNzYsMTg5LjQwMDAwMDU3MjIwNDYpIiB5PSIwIiB4PSIwIiBpZD0idGV4dC1lbnRpdHktVVNFUlMtMWU4MmUzOTUtOTM2Yy01N2E3LThiYTktYjA4ZjAzNTc0YjkzLWF0dHItOC1jb21tZW50IiBjbGFzcz0iZXIgZW50aXR5TGFiZWwiPueuoeeQhuiAheODleODqeOCsDwvdGV4dD48cmVjdCBoZWlnaHQ9IjIyIiB3aWR0aD0iNTEuNjY4NTU2MjEzMzc4OTA2IiB5PSIyMDAuNDAwMDAwNTcyMjA0NiIgeD0iMCIgY2xhc3M9ImVyIGF0dHJpYnV0ZUJveE9kZCI+PC9yZWN0Pjx0ZXh0IHN0eWxlPSJkb21pbmFudC1iYXNlbGluZTogbWlkZGxlOyBmb250LXNpemU6IDEwLjJweDsiIHRyYW5zZm9ybT0idHJhbnNsYXRlKDUsMjExLjQwMDAwMDU3MjIwNDYpIiB5PSIwIiB4PSIwIiBpZD0idGV4dC1lbnRpdHktVVNFUlMtMWU4MmUzOTUtOTM2Yy01N2E3LThiYTktYjA4ZjAzNTc0YjkzLWF0dHItOS10eXBlIiBjbGFzcz0iZXIgZW50aXR5TGFiZWwiPmRhdGV0aW1lPC90ZXh0PjxyZWN0IGhlaWdodD0iMjIiIHdpZHRoPSI5NC43MDAwMDQ1Nzc2MzY3MiIgeT0iMjAwLjQwMDAwMDU3MjIwNDYiIHg9IjUxLjY2ODU1NjIxMzM3ODkwNiIgY2xhc3M9ImVyIGF0dHJpYnV0ZUJveE9kZCI+PC9yZWN0Pjx0ZXh0IHN0eWxlPSJkb21pbmFudC1iYXNlbGluZTogbWlkZGxlOyBmb250LXNpemU6IDEwLjJweDsiIHRyYW5zZm9ybT0idHJhbnNsYXRlKDU2LjY2ODU1NjIxMzM3ODkwNiwyMTEuNDAwMDAwNTcyMjA0NikiIHk9IjAiIHg9IjAiIGlkPSJ0ZXh0LWVudGl0eS1VU0VSUy0xZTgyZTM5NS05MzZjLTU3YTctOGJhOS1iMDhmMDM1NzRiOTMtYXR0ci05LW5hbWUiIGNsYXNzPSJlciBlbnRpdHlMYWJlbCI+Y3JlYXRlZF9hdDwvdGV4dD48cmVjdCBoZWlnaHQ9IjIyIiB3aWR0aD0iMjIuMDg3Njk1MTIxNzY1MTM3IiB5PSIyMDAuNDAwMDAwNTcyMjA0NiIgeD0iMTQ2LjM2ODU2MDc5MTAxNTYyIiBjbGFzcz0iZXIgYXR0cmlidXRlQm94T2RkIj48L3JlY3Q+PHRleHQgc3R5bGU9ImRvbWluYW50LWJhc2VsaW5lOiBtaWRkbGU7IGZvbnQtc2l6ZTogMTAuMnB4OyIgdHJhbnNmb3JtPSJ0cmFuc2xhdGUoMTUxLjM2ODU2MDc5MTAxNTYyLDIxMS40MDAwMDA1NzIyMDQ2KSIgeT0iMCIgeD0iMCIgaWQ9InRleHQtZW50aXR5LVVTRVJTLTFlODJlMzk1LTkzNmMtNTdhNy04YmE5LWIwOGYwMzU3NGI5My1hdHRyLTkta2V5IiBjbGFzcz0iZXIgZW50aXR5TGFiZWwiPjwvdGV4dD48cmVjdCBoZWlnaHQ9IjIyIiB3aWR0aD0iMTAyLjU5OTk5ODQ3NDEyMTEiIHk9IjIwMC40MDAwMDA1NzIyMDQ2IiB4PSIxNjguNDU2MjU1OTEyNzgwNzYiIGNsYXNzPSJlciBhdHRyaWJ1dGVCb3hPZGQiPjwvcmVjdD48dGV4dCBzdHlsZT0iZG9taW5hbnQtYmFzZWxpbmU6IG1pZGRsZTsgZm9udC1zaXplOiAxMC4ycHg7IiB0cmFuc2Zvcm09InRyYW5zbGF0ZSgxNzMuNDU2MjU1OTEyNzgwNzYsMjExLjQwMDAwMDU3MjIwNDYpIiB5PSIwIiB4PSIwIiBpZD0idGV4dC1lbnRpdHktVVNFUlMtMWU4MmUzOTUtOTM2Yy01N2E3LThiYTktYjA4ZjAzNTc0YjkzLWF0dHItOS1jb21tZW50IiBjbGFzcz0iZXIgZW50aXR5TGFiZWwiPuS9nOaIkOaXpeaZgjwvdGV4dD48cmVjdCBoZWlnaHQ9IjIyIiB3aWR0aD0iNTEuNjY4NTU2MjEzMzc4OTA2IiB5PSIyMjIuNDAwMDAwNTcyMjA0NiIgeD0iMCIgY2xhc3M9ImVyIGF0dHJpYnV0ZUJveEV2ZW4iPjwvcmVjdD48dGV4dCBzdHlsZT0iZG9taW5hbnQtYmFzZWxpbmU6IG1pZGRsZTsgZm9udC1zaXplOiAxMC4ycHg7IiB0cmFuc2Zvcm09InRyYW5zbGF0ZSg1LDIzMy40MDAwMDA1NzIyMDQ2KSIgeT0iMCIgeD0iMCIgaWQ9InRleHQtZW50aXR5LVVTRVJTLTFlODJlMzk1LTkzNmMtNTdhNy04YmE5LWIwOGYwMzU3NGI5My1hdHRyLTEwLXR5cGUiIGNsYXNzPSJlciBlbnRpdHlMYWJlbCI+ZGF0ZXRpbWU8L3RleHQ+PHJlY3QgaGVpZ2h0PSIyMiIgd2lkdGg9Ijk0LjcwMDAwNDU3NzYzNjcyIiB5PSIyMjIuNDAwMDAwNTcyMjA0NiIgeD0iNTEuNjY4NTU2MjEzMzc4OTA2IiBjbGFzcz0iZXIgYXR0cmlidXRlQm94RXZlbiI+PC9yZWN0Pjx0ZXh0IHN0eWxlPSJkb21pbmFudC1iYXNlbGluZTogbWlkZGxlOyBmb250LXNpemU6IDEwLjJweDsiIHRyYW5zZm9ybT0idHJhbnNsYXRlKDU2LjY2ODU1NjIxMzM3ODkwNiwyMzMuNDAwMDAwNTcyMjA0NikiIHk9IjAiIHg9IjAiIGlkPSJ0ZXh0LWVudGl0eS1VU0VSUy0xZTgyZTM5NS05MzZjLTU3YTctOGJhOS1iMDhmMDM1NzRiOTMtYXR0ci0xMC1uYW1lIiBjbGFzcz0iZXIgZW50aXR5TGFiZWwiPnVwZGF0ZWRfYXQ8L3RleHQ+PHJlY3QgaGVpZ2h0PSIyMiIgd2lkdGg9IjIyLjA4NzY5NTEyMTc2NTEzNyIgeT0iMjIyLjQwMDAwMDU3MjIwNDYiIHg9IjE0Ni4zNjg1NjA3OTEwMTU2MiIgY2xhc3M9ImVyIGF0dHJpYnV0ZUJveEV2ZW4iPjwvcmVjdD48dGV4dCBzdHlsZT0iZG9taW5hbnQtYmFzZWxpbmU6IG1pZGRsZTsgZm9udC1zaXplOiAxMC4ycHg7IiB0cmFuc2Zvcm09InRyYW5zbGF0ZSgxNTEuMzY4NTYwNzkxMDE1NjIsMjMzLjQwMDAwMDU3MjIwNDYpIiB5PSIwIiB4PSIwIiBpZD0idGV4dC1lbnRpdHktVVNFUlMtMWU4MmUzOTUtOTM2Yy01N2E3LThiYTktYjA4ZjAzNTc0YjkzLWF0dHItMTAta2V5IiBjbGFzcz0iZXIgZW50aXR5TGFiZWwiPjwvdGV4dD48cmVjdCBoZWlnaHQ9IjIyIiB3aWR0aD0iMTAyLjU5OTk5ODQ3NDEyMTEiIHk9IjIyMi40MDAwMDA1NzIyMDQ2IiB4PSIxNjguNDU2MjU1OTEyNzgwNzYiIGNsYXNzPSJlciBhdHRyaWJ1dGVCb3hFdmVuIj48L3JlY3Q+PHRleHQgc3R5bGU9ImRvbWluYW50LWJhc2VsaW5lOiBtaWRkbGU7IGZvbnQtc2l6ZTogMTAuMnB4OyIgdHJhbnNmb3JtPSJ0cmFuc2xhdGUoMTczLjQ1NjI1NTkxMjc4MDc2LDIzMy40MDAwMDA1NzIyMDQ2KSIgeT0iMCIgeD0iMCIgaWQ9InRleHQtZW50aXR5LVVTRVJTLTFlODJlMzk1LTkzNmMtNTdhNy04YmE5LWIwOGYwMzU3NGI5My1hdHRyLTEwLWNvbW1lbnQiIGNsYXNzPSJlciBlbnRpdHlMYWJlbCI+5pu05paw5pel5pmCPC90ZXh0PjwvZz48ZyB0cmFuc2Zvcm09InRyYW5zbGF0ZSgyMCwxMDUyLjQwMDAwMTUyNTg3OSApIiBpZD0iZW50aXR5LVNDQU5ISVNUT1JZLTgyNzhlZjQxLWJkNWYtNTMzNy1hOGU2LWQyODViODRlMTJhZiI+PHJlY3QgaGVpZ2h0PSIxNTUuNjAwMDAwMzgxNDY5NzMiIHdpZHRoPSIyNzAuNTgyNjIxNTc0NDAxODYiIHk9IjAiIHg9IjAiIGNsYXNzPSJlciBlbnRpdHlCb3giPjwvcmVjdD48dGV4dCBzdHlsZT0iZG9taW5hbnQtYmFzZWxpbmU6IG1pZGRsZTsgdGV4dC1hbmNob3I6IG1pZGRsZTsgZm9udC1zaXplOiAxMnB4OyIgdHJhbnNmb3JtPSJ0cmFuc2xhdGUoMTM1LjI5MTMxMDc4NzIwMDkzLDExLjgwMDAwMDE5MDczNDg2MykiIHk9IjAiIHg9IjAiIGlkPSJ0ZXh0LWVudGl0eS1TQ0FOSElTVE9SWS04Mjc4ZWY0MS1iZDVmLTUzMzctYThlNi1kMjg1Yjg0ZTEyYWYiIGNsYXNzPSJlciBlbnRpdHlMYWJlbCI+U0NBTl9ISVNUT1JZPC90ZXh0PjxyZWN0IGhlaWdodD0iMjIiIHdpZHRoPSI1MS42Njg1NTYyMTMzNzg5MDYiIHk9IjIzLjYwMDAwMDM4MTQ2OTcyNyIgeD0iMCIgY2xhc3M9ImVyIGF0dHJpYnV0ZUJveE9kZCI+PC9yZWN0Pjx0ZXh0IHN0eWxlPSJkb21pbmFudC1iYXNlbGluZTogbWlkZGxlOyBmb250LXNpemU6IDEwLjJweDsiIHRyYW5zZm9ybT0idHJhbnNsYXRlKDUsMzQuNjAwMDAwMzgxNDY5NzMpIiB5PSIwIiB4PSIwIiBpZD0idGV4dC1lbnRpdHktU0NBTkhJU1RPUlktODI3OGVmNDEtYmQ1Zi01MzM3LWE4ZTYtZDI4NWI4NGUxMmFmLWF0dHItMS10eXBlIiBjbGFzcz0iZXIgZW50aXR5TGFiZWwiPmludDwvdGV4dD48cmVjdCBoZWlnaHQ9IjIyIiB3aWR0aD0iODUuNzg3NDk4NDc0MTIxMSIgeT0iMjMuNjAwMDAwMzgxNDY5NzI3IiB4PSI1MS42Njg1NTYyMTMzNzg5MDYiIGNsYXNzPSJlciBhdHRyaWJ1dGVCb3hPZGQiPjwvcmVjdD48dGV4dCBzdHlsZT0iZG9taW5hbnQtYmFzZWxpbmU6IG1pZGRsZTsgZm9udC1zaXplOiAxMC4ycHg7IiB0cmFuc2Zvcm09InRyYW5zbGF0ZSg1Ni42Njg1NTYyMTMzNzg5MDYsMzQuNjAwMDAwMzgxNDY5NzMpIiB5PSIwIiB4PSIwIiBpZD0idGV4dC1lbnRpdHktU0NBTkhJU1RPUlktODI3OGVmNDEtYmQ1Zi01MzM3LWE4ZTYtZDI4NWI4NGUxMmFmLWF0dHItMS1uYW1lIiBjbGFzcz0iZXIgZW50aXR5TGFiZWwiPmlkPC90ZXh0PjxyZWN0IGhlaWdodD0iMjIiIHdpZHRoPSIyMi4wODc2OTUxMjE3NjUxMzciIHk9IjIzLjYwMDAwMDM4MTQ2OTcyNyIgeD0iMTM3LjQ1NjA1NDY4NzUiIGNsYXNzPSJlciBhdHRyaWJ1dGVCb3hPZGQiPjwvcmVjdD48dGV4dCBzdHlsZT0iZG9taW5hbnQtYmFzZWxpbmU6IG1pZGRsZTsgZm9udC1zaXplOiAxMC4ycHg7IiB0cmFuc2Zvcm09InRyYW5zbGF0ZSgxNDIuNDU2MDU0Njg3NSwzNC42MDAwMDAzODE0Njk3MykiIHk9IjAiIHg9IjAiIGlkPSJ0ZXh0LWVudGl0eS1TQ0FOSElTVE9SWS04Mjc4ZWY0MS1iZDVmLTUzMzctYThlNi1kMjg1Yjg0ZTEyYWYtYXR0ci0xLWtleSIgY2xhc3M9ImVyIGVudGl0eUxhYmVsIj5QSzwvdGV4dD48cmVjdCBoZWlnaHQ9IjIyIiB3aWR0aD0iMTExLjAzODg3MTc2NTEzNjcyIiB5PSIyMy42MDAwMDAzODE0Njk3MjciIHg9IjE1OS41NDM3NDk4MDkyNjUxNCIgY2xhc3M9ImVyIGF0dHJpYnV0ZUJveE9kZCI+PC9yZWN0Pjx0ZXh0IHN0eWxlPSJkb21pbmFudC1iYXNlbGluZTogbWlkZGxlOyBmb250LXNpemU6IDEwLjJweDsiIHRyYW5zZm9ybT0idHJhbnNsYXRlKDE2NC41NDM3NDk4MDkyNjUxNCwzNC42MDAwMDAzODE0Njk3MykiIHk9IjAiIHg9IjAiIGlkPSJ0ZXh0LWVudGl0eS1TQ0FOSElTVE9SWS04Mjc4ZWY0MS1iZDVmLTUzMzctYThlNi1kMjg1Yjg0ZTEyYWYtYXR0ci0xLWNvbW1lbnQiIGNsYXNzPSJlciBlbnRpdHlMYWJlbCI+44K544Kt44Oj44Oz5bGl5q20SUQ8L3RleHQ+PHJlY3QgaGVpZ2h0PSIyMiIgd2lkdGg9IjUxLjY2ODU1NjIxMzM3ODkwNiIgeT0iNDUuNjAwMDAwMzgxNDY5NzMiIHg9IjAiIGNsYXNzPSJlciBhdHRyaWJ1dGVCb3hFdmVuIj48L3JlY3Q+PHRleHQgc3R5bGU9ImRvbWluYW50LWJhc2VsaW5lOiBtaWRkbGU7IGZvbnQtc2l6ZTogMTAuMnB4OyIgdHJhbnNmb3JtPSJ0cmFuc2xhdGUoNSw1Ni42MDAwMDAzODE0Njk3MykiIHk9IjAiIHg9IjAiIGlkPSJ0ZXh0LWVudGl0eS1TQ0FOSElTVE9SWS04Mjc4ZWY0MS1iZDVmLTUzMzctYThlNi1kMjg1Yjg0ZTEyYWYtYXR0ci0yLXR5cGUiIGNsYXNzPSJlciBlbnRpdHlMYWJlbCI+aW50PC90ZXh0PjxyZWN0IGhlaWdodD0iMjIiIHdpZHRoPSI4NS43ODc0OTg0NzQxMjExIiB5PSI0NS42MDAwMDAzODE0Njk3MyIgeD0iNTEuNjY4NTU2MjEzMzc4OTA2IiBjbGFzcz0iZXIgYXR0cmlidXRlQm94RXZlbiI+PC9yZWN0Pjx0ZXh0IHN0eWxlPSJkb21pbmFudC1iYXNlbGluZTogbWlkZGxlOyBmb250LXNpemU6IDEwLjJweDsiIHRyYW5zZm9ybT0idHJhbnNsYXRlKDU2LjY2ODU1NjIxMzM3ODkwNiw1Ni42MDAwMDAzODE0Njk3MykiIHk9IjAiIHg9IjAiIGlkPSJ0ZXh0LWVudGl0eS1TQ0FOSElTVE9SWS04Mjc4ZWY0MS1iZDVmLTUzMzctYThlNi1kMjg1Yjg0ZTEyYWYtYXR0ci0yLW5hbWUiIGNsYXNzPSJlciBlbnRpdHlMYWJlbCI+dXNlcl9pZDwvdGV4dD48cmVjdCBoZWlnaHQ9IjIyIiB3aWR0aD0iMjIuMDg3Njk1MTIxNzY1MTM3IiB5PSI0NS42MDAwMDAzODE0Njk3MyIgeD0iMTM3LjQ1NjA1NDY4NzUiIGNsYXNzPSJlciBhdHRyaWJ1dGVCb3hFdmVuIj48L3JlY3Q+PHRleHQgc3R5bGU9ImRvbWluYW50LWJhc2VsaW5lOiBtaWRkbGU7IGZvbnQtc2l6ZTogMTAuMnB4OyIgdHJhbnNmb3JtPSJ0cmFuc2xhdGUoMTQyLjQ1NjA1NDY4NzUsNTYuNjAwMDAwMzgxNDY5NzMpIiB5PSIwIiB4PSIwIiBpZD0idGV4dC1lbnRpdHktU0NBTkhJU1RPUlktODI3OGVmNDEtYmQ1Zi01MzM3LWE4ZTYtZDI4NWI4NGUxMmFmLWF0dHItMi1rZXkiIGNsYXNzPSJlciBlbnRpdHlMYWJlbCI+Rks8L3RleHQ+PHJlY3QgaGVpZ2h0PSIyMiIgd2lkdGg9IjExMS4wMzg4NzE3NjUxMzY3MiIgeT0iNDUuNjAwMDAwMzgxNDY5NzMiIHg9IjE1OS41NDM3NDk4MDkyNjUxNCIgY2xhc3M9ImVyIGF0dHJpYnV0ZUJveEV2ZW4iPjwvcmVjdD48dGV4dCBzdHlsZT0iZG9taW5hbnQtYmFzZWxpbmU6IG1pZGRsZTsgZm9udC1zaXplOiAxMC4ycHg7IiB0cmFuc2Zvcm09InRyYW5zbGF0ZSgxNjQuNTQzNzQ5ODA5MjY1MTQsNTYuNjAwMDAwMzgxNDY5NzMpIiB5PSIwIiB4PSIwIiBpZD0idGV4dC1lbnRpdHktU0NBTkhJU1RPUlktODI3OGVmNDEtYmQ1Zi01MzM3LWE4ZTYtZDI4NWI4NGUxMmFmLWF0dHItMi1jb21tZW50IiBjbGFzcz0iZXIgZW50aXR5TGFiZWwiPuODpuODvOOCtuODvElEPC90ZXh0PjxyZWN0IGhlaWdodD0iMjIiIHdpZHRoPSI1MS42Njg1NTYyMTMzNzg5MDYiIHk9IjY3LjYwMDAwMDM4MTQ2OTczIiB4PSIwIiBjbGFzcz0iZXIgYXR0cmlidXRlQm94T2RkIj48L3JlY3Q+PHRleHQgc3R5bGU9ImRvbWluYW50LWJhc2VsaW5lOiBtaWRkbGU7IGZvbnQtc2l6ZTogMTAuMnB4OyIgdHJhbnNmb3JtPSJ0cmFuc2xhdGUoNSw3OC42MDAwMDAzODE0Njk3MykiIHk9IjAiIHg9IjAiIGlkPSJ0ZXh0LWVudGl0eS1TQ0FOSElTVE9SWS04Mjc4ZWY0MS1iZDVmLTUzMzctYThlNi1kMjg1Yjg0ZTEyYWYtYXR0ci0zLXR5cGUiIGNsYXNzPSJlciBlbnRpdHlMYWJlbCI+aW50PC90ZXh0PjxyZWN0IGhlaWdodD0iMjIiIHdpZHRoPSI4NS43ODc0OTg0NzQxMjExIiB5PSI2Ny42MDAwMDAzODE0Njk3MyIgeD0iNTEuNjY4NTU2MjEzMzc4OTA2IiBjbGFzcz0iZXIgYXR0cmlidXRlQm94T2RkIj48L3JlY3Q+PHRleHQgc3R5bGU9ImRvbWluYW50LWJhc2VsaW5lOiBtaWRkbGU7IGZvbnQtc2l6ZTogMTAuMnB4OyIgdHJhbnNmb3JtPSJ0cmFuc2xhdGUoNTYuNjY4NTU2MjEzMzc4OTA2LDc4LjYwMDAwMDM4MTQ2OTczKSIgeT0iMCIgeD0iMCIgaWQ9InRleHQtZW50aXR5LVNDQU5ISVNUT1JZLTgyNzhlZjQxLWJkNWYtNTMzNy1hOGU2LWQyODViODRlMTJhZi1hdHRyLTMtbmFtZSIgY2xhc3M9ImVyIGVudGl0eUxhYmVsIj5nYXJiYWdlX3R5cGVfaWQ8L3RleHQ+PHJlY3QgaGVpZ2h0PSIyMiIgd2lkdGg9IjIyLjA4NzY5NTEyMTc2NTEzNyIgeT0iNjcuNjAwMDAwMzgxNDY5NzMiIHg9IjEzNy40NTYwNTQ2ODc1IiBjbGFzcz0iZXIgYXR0cmlidXRlQm94T2RkIj48L3JlY3Q+PHRleHQgc3R5bGU9ImRvbWluYW50LWJhc2VsaW5lOiBtaWRkbGU7IGZvbnQtc2l6ZTogMTAuMnB4OyIgdHJhbnNmb3JtPSJ0cmFuc2xhdGUoMTQyLjQ1NjA1NDY4NzUsNzguNjAwMDAwMzgxNDY5NzMpIiB5PSIwIiB4PSIwIiBpZD0idGV4dC1lbnRpdHktU0NBTkhJU1RPUlktODI3OGVmNDEtYmQ1Zi01MzM3LWE4ZTYtZDI4NWI4NGUxMmFmLWF0dHItMy1rZXkiIGNsYXNzPSJlciBlbnRpdHlMYWJlbCI+Rks8L3RleHQ+PHJlY3QgaGVpZ2h0PSIyMiIgd2lkdGg9IjExMS4wMzg4NzE3NjUxMzY3MiIgeT0iNjcuNjAwMDAwMzgxNDY5NzMiIHg9IjE1OS41NDM3NDk4MDkyNjUxNCIgY2xhc3M9ImVyIGF0dHJpYnV0ZUJveE9kZCI+PC9yZWN0Pjx0ZXh0IHN0eWxlPSJkb21pbmFudC1iYXNlbGluZTogbWlkZGxlOyBmb250LXNpemU6IDEwLjJweDsiIHRyYW5zZm9ybT0idHJhbnNsYXRlKDE2NC41NDM3NDk4MDkyNjUxNCw3OC42MDAwMDAzODE0Njk3MykiIHk9IjAiIHg9IjAiIGlkPSJ0ZXh0LWVudGl0eS1TQ0FOSElTVE9SWS04Mjc4ZWY0MS1iZDVmLTUzMzctYThlNi1kMjg1Yjg0ZTEyYWYtYXR0ci0zLWNvbW1lbnQiIGNsYXNzPSJlciBlbnRpdHlMYWJlbCI+5Yik5a6a44GV44KM44Gf44K044Of56iu6aGeSUQ8L3RleHQ+PHJlY3QgaGVpZ2h0PSIyMiIgd2lkdGg9IjUxLjY2ODU1NjIxMzM3ODkwNiIgeT0iODkuNjAwMDAwMzgxNDY5NzMiIHg9IjAiIGNsYXNzPSJlciBhdHRyaWJ1dGVCb3hFdmVuIj48L3JlY3Q+PHRleHQgc3R5bGU9ImRvbWluYW50LWJhc2VsaW5lOiBtaWRkbGU7IGZvbnQtc2l6ZTogMTAuMnB4OyIgdHJhbnNmb3JtPSJ0cmFuc2xhdGUoNSwxMDAuNjAwMDAwMzgxNDY5NzMpIiB5PSIwIiB4PSIwIiBpZD0idGV4dC1lbnRpdHktU0NBTkhJU1RPUlktODI3OGVmNDEtYmQ1Zi01MzM3LWE4ZTYtZDI4NWI4NGUxMmFmLWF0dHItNC10eXBlIiBjbGFzcz0iZXIgZW50aXR5TGFiZWwiPmZsb2F0PC90ZXh0PjxyZWN0IGhlaWdodD0iMjIiIHdpZHRoPSI4NS43ODc0OTg0NzQxMjExIiB5PSI4OS42MDAwMDAzODE0Njk3MyIgeD0iNTEuNjY4NTU2MjEzMzc4OTA2IiBjbGFzcz0iZXIgYXR0cmlidXRlQm94RXZlbiI+PC9yZWN0Pjx0ZXh0IHN0eWxlPSJkb21pbmFudC1iYXNlbGluZTogbWlkZGxlOyBmb250LXNpemU6IDEwLjJweDsiIHRyYW5zZm9ybT0idHJhbnNsYXRlKDU2LjY2ODU1NjIxMzM3ODkwNiwxMDAuNjAwMDAwMzgxNDY5NzMpIiB5PSIwIiB4PSIwIiBpZD0idGV4dC1lbnRpdHktU0NBTkhJU1RPUlktODI3OGVmNDEtYmQ1Zi01MzM3LWE4ZTYtZDI4NWI4NGUxMmFmLWF0dHItNC1uYW1lIiBjbGFzcz0iZXIgZW50aXR5TGFiZWwiPmNvbmZpZGVuY2U8L3RleHQ+PHJlY3QgaGVpZ2h0PSIyMiIgd2lkdGg9IjIyLjA4NzY5NTEyMTc2NTEzNyIgeT0iODkuNjAwMDAwMzgxNDY5NzMiIHg9IjEzNy40NTYwNTQ2ODc1IiBjbGFzcz0iZXIgYXR0cmlidXRlQm94RXZlbiI+PC9yZWN0Pjx0ZXh0IHN0eWxlPSJkb21pbmFudC1iYXNlbGluZTogbWlkZGxlOyBmb250LXNpemU6IDEwLjJweDsiIHRyYW5zZm9ybT0idHJhbnNsYXRlKDE0Mi40NTYwNTQ2ODc1LDEwMC42MDAwMDAzODE0Njk3MykiIHk9IjAiIHg9IjAiIGlkPSJ0ZXh0LWVudGl0eS1TQ0FOSElTVE9SWS04Mjc4ZWY0MS1iZDVmLTUzMzctYThlNi1kMjg1Yjg0ZTEyYWYtYXR0ci00LWtleSIgY2xhc3M9ImVyIGVudGl0eUxhYmVsIj48L3RleHQ+PHJlY3QgaGVpZ2h0PSIyMiIgd2lkdGg9IjExMS4wMzg4NzE3NjUxMzY3MiIgeT0iODkuNjAwMDAwMzgxNDY5NzMiIHg9IjE1OS41NDM3NDk4MDkyNjUxNCIgY2xhc3M9ImVyIGF0dHJpYnV0ZUJveEV2ZW4iPjwvcmVjdD48dGV4dCBzdHlsZT0iZG9taW5hbnQtYmFzZWxpbmU6IG1pZGRsZTsgZm9udC1zaXplOiAxMC4ycHg7IiB0cmFuc2Zvcm09InRyYW5zbGF0ZSgxNjQuNTQzNzQ5ODA5MjY1MTQsMTAwLjYwMDAwMDM4MTQ2OTczKSIgeT0iMCIgeD0iMCIgaWQ9InRleHQtZW50aXR5LVNDQU5ISVNUT1JZLTgyNzhlZjQxLWJkNWYtNTMzNy1hOGU2LWQyODViODRlMTJhZi1hdHRyLTQtY29tbWVudCIgY2xhc3M9ImVyIGVudGl0eUxhYmVsIj7kv6HpoLzluqY8L3RleHQ+PHJlY3QgaGVpZ2h0PSIyMiIgd2lkdGg9IjUxLjY2ODU1NjIxMzM3ODkwNiIgeT0iMTExLjYwMDAwMDM4MTQ2OTczIiB4PSIwIiBjbGFzcz0iZXIgYXR0cmlidXRlQm94T2RkIj48L3JlY3Q+PHRleHQgc3R5bGU9ImRvbWluYW50LWJhc2VsaW5lOiBtaWRkbGU7IGZvbnQtc2l6ZTogMTAuMnB4OyIgdHJhbnNmb3JtPSJ0cmFuc2xhdGUoNSwxMjIuNjAwMDAwMzgxNDY5NzMpIiB5PSIwIiB4PSIwIiBpZD0idGV4dC1lbnRpdHktU0NBTkhJU1RPUlktODI3OGVmNDEtYmQ1Zi01MzM3LWE4ZTYtZDI4NWI4NGUxMmFmLWF0dHItNS10eXBlIiBjbGFzcz0iZXIgZW50aXR5TGFiZWwiPnN0cmluZzwvdGV4dD48cmVjdCBoZWlnaHQ9IjIyIiB3aWR0aD0iODUuNzg3NDk4NDc0MTIxMSIgeT0iMTExLjYwMDAwMDM4MTQ2OTczIiB4PSI1MS42Njg1NTYyMTMzNzg5MDYiIGNsYXNzPSJlciBhdHRyaWJ1dGVCb3hPZGQiPjwvcmVjdD48dGV4dCBzdHlsZT0iZG9taW5hbnQtYmFzZWxpbmU6IG1pZGRsZTsgZm9udC1zaXplOiAxMC4ycHg7IiB0cmFuc2Zvcm09InRyYW5zbGF0ZSg1Ni42Njg1NTYyMTMzNzg5MDYsMTIyLjYwMDAwMDM4MTQ2OTczKSIgeT0iMCIgeD0iMCIgaWQ9InRleHQtZW50aXR5LVNDQU5ISVNUT1JZLTgyNzhlZjQxLWJkNWYtNTMzNy1hOGU2LWQyODViODRlMTJhZi1hdHRyLTUtbmFtZSIgY2xhc3M9ImVyIGVudGl0eUxhYmVsIj5pbWFnZV91cmw8L3RleHQ+PHJlY3QgaGVpZ2h0PSIyMiIgd2lkdGg9IjIyLjA4NzY5NTEyMTc2NTEzNyIgeT0iMTExLjYwMDAwMDM4MTQ2OTczIiB4PSIxMzcuNDU2MDU0Njg3NSIgY2xhc3M9ImVyIGF0dHJpYnV0ZUJveE9kZCI+PC9yZWN0Pjx0ZXh0IHN0eWxlPSJkb21pbmFudC1iYXNlbGluZTogbWlkZGxlOyBmb250LXNpemU6IDEwLjJweDsiIHRyYW5zZm9ybT0idHJhbnNsYXRlKDE0Mi40NTYwNTQ2ODc1LDEyMi42MDAwMDAzODE0Njk3MykiIHk9IjAiIHg9IjAiIGlkPSJ0ZXh0LWVudGl0eS1TQ0FOSElTVE9SWS04Mjc4ZWY0MS1iZDVmLTUzMzctYThlNi1kMjg1Yjg0ZTEyYWYtYXR0ci01LWtleSIgY2xhc3M9ImVyIGVudGl0eUxhYmVsIj48L3RleHQ+PHJlY3QgaGVpZ2h0PSIyMiIgd2lkdGg9IjExMS4wMzg4NzE3NjUxMzY3MiIgeT0iMTExLjYwMDAwMDM4MTQ2OTczIiB4PSIxNTkuNTQzNzQ5ODA5MjY1MTQiIGNsYXNzPSJlciBhdHRyaWJ1dGVCb3hPZGQiPjwvcmVjdD48dGV4dCBzdHlsZT0iZG9taW5hbnQtYmFzZWxpbmU6IG1pZGRsZTsgZm9udC1zaXplOiAxMC4ycHg7IiB0cmFuc2Zvcm09InRyYW5zbGF0ZSgxNjQuNTQzNzQ5ODA5MjY1MTQsMTIyLjYwMDAwMDM4MTQ2OTczKSIgeT0iMCIgeD0iMCIgaWQ9InRleHQtZW50aXR5LVNDQU5ISVNUT1JZLTgyNzhlZjQxLWJkNWYtNTMzNy1hOGU2LWQyODViODRlMTJhZi1hdHRyLTUtY29tbWVudCIgY2xhc3M9ImVyIGVudGl0eUxhYmVsIj7nlLvlg49VUkw8L3RleHQ+PHJlY3QgaGVpZ2h0PSIyMiIgd2lkdGg9IjUxLjY2ODU1NjIxMzM3ODkwNiIgeT0iMTMzLjYwMDAwMDM4MTQ2OTczIiB4PSIwIiBjbGFzcz0iZXIgYXR0cmlidXRlQm94RXZlbiI+PC9yZWN0Pjx0ZXh0IHN0eWxlPSJkb21pbmFudC1iYXNlbGluZTogbWlkZGxlOyBmb250LXNpemU6IDEwLjJweDsiIHRyYW5zZm9ybT0idHJhbnNsYXRlKDUsMTQ0LjYwMDAwMDM4MTQ2OTczKSIgeT0iMCIgeD0iMCIgaWQ9InRleHQtZW50aXR5LVNDQU5ISVNUT1JZLTgyNzhlZjQxLWJkNWYtNTMzNy1hOGU2LWQyODViODRlMTJhZi1hdHRyLTYtdHlwZSIgY2xhc3M9ImVyIGVudGl0eUxhYmVsIj5kYXRldGltZTwvdGV4dD48cmVjdCBoZWlnaHQ9IjIyIiB3aWR0aD0iODUuNzg3NDk4NDc0MTIxMSIgeT0iMTMzLjYwMDAwMDM4MTQ2OTczIiB4PSI1MS42Njg1NTYyMTMzNzg5MDYiIGNsYXNzPSJlciBhdHRyaWJ1dGVCb3hFdmVuIj48L3JlY3Q+PHRleHQgc3R5bGU9ImRvbWluYW50LWJhc2VsaW5lOiBtaWRkbGU7IGZvbnQtc2l6ZTogMTAuMnB4OyIgdHJhbnNmb3JtPSJ0cmFuc2xhdGUoNTYuNjY4NTU2MjEzMzc4OTA2LDE0NC42MDAwMDAzODE0Njk3MykiIHk9IjAiIHg9IjAiIGlkPSJ0ZXh0LWVudGl0eS1TQ0FOSElTVE9SWS04Mjc4ZWY0MS1iZDVmLTUzMzctYThlNi1kMjg1Yjg0ZTEyYWYtYXR0ci02LW5hbWUiIGNsYXNzPSJlciBlbnRpdHlMYWJlbCI+c2Nhbm5lZF9hdDwvdGV4dD48cmVjdCBoZWlnaHQ9IjIyIiB3aWR0aD0iMjIuMDg3Njk1MTIxNzY1MTM3IiB5PSIxMzMuNjAwMDAwMzgxNDY5NzMiIHg9IjEzNy40NTYwNTQ2ODc1IiBjbGFzcz0iZXIgYXR0cmlidXRlQm94RXZlbiI+PC9yZWN0Pjx0ZXh0IHN0eWxlPSJkb21pbmFudC1iYXNlbGluZTogbWlkZGxlOyBmb250LXNpemU6IDEwLjJweDsiIHRyYW5zZm9ybT0idHJhbnNsYXRlKDE0Mi40NTYwNTQ2ODc1LDE0NC42MDAwMDAzODE0Njk3MykiIHk9IjAiIHg9IjAiIGlkPSJ0ZXh0LWVudGl0eS1TQ0FOSElTVE9SWS04Mjc4ZWY0MS1iZDVmLTUzMzctYThlNi1kMjg1Yjg0ZTEyYWYtYXR0ci02LWtleSIgY2xhc3M9ImVyIGVudGl0eUxhYmVsIj48L3RleHQ+PHJlY3QgaGVpZ2h0PSIyMiIgd2lkdGg9IjExMS4wMzg4NzE3NjUxMzY3MiIgeT0iMTMzLjYwMDAwMDM4MTQ2OTczIiB4PSIxNTkuNTQzNzQ5ODA5MjY1MTQiIGNsYXNzPSJlciBhdHRyaWJ1dGVCb3hFdmVuIj48L3JlY3Q+PHRleHQgc3R5bGU9ImRvbWluYW50LWJhc2VsaW5lOiBtaWRkbGU7IGZvbnQtc2l6ZTogMTAuMnB4OyIgdHJhbnNmb3JtPSJ0cmFuc2xhdGUoMTY0LjU0Mzc0OTgwOTI2NTE0LDE0NC42MDAwMDAzODE0Njk3MykiIHk9IjAiIHg9IjAiIGlkPSJ0ZXh0LWVudGl0eS1TQ0FOSElTVE9SWS04Mjc4ZWY0MS1iZDVmLTUzMzctYThlNi1kMjg1Yjg0ZTEyYWYtYXR0ci02LWNvbW1lbnQiIGNsYXNzPSJlciBlbnRpdHlMYWJlbCI+44K544Kt44Oj44Oz5pel5pmCPC90ZXh0PjwvZz48ZyB0cmFuc2Zvcm09InRyYW5zbGF0ZSg2Ny4xMDY4ODAxODc5ODgyOCw2ODUuNjAwMDA2MTAzNTE1NiApIiBpZD0iZW50aXR5LU5PVElGSUNBVElPTlNFVFRJTkdTLTU1N2I4ZDBhLTg5NTEtNWY0My1iNmU4LTU2MDI5ZDA0MDVkMSI+PHJlY3QgaGVpZ2h0PSIxNTYuNDAwMDAwNTcyMjA0NiIgd2lkdGg9IjI4Ny41NDA4Mjc3NTExNTk2NyIgeT0iMCIgeD0iMCIgY2xhc3M9ImVyIGVudGl0eUJveCI+PC9yZWN0Pjx0ZXh0IHN0eWxlPSJkb21pbmFudC1iYXNlbGluZTogbWlkZGxlOyB0ZXh0LWFuY2hvcjogbWlkZGxlOyBmb250LXNpemU6IDEycHg7IiB0cmFuc2Zvcm09InRyYW5zbGF0ZSgxNDMuNzcwNDEzODc1NTc5ODMsMTEuODAwMDAwMTkwNzM0ODYzKSIgeT0iMCIgeD0iMCIgaWQ9InRleHQtZW50aXR5LU5PVElGSUNBVElPTlNFVFRJTkdTLTU1N2I4ZDBhLTg5NTEtNWY0My1iNmU4LTU2MDI5ZDA0MDVkMSIgY2xhc3M9ImVyIGVudGl0eUxhYmVsIj5OT1RJRklDQVRJT05fU0VUVElOR1M8L3RleHQ+PHJlY3QgaGVpZ2h0PSIyMiIgd2lkdGg9IjUxLjY2ODU1NjIxMzM3ODkwNiIgeT0iMjMuNjAwMDAwMzgxNDY5NzI3IiB4PSIwIiBjbGFzcz0iZXIgYXR0cmlidXRlQm94T2RkIj48L3JlY3Q+PHRleHQgc3R5bGU9ImRvbWluYW50LWJhc2VsaW5lOiBtaWRkbGU7IGZvbnQtc2l6ZTogMTAuMnB4OyIgdHJhbnNmb3JtPSJ0cmFuc2xhdGUoNSwzNC42MDAwMDAzODE0Njk3MykiIHk9IjAiIHg9IjAiIGlkPSJ0ZXh0LWVudGl0eS1OT1RJRklDQVRJT05TRVRUSU5HUy01NTdiOGQwYS04OTUxLTVmNDMtYjZlOC01NjAyOWQwNDA1ZDEtYXR0ci0xLXR5cGUiIGNsYXNzPSJlciBlbnRpdHlMYWJlbCI+aW50PC90ZXh0PjxyZWN0IGhlaWdodD0iMjIiIHdpZHRoPSI5NC4wMzkyNjA4NjQyNTc4MSIgeT0iMjMuNjAwMDAwMzgxNDY5NzI3IiB4PSI1MS42Njg1NTYyMTMzNzg5MDYiIGNsYXNzPSJlciBhdHRyaWJ1dGVCb3hPZGQiPjwvcmVjdD48dGV4dCBzdHlsZT0iZG9taW5hbnQtYmFzZWxpbmU6IG1pZGRsZTsgZm9udC1zaXplOiAxMC4ycHg7IiB0cmFuc2Zvcm09InRyYW5zbGF0ZSg1Ni42Njg1NTYyMTMzNzg5MDYsMzQuNjAwMDAwMzgxNDY5NzMpIiB5PSIwIiB4PSIwIiBpZD0idGV4dC1lbnRpdHktTk9USUZJQ0FUSU9OU0VUVElOR1MtNTU3YjhkMGEtODk1MS01ZjQzLWI2ZTgtNTYwMjlkMDQwNWQxLWF0dHItMS1uYW1lIiBjbGFzcz0iZXIgZW50aXR5TGFiZWwiPmlkPC90ZXh0PjxyZWN0IGhlaWdodD0iMjIiIHdpZHRoPSIyMi4wODc2OTUxMjE3NjUxMzciIHk9IjIzLjYwMDAwMDM4MTQ2OTcyNyIgeD0iMTQ1LjcwNzgxNzA3NzYzNjcyIiBjbGFzcz0iZXIgYXR0cmlidXRlQm94T2RkIj48L3JlY3Q+PHRleHQgc3R5bGU9ImRvbWluYW50LWJhc2VsaW5lOiBtaWRkbGU7IGZvbnQtc2l6ZTogMTAuMnB4OyIgdHJhbnNmb3JtPSJ0cmFuc2xhdGUoMTUwLjcwNzgxNzA3NzYzNjcyLDM0LjYwMDAwMDM4MTQ2OTczKSIgeT0iMCIgeD0iMCIgaWQ9InRleHQtZW50aXR5LU5PVElGSUNBVElPTlNFVFRJTkdTLTU1N2I4ZDBhLTg5NTEtNWY0My1iNmU4LTU2MDI5ZDA0MDVkMS1hdHRyLTEta2V5IiBjbGFzcz0iZXIgZW50aXR5TGFiZWwiPlBLPC90ZXh0PjxyZWN0IGhlaWdodD0iMjIiIHdpZHRoPSIxMTkuNzQ1MzE1NTUxNzU3ODEiIHk9IjIzLjYwMDAwMDM4MTQ2OTcyNyIgeD0iMTY3Ljc5NTUxMjE5OTQwMTg2IiBjbGFzcz0iZXIgYXR0cmlidXRlQm94T2RkIj48L3JlY3Q+PHRleHQgc3R5bGU9ImRvbWluYW50LWJhc2VsaW5lOiBtaWRkbGU7IGZvbnQtc2l6ZTogMTAuMnB4OyIgdHJhbnNmb3JtPSJ0cmFuc2xhdGUoMTcyLjc5NTUxMjE5OTQwMTg2LDM0LjYwMDAwMDM4MTQ2OTczKSIgeT0iMCIgeD0iMCIgaWQ9InRleHQtZW50aXR5LU5PVElGSUNBVElPTlNFVFRJTkdTLTU1N2I4ZDBhLTg5NTEtNWY0My1iNmU4LTU2MDI5ZDA0MDVkMS1hdHRyLTEtY29tbWVudCIgY2xhc3M9ImVyIGVudGl0eUxhYmVsIj7pgJrnn6XoqK3lrppJRDwvdGV4dD48cmVjdCBoZWlnaHQ9IjIyIiB3aWR0aD0iNTEuNjY4NTU2MjEzMzc4OTA2IiB5PSI0NS42MDAwMDAzODE0Njk3MyIgeD0iMCIgY2xhc3M9ImVyIGF0dHJpYnV0ZUJveEV2ZW4iPjwvcmVjdD48dGV4dCBzdHlsZT0iZG9taW5hbnQtYmFzZWxpbmU6IG1pZGRsZTsgZm9udC1zaXplOiAxMC4ycHg7IiB0cmFuc2Zvcm09InRyYW5zbGF0ZSg1LDU2LjYwMDAwMDM4MTQ2OTczKSIgeT0iMCIgeD0iMCIgaWQ9InRleHQtZW50aXR5LU5PVElGSUNBVElPTlNFVFRJTkdTLTU1N2I4ZDBhLTg5NTEtNWY0My1iNmU4LTU2MDI5ZDA0MDVkMS1hdHRyLTItdHlwZSIgY2xhc3M9ImVyIGVudGl0eUxhYmVsIj5pbnQ8L3RleHQ+PHJlY3QgaGVpZ2h0PSIyMiIgd2lkdGg9Ijk0LjAzOTI2MDg2NDI1NzgxIiB5PSI0NS42MDAwMDAzODE0Njk3MyIgeD0iNTEuNjY4NTU2MjEzMzc4OTA2IiBjbGFzcz0iZXIgYXR0cmlidXRlQm94RXZlbiI+PC9yZWN0Pjx0ZXh0IHN0eWxlPSJkb21pbmFudC1iYXNlbGluZTogbWlkZGxlOyBmb250LXNpemU6IDEwLjJweDsiIHRyYW5zZm9ybT0idHJhbnNsYXRlKDU2LjY2ODU1NjIxMzM3ODkwNiw1Ni42MDAwMDAzODE0Njk3MykiIHk9IjAiIHg9IjAiIGlkPSJ0ZXh0LWVudGl0eS1OT1RJRklDQVRJT05TRVRUSU5HUy01NTdiOGQwYS04OTUxLTVmNDMtYjZlOC01NjAyOWQwNDA1ZDEtYXR0ci0yLW5hbWUiIGNsYXNzPSJlciBlbnRpdHlMYWJlbCI+dXNlcl9pZDwvdGV4dD48cmVjdCBoZWlnaHQ9IjIyIiB3aWR0aD0iMjIuMDg3Njk1MTIxNzY1MTM3IiB5PSI0NS42MDAwMDAzODE0Njk3MyIgeD0iMTQ1LjcwNzgxNzA3NzYzNjcyIiBjbGFzcz0iZXIgYXR0cmlidXRlQm94RXZlbiI+PC9yZWN0Pjx0ZXh0IHN0eWxlPSJkb21pbmFudC1iYXNlbGluZTogbWlkZGxlOyBmb250LXNpemU6IDEwLjJweDsiIHRyYW5zZm9ybT0idHJhbnNsYXRlKDE1MC43MDc4MTcwNzc2MzY3Miw1Ni42MDAwMDAzODE0Njk3MykiIHk9IjAiIHg9IjAiIGlkPSJ0ZXh0LWVudGl0eS1OT1RJRklDQVRJT05TRVRUSU5HUy01NTdiOGQwYS04OTUxLTVmNDMtYjZlOC01NjAyOWQwNDA1ZDEtYXR0ci0yLWtleSIgY2xhc3M9ImVyIGVudGl0eUxhYmVsIj5GSzwvdGV4dD48cmVjdCBoZWlnaHQ9IjIyIiB3aWR0aD0iMTE5Ljc0NTMxNTU1MTc1NzgxIiB5PSI0NS42MDAwMDAzODE0Njk3MyIgeD0iMTY3Ljc5NTUxMjE5OTQwMTg2IiBjbGFzcz0iZXIgYXR0cmlidXRlQm94RXZlbiI+PC9yZWN0Pjx0ZXh0IHN0eWxlPSJkb21pbmFudC1iYXNlbGluZTogbWlkZGxlOyBmb250LXNpemU6IDEwLjJweDsiIHRyYW5zZm9ybT0idHJhbnNsYXRlKDE3Mi43OTU1MTIxOTk0MDE4Niw1Ni42MDAwMDAzODE0Njk3MykiIHk9IjAiIHg9IjAiIGlkPSJ0ZXh0LWVudGl0eS1OT1RJRklDQVRJT05TRVRUSU5HUy01NTdiOGQwYS04OTUxLTVmNDMtYjZlOC01NjAyOWQwNDA1ZDEtYXR0ci0yLWNvbW1lbnQiIGNsYXNzPSJlciBlbnRpdHlMYWJlbCI+44Om44O844K244O8SUQ8L3RleHQ+PHJlY3QgaGVpZ2h0PSIyMiIgd2lkdGg9IjUxLjY2ODU1NjIxMzM3ODkwNiIgeT0iNjcuNjAwMDAwMzgxNDY5NzMiIHg9IjAiIGNsYXNzPSJlciBhdHRyaWJ1dGVCb3hPZGQiPjwvcmVjdD48dGV4dCBzdHlsZT0iZG9taW5hbnQtYmFzZWxpbmU6IG1pZGRsZTsgZm9udC1zaXplOiAxMC4ycHg7IiB0cmFuc2Zvcm09InRyYW5zbGF0ZSg1LDc4LjYwMDAwMDM4MTQ2OTczKSIgeT0iMCIgeD0iMCIgaWQ9InRleHQtZW50aXR5LU5PVElGSUNBVElPTlNFVFRJTkdTLTU1N2I4ZDBhLTg5NTEtNWY0My1iNmU4LTU2MDI5ZDA0MDVkMS1hdHRyLTMtdHlwZSIgY2xhc3M9ImVyIGVudGl0eUxhYmVsIj5ib29sZWFuPC90ZXh0PjxyZWN0IGhlaWdodD0iMjIiIHdpZHRoPSI5NC4wMzkyNjA4NjQyNTc4MSIgeT0iNjcuNjAwMDAwMzgxNDY5NzMiIHg9IjUxLjY2ODU1NjIxMzM3ODkwNiIgY2xhc3M9ImVyIGF0dHJpYnV0ZUJveE9kZCI+PC9yZWN0Pjx0ZXh0IHN0eWxlPSJkb21pbmFudC1iYXNlbGluZTogbWlkZGxlOyBmb250LXNpemU6IDEwLjJweDsiIHRyYW5zZm9ybT0idHJhbnNsYXRlKDU2LjY2ODU1NjIxMzM3ODkwNiw3OC42MDAwMDAzODE0Njk3MykiIHk9IjAiIHg9IjAiIGlkPSJ0ZXh0LWVudGl0eS1OT1RJRklDQVRJT05TRVRUSU5HUy01NTdiOGQwYS04OTUxLTVmNDMtYjZlOC01NjAyOWQwNDA1ZDEtYXR0ci0zLW5hbWUiIGNsYXNzPSJlciBlbnRpdHlMYWJlbCI+Z2FyYmFnZV9yZW1pbmRlcjwvdGV4dD48cmVjdCBoZWlnaHQ9IjIyIiB3aWR0aD0iMjIuMDg3Njk1MTIxNzY1MTM3IiB5PSI2Ny42MDAwMDAzODE0Njk3MyIgeD0iMTQ1LjcwNzgxNzA3NzYzNjcyIiBjbGFzcz0iZXIgYXR0cmlidXRlQm94T2RkIj48L3JlY3Q+PHRleHQgc3R5bGU9ImRvbWluYW50LWJhc2VsaW5lOiBtaWRkbGU7IGZvbnQtc2l6ZTogMTAuMnB4OyIgdHJhbnNmb3JtPSJ0cmFuc2xhdGUoMTUwLjcwNzgxNzA3NzYzNjcyLDc4LjYwMDAwMDM4MTQ2OTczKSIgeT0iMCIgeD0iMCIgaWQ9InRleHQtZW50aXR5LU5PVElGSUNBVElPTlNFVFRJTkdTLTU1N2I4ZDBhLTg5NTEtNWY0My1iNmU4LTU2MDI5ZDA0MDVkMS1hdHRyLTMta2V5IiBjbGFzcz0iZXIgZW50aXR5TGFiZWwiPjwvdGV4dD48cmVjdCBoZWlnaHQ9IjIyIiB3aWR0aD0iMTE5Ljc0NTMxNTU1MTc1NzgxIiB5PSI2Ny42MDAwMDAzODE0Njk3MyIgeD0iMTY3Ljc5NTUxMjE5OTQwMTg2IiBjbGFzcz0iZXIgYXR0cmlidXRlQm94T2RkIj48L3JlY3Q+PHRleHQgc3R5bGU9ImRvbWluYW50LWJhc2VsaW5lOiBtaWRkbGU7IGZvbnQtc2l6ZTogMTAuMnB4OyIgdHJhbnNmb3JtPSJ0cmFuc2xhdGUoMTcyLjc5NTUxMjE5OTQwMTg2LDc4LjYwMDAwMDM4MTQ2OTczKSIgeT0iMCIgeD0iMCIgaWQ9InRleHQtZW50aXR5LU5PVElGSUNBVElPTlNFVFRJTkdTLTU1N2I4ZDBhLTg5NTEtNWY0My1iNmU4LTU2MDI5ZDA0MDVkMS1hdHRyLTMtY29tbWVudCIgY2xhc3M9ImVyIGVudGl0eUxhYmVsIj7jgrTjg5/lh7rjgZfjg6rjg57jgqTjg7Pjg4Djg7w8L3RleHQ+PHJlY3QgaGVpZ2h0PSIyMiIgd2lkdGg9IjUxLjY2ODU1NjIxMzM3ODkwNiIgeT0iODkuNjAwMDAwMzgxNDY5NzMiIHg9IjAiIGNsYXNzPSJlciBhdHRyaWJ1dGVCb3hFdmVuIj48L3JlY3Q+PHRleHQgc3R5bGU9ImRvbWluYW50LWJhc2VsaW5lOiBtaWRkbGU7IGZvbnQtc2l6ZTogMTAuMnB4OyIgdHJhbnNmb3JtPSJ0cmFuc2xhdGUoNSwxMDAuNjAwMDAwMzgxNDY5NzMpIiB5PSIwIiB4PSIwIiBpZD0idGV4dC1lbnRpdHktTk9USUZJQ0FUSU9OU0VUVElOR1MtNTU3YjhkMGEtODk1MS01ZjQzLWI2ZTgtNTYwMjlkMDQwNWQxLWF0dHItNC10eXBlIiBjbGFzcz0iZXIgZW50aXR5TGFiZWwiPmJvb2xlYW48L3RleHQ+PHJlY3QgaGVpZ2h0PSIyMiIgd2lkdGg9Ijk0LjAzOTI2MDg2NDI1NzgxIiB5PSI4OS42MDAwMDAzODE0Njk3MyIgeD0iNTEuNjY4NTU2MjEzMzc4OTA2IiBjbGFzcz0iZXIgYXR0cmlidXRlQm94RXZlbiI+PC9yZWN0Pjx0ZXh0IHN0eWxlPSJkb21pbmFudC1iYXNlbGluZTogbWlkZGxlOyBmb250LXNpemU6IDEwLjJweDsiIHRyYW5zZm9ybT0idHJhbnNsYXRlKDU2LjY2ODU1NjIxMzM3ODkwNiwxMDAuNjAwMDAwMzgxNDY5NzMpIiB5PSIwIiB4PSIwIiBpZD0idGV4dC1lbnRpdHktTk9USUZJQ0FUSU9OU0VUVElOR1MtNTU3YjhkMGEtODk1MS01ZjQzLWI2ZTgtNTYwMjlkMDQwNWQxLWF0dHItNC1uYW1lIiBjbGFzcz0iZXIgZW50aXR5TGFiZWwiPmFwcF91cGRhdGVzPC90ZXh0PjxyZWN0IGhlaWdodD0iMjIiIHdpZHRoPSIyMi4wODc2OTUxMjE3NjUxMzciIHk9Ijg5LjYwMDAwMDM4MTQ2OTczIiB4PSIxNDUuNzA3ODE3MDc3NjM2NzIiIGNsYXNzPSJlciBhdHRyaWJ1dGVCb3hFdmVuIj48L3JlY3Q+PHRleHQgc3R5bGU9ImRvbWluYW50LWJhc2VsaW5lOiBtaWRkbGU7IGZvbnQtc2l6ZTogMTAuMnB4OyIgdHJhbnNmb3JtPSJ0cmFuc2xhdGUoMTUwLjcwNzgxNzA3NzYzNjcyLDEwMC42MDAwMDAzODE0Njk3MykiIHk9IjAiIHg9IjAiIGlkPSJ0ZXh0LWVudGl0eS1OT1RJRklDQVRJT05TRVRUSU5HUy01NTdiOGQwYS04OTUxLTVmNDMtYjZlOC01NjAyOWQwNDA1ZDEtYXR0ci00LWtleSIgY2xhc3M9ImVyIGVudGl0eUxhYmVsIj48L3RleHQ+PHJlY3QgaGVpZ2h0PSIyMiIgd2lkdGg9IjExOS43NDUzMTU1NTE3NTc4MSIgeT0iODkuNjAwMDAwMzgxNDY5NzMiIHg9IjE2Ny43OTU1MTIxOTk0MDE4NiIgY2xhc3M9ImVyIGF0dHJpYnV0ZUJveEV2ZW4iPjwvcmVjdD48dGV4dCBzdHlsZT0iZG9taW5hbnQtYmFzZWxpbmU6IG1pZGRsZTsgZm9udC1zaXplOiAxMC4ycHg7IiB0cmFuc2Zvcm09InRyYW5zbGF0ZSgxNzIuNzk1NTEyMTk5NDAxODYsMTAwLjYwMDAwMDM4MTQ2OTczKSIgeT0iMCIgeD0iMCIgaWQ9InRleHQtZW50aXR5LU5PVElGSUNBVElPTlNFVFRJTkdTLTU1N2I4ZDBhLTg5NTEtNWY0My1iNmU4LTU2MDI5ZDA0MDVkMS1hdHRyLTQtY29tbWVudCIgY2xhc3M9ImVyIGVudGl0eUxhYmVsIj7jgqLjg5fjg6rmm7TmlrDpgJrnn6U8L3RleHQ+PHJlY3QgaGVpZ2h0PSIyMi44MDAwMDAxOTA3MzQ4NjMiIHdpZHRoPSI1MS42Njg1NTYyMTMzNzg5MDYiIHk9IjExMS42MDAwMDAzODE0Njk3MyIgeD0iMCIgY2xhc3M9ImVyIGF0dHJpYnV0ZUJveE9kZCI+PC9yZWN0Pjx0ZXh0IHN0eWxlPSJkb21pbmFudC1iYXNlbGluZTogbWlkZGxlOyBmb250LXNpemU6IDEwLjJweDsiIHRyYW5zZm9ybT0idHJhbnNsYXRlKDUsMTIzLjAwMDAwMDQ3NjgzNzE2KSIgeT0iMCIgeD0iMCIgaWQ9InRleHQtZW50aXR5LU5PVElGSUNBVElPTlNFVFRJTkdTLTU1N2I4ZDBhLTg5NTEtNWY0My1iNmU4LTU2MDI5ZDA0MDVkMS1hdHRyLTUtdHlwZSIgY2xhc3M9ImVyIGVudGl0eUxhYmVsIj5pbnQ8L3RleHQ+PHJlY3QgaGVpZ2h0PSIyMi44MDAwMDAxOTA3MzQ4NjMiIHdpZHRoPSI5NC4wMzkyNjA4NjQyNTc4MSIgeT0iMTExLjYwMDAwMDM4MTQ2OTczIiB4PSI1MS42Njg1NTYyMTMzNzg5MDYiIGNsYXNzPSJlciBhdHRyaWJ1dGVCb3hPZGQiPjwvcmVjdD48dGV4dCBzdHlsZT0iZG9taW5hbnQtYmFzZWxpbmU6IG1pZGRsZTsgZm9udC1zaXplOiAxMC4ycHg7IiB0cmFuc2Zvcm09InRyYW5zbGF0ZSg1Ni42Njg1NTYyMTMzNzg5MDYsMTIzLjAwMDAwMDQ3NjgzNzE2KSIgeT0iMCIgeD0iMCIgaWQ9InRleHQtZW50aXR5LU5PVElGSUNBVElPTlNFVFRJTkdTLTU1N2I4ZDBhLTg5NTEtNWY0My1iNmU4LTU2MDI5ZDA0MDVkMS1hdHRyLTUtbmFtZSIgY2xhc3M9ImVyIGVudGl0eUxhYmVsIj5yZW1pbmRlcl90aW1lPC90ZXh0PjxyZWN0IGhlaWdodD0iMjIuODAwMDAwMTkwNzM0ODYzIiB3aWR0aD0iMjIuMDg3Njk1MTIxNzY1MTM3IiB5PSIxMTEuNjAwMDAwMzgxNDY5NzMiIHg9IjE0NS43MDc4MTcwNzc2MzY3MiIgY2xhc3M9ImVyIGF0dHJpYnV0ZUJveE9kZCI+PC9yZWN0Pjx0ZXh0IHN0eWxlPSJkb21pbmFudC1iYXNlbGluZTogbWlkZGxlOyBmb250LXNpemU6IDEwLjJweDsiIHRyYW5zZm9ybT0idHJhbnNsYXRlKDE1MC43MDc4MTcwNzc2MzY3MiwxMjMuMDAwMDAwNDc2ODM3MTYpIiB5PSIwIiB4PSIwIiBpZD0idGV4dC1lbnRpdHktTk9USUZJQ0FUSU9OU0VUVElOR1MtNTU3YjhkMGEtODk1MS01ZjQzLWI2ZTgtNTYwMjlkMDQwNWQxLWF0dHItNS1rZXkiIGNsYXNzPSJlciBlbnRpdHlMYWJlbCI+PC90ZXh0PjxyZWN0IGhlaWdodD0iMjIuODAwMDAwMTkwNzM0ODYzIiB3aWR0aD0iMTE5Ljc0NTMxNTU1MTc1NzgxIiB5PSIxMTEuNjAwMDAwMzgxNDY5NzMiIHg9IjE2Ny43OTU1MTIxOTk0MDE4NiIgY2xhc3M9ImVyIGF0dHJpYnV0ZUJveE9kZCI+PC9yZWN0Pjx0ZXh0IHN0eWxlPSJkb21pbmFudC1iYXNlbGluZTogbWlkZGxlOyBmb250LXNpemU6IDEwLjJweDsiIHRyYW5zZm9ybT0idHJhbnNsYXRlKDE3Mi43OTU1MTIxOTk0MDE4NiwxMjMuMDAwMDAwNDc2ODM3MTYpIiB5PSIwIiB4PSIwIiBpZD0idGV4dC1lbnRpdHktTk9USUZJQ0FUSU9OU0VUVElOR1MtNTU3YjhkMGEtODk1MS01ZjQzLWI2ZTgtNTYwMjlkMDQwNWQxLWF0dHItNS1jb21tZW50IiBjbGFzcz0iZXIgZW50aXR5TGFiZWwiPuODquODnuOCpOODs+ODgOODvOaZgumWkyjliIbliY0pPC90ZXh0PjxyZWN0IGhlaWdodD0iMjIiIHdpZHRoPSI1MS42Njg1NTYyMTMzNzg5MDYiIHk9IjEzNC40MDAwMDA1NzIyMDQ2IiB4PSIwIiBjbGFzcz0iZXIgYXR0cmlidXRlQm94RXZlbiI+PC9yZWN0Pjx0ZXh0IHN0eWxlPSJkb21pbmFudC1iYXNlbGluZTogbWlkZGxlOyBmb250LXNpemU6IDEwLjJweDsiIHRyYW5zZm9ybT0idHJhbnNsYXRlKDUsMTQ1LjQwMDAwMDU3MjIwNDYpIiB5PSIwIiB4PSIwIiBpZD0idGV4dC1lbnRpdHktTk9USUZJQ0FUSU9OU0VUVElOR1MtNTU3YjhkMGEtODk1MS01ZjQzLWI2ZTgtNTYwMjlkMDQwNWQxLWF0dHItNi10eXBlIiBjbGFzcz0iZXIgZW50aXR5TGFiZWwiPmRhdGV0aW1lPC90ZXh0PjxyZWN0IGhlaWdodD0iMjIiIHdpZHRoPSI5NC4wMzkyNjA4NjQyNTc4MSIgeT0iMTM0LjQwMDAwMDU3MjIwNDYiIHg9IjUxLjY2ODU1NjIxMzM3ODkwNiIgY2xhc3M9ImVyIGF0dHJpYnV0ZUJveEV2ZW4iPjwvcmVjdD48dGV4dCBzdHlsZT0iZG9taW5hbnQtYmFzZWxpbmU6IG1pZGRsZTsgZm9udC1zaXplOiAxMC4ycHg7IiB0cmFuc2Zvcm09InRyYW5zbGF0ZSg1Ni42Njg1NTYyMTMzNzg5MDYsMTQ1LjQwMDAwMDU3MjIwNDYpIiB5PSIwIiB4PSIwIiBpZD0idGV4dC1lbnRpdHktTk9USUZJQ0FUSU9OU0VUVElOR1MtNTU3YjhkMGEtODk1MS01ZjQzLWI2ZTgtNTYwMjlkMDQwNWQxLWF0dHItNi1uYW1lIiBjbGFzcz0iZXIgZW50aXR5TGFiZWwiPnVwZGF0ZWRfYXQ8L3RleHQ+PHJlY3QgaGVpZ2h0PSIyMiIgd2lkdGg9IjIyLjA4NzY5NTEyMTc2NTEzNyIgeT0iMTM0LjQwMDAwMDU3MjIwNDYiIHg9IjE0NS43MDc4MTcwNzc2MzY3MiIgY2xhc3M9ImVyIGF0dHJpYnV0ZUJveEV2ZW4iPjwvcmVjdD48dGV4dCBzdHlsZT0iZG9taW5hbnQtYmFzZWxpbmU6IG1pZGRsZTsgZm9udC1zaXplOiAxMC4ycHg7IiB0cmFuc2Zvcm09InRyYW5zbGF0ZSgxNTAuNzA3ODE3MDc3NjM2NzIsMTQ1LjQwMDAwMDU3MjIwNDYpIiB5PSIwIiB4PSIwIiBpZD0idGV4dC1lbnRpdHktTk9USUZJQ0FUSU9OU0VUVElOR1MtNTU3YjhkMGEtODk1MS01ZjQzLWI2ZTgtNTYwMjlkMDQwNWQxLWF0dHItNi1rZXkiIGNsYXNzPSJlciBlbnRpdHlMYWJlbCI+PC90ZXh0PjxyZWN0IGhlaWdodD0iMjIiIHdpZHRoPSIxMTkuNzQ1MzE1NTUxNzU3ODEiIHk9IjEzNC40MDAwMDA1NzIyMDQ2IiB4PSIxNjcuNzk1NTEyMTk5NDAxODYiIGNsYXNzPSJlciBhdHRyaWJ1dGVCb3hFdmVuIj48L3JlY3Q+PHRleHQgc3R5bGU9ImRvbWluYW50LWJhc2VsaW5lOiBtaWRkbGU7IGZvbnQtc2l6ZTogMTAuMnB4OyIgdHJhbnNmb3JtPSJ0cmFuc2xhdGUoMTcyLjc5NTUxMjE5OTQwMTg2LDE0NS40MDAwMDA1NzIyMDQ2KSIgeT0iMCIgeD0iMCIgaWQ9InRleHQtZW50aXR5LU5PVElGSUNBVElPTlNFVFRJTkdTLTU1N2I4ZDBhLTg5NTEtNWY0My1iNmU4LTU2MDI5ZDA0MDVkMS1hdHRyLTYtY29tbWVudCIgY2xhc3M9ImVyIGVudGl0eUxhYmVsIj7mm7TmlrDml6XmmYI8L3RleHQ+PC9nPjxnIHRyYW5zZm9ybT0idHJhbnNsYXRlKDQ1NC42NDc3MTI3MDc1MTk1Myw2NjQgKSIgaWQ9ImVudGl0eS1DT0xMRUNUSU9OQVJFQVMtZjIyOGM4M2ItMDRhNS01ZTgyLTk4MTgtNDFkNDJjOTFhZGI2Ij48cmVjdCBoZWlnaHQ9IjE5OS42MDAwMDAzODE0Njk3MyIgd2lkdGg9IjI1NC41Mjg1MjM0NDUxMjk0IiB5PSIwIiB4PSIwIiBjbGFzcz0iZXIgZW50aXR5Qm94Ij48L3JlY3Q+PHRleHQgc3R5bGU9ImRvbWluYW50LWJhc2VsaW5lOiBtaWRkbGU7IHRleHQtYW5jaG9yOiBtaWRkbGU7IGZvbnQtc2l6ZTogMTJweDsiIHRyYW5zZm9ybT0idHJhbnNsYXRlKDEyNy4yNjQyNjE3MjI1NjQ3LDExLjgwMDAwMDE5MDczNDg2MykiIHk9IjAiIHg9IjAiIGlkPSJ0ZXh0LWVudGl0eS1DT0xMRUNUSU9OQVJFQVMtZjIyOGM4M2ItMDRhNS01ZTgyLTk4MTgtNDFkNDJjOTFhZGI2IiBjbGFzcz0iZXIgZW50aXR5TGFiZWwiPkNPTExFQ1RJT05fQVJFQVM8L3RleHQ+PHJlY3QgaGVpZ2h0PSIyMiIgd2lkdGg9IjM2LjIxOTE0MTAwNjQ2OTczIiB5PSIyMy42MDAwMDAzODE0Njk3MjciIHg9IjAiIGNsYXNzPSJlciBhdHRyaWJ1dGVCb3hPZGQiPjwvcmVjdD48dGV4dCBzdHlsZT0iZG9taW5hbnQtYmFzZWxpbmU6IG1pZGRsZTsgZm9udC1zaXplOiAxMC4ycHg7IiB0cmFuc2Zvcm09InRyYW5zbGF0ZSg1LDM0LjYwMDAwMDM4MTQ2OTczKSIgeT0iMCIgeD0iMCIgaWQ9InRleHQtZW50aXR5LUNPTExFQ1RJT05BUkVBUy1mMjI4YzgzYi0wNGE1LTVlODItOTgxOC00MWQ0MmM5MWFkYjYtYXR0ci0xLXR5cGUiIGNsYXNzPSJlciBlbnRpdHlMYWJlbCI+aW50PC90ZXh0PjxyZWN0IGhlaWdodD0iMjIiIHdpZHRoPSIxMDQuNDIxNjg0MjY1MTM2NzIiIHk9IjIzLjYwMDAwMDM4MTQ2OTcyNyIgeD0iMzYuMjE5MTQxMDA2NDY5NzMiIGNsYXNzPSJlciBhdHRyaWJ1dGVCb3hPZGQiPjwvcmVjdD48dGV4dCBzdHlsZT0iZG9taW5hbnQtYmFzZWxpbmU6IG1pZGRsZTsgZm9udC1zaXplOiAxMC4ycHg7IiB0cmFuc2Zvcm09InRyYW5zbGF0ZSg0MS4yMTkxNDEwMDY0Njk3MywzNC42MDAwMDAzODE0Njk3MykiIHk9IjAiIHg9IjAiIGlkPSJ0ZXh0LWVudGl0eS1DT0xMRUNUSU9OQVJFQVMtZjIyOGM4M2ItMDRhNS01ZTgyLTk4MTgtNDFkNDJjOTFhZGI2LWF0dHItMS1uYW1lIiBjbGFzcz0iZXIgZW50aXR5TGFiZWwiPmlkPC90ZXh0PjxyZWN0IGhlaWdodD0iMjIiIHdpZHRoPSIyMi4wODc2OTUxMjE3NjUxMzciIHk9IjIzLjYwMDAwMDM4MTQ2OTcyNyIgeD0iMTQwLjY0MDgyNTI3MTYwNjQ1IiBjbGFzcz0iZXIgYXR0cmlidXRlQm94T2RkIj48L3JlY3Q+PHRleHQgc3R5bGU9ImRvbWluYW50LWJhc2VsaW5lOiBtaWRkbGU7IGZvbnQtc2l6ZTogMTAuMnB4OyIgdHJhbnNmb3JtPSJ0cmFuc2xhdGUoMTQ1LjY0MDgyNTI3MTYwNjQ1LDM0LjYwMDAwMDM4MTQ2OTczKSIgeT0iMCIgeD0iMCIgaWQ9InRleHQtZW50aXR5LUNPTExFQ1RJT05BUkVBUy1mMjI4YzgzYi0wNGE1LTVlODItOTgxOC00MWQ0MmM5MWFkYjYtYXR0ci0xLWtleSIgY2xhc3M9ImVyIGVudGl0eUxhYmVsIj5QSzwvdGV4dD48cmVjdCBoZWlnaHQ9IjIyIiB3aWR0aD0iOTEuODAwMDAzMDUxNzU3ODEiIHk9IjIzLjYwMDAwMDM4MTQ2OTcyNyIgeD0iMTYyLjcyODUyMDM5MzM3MTU4IiBjbGFzcz0iZXIgYXR0cmlidXRlQm94T2RkIj48L3JlY3Q+PHRleHQgc3R5bGU9ImRvbWluYW50LWJhc2VsaW5lOiBtaWRkbGU7IGZvbnQtc2l6ZTogMTAuMnB4OyIgdHJhbnNmb3JtPSJ0cmFuc2xhdGUoMTY3LjcyODUyMDM5MzM3MTU4LDM0LjYwMDAwMDM4MTQ2OTczKSIgeT0iMCIgeD0iMCIgaWQ9InRleHQtZW50aXR5LUNPTExFQ1RJT05BUkVBUy1mMjI4YzgzYi0wNGE1LTVlODItOTgxOC00MWQ0MmM5MWFkYjYtYXR0ci0xLWNvbW1lbnQiIGNsYXNzPSJlciBlbnRpdHlMYWJlbCI+5Y+O6ZuG44Ko44Oq44KiSUQ8L3RleHQ+PHJlY3QgaGVpZ2h0PSIyMiIgd2lkdGg9IjM2LjIxOTE0MTAwNjQ2OTczIiB5PSI0NS42MDAwMDAzODE0Njk3MyIgeD0iMCIgY2xhc3M9ImVyIGF0dHJpYnV0ZUJveEV2ZW4iPjwvcmVjdD48dGV4dCBzdHlsZT0iZG9taW5hbnQtYmFzZWxpbmU6IG1pZGRsZTsgZm9udC1zaXplOiAxMC4ycHg7IiB0cmFuc2Zvcm09InRyYW5zbGF0ZSg1LDU2LjYwMDAwMDM4MTQ2OTczKSIgeT0iMCIgeD0iMCIgaWQ9InRleHQtZW50aXR5LUNPTExFQ1RJT05BUkVBUy1mMjI4YzgzYi0wNGE1LTVlODItOTgxOC00MWQ0MmM5MWFkYjYtYXR0ci0yLXR5cGUiIGNsYXNzPSJlciBlbnRpdHlMYWJlbCI+aW50PC90ZXh0PjxyZWN0IGhlaWdodD0iMjIiIHdpZHRoPSIxMDQuNDIxNjg0MjY1MTM2NzIiIHk9IjQ1LjYwMDAwMDM4MTQ2OTczIiB4PSIzNi4yMTkxNDEwMDY0Njk3MyIgY2xhc3M9ImVyIGF0dHJpYnV0ZUJveEV2ZW4iPjwvcmVjdD48dGV4dCBzdHlsZT0iZG9taW5hbnQtYmFzZWxpbmU6IG1pZGRsZTsgZm9udC1zaXplOiAxMC4ycHg7IiB0cmFuc2Zvcm09InRyYW5zbGF0ZSg0MS4yMTkxNDEwMDY0Njk3Myw1Ni42MDAwMDAzODE0Njk3MykiIHk9IjAiIHg9IjAiIGlkPSJ0ZXh0LWVudGl0eS1DT0xMRUNUSU9OQVJFQVMtZjIyOGM4M2ItMDRhNS01ZTgyLTk4MTgtNDFkNDJjOTFhZGI2LWF0dHItMi1uYW1lIiBjbGFzcz0iZXIgZW50aXR5TGFiZWwiPm11bmljaXBhbGl0eV9pZDwvdGV4dD48cmVjdCBoZWlnaHQ9IjIyIiB3aWR0aD0iMjIuMDg3Njk1MTIxNzY1MTM3IiB5PSI0NS42MDAwMDAzODE0Njk3MyIgeD0iMTQwLjY0MDgyNTI3MTYwNjQ1IiBjbGFzcz0iZXIgYXR0cmlidXRlQm94RXZlbiI+PC9yZWN0Pjx0ZXh0IHN0eWxlPSJkb21pbmFudC1iYXNlbGluZTogbWlkZGxlOyBmb250LXNpemU6IDEwLjJweDsiIHRyYW5zZm9ybT0idHJhbnNsYXRlKDE0NS42NDA4MjUyNzE2MDY0NSw1Ni42MDAwMDAzODE0Njk3MykiIHk9IjAiIHg9IjAiIGlkPSJ0ZXh0LWVudGl0eS1DT0xMRUNUSU9OQVJFQVMtZjIyOGM4M2ItMDRhNS01ZTgyLTk4MTgtNDFkNDJjOTFhZGI2LWF0dHItMi1rZXkiIGNsYXNzPSJlciBlbnRpdHlMYWJlbCI+Rks8L3RleHQ+PHJlY3QgaGVpZ2h0PSIyMiIgd2lkdGg9IjkxLjgwMDAwMzA1MTc1NzgxIiB5PSI0NS42MDAwMDAzODE0Njk3MyIgeD0iMTYyLjcyODUyMDM5MzM3MTU4IiBjbGFzcz0iZXIgYXR0cmlidXRlQm94RXZlbiI+PC9yZWN0Pjx0ZXh0IHN0eWxlPSJkb21pbmFudC1iYXNlbGluZTogbWlkZGxlOyBmb250LXNpemU6IDEwLjJweDsiIHRyYW5zZm9ybT0idHJhbnNsYXRlKDE2Ny43Mjg1MjAzOTMzNzE1OCw1Ni42MDAwMDAzODE0Njk3MykiIHk9IjAiIHg9IjAiIGlkPSJ0ZXh0LWVudGl0eS1DT0xMRUNUSU9OQVJFQVMtZjIyOGM4M2ItMDRhNS01ZTgyLTk4MTgtNDFkNDJjOTFhZGI2LWF0dHItMi1jb21tZW50IiBjbGFzcz0iZXIgZW50aXR5TGFiZWwiPuW4guWMuueUuuadkUlEPC90ZXh0PjxyZWN0IGhlaWdodD0iMjIiIHdpZHRoPSIzNi4yMTkxNDEwMDY0Njk3MyIgeT0iNjcuNjAwMDAwMzgxNDY5NzMiIHg9IjAiIGNsYXNzPSJlciBhdHRyaWJ1dGVCb3hPZGQiPjwvcmVjdD48dGV4dCBzdHlsZT0iZG9taW5hbnQtYmFzZWxpbmU6IG1pZGRsZTsgZm9udC1zaXplOiAxMC4ycHg7IiB0cmFuc2Zvcm09InRyYW5zbGF0ZSg1LDc4LjYwMDAwMDM4MTQ2OTczKSIgeT0iMCIgeD0iMCIgaWQ9InRleHQtZW50aXR5LUNPTExFQ1RJT05BUkVBUy1mMjI4YzgzYi0wNGE1LTVlODItOTgxOC00MWQ0MmM5MWFkYjYtYXR0ci0zLXR5cGUiIGNsYXNzPSJlciBlbnRpdHlMYWJlbCI+c3RyaW5nPC90ZXh0PjxyZWN0IGhlaWdodD0iMjIiIHdpZHRoPSIxMDQuNDIxNjg0MjY1MTM2NzIiIHk9IjY3LjYwMDAwMDM4MTQ2OTczIiB4PSIzNi4yMTkxNDEwMDY0Njk3MyIgY2xhc3M9ImVyIGF0dHJpYnV0ZUJveE9kZCI+PC9yZWN0Pjx0ZXh0IHN0eWxlPSJkb21pbmFudC1iYXNlbGluZTogbWlkZGxlOyBmb250LXNpemU6IDEwLjJweDsiIHRyYW5zZm9ybT0idHJhbnNsYXRlKDQxLjIxOTE0MTAwNjQ2OTczLDc4LjYwMDAwMDM4MTQ2OTczKSIgeT0iMCIgeD0iMCIgaWQ9InRleHQtZW50aXR5LUNPTExFQ1RJT05BUkVBUy1mMjI4YzgzYi0wNGE1LTVlODItOTgxOC00MWQ0MmM5MWFkYjYtYXR0ci0zLW5hbWUiIGNsYXNzPSJlciBlbnRpdHlMYWJlbCI+bmFtZV9qYTwvdGV4dD48cmVjdCBoZWlnaHQ9IjIyIiB3aWR0aD0iMjIuMDg3Njk1MTIxNzY1MTM3IiB5PSI2Ny42MDAwMDAzODE0Njk3MyIgeD0iMTQwLjY0MDgyNTI3MTYwNjQ1IiBjbGFzcz0iZXIgYXR0cmlidXRlQm94T2RkIj48L3JlY3Q+PHRleHQgc3R5bGU9ImRvbWluYW50LWJhc2VsaW5lOiBtaWRkbGU7IGZvbnQtc2l6ZTogMTAuMnB4OyIgdHJhbnNmb3JtPSJ0cmFuc2xhdGUoMTQ1LjY0MDgyNTI3MTYwNjQ1LDc4LjYwMDAwMDM4MTQ2OTczKSIgeT0iMCIgeD0iMCIgaWQ9InRleHQtZW50aXR5LUNPTExFQ1RJT05BUkVBUy1mMjI4YzgzYi0wNGE1LTVlODItOTgxOC00MWQ0MmM5MWFkYjYtYXR0ci0zLWtleSIgY2xhc3M9ImVyIGVudGl0eUxhYmVsIj48L3RleHQ+PHJlY3QgaGVpZ2h0PSIyMiIgd2lkdGg9IjkxLjgwMDAwMzA1MTc1NzgxIiB5PSI2Ny42MDAwMDAzODE0Njk3MyIgeD0iMTYyLjcyODUyMDM5MzM3MTU4IiBjbGFzcz0iZXIgYXR0cmlidXRlQm94T2RkIj48L3JlY3Q+PHRleHQgc3R5bGU9ImRvbWluYW50LWJhc2VsaW5lOiBtaWRkbGU7IGZvbnQtc2l6ZTogMTAuMnB4OyIgdHJhbnNmb3JtPSJ0cmFuc2xhdGUoMTY3LjcyODUyMDM5MzM3MTU4LDc4LjYwMDAwMDM4MTQ2OTczKSIgeT0iMCIgeD0iMCIgaWQ9InRleHQtZW50aXR5LUNPTExFQ1RJT05BUkVBUy1mMjI4YzgzYi0wNGE1LTVlODItOTgxOC00MWQ0MmM5MWFkYjYtYXR0ci0zLWNvbW1lbnQiIGNsYXNzPSJlciBlbnRpdHlMYWJlbCI+5pel5pys6Kqe44Ko44Oq44Ki5ZCNPC90ZXh0PjxyZWN0IGhlaWdodD0iMjIiIHdpZHRoPSIzNi4yMTkxNDEwMDY0Njk3MyIgeT0iODkuNjAwMDAwMzgxNDY5NzMiIHg9IjAiIGNsYXNzPSJlciBhdHRyaWJ1dGVCb3hFdmVuIj48L3JlY3Q+PHRleHQgc3R5bGU9ImRvbWluYW50LWJhc2VsaW5lOiBtaWRkbGU7IGZvbnQtc2l6ZTogMTAuMnB4OyIgdHJhbnNmb3JtPSJ0cmFuc2xhdGUoNSwxMDAuNjAwMDAwMzgxNDY5NzMpIiB5PSIwIiB4PSIwIiBpZD0idGV4dC1lbnRpdHktQ09MTEVDVElPTkFSRUFTLWYyMjhjODNiLTA0YTUtNWU4Mi05ODE4LTQxZDQyYzkxYWRiNi1hdHRyLTQtdHlwZSIgY2xhc3M9ImVyIGVudGl0eUxhYmVsIj5zdHJpbmc8L3RleHQ+PHJlY3QgaGVpZ2h0PSIyMiIgd2lkdGg9IjEwNC40MjE2ODQyNjUxMzY3MiIgeT0iODkuNjAwMDAwMzgxNDY5NzMiIHg9IjM2LjIxOTE0MTAwNjQ2OTczIiBjbGFzcz0iZXIgYXR0cmlidXRlQm94RXZlbiI+PC9yZWN0Pjx0ZXh0IHN0eWxlPSJkb21pbmFudC1iYXNlbGluZTogbWlkZGxlOyBmb250LXNpemU6IDEwLjJweDsiIHRyYW5zZm9ybT0idHJhbnNsYXRlKDQxLjIxOTE0MTAwNjQ2OTczLDEwMC42MDAwMDAzODE0Njk3MykiIHk9IjAiIHg9IjAiIGlkPSJ0ZXh0LWVudGl0eS1DT0xMRUNUSU9OQVJFQVMtZjIyOGM4M2ItMDRhNS01ZTgyLTk4MTgtNDFkNDJjOTFhZGI2LWF0dHItNC1uYW1lIiBjbGFzcz0iZXIgZW50aXR5TGFiZWwiPm5hbWVfZW48L3RleHQ+PHJlY3QgaGVpZ2h0PSIyMiIgd2lkdGg9IjIyLjA4NzY5NTEyMTc2NTEzNyIgeT0iODkuNjAwMDAwMzgxNDY5NzMiIHg9IjE0MC42NDA4MjUyNzE2MDY0NSIgY2xhc3M9ImVyIGF0dHJpYnV0ZUJveEV2ZW4iPjwvcmVjdD48dGV4dCBzdHlsZT0iZG9taW5hbnQtYmFzZWxpbmU6IG1pZGRsZTsgZm9udC1zaXplOiAxMC4ycHg7IiB0cmFuc2Zvcm09InRyYW5zbGF0ZSgxNDUuNjQwODI1MjcxNjA2NDUsMTAwLjYwMDAwMDM4MTQ2OTczKSIgeT0iMCIgeD0iMCIgaWQ9InRleHQtZW50aXR5LUNPTExFQ1RJT05BUkVBUy1mMjI4YzgzYi0wNGE1LTVlODItOTgxOC00MWQ0MmM5MWFkYjYtYXR0ci00LWtleSIgY2xhc3M9ImVyIGVudGl0eUxhYmVsIj48L3RleHQ+PHJlY3QgaGVpZ2h0PSIyMiIgd2lkdGg9IjkxLjgwMDAwMzA1MTc1NzgxIiB5PSI4OS42MDAwMDAzODE0Njk3MyIgeD0iMTYyLjcyODUyMDM5MzM3MTU4IiBjbGFzcz0iZXIgYXR0cmlidXRlQm94RXZlbiI+PC9yZWN0Pjx0ZXh0IHN0eWxlPSJkb21pbmFudC1iYXNlbGluZTogbWlkZGxlOyBmb250LXNpemU6IDEwLjJweDsiIHRyYW5zZm9ybT0idHJhbnNsYXRlKDE2Ny43Mjg1MjAzOTMzNzE1OCwxMDAuNjAwMDAwMzgxNDY5NzMpIiB5PSIwIiB4PSIwIiBpZD0idGV4dC1lbnRpdHktQ09MTEVDVElPTkFSRUFTLWYyMjhjODNiLTA0YTUtNWU4Mi05ODE4LTQxZDQyYzkxYWRiNi1hdHRyLTQtY29tbWVudCIgY2xhc3M9ImVyIGVudGl0eUxhYmVsIj7oi7Hoqp7jgqjjg6rjgqLlkI08L3RleHQ+PHJlY3QgaGVpZ2h0PSIyMiIgd2lkdGg9IjM2LjIxOTE0MTAwNjQ2OTczIiB5PSIxMTEuNjAwMDAwMzgxNDY5NzMiIHg9IjAiIGNsYXNzPSJlciBhdHRyaWJ1dGVCb3hPZGQiPjwvcmVjdD48dGV4dCBzdHlsZT0iZG9taW5hbnQtYmFzZWxpbmU6IG1pZGRsZTsgZm9udC1zaXplOiAxMC4ycHg7IiB0cmFuc2Zvcm09InRyYW5zbGF0ZSg1LDEyMi42MDAwMDAzODE0Njk3MykiIHk9IjAiIHg9IjAiIGlkPSJ0ZXh0LWVudGl0eS1DT0xMRUNUSU9OQVJFQVMtZjIyOGM4M2ItMDRhNS01ZTgyLTk4MTgtNDFkNDJjOTFhZGI2LWF0dHItNS10eXBlIiBjbGFzcz0iZXIgZW50aXR5TGFiZWwiPnN0cmluZzwvdGV4dD48cmVjdCBoZWlnaHQ9IjIyIiB3aWR0aD0iMTA0LjQyMTY4NDI2NTEzNjcyIiB5PSIxMTEuNjAwMDAwMzgxNDY5NzMiIHg9IjM2LjIxOTE0MTAwNjQ2OTczIiBjbGFzcz0iZXIgYXR0cmlidXRlQm94T2RkIj48L3JlY3Q+PHRleHQgc3R5bGU9ImRvbWluYW50LWJhc2VsaW5lOiBtaWRkbGU7IGZvbnQtc2l6ZTogMTAuMnB4OyIgdHJhbnNmb3JtPSJ0cmFuc2xhdGUoNDEuMjE5MTQxMDA2NDY5NzMsMTIyLjYwMDAwMDM4MTQ2OTczKSIgeT0iMCIgeD0iMCIgaWQ9InRleHQtZW50aXR5LUNPTExFQ1RJT05BUkVBUy1mMjI4YzgzYi0wNGE1LTVlODItOTgxOC00MWQ0MmM5MWFkYjYtYXR0ci01LW5hbWUiIGNsYXNzPSJlciBlbnRpdHlMYWJlbCI+bmFtZV96aDwvdGV4dD48cmVjdCBoZWlnaHQ9IjIyIiB3aWR0aD0iMjIuMDg3Njk1MTIxNzY1MTM3IiB5PSIxMTEuNjAwMDAwMzgxNDY5NzMiIHg9IjE0MC42NDA4MjUyNzE2MDY0NSIgY2xhc3M9ImVyIGF0dHJpYnV0ZUJveE9kZCI+PC9yZWN0Pjx0ZXh0IHN0eWxlPSJkb21pbmFudC1iYXNlbGluZTogbWlkZGxlOyBmb250LXNpemU6IDEwLjJweDsiIHRyYW5zZm9ybT0idHJhbnNsYXRlKDE0NS42NDA4MjUyNzE2MDY0NSwxMjIuNjAwMDAwMzgxNDY5NzMpIiB5PSIwIiB4PSIwIiBpZD0idGV4dC1lbnRpdHktQ09MTEVDVElPTkFSRUFTLWYyMjhjODNiLTA0YTUtNWU4Mi05ODE4LTQxZDQyYzkxYWRiNi1hdHRyLTUta2V5IiBjbGFzcz0iZXIgZW50aXR5TGFiZWwiPjwvdGV4dD48cmVjdCBoZWlnaHQ9IjIyIiB3aWR0aD0iOTEuODAwMDAzMDUxNzU3ODEiIHk9IjExMS42MDAwMDAzODE0Njk3MyIgeD0iMTYyLjcyODUyMDM5MzM3MTU4IiBjbGFzcz0iZXIgYXR0cmlidXRlQm94T2RkIj48L3JlY3Q+PHRleHQgc3R5bGU9ImRvbWluYW50LWJhc2VsaW5lOiBtaWRkbGU7IGZvbnQtc2l6ZTogMTAuMnB4OyIgdHJhbnNmb3JtPSJ0cmFuc2xhdGUoMTY3LjcyODUyMDM5MzM3MTU4LDEyMi42MDAwMDAzODE0Njk3MykiIHk9IjAiIHg9IjAiIGlkPSJ0ZXh0LWVudGl0eS1DT0xMRUNUSU9OQVJFQVMtZjIyOGM4M2ItMDRhNS01ZTgyLTk4MTgtNDFkNDJjOTFhZGI2LWF0dHItNS1jb21tZW50IiBjbGFzcz0iZXIgZW50aXR5TGFiZWwiPuS4reWbveiqnuOCqOODquOCouWQjTwvdGV4dD48cmVjdCBoZWlnaHQ9IjIyIiB3aWR0aD0iMzYuMjE5MTQxMDA2NDY5NzMiIHk9IjEzMy42MDAwMDAzODE0Njk3MyIgeD0iMCIgY2xhc3M9ImVyIGF0dHJpYnV0ZUJveEV2ZW4iPjwvcmVjdD48dGV4dCBzdHlsZT0iZG9taW5hbnQtYmFzZWxpbmU6IG1pZGRsZTsgZm9udC1zaXplOiAxMC4ycHg7IiB0cmFuc2Zvcm09InRyYW5zbGF0ZSg1LDE0NC42MDAwMDAzODE0Njk3MykiIHk9IjAiIHg9IjAiIGlkPSJ0ZXh0LWVudGl0eS1DT0xMRUNUSU9OQVJFQVMtZjIyOGM4M2ItMDRhNS01ZTgyLTk4MTgtNDFkNDJjOTFhZGI2LWF0dHItNi10eXBlIiBjbGFzcz0iZXIgZW50aXR5TGFiZWwiPnN0cmluZzwvdGV4dD48cmVjdCBoZWlnaHQ9IjIyIiB3aWR0aD0iMTA0LjQyMTY4NDI2NTEzNjcyIiB5PSIxMzMuNjAwMDAwMzgxNDY5NzMiIHg9IjM2LjIxOTE0MTAwNjQ2OTczIiBjbGFzcz0iZXIgYXR0cmlidXRlQm94RXZlbiI+PC9yZWN0Pjx0ZXh0IHN0eWxlPSJkb21pbmFudC1iYXNlbGluZTogbWlkZGxlOyBmb250LXNpemU6IDEwLjJweDsiIHRyYW5zZm9ybT0idHJhbnNsYXRlKDQxLjIxOTE0MTAwNjQ2OTczLDE0NC42MDAwMDAzODE0Njk3MykiIHk9IjAiIHg9IjAiIGlkPSJ0ZXh0LWVudGl0eS1DT0xMRUNUSU9OQVJFQVMtZjIyOGM4M2ItMDRhNS01ZTgyLTk4MTgtNDFkNDJjOTFhZGI2LWF0dHItNi1uYW1lIiBjbGFzcz0iZXIgZW50aXR5TGFiZWwiPnBvc3RhbF9jb2RlX3BhdHRlcm48L3RleHQ+PHJlY3QgaGVpZ2h0PSIyMiIgd2lkdGg9IjIyLjA4NzY5NTEyMTc2NTEzNyIgeT0iMTMzLjYwMDAwMDM4MTQ2OTczIiB4PSIxNDAuNjQwODI1MjcxNjA2NDUiIGNsYXNzPSJlciBhdHRyaWJ1dGVCb3hFdmVuIj48L3JlY3Q+PHRleHQgc3R5bGU9ImRvbWluYW50LWJhc2VsaW5lOiBtaWRkbGU7IGZvbnQtc2l6ZTogMTAuMnB4OyIgdHJhbnNmb3JtPSJ0cmFuc2xhdGUoMTQ1LjY0MDgyNTI3MTYwNjQ1LDE0NC42MDAwMDAzODE0Njk3MykiIHk9IjAiIHg9IjAiIGlkPSJ0ZXh0LWVudGl0eS1DT0xMRUNUSU9OQVJFQVMtZjIyOGM4M2ItMDRhNS01ZTgyLTk4MTgtNDFkNDJjOTFhZGI2LWF0dHItNi1rZXkiIGNsYXNzPSJlciBlbnRpdHlMYWJlbCI+PC90ZXh0PjxyZWN0IGhlaWdodD0iMjIiIHdpZHRoPSI5MS44MDAwMDMwNTE3NTc4MSIgeT0iMTMzLjYwMDAwMDM4MTQ2OTczIiB4PSIxNjIuNzI4NTIwMzkzMzcxNTgiIGNsYXNzPSJlciBhdHRyaWJ1dGVCb3hFdmVuIj48L3JlY3Q+PHRleHQgc3R5bGU9ImRvbWluYW50LWJhc2VsaW5lOiBtaWRkbGU7IGZvbnQtc2l6ZTogMTAuMnB4OyIgdHJhbnNmb3JtPSJ0cmFuc2xhdGUoMTY3LjcyODUyMDM5MzM3MTU4LDE0NC42MDAwMDAzODE0Njk3MykiIHk9IjAiIHg9IjAiIGlkPSJ0ZXh0LWVudGl0eS1DT0xMRUNUSU9OQVJFQVMtZjIyOGM4M2ItMDRhNS01ZTgyLTk4MTgtNDFkNDJjOTFhZGI2LWF0dHItNi1jb21tZW50IiBjbGFzcz0iZXIgZW50aXR5TGFiZWwiPumDteS+v+eVquWPt+ODkeOCv+ODvOODszwvdGV4dD48cmVjdCBoZWlnaHQ9IjIyIiB3aWR0aD0iMzYuMjE5MTQxMDA2NDY5NzMiIHk9IjE1NS42MDAwMDAzODE0Njk3MyIgeD0iMCIgY2xhc3M9ImVyIGF0dHJpYnV0ZUJveE9kZCI+PC9yZWN0Pjx0ZXh0IHN0eWxlPSJkb21pbmFudC1iYXNlbGluZTogbWlkZGxlOyBmb250LXNpemU6IDEwLjJweDsiIHRyYW5zZm9ybT0idHJhbnNsYXRlKDUsMTY2LjYwMDAwMDM4MTQ2OTczKSIgeT0iMCIgeD0iMCIgaWQ9InRleHQtZW50aXR5LUNPTExFQ1RJT05BUkVBUy1mMjI4YzgzYi0wNGE1LTVlODItOTgxOC00MWQ0MmM5MWFkYjYtYXR0ci03LXR5cGUiIGNsYXNzPSJlciBlbnRpdHlMYWJlbCI+c3RyaW5nPC90ZXh0PjxyZWN0IGhlaWdodD0iMjIiIHdpZHRoPSIxMDQuNDIxNjg0MjY1MTM2NzIiIHk9IjE1NS42MDAwMDAzODE0Njk3MyIgeD0iMzYuMjE5MTQxMDA2NDY5NzMiIGNsYXNzPSJlciBhdHRyaWJ1dGVCb3hPZGQiPjwvcmVjdD48dGV4dCBzdHlsZT0iZG9taW5hbnQtYmFzZWxpbmU6IG1pZGRsZTsgZm9udC1zaXplOiAxMC4ycHg7IiB0cmFuc2Zvcm09InRyYW5zbGF0ZSg0MS4yMTkxNDEwMDY0Njk3MywxNjYuNjAwMDAwMzgxNDY5NzMpIiB5PSIwIiB4PSIwIiBpZD0idGV4dC1lbnRpdHktQ09MTEVDVElPTkFSRUFTLWYyMjhjODNiLTA0YTUtNWU4Mi05ODE4LTQxZDQyYzkxYWRiNi1hdHRyLTctbmFtZSIgY2xhc3M9ImVyIGVudGl0eUxhYmVsIj5jb250YWN0X3Bob25lPC90ZXh0PjxyZWN0IGhlaWdodD0iMjIiIHdpZHRoPSIyMi4wODc2OTUxMjE3NjUxMzciIHk9IjE1NS42MDAwMDAzODE0Njk3MyIgeD0iMTQwLjY0MDgyNTI3MTYwNjQ1IiBjbGFzcz0iZXIgYXR0cmlidXRlQm94T2RkIj48L3JlY3Q+PHRleHQgc3R5bGU9ImRvbWluYW50LWJhc2VsaW5lOiBtaWRkbGU7IGZvbnQtc2l6ZTogMTAuMnB4OyIgdHJhbnNmb3JtPSJ0cmFuc2xhdGUoMTQ1LjY0MDgyNTI3MTYwNjQ1LDE2Ni42MDAwMDAzODE0Njk3MykiIHk9IjAiIHg9IjAiIGlkPSJ0ZXh0LWVudGl0eS1DT0xMRUNUSU9OQVJFQVMtZjIyOGM4M2ItMDRhNS01ZTgyLTk4MTgtNDFkNDJjOTFhZGI2LWF0dHItNy1rZXkiIGNsYXNzPSJlciBlbnRpdHlMYWJlbCI+PC90ZXh0PjxyZWN0IGhlaWdodD0iMjIiIHdpZHRoPSI5MS44MDAwMDMwNTE3NTc4MSIgeT0iMTU1LjYwMDAwMDM4MTQ2OTczIiB4PSIxNjIuNzI4NTIwMzkzMzcxNTgiIGNsYXNzPSJlciBhdHRyaWJ1dGVCb3hPZGQiPjwvcmVjdD48dGV4dCBzdHlsZT0iZG9taW5hbnQtYmFzZWxpbmU6IG1pZGRsZTsgZm9udC1zaXplOiAxMC4ycHg7IiB0cmFuc2Zvcm09InRyYW5zbGF0ZSgxNjcuNzI4NTIwMzkzMzcxNTgsMTY2LjYwMDAwMDM4MTQ2OTczKSIgeT0iMCIgeD0iMCIgaWQ9InRleHQtZW50aXR5LUNPTExFQ1RJT05BUkVBUy1mMjI4YzgzYi0wNGE1LTVlODItOTgxOC00MWQ0MmM5MWFkYjYtYXR0ci03LWNvbW1lbnQiIGNsYXNzPSJlciBlbnRpdHlMYWJlbCI+6YCj57Wh5YWI6Zu76Kmx55Wq5Y+3PC90ZXh0PjxyZWN0IGhlaWdodD0iMjIiIHdpZHRoPSIzNi4yMTkxNDEwMDY0Njk3MyIgeT0iMTc3LjYwMDAwMDM4MTQ2OTczIiB4PSIwIiBjbGFzcz0iZXIgYXR0cmlidXRlQm94RXZlbiI+PC9yZWN0Pjx0ZXh0IHN0eWxlPSJkb21pbmFudC1iYXNlbGluZTogbWlkZGxlOyBmb250LXNpemU6IDEwLjJweDsiIHRyYW5zZm9ybT0idHJhbnNsYXRlKDUsMTg4LjYwMDAwMDM4MTQ2OTczKSIgeT0iMCIgeD0iMCIgaWQ9InRleHQtZW50aXR5LUNPTExFQ1RJT05BUkVBUy1mMjI4YzgzYi0wNGE1LTVlODItOTgxOC00MWQ0MmM5MWFkYjYtYXR0ci04LXR5cGUiIGNsYXNzPSJlciBlbnRpdHlMYWJlbCI+c3RyaW5nPC90ZXh0PjxyZWN0IGhlaWdodD0iMjIiIHdpZHRoPSIxMDQuNDIxNjg0MjY1MTM2NzIiIHk9IjE3Ny42MDAwMDAzODE0Njk3MyIgeD0iMzYuMjE5MTQxMDA2NDY5NzMiIGNsYXNzPSJlciBhdHRyaWJ1dGVCb3hFdmVuIj48L3JlY3Q+PHRleHQgc3R5bGU9ImRvbWluYW50LWJhc2VsaW5lOiBtaWRkbGU7IGZvbnQtc2l6ZTogMTAuMnB4OyIgdHJhbnNmb3JtPSJ0cmFuc2xhdGUoNDEuMjE5MTQxMDA2NDY5NzMsMTg4LjYwMDAwMDM4MTQ2OTczKSIgeT0iMCIgeD0iMCIgaWQ9InRleHQtZW50aXR5LUNPTExFQ1RJT05BUkVBUy1mMjI4YzgzYi0wNGE1LTVlODItOTgxOC00MWQ0MmM5MWFkYjYtYXR0ci04LW5hbWUiIGNsYXNzPSJlciBlbnRpdHlMYWJlbCI+Y29udGFjdF9lbWFpbDwvdGV4dD48cmVjdCBoZWlnaHQ9IjIyIiB3aWR0aD0iMjIuMDg3Njk1MTIxNzY1MTM3IiB5PSIxNzcuNjAwMDAwMzgxNDY5NzMiIHg9IjE0MC42NDA4MjUyNzE2MDY0NSIgY2xhc3M9ImVyIGF0dHJpYnV0ZUJveEV2ZW4iPjwvcmVjdD48dGV4dCBzdHlsZT0iZG9taW5hbnQtYmFzZWxpbmU6IG1pZGRsZTsgZm9udC1zaXplOiAxMC4ycHg7IiB0cmFuc2Zvcm09InRyYW5zbGF0ZSgxNDUuNjQwODI1MjcxNjA2NDUsMTg4LjYwMDAwMDM4MTQ2OTczKSIgeT0iMCIgeD0iMCIgaWQ9InRleHQtZW50aXR5LUNPTExFQ1RJT05BUkVBUy1mMjI4YzgzYi0wNGE1LTVlODItOTgxOC00MWQ0MmM5MWFkYjYtYXR0ci04LWtleSIgY2xhc3M9ImVyIGVudGl0eUxhYmVsIj48L3RleHQ+PHJlY3QgaGVpZ2h0PSIyMiIgd2lkdGg9IjkxLjgwMDAwMzA1MTc1NzgxIiB5PSIxNzcuNjAwMDAwMzgxNDY5NzMiIHg9IjE2Mi43Mjg1MjAzOTMzNzE1OCIgY2xhc3M9ImVyIGF0dHJpYnV0ZUJveEV2ZW4iPjwvcmVjdD48dGV4dCBzdHlsZT0iZG9taW5hbnQtYmFzZWxpbmU6IG1pZGRsZTsgZm9udC1zaXplOiAxMC4ycHg7IiB0cmFuc2Zvcm09InRyYW5zbGF0ZSgxNjcuNzI4NTIwMzkzMzcxNTgsMTg4LjYwMDAwMDM4MTQ2OTczKSIgeT0iMCIgeD0iMCIgaWQ9InRleHQtZW50aXR5LUNPTExFQ1RJT05BUkVBUy1mMjI4YzgzYi0wNGE1LTVlODItOTgxOC00MWQ0MmM5MWFkYjYtYXR0ci04LWNvbW1lbnQiIGNsYXNzPSJlciBlbnRpdHlMYWJlbCI+6YCj57Wh5YWI44Oh44O844OrPC90ZXh0PjwvZz48ZyB0cmFuc2Zvcm09InRyYW5zbGF0ZSg4MDkuMTc2MjMxMzg0Mjc3Myw2MjAgKSIgaWQ9ImVudGl0eS1HQVJCQUdFVFlQRVMtZGRiYjg1YzEtMTU1NC01NjcyLTk5MjQtMjgyMTQ4NDRmY2VhIj48cmVjdCBoZWlnaHQ9IjI4Ny42MDAwMDAzODE0Njk3IiB3aWR0aD0iMjQyLjk0Mzk0Mzk3NzM1NTk2IiB5PSIwIiB4PSIwIiBjbGFzcz0iZXIgZW50aXR5Qm94Ij48L3JlY3Q+PHRleHQgc3R5bGU9ImRvbWluYW50LWJhc2VsaW5lOiBtaWRkbGU7IHRleHQtYW5jaG9yOiBtaWRkbGU7IGZvbnQtc2l6ZTogMTJweDsiIHRyYW5zZm9ybT0idHJhbnNsYXRlKDEyMS40NzE5NzE5ODg2Nzc5OCwxMS44MDAwMDAxOTA3MzQ4NjMpIiB5PSIwIiB4PSIwIiBpZD0idGV4dC1lbnRpdHktR0FSQkFHRVRZUEVTLWRkYmI4NWMxLTE1NTQtNTY3Mi05OTI0LTI4MjE0ODQ0ZmNlYSIgY2xhc3M9ImVyIGVudGl0eUxhYmVsIj5HQVJCQUdFX1RZUEVTPC90ZXh0PjxyZWN0IGhlaWdodD0iMjIiIHdpZHRoPSIzNi4yMTkxNDEwMDY0Njk3MyIgeT0iMjMuNjAwMDAwMzgxNDY5NzI3IiB4PSIwIiBjbGFzcz0iZXIgYXR0cmlidXRlQm94T2RkIj48L3JlY3Q+PHRleHQgc3R5bGU9ImRvbWluYW50LWJhc2VsaW5lOiBtaWRkbGU7IGZvbnQtc2l6ZTogMTAuMnB4OyIgdHJhbnNmb3JtPSJ0cmFuc2xhdGUoNSwzNC42MDAwMDAzODE0Njk3MykiIHk9IjAiIHg9IjAiIGlkPSJ0ZXh0LWVudGl0eS1HQVJCQUdFVFlQRVMtZGRiYjg1YzEtMTU1NC01NjcyLTk5MjQtMjgyMTQ4NDRmY2VhLWF0dHItMS10eXBlIiBjbGFzcz0iZXIgZW50aXR5TGFiZWwiPmludDwvdGV4dD48cmVjdCBoZWlnaHQ9IjIyIiB3aWR0aD0iMTAzLjAzNzEwOTM3NSIgeT0iMjMuNjAwMDAwMzgxNDY5NzI3IiB4PSIzNi4yMTkxNDEwMDY0Njk3MyIgY2xhc3M9ImVyIGF0dHJpYnV0ZUJveE9kZCI+PC9yZWN0Pjx0ZXh0IHN0eWxlPSJkb21pbmFudC1iYXNlbGluZTogbWlkZGxlOyBmb250LXNpemU6IDEwLjJweDsiIHRyYW5zZm9ybT0idHJhbnNsYXRlKDQxLjIxOTE0MTAwNjQ2OTczLDM0LjYwMDAwMDM4MTQ2OTczKSIgeT0iMCIgeD0iMCIgaWQ9InRleHQtZW50aXR5LUdBUkJBR0VUWVBFUy1kZGJiODVjMS0xNTU0LTU2NzItOTkyNC0yODIxNDg0NGZjZWEtYXR0ci0xLW5hbWUiIGNsYXNzPSJlciBlbnRpdHlMYWJlbCI+aWQ8L3RleHQ+PHJlY3QgaGVpZ2h0PSIyMiIgd2lkdGg9IjIyLjA4NzY5NTEyMTc2NTEzNyIgeT0iMjMuNjAwMDAwMzgxNDY5NzI3IiB4PSIxMzkuMjU2MjUwMzgxNDY5NzMiIGNsYXNzPSJlciBhdHRyaWJ1dGVCb3hPZGQiPjwvcmVjdD48dGV4dCBzdHlsZT0iZG9taW5hbnQtYmFzZWxpbmU6IG1pZGRsZTsgZm9udC1zaXplOiAxMC4ycHg7IiB0cmFuc2Zvcm09InRyYW5zbGF0ZSgxNDQuMjU2MjUwMzgxNDY5NzMsMzQuNjAwMDAwMzgxNDY5NzMpIiB5PSIwIiB4PSIwIiBpZD0idGV4dC1lbnRpdHktR0FSQkFHRVRZUEVTLWRkYmI4NWMxLTE1NTQtNTY3Mi05OTI0LTI4MjE0ODQ0ZmNlYS1hdHRyLTEta2V5IiBjbGFzcz0iZXIgZW50aXR5TGFiZWwiPlBLPC90ZXh0PjxyZWN0IGhlaWdodD0iMjIiIHdpZHRoPSI4MS41OTk5OTg0NzQxMjExIiB5PSIyMy42MDAwMDAzODE0Njk3MjciIHg9IjE2MS4zNDM5NDU1MDMyMzQ4NiIgY2xhc3M9ImVyIGF0dHJpYnV0ZUJveE9kZCI+PC9yZWN0Pjx0ZXh0IHN0eWxlPSJkb21pbmFudC1iYXNlbGluZTogbWlkZGxlOyBmb250LXNpemU6IDEwLjJweDsiIHRyYW5zZm9ybT0idHJhbnNsYXRlKDE2Ni4zNDM5NDU1MDMyMzQ4NiwzNC42MDAwMDAzODE0Njk3MykiIHk9IjAiIHg9IjAiIGlkPSJ0ZXh0LWVudGl0eS1HQVJCQUdFVFlQRVMtZGRiYjg1YzEtMTU1NC01NjcyLTk5MjQtMjgyMTQ4NDRmY2VhLWF0dHItMS1jb21tZW50IiBjbGFzcz0iZXIgZW50aXR5TGFiZWwiPuOCtOODn+eorumhnklEPC90ZXh0PjxyZWN0IGhlaWdodD0iMjIiIHdpZHRoPSIzNi4yMTkxNDEwMDY0Njk3MyIgeT0iNDUuNjAwMDAwMzgxNDY5NzMiIHg9IjAiIGNsYXNzPSJlciBhdHRyaWJ1dGVCb3hFdmVuIj48L3JlY3Q+PHRleHQgc3R5bGU9ImRvbWluYW50LWJhc2VsaW5lOiBtaWRkbGU7IGZvbnQtc2l6ZTogMTAuMnB4OyIgdHJhbnNmb3JtPSJ0cmFuc2xhdGUoNSw1Ni42MDAwMDAzODE0Njk3MykiIHk9IjAiIHg9IjAiIGlkPSJ0ZXh0LWVudGl0eS1HQVJCQUdFVFlQRVMtZGRiYjg1YzEtMTU1NC01NjcyLTk5MjQtMjgyMTQ4NDRmY2VhLWF0dHItMi10eXBlIiBjbGFzcz0iZXIgZW50aXR5TGFiZWwiPnN0cmluZzwvdGV4dD48cmVjdCBoZWlnaHQ9IjIyIiB3aWR0aD0iMTAzLjAzNzEwOTM3NSIgeT0iNDUuNjAwMDAwMzgxNDY5NzMiIHg9IjM2LjIxOTE0MTAwNjQ2OTczIiBjbGFzcz0iZXIgYXR0cmlidXRlQm94RXZlbiI+PC9yZWN0Pjx0ZXh0IHN0eWxlPSJkb21pbmFudC1iYXNlbGluZTogbWlkZGxlOyBmb250LXNpemU6IDEwLjJweDsiIHRyYW5zZm9ybT0idHJhbnNsYXRlKDQxLjIxOTE0MTAwNjQ2OTczLDU2LjYwMDAwMDM4MTQ2OTczKSIgeT0iMCIgeD0iMCIgaWQ9InRleHQtZW50aXR5LUdBUkJBR0VUWVBFUy1kZGJiODVjMS0xNTU0LTU2NzItOTkyNC0yODIxNDg0NGZjZWEtYXR0ci0yLW5hbWUiIGNsYXNzPSJlciBlbnRpdHlMYWJlbCI+bmFtZV9qYTwvdGV4dD48cmVjdCBoZWlnaHQ9IjIyIiB3aWR0aD0iMjIuMDg3Njk1MTIxNzY1MTM3IiB5PSI0NS42MDAwMDAzODE0Njk3MyIgeD0iMTM5LjI1NjI1MDM4MTQ2OTczIiBjbGFzcz0iZXIgYXR0cmlidXRlQm94RXZlbiI+PC9yZWN0Pjx0ZXh0IHN0eWxlPSJkb21pbmFudC1iYXNlbGluZTogbWlkZGxlOyBmb250LXNpemU6IDEwLjJweDsiIHRyYW5zZm9ybT0idHJhbnNsYXRlKDE0NC4yNTYyNTAzODE0Njk3Myw1Ni42MDAwMDAzODE0Njk3MykiIHk9IjAiIHg9IjAiIGlkPSJ0ZXh0LWVudGl0eS1HQVJCQUdFVFlQRVMtZGRiYjg1YzEtMTU1NC01NjcyLTk5MjQtMjgyMTQ4NDRmY2VhLWF0dHItMi1rZXkiIGNsYXNzPSJlciBlbnRpdHlMYWJlbCI+PC90ZXh0PjxyZWN0IGhlaWdodD0iMjIiIHdpZHRoPSI4MS41OTk5OTg0NzQxMjExIiB5PSI0NS42MDAwMDAzODE0Njk3MyIgeD0iMTYxLjM0Mzk0NTUwMzIzNDg2IiBjbGFzcz0iZXIgYXR0cmlidXRlQm94RXZlbiI+PC9yZWN0Pjx0ZXh0IHN0eWxlPSJkb21pbmFudC1iYXNlbGluZTogbWlkZGxlOyBmb250LXNpemU6IDEwLjJweDsiIHRyYW5zZm9ybT0idHJhbnNsYXRlKDE2Ni4zNDM5NDU1MDMyMzQ4Niw1Ni42MDAwMDAzODE0Njk3MykiIHk9IjAiIHg9IjAiIGlkPSJ0ZXh0LWVudGl0eS1HQVJCQUdFVFlQRVMtZGRiYjg1YzEtMTU1NC01NjcyLTk5MjQtMjgyMTQ4NDRmY2VhLWF0dHItMi1jb21tZW50IiBjbGFzcz0iZXIgZW50aXR5TGFiZWwiPuaXpeacrOiqnuWQjTwvdGV4dD48cmVjdCBoZWlnaHQ9IjIyIiB3aWR0aD0iMzYuMjE5MTQxMDA2NDY5NzMiIHk9IjY3LjYwMDAwMDM4MTQ2OTczIiB4PSIwIiBjbGFzcz0iZXIgYXR0cmlidXRlQm94T2RkIj48L3JlY3Q+PHRleHQgc3R5bGU9ImRvbWluYW50LWJhc2VsaW5lOiBtaWRkbGU7IGZvbnQtc2l6ZTogMTAuMnB4OyIgdHJhbnNmb3JtPSJ0cmFuc2xhdGUoNSw3OC42MDAwMDAzODE0Njk3MykiIHk9IjAiIHg9IjAiIGlkPSJ0ZXh0LWVudGl0eS1HQVJCQUdFVFlQRVMtZGRiYjg1YzEtMTU1NC01NjcyLTk5MjQtMjgyMTQ4NDRmY2VhLWF0dHItMy10eXBlIiBjbGFzcz0iZXIgZW50aXR5TGFiZWwiPnN0cmluZzwvdGV4dD48cmVjdCBoZWlnaHQ9IjIyIiB3aWR0aD0iMTAzLjAzNzEwOTM3NSIgeT0iNjcuNjAwMDAwMzgxNDY5NzMiIHg9IjM2LjIxOTE0MTAwNjQ2OTczIiBjbGFzcz0iZXIgYXR0cmlidXRlQm94T2RkIj48L3JlY3Q+PHRleHQgc3R5bGU9ImRvbWluYW50LWJhc2VsaW5lOiBtaWRkbGU7IGZvbnQtc2l6ZTogMTAuMnB4OyIgdHJhbnNmb3JtPSJ0cmFuc2xhdGUoNDEuMjE5MTQxMDA2NDY5NzMsNzguNjAwMDAwMzgxNDY5NzMpIiB5PSIwIiB4PSIwIiBpZD0idGV4dC1lbnRpdHktR0FSQkFHRVRZUEVTLWRkYmI4NWMxLTE1NTQtNTY3Mi05OTI0LTI4MjE0ODQ0ZmNlYS1hdHRyLTMtbmFtZSIgY2xhc3M9ImVyIGVudGl0eUxhYmVsIj5uYW1lX2VuPC90ZXh0PjxyZWN0IGhlaWdodD0iMjIiIHdpZHRoPSIyMi4wODc2OTUxMjE3NjUxMzciIHk9IjY3LjYwMDAwMDM4MTQ2OTczIiB4PSIxMzkuMjU2MjUwMzgxNDY5NzMiIGNsYXNzPSJlciBhdHRyaWJ1dGVCb3hPZGQiPjwvcmVjdD48dGV4dCBzdHlsZT0iZG9taW5hbnQtYmFzZWxpbmU6IG1pZGRsZTsgZm9udC1zaXplOiAxMC4ycHg7IiB0cmFuc2Zvcm09InRyYW5zbGF0ZSgxNDQuMjU2MjUwMzgxNDY5NzMsNzguNjAwMDAwMzgxNDY5NzMpIiB5PSIwIiB4PSIwIiBpZD0idGV4dC1lbnRpdHktR0FSQkFHRVRZUEVTLWRkYmI4NWMxLTE1NTQtNTY3Mi05OTI0LTI4MjE0ODQ0ZmNlYS1hdHRyLTMta2V5IiBjbGFzcz0iZXIgZW50aXR5TGFiZWwiPjwvdGV4dD48cmVjdCBoZWlnaHQ9IjIyIiB3aWR0aD0iODEuNTk5OTk4NDc0MTIxMSIgeT0iNjcuNjAwMDAwMzgxNDY5NzMiIHg9IjE2MS4zNDM5NDU1MDMyMzQ4NiIgY2xhc3M9ImVyIGF0dHJpYnV0ZUJveE9kZCI+PC9yZWN0Pjx0ZXh0IHN0eWxlPSJkb21pbmFudC1iYXNlbGluZTogbWlkZGxlOyBmb250LXNpemU6IDEwLjJweDsiIHRyYW5zZm9ybT0idHJhbnNsYXRlKDE2Ni4zNDM5NDU1MDMyMzQ4Niw3OC42MDAwMDAzODE0Njk3MykiIHk9IjAiIHg9IjAiIGlkPSJ0ZXh0LWVudGl0eS1HQVJCQUdFVFlQRVMtZGRiYjg1YzEtMTU1NC01NjcyLTk5MjQtMjgyMTQ4NDRmY2VhLWF0dHItMy1jb21tZW50IiBjbGFzcz0iZXIgZW50aXR5TGFiZWwiPuiLseiqnuWQjTwvdGV4dD48cmVjdCBoZWlnaHQ9IjIyIiB3aWR0aD0iMzYuMjE5MTQxMDA2NDY5NzMiIHk9Ijg5LjYwMDAwMDM4MTQ2OTczIiB4PSIwIiBjbGFzcz0iZXIgYXR0cmlidXRlQm94RXZlbiI+PC9yZWN0Pjx0ZXh0IHN0eWxlPSJkb21pbmFudC1iYXNlbGluZTogbWlkZGxlOyBmb250LXNpemU6IDEwLjJweDsiIHRyYW5zZm9ybT0idHJhbnNsYXRlKDUsMTAwLjYwMDAwMDM4MTQ2OTczKSIgeT0iMCIgeD0iMCIgaWQ9InRleHQtZW50aXR5LUdBUkJBR0VUWVBFUy1kZGJiODVjMS0xNTU0LTU2NzItOTkyNC0yODIxNDg0NGZjZWEtYXR0ci00LXR5cGUiIGNsYXNzPSJlciBlbnRpdHlMYWJlbCI+c3RyaW5nPC90ZXh0PjxyZWN0IGhlaWdodD0iMjIiIHdpZHRoPSIxMDMuMDM3MTA5Mzc1IiB5PSI4OS42MDAwMDAzODE0Njk3MyIgeD0iMzYuMjE5MTQxMDA2NDY5NzMiIGNsYXNzPSJlciBhdHRyaWJ1dGVCb3hFdmVuIj48L3JlY3Q+PHRleHQgc3R5bGU9ImRvbWluYW50LWJhc2VsaW5lOiBtaWRkbGU7IGZvbnQtc2l6ZTogMTAuMnB4OyIgdHJhbnNmb3JtPSJ0cmFuc2xhdGUoNDEuMjE5MTQxMDA2NDY5NzMsMTAwLjYwMDAwMDM4MTQ2OTczKSIgeT0iMCIgeD0iMCIgaWQ9InRleHQtZW50aXR5LUdBUkJBR0VUWVBFUy1kZGJiODVjMS0xNTU0LTU2NzItOTkyNC0yODIxNDg0NGZjZWEtYXR0ci00LW5hbWUiIGNsYXNzPSJlciBlbnRpdHlMYWJlbCI+bmFtZV96aDwvdGV4dD48cmVjdCBoZWlnaHQ9IjIyIiB3aWR0aD0iMjIuMDg3Njk1MTIxNzY1MTM3IiB5PSI4OS42MDAwMDAzODE0Njk3MyIgeD0iMTM5LjI1NjI1MDM4MTQ2OTczIiBjbGFzcz0iZXIgYXR0cmlidXRlQm94RXZlbiI+PC9yZWN0Pjx0ZXh0IHN0eWxlPSJkb21pbmFudC1iYXNlbGluZTogbWlkZGxlOyBmb250LXNpemU6IDEwLjJweDsiIHRyYW5zZm9ybT0idHJhbnNsYXRlKDE0NC4yNTYyNTAzODE0Njk3MywxMDAuNjAwMDAwMzgxNDY5NzMpIiB5PSIwIiB4PSIwIiBpZD0idGV4dC1lbnRpdHktR0FSQkFHRVRZUEVTLWRkYmI4NWMxLTE1NTQtNTY3Mi05OTI0LTI4MjE0ODQ0ZmNlYS1hdHRyLTQta2V5IiBjbGFzcz0iZXIgZW50aXR5TGFiZWwiPjwvdGV4dD48cmVjdCBoZWlnaHQ9IjIyIiB3aWR0aD0iODEuNTk5OTk4NDc0MTIxMSIgeT0iODkuNjAwMDAwMzgxNDY5NzMiIHg9IjE2MS4zNDM5NDU1MDMyMzQ4NiIgY2xhc3M9ImVyIGF0dHJpYnV0ZUJveEV2ZW4iPjwvcmVjdD48dGV4dCBzdHlsZT0iZG9taW5hbnQtYmFzZWxpbmU6IG1pZGRsZTsgZm9udC1zaXplOiAxMC4ycHg7IiB0cmFuc2Zvcm09InRyYW5zbGF0ZSgxNjYuMzQzOTQ1NTAzMjM0ODYsMTAwLjYwMDAwMDM4MTQ2OTczKSIgeT0iMCIgeD0iMCIgaWQ9InRleHQtZW50aXR5LUdBUkJBR0VUWVBFUy1kZGJiODVjMS0xNTU0LTU2NzItOTkyNC0yODIxNDg0NGZjZWEtYXR0ci00LWNvbW1lbnQiIGNsYXNzPSJlciBlbnRpdHlMYWJlbCI+5Lit5Zu96Kqe5ZCNPC90ZXh0PjxyZWN0IGhlaWdodD0iMjIiIHdpZHRoPSIzNi4yMTkxNDEwMDY0Njk3MyIgeT0iMTExLjYwMDAwMDM4MTQ2OTczIiB4PSIwIiBjbGFzcz0iZXIgYXR0cmlidXRlQm94T2RkIj48L3JlY3Q+PHRleHQgc3R5bGU9ImRvbWluYW50LWJhc2VsaW5lOiBtaWRkbGU7IGZvbnQtc2l6ZTogMTAuMnB4OyIgdHJhbnNmb3JtPSJ0cmFuc2xhdGUoNSwxMjIuNjAwMDAwMzgxNDY5NzMpIiB5PSIwIiB4PSIwIiBpZD0idGV4dC1lbnRpdHktR0FSQkFHRVRZUEVTLWRkYmI4NWMxLTE1NTQtNTY3Mi05OTI0LTI4MjE0ODQ0ZmNlYS1hdHRyLTUtdHlwZSIgY2xhc3M9ImVyIGVudGl0eUxhYmVsIj5zdHJpbmc8L3RleHQ+PHJlY3QgaGVpZ2h0PSIyMiIgd2lkdGg9IjEwMy4wMzcxMDkzNzUiIHk9IjExMS42MDAwMDAzODE0Njk3MyIgeD0iMzYuMjE5MTQxMDA2NDY5NzMiIGNsYXNzPSJlciBhdHRyaWJ1dGVCb3hPZGQiPjwvcmVjdD48dGV4dCBzdHlsZT0iZG9taW5hbnQtYmFzZWxpbmU6IG1pZGRsZTsgZm9udC1zaXplOiAxMC4ycHg7IiB0cmFuc2Zvcm09InRyYW5zbGF0ZSg0MS4yMTkxNDEwMDY0Njk3MywxMjIuNjAwMDAwMzgxNDY5NzMpIiB5PSIwIiB4PSIwIiBpZD0idGV4dC1lbnRpdHktR0FSQkFHRVRZUEVTLWRkYmI4NWMxLTE1NTQtNTY3Mi05OTI0LTI4MjE0ODQ0ZmNlYS1hdHRyLTUtbmFtZSIgY2xhc3M9ImVyIGVudGl0eUxhYmVsIj5kZXNjcmlwdGlvbl9qYTwvdGV4dD48cmVjdCBoZWlnaHQ9IjIyIiB3aWR0aD0iMjIuMDg3Njk1MTIxNzY1MTM3IiB5PSIxMTEuNjAwMDAwMzgxNDY5NzMiIHg9IjEzOS4yNTYyNTAzODE0Njk3MyIgY2xhc3M9ImVyIGF0dHJpYnV0ZUJveE9kZCI+PC9yZWN0Pjx0ZXh0IHN0eWxlPSJkb21pbmFudC1iYXNlbGluZTogbWlkZGxlOyBmb250LXNpemU6IDEwLjJweDsiIHRyYW5zZm9ybT0idHJhbnNsYXRlKDE0NC4yNTYyNTAzODE0Njk3MywxMjIuNjAwMDAwMzgxNDY5NzMpIiB5PSIwIiB4PSIwIiBpZD0idGV4dC1lbnRpdHktR0FSQkFHRVRZUEVTLWRkYmI4NWMxLTE1NTQtNTY3Mi05OTI0LTI4MjE0ODQ0ZmNlYS1hdHRyLTUta2V5IiBjbGFzcz0iZXIgZW50aXR5TGFiZWwiPjwvdGV4dD48cmVjdCBoZWlnaHQ9IjIyIiB3aWR0aD0iODEuNTk5OTk4NDc0MTIxMSIgeT0iMTExLjYwMDAwMDM4MTQ2OTczIiB4PSIxNjEuMzQzOTQ1NTAzMjM0ODYiIGNsYXNzPSJlciBhdHRyaWJ1dGVCb3hPZGQiPjwvcmVjdD48dGV4dCBzdHlsZT0iZG9taW5hbnQtYmFzZWxpbmU6IG1pZGRsZTsgZm9udC1zaXplOiAxMC4ycHg7IiB0cmFuc2Zvcm09InRyYW5zbGF0ZSgxNjYuMzQzOTQ1NTAzMjM0ODYsMTIyLjYwMDAwMDM4MTQ2OTczKSIgeT0iMCIgeD0iMCIgaWQ9InRleHQtZW50aXR5LUdBUkJBR0VUWVBFUy1kZGJiODVjMS0xNTU0LTU2NzItOTkyNC0yODIxNDg0NGZjZWEtYXR0ci01LWNvbW1lbnQiIGNsYXNzPSJlciBlbnRpdHlMYWJlbCI+5pel5pys6Kqe6Kqs5piOPC90ZXh0PjxyZWN0IGhlaWdodD0iMjIiIHdpZHRoPSIzNi4yMTkxNDEwMDY0Njk3MyIgeT0iMTMzLjYwMDAwMDM4MTQ2OTczIiB4PSIwIiBjbGFzcz0iZXIgYXR0cmlidXRlQm94RXZlbiI+PC9yZWN0Pjx0ZXh0IHN0eWxlPSJkb21pbmFudC1iYXNlbGluZTogbWlkZGxlOyBmb250LXNpemU6IDEwLjJweDsiIHRyYW5zZm9ybT0idHJhbnNsYXRlKDUsMTQ0LjYwMDAwMDM4MTQ2OTczKSIgeT0iMCIgeD0iMCIgaWQ9InRleHQtZW50aXR5LUdBUkJBR0VUWVBFUy1kZGJiODVjMS0xNTU0LTU2NzItOTkyNC0yODIxNDg0NGZjZWEtYXR0ci02LXR5cGUiIGNsYXNzPSJlciBlbnRpdHlMYWJlbCI+c3RyaW5nPC90ZXh0PjxyZWN0IGhlaWdodD0iMjIiIHdpZHRoPSIxMDMuMDM3MTA5Mzc1IiB5PSIxMzMuNjAwMDAwMzgxNDY5NzMiIHg9IjM2LjIxOTE0MTAwNjQ2OTczIiBjbGFzcz0iZXIgYXR0cmlidXRlQm94RXZlbiI+PC9yZWN0Pjx0ZXh0IHN0eWxlPSJkb21pbmFudC1iYXNlbGluZTogbWlkZGxlOyBmb250LXNpemU6IDEwLjJweDsiIHRyYW5zZm9ybT0idHJhbnNsYXRlKDQxLjIxOTE0MTAwNjQ2OTczLDE0NC42MDAwMDAzODE0Njk3MykiIHk9IjAiIHg9IjAiIGlkPSJ0ZXh0LWVudGl0eS1HQVJCQUdFVFlQRVMtZGRiYjg1YzEtMTU1NC01NjcyLTk5MjQtMjgyMTQ4NDRmY2VhLWF0dHItNi1uYW1lIiBjbGFzcz0iZXIgZW50aXR5TGFiZWwiPmRlc2NyaXB0aW9uX2VuPC90ZXh0PjxyZWN0IGhlaWdodD0iMjIiIHdpZHRoPSIyMi4wODc2OTUxMjE3NjUxMzciIHk9IjEzMy42MDAwMDAzODE0Njk3MyIgeD0iMTM5LjI1NjI1MDM4MTQ2OTczIiBjbGFzcz0iZXIgYXR0cmlidXRlQm94RXZlbiI+PC9yZWN0Pjx0ZXh0IHN0eWxlPSJkb21pbmFudC1iYXNlbGluZTogbWlkZGxlOyBmb250LXNpemU6IDEwLjJweDsiIHRyYW5zZm9ybT0idHJhbnNsYXRlKDE0NC4yNTYyNTAzODE0Njk3MywxNDQuNjAwMDAwMzgxNDY5NzMpIiB5PSIwIiB4PSIwIiBpZD0idGV4dC1lbnRpdHktR0FSQkFHRVRZUEVTLWRkYmI4NWMxLTE1NTQtNTY3Mi05OTI0LTI4MjE0ODQ0ZmNlYS1hdHRyLTYta2V5IiBjbGFzcz0iZXIgZW50aXR5TGFiZWwiPjwvdGV4dD48cmVjdCBoZWlnaHQ9IjIyIiB3aWR0aD0iODEuNTk5OTk4NDc0MTIxMSIgeT0iMTMzLjYwMDAwMDM4MTQ2OTczIiB4PSIxNjEuMzQzOTQ1NTAzMjM0ODYiIGNsYXNzPSJlciBhdHRyaWJ1dGVCb3hFdmVuIj48L3JlY3Q+PHRleHQgc3R5bGU9ImRvbWluYW50LWJhc2VsaW5lOiBtaWRkbGU7IGZvbnQtc2l6ZTogMTAuMnB4OyIgdHJhbnNmb3JtPSJ0cmFuc2xhdGUoMTY2LjM0Mzk0NTUwMzIzNDg2LDE0NC42MDAwMDAzODE0Njk3MykiIHk9IjAiIHg9IjAiIGlkPSJ0ZXh0LWVudGl0eS1HQVJCQUdFVFlQRVMtZGRiYjg1YzEtMTU1NC01NjcyLTk5MjQtMjgyMTQ4NDRmY2VhLWF0dHItNi1jb21tZW50IiBjbGFzcz0iZXIgZW50aXR5TGFiZWwiPuiLseiqnuiqrOaYjjwvdGV4dD48cmVjdCBoZWlnaHQ9IjIyIiB3aWR0aD0iMzYuMjE5MTQxMDA2NDY5NzMiIHk9IjE1NS42MDAwMDAzODE0Njk3MyIgeD0iMCIgY2xhc3M9ImVyIGF0dHJpYnV0ZUJveE9kZCI+PC9yZWN0Pjx0ZXh0IHN0eWxlPSJkb21pbmFudC1iYXNlbGluZTogbWlkZGxlOyBmb250LXNpemU6IDEwLjJweDsiIHRyYW5zZm9ybT0idHJhbnNsYXRlKDUsMTY2LjYwMDAwMDM4MTQ2OTczKSIgeT0iMCIgeD0iMCIgaWQ9InRleHQtZW50aXR5LUdBUkJBR0VUWVBFUy1kZGJiODVjMS0xNTU0LTU2NzItOTkyNC0yODIxNDg0NGZjZWEtYXR0ci03LXR5cGUiIGNsYXNzPSJlciBlbnRpdHlMYWJlbCI+c3RyaW5nPC90ZXh0PjxyZWN0IGhlaWdodD0iMjIiIHdpZHRoPSIxMDMuMDM3MTA5Mzc1IiB5PSIxNTUuNjAwMDAwMzgxNDY5NzMiIHg9IjM2LjIxOTE0MTAwNjQ2OTczIiBjbGFzcz0iZXIgYXR0cmlidXRlQm94T2RkIj48L3JlY3Q+PHRleHQgc3R5bGU9ImRvbWluYW50LWJhc2VsaW5lOiBtaWRkbGU7IGZvbnQtc2l6ZTogMTAuMnB4OyIgdHJhbnNmb3JtPSJ0cmFuc2xhdGUoNDEuMjE5MTQxMDA2NDY5NzMsMTY2LjYwMDAwMDM4MTQ2OTczKSIgeT0iMCIgeD0iMCIgaWQ9InRleHQtZW50aXR5LUdBUkJBR0VUWVBFUy1kZGJiODVjMS0xNTU0LTU2NzItOTkyNC0yODIxNDg0NGZjZWEtYXR0ci03LW5hbWUiIGNsYXNzPSJlciBlbnRpdHlMYWJlbCI+ZGVzY3JpcHRpb25femg8L3RleHQ+PHJlY3QgaGVpZ2h0PSIyMiIgd2lkdGg9IjIyLjA4NzY5NTEyMTc2NTEzNyIgeT0iMTU1LjYwMDAwMDM4MTQ2OTczIiB4PSIxMzkuMjU2MjUwMzgxNDY5NzMiIGNsYXNzPSJlciBhdHRyaWJ1dGVCb3hPZGQiPjwvcmVjdD48dGV4dCBzdHlsZT0iZG9taW5hbnQtYmFzZWxpbmU6IG1pZGRsZTsgZm9udC1zaXplOiAxMC4ycHg7IiB0cmFuc2Zvcm09InRyYW5zbGF0ZSgxNDQuMjU2MjUwMzgxNDY5NzMsMTY2LjYwMDAwMDM4MTQ2OTczKSIgeT0iMCIgeD0iMCIgaWQ9InRleHQtZW50aXR5LUdBUkJBR0VUWVBFUy1kZGJiODVjMS0xNTU0LTU2NzItOTkyNC0yODIxNDg0NGZjZWEtYXR0ci03LWtleSIgY2xhc3M9ImVyIGVudGl0eUxhYmVsIj48L3RleHQ+PHJlY3QgaGVpZ2h0PSIyMiIgd2lkdGg9IjgxLjU5OTk5ODQ3NDEyMTEiIHk9IjE1NS42MDAwMDAzODE0Njk3MyIgeD0iMTYxLjM0Mzk0NTUwMzIzNDg2IiBjbGFzcz0iZXIgYXR0cmlidXRlQm94T2RkIj48L3JlY3Q+PHRleHQgc3R5bGU9ImRvbWluYW50LWJhc2VsaW5lOiBtaWRkbGU7IGZvbnQtc2l6ZTogMTAuMnB4OyIgdHJhbnNmb3JtPSJ0cmFuc2xhdGUoMTY2LjM0Mzk0NTUwMzIzNDg2LDE2Ni42MDAwMDAzODE0Njk3MykiIHk9IjAiIHg9IjAiIGlkPSJ0ZXh0LWVudGl0eS1HQVJCQUdFVFlQRVMtZGRiYjg1YzEtMTU1NC01NjcyLTk5MjQtMjgyMTQ4NDRmY2VhLWF0dHItNy1jb21tZW50IiBjbGFzcz0iZXIgZW50aXR5TGFiZWwiPuS4reWbveiqnuiqrOaYjjwvdGV4dD48cmVjdCBoZWlnaHQ9IjIyIiB3aWR0aD0iMzYuMjE5MTQxMDA2NDY5NzMiIHk9IjE3Ny42MDAwMDAzODE0Njk3MyIgeD0iMCIgY2xhc3M9ImVyIGF0dHJpYnV0ZUJveEV2ZW4iPjwvcmVjdD48dGV4dCBzdHlsZT0iZG9taW5hbnQtYmFzZWxpbmU6IG1pZGRsZTsgZm9udC1zaXplOiAxMC4ycHg7IiB0cmFuc2Zvcm09InRyYW5zbGF0ZSg1LDE4OC42MDAwMDAzODE0Njk3MykiIHk9IjAiIHg9IjAiIGlkPSJ0ZXh0LWVudGl0eS1HQVJCQUdFVFlQRVMtZGRiYjg1YzEtMTU1NC01NjcyLTk5MjQtMjgyMTQ4NDRmY2VhLWF0dHItOC10eXBlIiBjbGFzcz0iZXIgZW50aXR5TGFiZWwiPnN0cmluZzwvdGV4dD48cmVjdCBoZWlnaHQ9IjIyIiB3aWR0aD0iMTAzLjAzNzEwOTM3NSIgeT0iMTc3LjYwMDAwMDM4MTQ2OTczIiB4PSIzNi4yMTkxNDEwMDY0Njk3MyIgY2xhc3M9ImVyIGF0dHJpYnV0ZUJveEV2ZW4iPjwvcmVjdD48dGV4dCBzdHlsZT0iZG9taW5hbnQtYmFzZWxpbmU6IG1pZGRsZTsgZm9udC1zaXplOiAxMC4ycHg7IiB0cmFuc2Zvcm09InRyYW5zbGF0ZSg0MS4yMTkxNDEwMDY0Njk3MywxODguNjAwMDAwMzgxNDY5NzMpIiB5PSIwIiB4PSIwIiBpZD0idGV4dC1lbnRpdHktR0FSQkFHRVRZUEVTLWRkYmI4NWMxLTE1NTQtNTY3Mi05OTI0LTI4MjE0ODQ0ZmNlYS1hdHRyLTgtbmFtZSIgY2xhc3M9ImVyIGVudGl0eUxhYmVsIj5kaXNwb3NhbF9tZXRob2RfamE8L3RleHQ+PHJlY3QgaGVpZ2h0PSIyMiIgd2lkdGg9IjIyLjA4NzY5NTEyMTc2NTEzNyIgeT0iMTc3LjYwMDAwMDM4MTQ2OTczIiB4PSIxMzkuMjU2MjUwMzgxNDY5NzMiIGNsYXNzPSJlciBhdHRyaWJ1dGVCb3hFdmVuIj48L3JlY3Q+PHRleHQgc3R5bGU9ImRvbWluYW50LWJhc2VsaW5lOiBtaWRkbGU7IGZvbnQtc2l6ZTogMTAuMnB4OyIgdHJhbnNmb3JtPSJ0cmFuc2xhdGUoMTQ0LjI1NjI1MDM4MTQ2OTczLDE4OC42MDAwMDAzODE0Njk3MykiIHk9IjAiIHg9IjAiIGlkPSJ0ZXh0LWVudGl0eS1HQVJCQUdFVFlQRVMtZGRiYjg1YzEtMTU1NC01NjcyLTk5MjQtMjgyMTQ4NDRmY2VhLWF0dHItOC1rZXkiIGNsYXNzPSJlciBlbnRpdHlMYWJlbCI+PC90ZXh0PjxyZWN0IGhlaWdodD0iMjIiIHdpZHRoPSI4MS41OTk5OTg0NzQxMjExIiB5PSIxNzcuNjAwMDAwMzgxNDY5NzMiIHg9IjE2MS4zNDM5NDU1MDMyMzQ4NiIgY2xhc3M9ImVyIGF0dHJpYnV0ZUJveEV2ZW4iPjwvcmVjdD48dGV4dCBzdHlsZT0iZG9taW5hbnQtYmFzZWxpbmU6IG1pZGRsZTsgZm9udC1zaXplOiAxMC4ycHg7IiB0cmFuc2Zvcm09InRyYW5zbGF0ZSgxNjYuMzQzOTQ1NTAzMjM0ODYsMTg4LjYwMDAwMDM4MTQ2OTczKSIgeT0iMCIgeD0iMCIgaWQ9InRleHQtZW50aXR5LUdBUkJBR0VUWVBFUy1kZGJiODVjMS0xNTU0LTU2NzItOTkyNC0yODIxNDg0NGZjZWEtYXR0ci04LWNvbW1lbnQiIGNsYXNzPSJlciBlbnRpdHlMYWJlbCI+5pel5pys6Kqe5Yem55CG5pa55rOVPC90ZXh0PjxyZWN0IGhlaWdodD0iMjIiIHdpZHRoPSIzNi4yMTkxNDEwMDY0Njk3MyIgeT0iMTk5LjYwMDAwMDM4MTQ2OTczIiB4PSIwIiBjbGFzcz0iZXIgYXR0cmlidXRlQm94T2RkIj48L3JlY3Q+PHRleHQgc3R5bGU9ImRvbWluYW50LWJhc2VsaW5lOiBtaWRkbGU7IGZvbnQtc2l6ZTogMTAuMnB4OyIgdHJhbnNmb3JtPSJ0cmFuc2xhdGUoNSwyMTAuNjAwMDAwMzgxNDY5NzMpIiB5PSIwIiB4PSIwIiBpZD0idGV4dC1lbnRpdHktR0FSQkFHRVRZUEVTLWRkYmI4NWMxLTE1NTQtNTY3Mi05OTI0LTI4MjE0ODQ0ZmNlYS1hdHRyLTktdHlwZSIgY2xhc3M9ImVyIGVudGl0eUxhYmVsIj5zdHJpbmc8L3RleHQ+PHJlY3QgaGVpZ2h0PSIyMiIgd2lkdGg9IjEwMy4wMzcxMDkzNzUiIHk9IjE5OS42MDAwMDAzODE0Njk3MyIgeD0iMzYuMjE5MTQxMDA2NDY5NzMiIGNsYXNzPSJlciBhdHRyaWJ1dGVCb3hPZGQiPjwvcmVjdD48dGV4dCBzdHlsZT0iZG9taW5hbnQtYmFzZWxpbmU6IG1pZGRsZTsgZm9udC1zaXplOiAxMC4ycHg7IiB0cmFuc2Zvcm09InRyYW5zbGF0ZSg0MS4yMTkxNDEwMDY0Njk3MywyMTAuNjAwMDAwMzgxNDY5NzMpIiB5PSIwIiB4PSIwIiBpZD0idGV4dC1lbnRpdHktR0FSQkFHRVRZUEVTLWRkYmI4NWMxLTE1NTQtNTY3Mi05OTI0LTI4MjE0ODQ0ZmNlYS1hdHRyLTktbmFtZSIgY2xhc3M9ImVyIGVudGl0eUxhYmVsIj5kaXNwb3NhbF9tZXRob2RfZW48L3RleHQ+PHJlY3QgaGVpZ2h0PSIyMiIgd2lkdGg9IjIyLjA4NzY5NTEyMTc2NTEzNyIgeT0iMTk5LjYwMDAwMDM4MTQ2OTczIiB4PSIxMzkuMjU2MjUwMzgxNDY5NzMiIGNsYXNzPSJlciBhdHRyaWJ1dGVCb3hPZGQiPjwvcmVjdD48dGV4dCBzdHlsZT0iZG9taW5hbnQtYmFzZWxpbmU6IG1pZGRsZTsgZm9udC1zaXplOiAxMC4ycHg7IiB0cmFuc2Zvcm09InRyYW5zbGF0ZSgxNDQuMjU2MjUwMzgxNDY5NzMsMjEwLjYwMDAwMDM4MTQ2OTczKSIgeT0iMCIgeD0iMCIgaWQ9InRleHQtZW50aXR5LUdBUkJBR0VUWVBFUy1kZGJiODVjMS0xNTU0LTU2NzItOTkyNC0yODIxNDg0NGZjZWEtYXR0ci05LWtleSIgY2xhc3M9ImVyIGVudGl0eUxhYmVsIj48L3RleHQ+PHJlY3QgaGVpZ2h0PSIyMiIgd2lkdGg9IjgxLjU5OTk5ODQ3NDEyMTEiIHk9IjE5OS42MDAwMDAzODE0Njk3MyIgeD0iMTYxLjM0Mzk0NTUwMzIzNDg2IiBjbGFzcz0iZXIgYXR0cmlidXRlQm94T2RkIj48L3JlY3Q+PHRleHQgc3R5bGU9ImRvbWluYW50LWJhc2VsaW5lOiBtaWRkbGU7IGZvbnQtc2l6ZTogMTAuMnB4OyIgdHJhbnNmb3JtPSJ0cmFuc2xhdGUoMTY2LjM0Mzk0NTUwMzIzNDg2LDIxMC42MDAwMDAzODE0Njk3MykiIHk9IjAiIHg9IjAiIGlkPSJ0ZXh0LWVudGl0eS1HQVJCQUdFVFlQRVMtZGRiYjg1YzEtMTU1NC01NjcyLTk5MjQtMjgyMTQ4NDRmY2VhLWF0dHItOS1jb21tZW50IiBjbGFzcz0iZXIgZW50aXR5TGFiZWwiPuiLseiqnuWHpueQhuaWueazlTwvdGV4dD48cmVjdCBoZWlnaHQ9IjIyIiB3aWR0aD0iMzYuMjE5MTQxMDA2NDY5NzMiIHk9IjIyMS42MDAwMDAzODE0Njk3MyIgeD0iMCIgY2xhc3M9ImVyIGF0dHJpYnV0ZUJveEV2ZW4iPjwvcmVjdD48dGV4dCBzdHlsZT0iZG9taW5hbnQtYmFzZWxpbmU6IG1pZGRsZTsgZm9udC1zaXplOiAxMC4ycHg7IiB0cmFuc2Zvcm09InRyYW5zbGF0ZSg1LDIzMi42MDAwMDAzODE0Njk3MykiIHk9IjAiIHg9IjAiIGlkPSJ0ZXh0LWVudGl0eS1HQVJCQUdFVFlQRVMtZGRiYjg1YzEtMTU1NC01NjcyLTk5MjQtMjgyMTQ4NDRmY2VhLWF0dHItMTAtdHlwZSIgY2xhc3M9ImVyIGVudGl0eUxhYmVsIj5zdHJpbmc8L3RleHQ+PHJlY3QgaGVpZ2h0PSIyMiIgd2lkdGg9IjEwMy4wMzcxMDkzNzUiIHk9IjIyMS42MDAwMDAzODE0Njk3MyIgeD0iMzYuMjE5MTQxMDA2NDY5NzMiIGNsYXNzPSJlciBhdHRyaWJ1dGVCb3hFdmVuIj48L3JlY3Q+PHRleHQgc3R5bGU9ImRvbWluYW50LWJhc2VsaW5lOiBtaWRkbGU7IGZvbnQtc2l6ZTogMTAuMnB4OyIgdHJhbnNmb3JtPSJ0cmFuc2xhdGUoNDEuMjE5MTQxMDA2NDY5NzMsMjMyLjYwMDAwMDM4MTQ2OTczKSIgeT0iMCIgeD0iMCIgaWQ9InRleHQtZW50aXR5LUdBUkJBR0VUWVBFUy1kZGJiODVjMS0xNTU0LTU2NzItOTkyNC0yODIxNDg0NGZjZWEtYXR0ci0xMC1uYW1lIiBjbGFzcz0iZXIgZW50aXR5TGFiZWwiPmRpc3Bvc2FsX21ldGhvZF96aDwvdGV4dD48cmVjdCBoZWlnaHQ9IjIyIiB3aWR0aD0iMjIuMDg3Njk1MTIxNzY1MTM3IiB5PSIyMjEuNjAwMDAwMzgxNDY5NzMiIHg9IjEzOS4yNTYyNTAzODE0Njk3MyIgY2xhc3M9ImVyIGF0dHJpYnV0ZUJveEV2ZW4iPjwvcmVjdD48dGV4dCBzdHlsZT0iZG9taW5hbnQtYmFzZWxpbmU6IG1pZGRsZTsgZm9udC1zaXplOiAxMC4ycHg7IiB0cmFuc2Zvcm09InRyYW5zbGF0ZSgxNDQuMjU2MjUwMzgxNDY5NzMsMjMyLjYwMDAwMDM4MTQ2OTczKSIgeT0iMCIgeD0iMCIgaWQ9InRleHQtZW50aXR5LUdBUkJBR0VUWVBFUy1kZGJiODVjMS0xNTU0LTU2NzItOTkyNC0yODIxNDg0NGZjZWEtYXR0ci0xMC1rZXkiIGNsYXNzPSJlciBlbnRpdHlMYWJlbCI+PC90ZXh0PjxyZWN0IGhlaWdodD0iMjIiIHdpZHRoPSI4MS41OTk5OTg0NzQxMjExIiB5PSIyMjEuNjAwMDAwMzgxNDY5NzMiIHg9IjE2MS4zNDM5NDU1MDMyMzQ4NiIgY2xhc3M9ImVyIGF0dHJpYnV0ZUJveEV2ZW4iPjwvcmVjdD48dGV4dCBzdHlsZT0iZG9taW5hbnQtYmFzZWxpbmU6IG1pZGRsZTsgZm9udC1zaXplOiAxMC4ycHg7IiB0cmFuc2Zvcm09InRyYW5zbGF0ZSgxNjYuMzQzOTQ1NTAzMjM0ODYsMjMyLjYwMDAwMDM4MTQ2OTczKSIgeT0iMCIgeD0iMCIgaWQ9InRleHQtZW50aXR5LUdBUkJBR0VUWVBFUy1kZGJiODVjMS0xNTU0LTU2NzItOTkyNC0yODIxNDg0NGZjZWEtYXR0ci0xMC1jb21tZW50IiBjbGFzcz0iZXIgZW50aXR5TGFiZWwiPuS4reWbveiqnuWHpueQhuaWueazlTwvdGV4dD48cmVjdCBoZWlnaHQ9IjIyIiB3aWR0aD0iMzYuMjE5MTQxMDA2NDY5NzMiIHk9IjI0My42MDAwMDAzODE0Njk3MyIgeD0iMCIgY2xhc3M9ImVyIGF0dHJpYnV0ZUJveE9kZCI+PC9yZWN0Pjx0ZXh0IHN0eWxlPSJkb21pbmFudC1iYXNlbGluZTogbWlkZGxlOyBmb250LXNpemU6IDEwLjJweDsiIHRyYW5zZm9ybT0idHJhbnNsYXRlKDUsMjU0LjYwMDAwMDM4MTQ2OTczKSIgeT0iMCIgeD0iMCIgaWQ9InRleHQtZW50aXR5LUdBUkJBR0VUWVBFUy1kZGJiODVjMS0xNTU0LTU2NzItOTkyNC0yODIxNDg0NGZjZWEtYXR0ci0xMS10eXBlIiBjbGFzcz0iZXIgZW50aXR5TGFiZWwiPnN0cmluZzwvdGV4dD48cmVjdCBoZWlnaHQ9IjIyIiB3aWR0aD0iMTAzLjAzNzEwOTM3NSIgeT0iMjQzLjYwMDAwMDM4MTQ2OTczIiB4PSIzNi4yMTkxNDEwMDY0Njk3MyIgY2xhc3M9ImVyIGF0dHJpYnV0ZUJveE9kZCI+PC9yZWN0Pjx0ZXh0IHN0eWxlPSJkb21pbmFudC1iYXNlbGluZTogbWlkZGxlOyBmb250LXNpemU6IDEwLjJweDsiIHRyYW5zZm9ybT0idHJhbnNsYXRlKDQxLjIxOTE0MTAwNjQ2OTczLDI1NC42MDAwMDAzODE0Njk3MykiIHk9IjAiIHg9IjAiIGlkPSJ0ZXh0LWVudGl0eS1HQVJCQUdFVFlQRVMtZGRiYjg1YzEtMTU1NC01NjcyLTk5MjQtMjgyMTQ4NDRmY2VhLWF0dHItMTEtbmFtZSIgY2xhc3M9ImVyIGVudGl0eUxhYmVsIj5jb2xvcl9jb2RlPC90ZXh0PjxyZWN0IGhlaWdodD0iMjIiIHdpZHRoPSIyMi4wODc2OTUxMjE3NjUxMzciIHk9IjI0My42MDAwMDAzODE0Njk3MyIgeD0iMTM5LjI1NjI1MDM4MTQ2OTczIiBjbGFzcz0iZXIgYXR0cmlidXRlQm94T2RkIj48L3JlY3Q+PHRleHQgc3R5bGU9ImRvbWluYW50LWJhc2VsaW5lOiBtaWRkbGU7IGZvbnQtc2l6ZTogMTAuMnB4OyIgdHJhbnNmb3JtPSJ0cmFuc2xhdGUoMTQ0LjI1NjI1MDM4MTQ2OTczLDI1NC42MDAwMDAzODE0Njk3MykiIHk9IjAiIHg9IjAiIGlkPSJ0ZXh0LWVudGl0eS1HQVJCQUdFVFlQRVMtZGRiYjg1YzEtMTU1NC01NjcyLTk5MjQtMjgyMTQ4NDRmY2VhLWF0dHItMTEta2V5IiBjbGFzcz0iZXIgZW50aXR5TGFiZWwiPjwvdGV4dD48cmVjdCBoZWlnaHQ9IjIyIiB3aWR0aD0iODEuNTk5OTk4NDc0MTIxMSIgeT0iMjQzLjYwMDAwMDM4MTQ2OTczIiB4PSIxNjEuMzQzOTQ1NTAzMjM0ODYiIGNsYXNzPSJlciBhdHRyaWJ1dGVCb3hPZGQiPjwvcmVjdD48dGV4dCBzdHlsZT0iZG9taW5hbnQtYmFzZWxpbmU6IG1pZGRsZTsgZm9udC1zaXplOiAxMC4ycHg7IiB0cmFuc2Zvcm09InRyYW5zbGF0ZSgxNjYuMzQzOTQ1NTAzMjM0ODYsMjU0LjYwMDAwMDM4MTQ2OTczKSIgeT0iMCIgeD0iMCIgaWQ9InRleHQtZW50aXR5LUdBUkJBR0VUWVBFUy1kZGJiODVjMS0xNTU0LTU2NzItOTkyNC0yODIxNDg0NGZjZWEtYXR0ci0xMS1jb21tZW50IiBjbGFzcz0iZXIgZW50aXR5TGFiZWwiPuiJsuOCs+ODvOODiTwvdGV4dD48cmVjdCBoZWlnaHQ9IjIyIiB3aWR0aD0iMzYuMjE5MTQxMDA2NDY5NzMiIHk9IjI2NS42MDAwMDAzODE0Njk3IiB4PSIwIiBjbGFzcz0iZXIgYXR0cmlidXRlQm94RXZlbiI+PC9yZWN0Pjx0ZXh0IHN0eWxlPSJkb21pbmFudC1iYXNlbGluZTogbWlkZGxlOyBmb250LXNpemU6IDEwLjJweDsiIHRyYW5zZm9ybT0idHJhbnNsYXRlKDUsMjc2LjYwMDAwMDM4MTQ2OTcpIiB5PSIwIiB4PSIwIiBpZD0idGV4dC1lbnRpdHktR0FSQkFHRVRZUEVTLWRkYmI4NWMxLTE1NTQtNTY3Mi05OTI0LTI4MjE0ODQ0ZmNlYS1hdHRyLTEyLXR5cGUiIGNsYXNzPSJlciBlbnRpdHlMYWJlbCI+c3RyaW5nPC90ZXh0PjxyZWN0IGhlaWdodD0iMjIiIHdpZHRoPSIxMDMuMDM3MTA5Mzc1IiB5PSIyNjUuNjAwMDAwMzgxNDY5NyIgeD0iMzYuMjE5MTQxMDA2NDY5NzMiIGNsYXNzPSJlciBhdHRyaWJ1dGVCb3hFdmVuIj48L3JlY3Q+PHRleHQgc3R5bGU9ImRvbWluYW50LWJhc2VsaW5lOiBtaWRkbGU7IGZvbnQtc2l6ZTogMTAuMnB4OyIgdHJhbnNmb3JtPSJ0cmFuc2xhdGUoNDEuMjE5MTQxMDA2NDY5NzMsMjc2LjYwMDAwMDM4MTQ2OTcpIiB5PSIwIiB4PSIwIiBpZD0idGV4dC1lbnRpdHktR0FSQkFHRVRZUEVTLWRkYmI4NWMxLTE1NTQtNTY3Mi05OTI0LTI4MjE0ODQ0ZmNlYS1hdHRyLTEyLW5hbWUiIGNsYXNzPSJlciBlbnRpdHlMYWJlbCI+aWNvbjwvdGV4dD48cmVjdCBoZWlnaHQ9IjIyIiB3aWR0aD0iMjIuMDg3Njk1MTIxNzY1MTM3IiB5PSIyNjUuNjAwMDAwMzgxNDY5NyIgeD0iMTM5LjI1NjI1MDM4MTQ2OTczIiBjbGFzcz0iZXIgYXR0cmlidXRlQm94RXZlbiI+PC9yZWN0Pjx0ZXh0IHN0eWxlPSJkb21pbmFudC1iYXNlbGluZTogbWlkZGxlOyBmb250LXNpemU6IDEwLjJweDsiIHRyYW5zZm9ybT0idHJhbnNsYXRlKDE0NC4yNTYyNTAzODE0Njk3MywyNzYuNjAwMDAwMzgxNDY5NykiIHk9IjAiIHg9IjAiIGlkPSJ0ZXh0LWVudGl0eS1HQVJCQUdFVFlQRVMtZGRiYjg1YzEtMTU1NC01NjcyLTk5MjQtMjgyMTQ4NDRmY2VhLWF0dHItMTIta2V5IiBjbGFzcz0iZXIgZW50aXR5TGFiZWwiPjwvdGV4dD48cmVjdCBoZWlnaHQ9IjIyIiB3aWR0aD0iODEuNTk5OTk4NDc0MTIxMSIgeT0iMjY1LjYwMDAwMDM4MTQ2OTciIHg9IjE2MS4zNDM5NDU1MDMyMzQ4NiIgY2xhc3M9ImVyIGF0dHJpYnV0ZUJveEV2ZW4iPjwvcmVjdD48dGV4dCBzdHlsZT0iZG9taW5hbnQtYmFzZWxpbmU6IG1pZGRsZTsgZm9udC1zaXplOiAxMC4ycHg7IiB0cmFuc2Zvcm09InRyYW5zbGF0ZSgxNjYuMzQzOTQ1NTAzMjM0ODYsMjc2LjYwMDAwMDM4MTQ2OTcpIiB5PSIwIiB4PSIwIiBpZD0idGV4dC1lbnRpdHktR0FSQkFHRVRZUEVTLWRkYmI4NWMxLTE1NTQtNTY3Mi05OTI0LTI4MjE0ODQ0ZmNlYS1hdHRyLTEyLWNvbW1lbnQiIGNsYXNzPSJlciBlbnRpdHlMYWJlbCI+44Ki44Kk44Kz44OzPC90ZXh0PjwvZz48ZyB0cmFuc2Zvcm09InRyYW5zbGF0ZSg1MTEuNjExNTUzMTkyMTM4NywxMDA3LjYwMDAwNjEwMzUxNTYgKSIgaWQ9ImVudGl0eS1DT0xMRUNUSU9OU0NIRURVTEVTLTdmNjcyMzZlLTEzYmEtNTY0Zi1iNDUyLTRmZDlhNTYxZWRjZCI+PHJlY3QgaGVpZ2h0PSIyNDUuMjAwMDAwNzYyOTM5NDUiIHdpZHRoPSIyNzQuOTExODI0MjI2Mzc5NCIgeT0iMCIgeD0iMCIgY2xhc3M9ImVyIGVudGl0eUJveCI+PC9yZWN0Pjx0ZXh0IHN0eWxlPSJkb21pbmFudC1iYXNlbGluZTogbWlkZGxlOyB0ZXh0LWFuY2hvcjogbWlkZGxlOyBmb250LXNpemU6IDEycHg7IiB0cmFuc2Zvcm09InRyYW5zbGF0ZSgxMzcuNDU1OTEyMTEzMTg5NywxMS44MDAwMDAxOTA3MzQ4NjMpIiB5PSIwIiB4PSIwIiBpZD0idGV4dC1lbnRpdHktQ09MTEVDVElPTlNDSEVEVUxFUy03ZjY3MjM2ZS0xM2JhLTU2NGYtYjQ1Mi00ZmQ5YTU2MWVkY2QiIGNsYXNzPSJlciBlbnRpdHlMYWJlbCI+Q09MTEVDVElPTl9TQ0hFRFVMRVM8L3RleHQ+PHJlY3QgaGVpZ2h0PSIyMiIgd2lkdGg9IjM2LjIxOTE0MTAwNjQ2OTczIiB5PSIyMy42MDAwMDAzODE0Njk3MjciIHg9IjAiIGNsYXNzPSJlciBhdHRyaWJ1dGVCb3hPZGQiPjwvcmVjdD48dGV4dCBzdHlsZT0iZG9taW5hbnQtYmFzZWxpbmU6IG1pZGRsZTsgZm9udC1zaXplOiAxMC4ycHg7IiB0cmFuc2Zvcm09InRyYW5zbGF0ZSg1LDM0LjYwMDAwMDM4MTQ2OTczKSIgeT0iMCIgeD0iMCIgaWQ9InRleHQtZW50aXR5LUNPTExFQ1RJT05TQ0hFRFVMRVMtN2Y2NzIzNmUtMTNiYS01NjRmLWI0NTItNGZkOWE1NjFlZGNkLWF0dHItMS10eXBlIiBjbGFzcz0iZXIgZW50aXR5TGFiZWwiPmludDwvdGV4dD48cmVjdCBoZWlnaHQ9IjIyIiB3aWR0aD0iOTQuNzAwMDA0NTc3NjM2NzIiIHk9IjIzLjYwMDAwMDM4MTQ2OTcyNyIgeD0iMzYuMjE5MTQxMDA2NDY5NzMiIGNsYXNzPSJlciBhdHRyaWJ1dGVCb3hPZGQiPjwvcmVjdD48dGV4dCBzdHlsZT0iZG9taW5hbnQtYmFzZWxpbmU6IG1pZGRsZTsgZm9udC1zaXplOiAxMC4ycHg7IiB0cmFuc2Zvcm09InRyYW5zbGF0ZSg0MS4yMTkxNDEwMDY0Njk3MywzNC42MDAwMDAzODE0Njk3MykiIHk9IjAiIHg9IjAiIGlkPSJ0ZXh0LWVudGl0eS1DT0xMRUNUSU9OU0NIRURVTEVTLTdmNjcyMzZlLTEzYmEtNTY0Zi1iNDUyLTRmZDlhNTYxZWRjZC1hdHRyLTEtbmFtZSIgY2xhc3M9ImVyIGVudGl0eUxhYmVsIj5pZDwvdGV4dD48cmVjdCBoZWlnaHQ9IjIyIiB3aWR0aD0iMjIuMDg3Njk1MTIxNzY1MTM3IiB5PSIyMy42MDAwMDAzODE0Njk3MjciIHg9IjEzMC45MTkxNDU1ODQxMDY0NSIgY2xhc3M9ImVyIGF0dHJpYnV0ZUJveE9kZCI+PC9yZWN0Pjx0ZXh0IHN0eWxlPSJkb21pbmFudC1iYXNlbGluZTogbWlkZGxlOyBmb250LXNpemU6IDEwLjJweDsiIHRyYW5zZm9ybT0idHJhbnNsYXRlKDEzNS45MTkxNDU1ODQxMDY0NSwzNC42MDAwMDAzODE0Njk3MykiIHk9IjAiIHg9IjAiIGlkPSJ0ZXh0LWVudGl0eS1DT0xMRUNUSU9OU0NIRURVTEVTLTdmNjcyMzZlLTEzYmEtNTY0Zi1iNDUyLTRmZDlhNTYxZWRjZC1hdHRyLTEta2V5IiBjbGFzcz0iZXIgZW50aXR5TGFiZWwiPlBLPC90ZXh0PjxyZWN0IGhlaWdodD0iMjIiIHdpZHRoPSIxMjEuOTA0OTgzNTIwNTA3ODEiIHk9IjIzLjYwMDAwMDM4MTQ2OTcyNyIgeD0iMTUzLjAwNjg0MDcwNTg3MTU4IiBjbGFzcz0iZXIgYXR0cmlidXRlQm94T2RkIj48L3JlY3Q+PHRleHQgc3R5bGU9ImRvbWluYW50LWJhc2VsaW5lOiBtaWRkbGU7IGZvbnQtc2l6ZTogMTAuMnB4OyIgdHJhbnNmb3JtPSJ0cmFuc2xhdGUoMTU4LjAwNjg0MDcwNTg3MTU4LDM0LjYwMDAwMDM4MTQ2OTczKSIgeT0iMCIgeD0iMCIgaWQ9InRleHQtZW50aXR5LUNPTExFQ1RJT05TQ0hFRFVMRVMtN2Y2NzIzNmUtMTNiYS01NjRmLWI0NTItNGZkOWE1NjFlZGNkLWF0dHItMS1jb21tZW50IiBjbGFzcz0iZXIgZW50aXR5TGFiZWwiPuOCueOCseOCuOODpeODvOODq0lEPC90ZXh0PjxyZWN0IGhlaWdodD0iMjIiIHdpZHRoPSIzNi4yMTkxNDEwMDY0Njk3MyIgeT0iNDUuNjAwMDAwMzgxNDY5NzMiIHg9IjAiIGNsYXNzPSJlciBhdHRyaWJ1dGVCb3hFdmVuIj48L3JlY3Q+PHRleHQgc3R5bGU9ImRvbWluYW50LWJhc2VsaW5lOiBtaWRkbGU7IGZvbnQtc2l6ZTogMTAuMnB4OyIgdHJhbnNmb3JtPSJ0cmFuc2xhdGUoNSw1Ni42MDAwMDAzODE0Njk3MykiIHk9IjAiIHg9IjAiIGlkPSJ0ZXh0LWVudGl0eS1DT0xMRUNUSU9OU0NIRURVTEVTLTdmNjcyMzZlLTEzYmEtNTY0Zi1iNDUyLTRmZDlhNTYxZWRjZC1hdHRyLTItdHlwZSIgY2xhc3M9ImVyIGVudGl0eUxhYmVsIj5pbnQ8L3RleHQ+PHJlY3QgaGVpZ2h0PSIyMiIgd2lkdGg9Ijk0LjcwMDAwNDU3NzYzNjcyIiB5PSI0NS42MDAwMDAzODE0Njk3MyIgeD0iMzYuMjE5MTQxMDA2NDY5NzMiIGNsYXNzPSJlciBhdHRyaWJ1dGVCb3hFdmVuIj48L3JlY3Q+PHRleHQgc3R5bGU9ImRvbWluYW50LWJhc2VsaW5lOiBtaWRkbGU7IGZvbnQtc2l6ZTogMTAuMnB4OyIgdHJhbnNmb3JtPSJ0cmFuc2xhdGUoNDEuMjE5MTQxMDA2NDY5NzMsNTYuNjAwMDAwMzgxNDY5NzMpIiB5PSIwIiB4PSIwIiBpZD0idGV4dC1lbnRpdHktQ09MTEVDVElPTlNDSEVEVUxFUy03ZjY3MjM2ZS0xM2JhLTU2NGYtYjQ1Mi00ZmQ5YTU2MWVkY2QtYXR0ci0yLW5hbWUiIGNsYXNzPSJlciBlbnRpdHlMYWJlbCI+Y29sbGVjdGlvbl9hcmVhX2lkPC90ZXh0PjxyZWN0IGhlaWdodD0iMjIiIHdpZHRoPSIyMi4wODc2OTUxMjE3NjUxMzciIHk9IjQ1LjYwMDAwMDM4MTQ2OTczIiB4PSIxMzAuOTE5MTQ1NTg0MTA2NDUiIGNsYXNzPSJlciBhdHRyaWJ1dGVCb3hFdmVuIj48L3JlY3Q+PHRleHQgc3R5bGU9ImRvbWluYW50LWJhc2VsaW5lOiBtaWRkbGU7IGZvbnQtc2l6ZTogMTAuMnB4OyIgdHJhbnNmb3JtPSJ0cmFuc2xhdGUoMTM1LjkxOTE0NTU4NDEwNjQ1LDU2LjYwMDAwMDM4MTQ2OTczKSIgeT0iMCIgeD0iMCIgaWQ9InRleHQtZW50aXR5LUNPTExFQ1RJT05TQ0hFRFVMRVMtN2Y2NzIzNmUtMTNiYS01NjRmLWI0NTItNGZkOWE1NjFlZGNkLWF0dHItMi1rZXkiIGNsYXNzPSJlciBlbnRpdHlMYWJlbCI+Rks8L3RleHQ+PHJlY3QgaGVpZ2h0PSIyMiIgd2lkdGg9IjEyMS45MDQ5ODM1MjA1MDc4MSIgeT0iNDUuNjAwMDAwMzgxNDY5NzMiIHg9IjE1My4wMDY4NDA3MDU4NzE1OCIgY2xhc3M9ImVyIGF0dHJpYnV0ZUJveEV2ZW4iPjwvcmVjdD48dGV4dCBzdHlsZT0iZG9taW5hbnQtYmFzZWxpbmU6IG1pZGRsZTsgZm9udC1zaXplOiAxMC4ycHg7IiB0cmFuc2Zvcm09InRyYW5zbGF0ZSgxNTguMDA2ODQwNzA1ODcxNTgsNTYuNjAwMDAwMzgxNDY5NzMpIiB5PSIwIiB4PSIwIiBpZD0idGV4dC1lbnRpdHktQ09MTEVDVElPTlNDSEVEVUxFUy03ZjY3MjM2ZS0xM2JhLTU2NGYtYjQ1Mi00ZmQ5YTU2MWVkY2QtYXR0ci0yLWNvbW1lbnQiIGNsYXNzPSJlciBlbnRpdHlMYWJlbCI+5Y+O6ZuG44Ko44Oq44KiSUQ8L3RleHQ+PHJlY3QgaGVpZ2h0PSIyMiIgd2lkdGg9IjM2LjIxOTE0MTAwNjQ2OTczIiB5PSI2Ny42MDAwMDAzODE0Njk3MyIgeD0iMCIgY2xhc3M9ImVyIGF0dHJpYnV0ZUJveE9kZCI+PC9yZWN0Pjx0ZXh0IHN0eWxlPSJkb21pbmFudC1iYXNlbGluZTogbWlkZGxlOyBmb250LXNpemU6IDEwLjJweDsiIHRyYW5zZm9ybT0idHJhbnNsYXRlKDUsNzguNjAwMDAwMzgxNDY5NzMpIiB5PSIwIiB4PSIwIiBpZD0idGV4dC1lbnRpdHktQ09MTEVDVElPTlNDSEVEVUxFUy03ZjY3MjM2ZS0xM2JhLTU2NGYtYjQ1Mi00ZmQ5YTU2MWVkY2QtYXR0ci0zLXR5cGUiIGNsYXNzPSJlciBlbnRpdHlMYWJlbCI+aW50PC90ZXh0PjxyZWN0IGhlaWdodD0iMjIiIHdpZHRoPSI5NC43MDAwMDQ1Nzc2MzY3MiIgeT0iNjcuNjAwMDAwMzgxNDY5NzMiIHg9IjM2LjIxOTE0MTAwNjQ2OTczIiBjbGFzcz0iZXIgYXR0cmlidXRlQm94T2RkIj48L3JlY3Q+PHRleHQgc3R5bGU9ImRvbWluYW50LWJhc2VsaW5lOiBtaWRkbGU7IGZvbnQtc2l6ZTogMTAuMnB4OyIgdHJhbnNmb3JtPSJ0cmFuc2xhdGUoNDEuMjE5MTQxMDA2NDY5NzMsNzguNjAwMDAwMzgxNDY5NzMpIiB5PSIwIiB4PSIwIiBpZD0idGV4dC1lbnRpdHktQ09MTEVDVElPTlNDSEVEVUxFUy03ZjY3MjM2ZS0xM2JhLTU2NGYtYjQ1Mi00ZmQ5YTU2MWVkY2QtYXR0ci0zLW5hbWUiIGNsYXNzPSJlciBlbnRpdHlMYWJlbCI+Z2FyYmFnZV90eXBlX2lkPC90ZXh0PjxyZWN0IGhlaWdodD0iMjIiIHdpZHRoPSIyMi4wODc2OTUxMjE3NjUxMzciIHk9IjY3LjYwMDAwMDM4MTQ2OTczIiB4PSIxMzAuOTE5MTQ1NTg0MTA2NDUiIGNsYXNzPSJlciBhdHRyaWJ1dGVCb3hPZGQiPjwvcmVjdD48dGV4dCBzdHlsZT0iZG9taW5hbnQtYmFzZWxpbmU6IG1pZGRsZTsgZm9udC1zaXplOiAxMC4ycHg7IiB0cmFuc2Zvcm09InRyYW5zbGF0ZSgxMzUuOTE5MTQ1NTg0MTA2NDUsNzguNjAwMDAwMzgxNDY5NzMpIiB5PSIwIiB4PSIwIiBpZD0idGV4dC1lbnRpdHktQ09MTEVDVElPTlNDSEVEVUxFUy03ZjY3MjM2ZS0xM2JhLTU2NGYtYjQ1Mi00ZmQ5YTU2MWVkY2QtYXR0ci0zLWtleSIgY2xhc3M9ImVyIGVudGl0eUxhYmVsIj5GSzwvdGV4dD48cmVjdCBoZWlnaHQ9IjIyIiB3aWR0aD0iMTIxLjkwNDk4MzUyMDUwNzgxIiB5PSI2Ny42MDAwMDAzODE0Njk3MyIgeD0iMTUzLjAwNjg0MDcwNTg3MTU4IiBjbGFzcz0iZXIgYXR0cmlidXRlQm94T2RkIj48L3JlY3Q+PHRleHQgc3R5bGU9ImRvbWluYW50LWJhc2VsaW5lOiBtaWRkbGU7IGZvbnQtc2l6ZTogMTAuMnB4OyIgdHJhbnNmb3JtPSJ0cmFuc2xhdGUoMTU4LjAwNjg0MDcwNTg3MTU4LDc4LjYwMDAwMDM4MTQ2OTczKSIgeT0iMCIgeD0iMCIgaWQ9InRleHQtZW50aXR5LUNPTExFQ1RJT05TQ0hFRFVMRVMtN2Y2NzIzNmUtMTNiYS01NjRmLWI0NTItNGZkOWE1NjFlZGNkLWF0dHItMy1jb21tZW50IiBjbGFzcz0iZXIgZW50aXR5TGFiZWwiPuOCtOODn+eorumhnklEPC90ZXh0PjxyZWN0IGhlaWdodD0iMjIuODAwMDAwMTkwNzM0ODYzIiB3aWR0aD0iMzYuMjE5MTQxMDA2NDY5NzMiIHk9Ijg5LjYwMDAwMDM4MTQ2OTczIiB4PSIwIiBjbGFzcz0iZXIgYXR0cmlidXRlQm94RXZlbiI+PC9yZWN0Pjx0ZXh0IHN0eWxlPSJkb21pbmFudC1iYXNlbGluZTogbWlkZGxlOyBmb250LXNpemU6IDEwLjJweDsiIHRyYW5zZm9ybT0idHJhbnNsYXRlKDUsMTAxLjAwMDAwMDQ3NjgzNzE2KSIgeT0iMCIgeD0iMCIgaWQ9InRleHQtZW50aXR5LUNPTExFQ1RJT05TQ0hFRFVMRVMtN2Y2NzIzNmUtMTNiYS01NjRmLWI0NTItNGZkOWE1NjFlZGNkLWF0dHItNC10eXBlIiBjbGFzcz0iZXIgZW50aXR5TGFiZWwiPmludDwvdGV4dD48cmVjdCBoZWlnaHQ9IjIyLjgwMDAwMDE5MDczNDg2MyIgd2lkdGg9Ijk0LjcwMDAwNDU3NzYzNjcyIiB5PSI4OS42MDAwMDAzODE0Njk3MyIgeD0iMzYuMjE5MTQxMDA2NDY5NzMiIGNsYXNzPSJlciBhdHRyaWJ1dGVCb3hFdmVuIj48L3JlY3Q+PHRleHQgc3R5bGU9ImRvbWluYW50LWJhc2VsaW5lOiBtaWRkbGU7IGZvbnQtc2l6ZTogMTAuMnB4OyIgdHJhbnNmb3JtPSJ0cmFuc2xhdGUoNDEuMjE5MTQxMDA2NDY5NzMsMTAxLjAwMDAwMDQ3NjgzNzE2KSIgeT0iMCIgeD0iMCIgaWQ9InRleHQtZW50aXR5LUNPTExFQ1RJT05TQ0hFRFVMRVMtN2Y2NzIzNmUtMTNiYS01NjRmLWI0NTItNGZkOWE1NjFlZGNkLWF0dHItNC1uYW1lIiBjbGFzcz0iZXIgZW50aXR5TGFiZWwiPmRheV9vZl93ZWVrPC90ZXh0PjxyZWN0IGhlaWdodD0iMjIuODAwMDAwMTkwNzM0ODYzIiB3aWR0aD0iMjIuMDg3Njk1MTIxNzY1MTM3IiB5PSI4OS42MDAwMDAzODE0Njk3MyIgeD0iMTMwLjkxOTE0NTU4NDEwNjQ1IiBjbGFzcz0iZXIgYXR0cmlidXRlQm94RXZlbiI+PC9yZWN0Pjx0ZXh0IHN0eWxlPSJkb21pbmFudC1iYXNlbGluZTogbWlkZGxlOyBmb250LXNpemU6IDEwLjJweDsiIHRyYW5zZm9ybT0idHJhbnNsYXRlKDEzNS45MTkxNDU1ODQxMDY0NSwxMDEuMDAwMDAwNDc2ODM3MTYpIiB5PSIwIiB4PSIwIiBpZD0idGV4dC1lbnRpdHktQ09MTEVDVElPTlNDSEVEVUxFUy03ZjY3MjM2ZS0xM2JhLTU2NGYtYjQ1Mi00ZmQ5YTU2MWVkY2QtYXR0ci00LWtleSIgY2xhc3M9ImVyIGVudGl0eUxhYmVsIj48L3RleHQ+PHJlY3QgaGVpZ2h0PSIyMi44MDAwMDAxOTA3MzQ4NjMiIHdpZHRoPSIxMjEuOTA0OTgzNTIwNTA3ODEiIHk9Ijg5LjYwMDAwMDM4MTQ2OTczIiB4PSIxNTMuMDA2ODQwNzA1ODcxNTgiIGNsYXNzPSJlciBhdHRyaWJ1dGVCb3hFdmVuIj48L3JlY3Q+PHRleHQgc3R5bGU9ImRvbWluYW50LWJhc2VsaW5lOiBtaWRkbGU7IGZvbnQtc2l6ZTogMTAuMnB4OyIgdHJhbnNmb3JtPSJ0cmFuc2xhdGUoMTU4LjAwNjg0MDcwNTg3MTU4LDEwMS4wMDAwMDA0NzY4MzcxNikiIHk9IjAiIHg9IjAiIGlkPSJ0ZXh0LWVudGl0eS1DT0xMRUNUSU9OU0NIRURVTEVTLTdmNjcyMzZlLTEzYmEtNTY0Zi1iNDUyLTRmZDlhNTYxZWRjZC1hdHRyLTQtY29tbWVudCIgY2xhc3M9ImVyIGVudGl0eUxhYmVsIj7mm5zml6UoMC02KTwvdGV4dD48cmVjdCBoZWlnaHQ9IjIyLjgwMDAwMDE5MDczNDg2MyIgd2lkdGg9IjM2LjIxOTE0MTAwNjQ2OTczIiB5PSIxMTIuNDAwMDAwNTcyMjA0NTkiIHg9IjAiIGNsYXNzPSJlciBhdHRyaWJ1dGVCb3hPZGQiPjwvcmVjdD48dGV4dCBzdHlsZT0iZG9taW5hbnQtYmFzZWxpbmU6IG1pZGRsZTsgZm9udC1zaXplOiAxMC4ycHg7IiB0cmFuc2Zvcm09InRyYW5zbGF0ZSg1LDEyMy44MDAwMDA2Njc1NzIwMikiIHk9IjAiIHg9IjAiIGlkPSJ0ZXh0LWVudGl0eS1DT0xMRUNUSU9OU0NIRURVTEVTLTdmNjcyMzZlLTEzYmEtNTY0Zi1iNDUyLTRmZDlhNTYxZWRjZC1hdHRyLTUtdHlwZSIgY2xhc3M9ImVyIGVudGl0eUxhYmVsIj5pbnQ8L3RleHQ+PHJlY3QgaGVpZ2h0PSIyMi44MDAwMDAxOTA3MzQ4NjMiIHdpZHRoPSI5NC43MDAwMDQ1Nzc2MzY3MiIgeT0iMTEyLjQwMDAwMDU3MjIwNDU5IiB4PSIzNi4yMTkxNDEwMDY0Njk3MyIgY2xhc3M9ImVyIGF0dHJpYnV0ZUJveE9kZCI+PC9yZWN0Pjx0ZXh0IHN0eWxlPSJkb21pbmFudC1iYXNlbGluZTogbWlkZGxlOyBmb250LXNpemU6IDEwLjJweDsiIHRyYW5zZm9ybT0idHJhbnNsYXRlKDQxLjIxOTE0MTAwNjQ2OTczLDEyMy44MDAwMDA2Njc1NzIwMikiIHk9IjAiIHg9IjAiIGlkPSJ0ZXh0LWVudGl0eS1DT0xMRUNUSU9OU0NIRURVTEVTLTdmNjcyMzZlLTEzYmEtNTY0Zi1iNDUyLTRmZDlhNTYxZWRjZC1hdHRyLTUtbmFtZSIgY2xhc3M9ImVyIGVudGl0eUxhYmVsIj53ZWVrX29mX21vbnRoPC90ZXh0PjxyZWN0IGhlaWdodD0iMjIuODAwMDAwMTkwNzM0ODYzIiB3aWR0aD0iMjIuMDg3Njk1MTIxNzY1MTM3IiB5PSIxMTIuNDAwMDAwNTcyMjA0NTkiIHg9IjEzMC45MTkxNDU1ODQxMDY0NSIgY2xhc3M9ImVyIGF0dHJpYnV0ZUJveE9kZCI+PC9yZWN0Pjx0ZXh0IHN0eWxlPSJkb21pbmFudC1iYXNlbGluZTogbWlkZGxlOyBmb250LXNpemU6IDEwLjJweDsiIHRyYW5zZm9ybT0idHJhbnNsYXRlKDEzNS45MTkxNDU1ODQxMDY0NSwxMjMuODAwMDAwNjY3NTcyMDIpIiB5PSIwIiB4PSIwIiBpZD0idGV4dC1lbnRpdHktQ09MTEVDVElPTlNDSEVEVUxFUy03ZjY3MjM2ZS0xM2JhLTU2NGYtYjQ1Mi00ZmQ5YTU2MWVkY2QtYXR0ci01LWtleSIgY2xhc3M9ImVyIGVudGl0eUxhYmVsIj48L3RleHQ+PHJlY3QgaGVpZ2h0PSIyMi44MDAwMDAxOTA3MzQ4NjMiIHdpZHRoPSIxMjEuOTA0OTgzNTIwNTA3ODEiIHk9IjExMi40MDAwMDA1NzIyMDQ1OSIgeD0iMTUzLjAwNjg0MDcwNTg3MTU4IiBjbGFzcz0iZXIgYXR0cmlidXRlQm94T2RkIj48L3JlY3Q+PHRleHQgc3R5bGU9ImRvbWluYW50LWJhc2VsaW5lOiBtaWRkbGU7IGZvbnQtc2l6ZTogMTAuMnB4OyIgdHJhbnNmb3JtPSJ0cmFuc2xhdGUoMTU4LjAwNjg0MDcwNTg3MTU4LDEyMy44MDAwMDA2Njc1NzIwMikiIHk9IjAiIHg9IjAiIGlkPSJ0ZXh0LWVudGl0eS1DT0xMRUNUSU9OU0NIRURVTEVTLTdmNjcyMzZlLTEzYmEtNTY0Zi1iNDUyLTRmZDlhNTYxZWRjZC1hdHRyLTUtY29tbWVudCIgY2xhc3M9ImVyIGVudGl0eUxhYmVsIj7mnIjjga7kvZXpgLHnm64oMC00LCAwPeavjumAsSk8L3RleHQ+PHJlY3QgaGVpZ2h0PSIyMiIgd2lkdGg9IjM2LjIxOTE0MTAwNjQ2OTczIiB5PSIxMzUuMjAwMDAwNzYyOTM5NDUiIHg9IjAiIGNsYXNzPSJlciBhdHRyaWJ1dGVCb3hFdmVuIj48L3JlY3Q+PHRleHQgc3R5bGU9ImRvbWluYW50LWJhc2VsaW5lOiBtaWRkbGU7IGZvbnQtc2l6ZTogMTAuMnB4OyIgdHJhbnNmb3JtPSJ0cmFuc2xhdGUoNSwxNDYuMjAwMDAwNzYyOTM5NDUpIiB5PSIwIiB4PSIwIiBpZD0idGV4dC1lbnRpdHktQ09MTEVDVElPTlNDSEVEVUxFUy03ZjY3MjM2ZS0xM2JhLTU2NGYtYjQ1Mi00ZmQ5YTU2MWVkY2QtYXR0ci02LXR5cGUiIGNsYXNzPSJlciBlbnRpdHlMYWJlbCI+dGltZTwvdGV4dD48cmVjdCBoZWlnaHQ9IjIyIiB3aWR0aD0iOTQuNzAwMDA0NTc3NjM2NzIiIHk9IjEzNS4yMDAwMDA3NjI5Mzk0NSIgeD0iMzYuMjE5MTQxMDA2NDY5NzMiIGNsYXNzPSJlciBhdHRyaWJ1dGVCb3hFdmVuIj48L3JlY3Q+PHRleHQgc3R5bGU9ImRvbWluYW50LWJhc2VsaW5lOiBtaWRkbGU7IGZvbnQtc2l6ZTogMTAuMnB4OyIgdHJhbnNmb3JtPSJ0cmFuc2xhdGUoNDEuMjE5MTQxMDA2NDY5NzMsMTQ2LjIwMDAwMDc2MjkzOTQ1KSIgeT0iMCIgeD0iMCIgaWQ9InRleHQtZW50aXR5LUNPTExFQ1RJT05TQ0hFRFVMRVMtN2Y2NzIzNmUtMTNiYS01NjRmLWI0NTItNGZkOWE1NjFlZGNkLWF0dHItNi1uYW1lIiBjbGFzcz0iZXIgZW50aXR5TGFiZWwiPnN0YXJ0X3RpbWU8L3RleHQ+PHJlY3QgaGVpZ2h0PSIyMiIgd2lkdGg9IjIyLjA4NzY5NTEyMTc2NTEzNyIgeT0iMTM1LjIwMDAwMDc2MjkzOTQ1IiB4PSIxMzAuOTE5MTQ1NTg0MTA2NDUiIGNsYXNzPSJlciBhdHRyaWJ1dGVCb3hFdmVuIj48L3JlY3Q+PHRleHQgc3R5bGU9ImRvbWluYW50LWJhc2VsaW5lOiBtaWRkbGU7IGZvbnQtc2l6ZTogMTAuMnB4OyIgdHJhbnNmb3JtPSJ0cmFuc2xhdGUoMTM1LjkxOTE0NTU4NDEwNjQ1LDE0Ni4yMDAwMDA3NjI5Mzk0NSkiIHk9IjAiIHg9IjAiIGlkPSJ0ZXh0LWVudGl0eS1DT0xMRUNUSU9OU0NIRURVTEVTLTdmNjcyMzZlLTEzYmEtNTY0Zi1iNDUyLTRmZDlhNTYxZWRjZC1hdHRyLTYta2V5IiBjbGFzcz0iZXIgZW50aXR5TGFiZWwiPjwvdGV4dD48cmVjdCBoZWlnaHQ9IjIyIiB3aWR0aD0iMTIxLjkwNDk4MzUyMDUwNzgxIiB5PSIxMzUuMjAwMDAwNzYyOTM5NDUiIHg9IjE1My4wMDY4NDA3MDU4NzE1OCIgY2xhc3M9ImVyIGF0dHJpYnV0ZUJveEV2ZW4iPjwvcmVjdD48dGV4dCBzdHlsZT0iZG9taW5hbnQtYmFzZWxpbmU6IG1pZGRsZTsgZm9udC1zaXplOiAxMC4ycHg7IiB0cmFuc2Zvcm09InRyYW5zbGF0ZSgxNTguMDA2ODQwNzA1ODcxNTgsMTQ2LjIwMDAwMDc2MjkzOTQ1KSIgeT0iMCIgeD0iMCIgaWQ9InRleHQtZW50aXR5LUNPTExFQ1RJT05TQ0hFRFVMRVMtN2Y2NzIzNmUtMTNiYS01NjRmLWI0NTItNGZkOWE1NjFlZGNkLWF0dHItNi1jb21tZW50IiBjbGFzcz0iZXIgZW50aXR5TGFiZWwiPuWPjumbhumWi+Wni+aZgumWkzwvdGV4dD48cmVjdCBoZWlnaHQ9IjIyIiB3aWR0aD0iMzYuMjE5MTQxMDA2NDY5NzMiIHk9IjE1Ny4yMDAwMDA3NjI5Mzk0NSIgeD0iMCIgY2xhc3M9ImVyIGF0dHJpYnV0ZUJveE9kZCI+PC9yZWN0Pjx0ZXh0IHN0eWxlPSJkb21pbmFudC1iYXNlbGluZTogbWlkZGxlOyBmb250LXNpemU6IDEwLjJweDsiIHRyYW5zZm9ybT0idHJhbnNsYXRlKDUsMTY4LjIwMDAwMDc2MjkzOTQ1KSIgeT0iMCIgeD0iMCIgaWQ9InRleHQtZW50aXR5LUNPTExFQ1RJT05TQ0hFRFVMRVMtN2Y2NzIzNmUtMTNiYS01NjRmLWI0NTItNGZkOWE1NjFlZGNkLWF0dHItNy10eXBlIiBjbGFzcz0iZXIgZW50aXR5TGFiZWwiPnRpbWU8L3RleHQ+PHJlY3QgaGVpZ2h0PSIyMiIgd2lkdGg9Ijk0LjcwMDAwNDU3NzYzNjcyIiB5PSIxNTcuMjAwMDAwNzYyOTM5NDUiIHg9IjM2LjIxOTE0MTAwNjQ2OTczIiBjbGFzcz0iZXIgYXR0cmlidXRlQm94T2RkIj48L3JlY3Q+PHRleHQgc3R5bGU9ImRvbWluYW50LWJhc2VsaW5lOiBtaWRkbGU7IGZvbnQtc2l6ZTogMTAuMnB4OyIgdHJhbnNmb3JtPSJ0cmFuc2xhdGUoNDEuMjE5MTQxMDA2NDY5NzMsMTY4LjIwMDAwMDc2MjkzOTQ1KSIgeT0iMCIgeD0iMCIgaWQ9InRleHQtZW50aXR5LUNPTExFQ1RJT05TQ0hFRFVMRVMtN2Y2NzIzNmUtMTNiYS01NjRmLWI0NTItNGZkOWE1NjFlZGNkLWF0dHItNy1uYW1lIiBjbGFzcz0iZXIgZW50aXR5TGFiZWwiPmVuZF90aW1lPC90ZXh0PjxyZWN0IGhlaWdodD0iMjIiIHdpZHRoPSIyMi4wODc2OTUxMjE3NjUxMzciIHk9IjE1Ny4yMDAwMDA3NjI5Mzk0NSIgeD0iMTMwLjkxOTE0NTU4NDEwNjQ1IiBjbGFzcz0iZXIgYXR0cmlidXRlQm94T2RkIj48L3JlY3Q+PHRleHQgc3R5bGU9ImRvbWluYW50LWJhc2VsaW5lOiBtaWRkbGU7IGZvbnQtc2l6ZTogMTAuMnB4OyIgdHJhbnNmb3JtPSJ0cmFuc2xhdGUoMTM1LjkxOTE0NTU4NDEwNjQ1LDE2OC4yMDAwMDA3NjI5Mzk0NSkiIHk9IjAiIHg9IjAiIGlkPSJ0ZXh0LWVudGl0eS1DT0xMRUNUSU9OU0NIRURVTEVTLTdmNjcyMzZlLTEzYmEtNTY0Zi1iNDUyLTRmZDlhNTYxZWRjZC1hdHRyLTcta2V5IiBjbGFzcz0iZXIgZW50aXR5TGFiZWwiPjwvdGV4dD48cmVjdCBoZWlnaHQ9IjIyIiB3aWR0aD0iMTIxLjkwNDk4MzUyMDUwNzgxIiB5PSIxNTcuMjAwMDAwNzYyOTM5NDUiIHg9IjE1My4wMDY4NDA3MDU4NzE1OCIgY2xhc3M9ImVyIGF0dHJpYnV0ZUJveE9kZCI+PC9yZWN0Pjx0ZXh0IHN0eWxlPSJkb21pbmFudC1iYXNlbGluZTogbWlkZGxlOyBmb250LXNpemU6IDEwLjJweDsiIHRyYW5zZm9ybT0idHJhbnNsYXRlKDE1OC4wMDY4NDA3MDU4NzE1OCwxNjguMjAwMDAwNzYyOTM5NDUpIiB5PSIwIiB4PSIwIiBpZD0idGV4dC1lbnRpdHktQ09MTEVDVElPTlNDSEVEVUxFUy03ZjY3MjM2ZS0xM2JhLTU2NGYtYjQ1Mi00ZmQ5YTU2MWVkY2QtYXR0ci03LWNvbW1lbnQiIGNsYXNzPSJlciBlbnRpdHlMYWJlbCI+5Y+O6ZuG57WC5LqG5pmC6ZaTPC90ZXh0PjxyZWN0IGhlaWdodD0iMjIiIHdpZHRoPSIzNi4yMTkxNDEwMDY0Njk3MyIgeT0iMTc5LjIwMDAwMDc2MjkzOTQ1IiB4PSIwIiBjbGFzcz0iZXIgYXR0cmlidXRlQm94RXZlbiI+PC9yZWN0Pjx0ZXh0IHN0eWxlPSJkb21pbmFudC1iYXNlbGluZTogbWlkZGxlOyBmb250LXNpemU6IDEwLjJweDsiIHRyYW5zZm9ybT0idHJhbnNsYXRlKDUsMTkwLjIwMDAwMDc2MjkzOTQ1KSIgeT0iMCIgeD0iMCIgaWQ9InRleHQtZW50aXR5LUNPTExFQ1RJT05TQ0hFRFVMRVMtN2Y2NzIzNmUtMTNiYS01NjRmLWI0NTItNGZkOWE1NjFlZGNkLWF0dHItOC10eXBlIiBjbGFzcz0iZXIgZW50aXR5TGFiZWwiPnN0cmluZzwvdGV4dD48cmVjdCBoZWlnaHQ9IjIyIiB3aWR0aD0iOTQuNzAwMDA0NTc3NjM2NzIiIHk9IjE3OS4yMDAwMDA3NjI5Mzk0NSIgeD0iMzYuMjE5MTQxMDA2NDY5NzMiIGNsYXNzPSJlciBhdHRyaWJ1dGVCb3hFdmVuIj48L3JlY3Q+PHRleHQgc3R5bGU9ImRvbWluYW50LWJhc2VsaW5lOiBtaWRkbGU7IGZvbnQtc2l6ZTogMTAuMnB4OyIgdHJhbnNmb3JtPSJ0cmFuc2xhdGUoNDEuMjE5MTQxMDA2NDY5NzMsMTkwLjIwMDAwMDc2MjkzOTQ1KSIgeT0iMCIgeD0iMCIgaWQ9InRleHQtZW50aXR5LUNPTExFQ1RJT05TQ0hFRFVMRVMtN2Y2NzIzNmUtMTNiYS01NjRmLWI0NTItNGZkOWE1NjFlZGNkLWF0dHItOC1uYW1lIiBjbGFzcz0iZXIgZW50aXR5TGFiZWwiPm5vdGVfamE8L3RleHQ+PHJlY3QgaGVpZ2h0PSIyMiIgd2lkdGg9IjIyLjA4NzY5NTEyMTc2NTEzNyIgeT0iMTc5LjIwMDAwMDc2MjkzOTQ1IiB4PSIxMzAuOTE5MTQ1NTg0MTA2NDUiIGNsYXNzPSJlciBhdHRyaWJ1dGVCb3hFdmVuIj48L3JlY3Q+PHRleHQgc3R5bGU9ImRvbWluYW50LWJhc2VsaW5lOiBtaWRkbGU7IGZvbnQtc2l6ZTogMTAuMnB4OyIgdHJhbnNmb3JtPSJ0cmFuc2xhdGUoMTM1LjkxOTE0NTU4NDEwNjQ1LDE5MC4yMDAwMDA3NjI5Mzk0NSkiIHk9IjAiIHg9IjAiIGlkPSJ0ZXh0LWVudGl0eS1DT0xMRUNUSU9OU0NIRURVTEVTLTdmNjcyMzZlLTEzYmEtNTY0Zi1iNDUyLTRmZDlhNTYxZWRjZC1hdHRyLTgta2V5IiBjbGFzcz0iZXIgZW50aXR5TGFiZWwiPjwvdGV4dD48cmVjdCBoZWlnaHQ9IjIyIiB3aWR0aD0iMTIxLjkwNDk4MzUyMDUwNzgxIiB5PSIxNzkuMjAwMDAwNzYyOTM5NDUiIHg9IjE1My4wMDY4NDA3MDU4NzE1OCIgY2xhc3M9ImVyIGF0dHJpYnV0ZUJveEV2ZW4iPjwvcmVjdD48dGV4dCBzdHlsZT0iZG9taW5hbnQtYmFzZWxpbmU6IG1pZGRsZTsgZm9udC1zaXplOiAxMC4ycHg7IiB0cmFuc2Zvcm09InRyYW5zbGF0ZSgxNTguMDA2ODQwNzA1ODcxNTgsMTkwLjIwMDAwMDc2MjkzOTQ1KSIgeT0iMCIgeD0iMCIgaWQ9InRleHQtZW50aXR5LUNPTExFQ1RJT05TQ0hFRFVMRVMtN2Y2NzIzNmUtMTNiYS01NjRmLWI0NTItNGZkOWE1NjFlZGNkLWF0dHItOC1jb21tZW50IiBjbGFzcz0iZXIgZW50aXR5TGFiZWwiPuaXpeacrOiqnuWCmeiAgzwvdGV4dD48cmVjdCBoZWlnaHQ9IjIyIiB3aWR0aD0iMzYuMjE5MTQxMDA2NDY5NzMiIHk9IjIwMS4yMDAwMDA3NjI5Mzk0NSIgeD0iMCIgY2xhc3M9ImVyIGF0dHJpYnV0ZUJveE9kZCI+PC9yZWN0Pjx0ZXh0IHN0eWxlPSJkb21pbmFudC1iYXNlbGluZTogbWlkZGxlOyBmb250LXNpemU6IDEwLjJweDsiIHRyYW5zZm9ybT0idHJhbnNsYXRlKDUsMjEyLjIwMDAwMDc2MjkzOTQ1KSIgeT0iMCIgeD0iMCIgaWQ9InRleHQtZW50aXR5LUNPTExFQ1RJT05TQ0hFRFVMRVMtN2Y2NzIzNmUtMTNiYS01NjRmLWI0NTItNGZkOWE1NjFlZGNkLWF0dHItOS10eXBlIiBjbGFzcz0iZXIgZW50aXR5TGFiZWwiPnN0cmluZzwvdGV4dD48cmVjdCBoZWlnaHQ9IjIyIiB3aWR0aD0iOTQuNzAwMDA0NTc3NjM2NzIiIHk9IjIwMS4yMDAwMDA3NjI5Mzk0NSIgeD0iMzYuMjE5MTQxMDA2NDY5NzMiIGNsYXNzPSJlciBhdHRyaWJ1dGVCb3hPZGQiPjwvcmVjdD48dGV4dCBzdHlsZT0iZG9taW5hbnQtYmFzZWxpbmU6IG1pZGRsZTsgZm9udC1zaXplOiAxMC4ycHg7IiB0cmFuc2Zvcm09InRyYW5zbGF0ZSg0MS4yMTkxNDEwMDY0Njk3MywyMTIuMjAwMDAwNzYyOTM5NDUpIiB5PSIwIiB4PSIwIiBpZD0idGV4dC1lbnRpdHktQ09MTEVDVElPTlNDSEVEVUxFUy03ZjY3MjM2ZS0xM2JhLTU2NGYtYjQ1Mi00ZmQ5YTU2MWVkY2QtYXR0ci05LW5hbWUiIGNsYXNzPSJlciBlbnRpdHlMYWJlbCI+bm90ZV9lbjwvdGV4dD48cmVjdCBoZWlnaHQ9IjIyIiB3aWR0aD0iMjIuMDg3Njk1MTIxNzY1MTM3IiB5PSIyMDEuMjAwMDAwNzYyOTM5NDUiIHg9IjEzMC45MTkxNDU1ODQxMDY0NSIgY2xhc3M9ImVyIGF0dHJpYnV0ZUJveE9kZCI+PC9yZWN0Pjx0ZXh0IHN0eWxlPSJkb21pbmFudC1iYXNlbGluZTogbWlkZGxlOyBmb250LXNpemU6IDEwLjJweDsiIHRyYW5zZm9ybT0idHJhbnNsYXRlKDEzNS45MTkxNDU1ODQxMDY0NSwyMTIuMjAwMDAwNzYyOTM5NDUpIiB5PSIwIiB4PSIwIiBpZD0idGV4dC1lbnRpdHktQ09MTEVDVElPTlNDSEVEVUxFUy03ZjY3MjM2ZS0xM2JhLTU2NGYtYjQ1Mi00ZmQ5YTU2MWVkY2QtYXR0ci05LWtleSIgY2xhc3M9ImVyIGVudGl0eUxhYmVsIj48L3RleHQ+PHJlY3QgaGVpZ2h0PSIyMiIgd2lkdGg9IjEyMS45MDQ5ODM1MjA1MDc4MSIgeT0iMjAxLjIwMDAwMDc2MjkzOTQ1IiB4PSIxNTMuMDA2ODQwNzA1ODcxNTgiIGNsYXNzPSJlciBhdHRyaWJ1dGVCb3hPZGQiPjwvcmVjdD48dGV4dCBzdHlsZT0iZG9taW5hbnQtYmFzZWxpbmU6IG1pZGRsZTsgZm9udC1zaXplOiAxMC4ycHg7IiB0cmFuc2Zvcm09InRyYW5zbGF0ZSgxNTguMDA2ODQwNzA1ODcxNTgsMjEyLjIwMDAwMDc2MjkzOTQ1KSIgeT0iMCIgeD0iMCIgaWQ9InRleHQtZW50aXR5LUNPTExFQ1RJT05TQ0hFRFVMRVMtN2Y2NzIzNmUtMTNiYS01NjRmLWI0NTItNGZkOWE1NjFlZGNkLWF0dHItOS1jb21tZW50IiBjbGFzcz0iZXIgZW50aXR5TGFiZWwiPuiLseiqnuWCmeiAgzwvdGV4dD48cmVjdCBoZWlnaHQ9IjIyIiB3aWR0aD0iMzYuMjE5MTQxMDA2NDY5NzMiIHk9IjIyMy4yMDAwMDA3NjI5Mzk0NSIgeD0iMCIgY2xhc3M9ImVyIGF0dHJpYnV0ZUJveEV2ZW4iPjwvcmVjdD48dGV4dCBzdHlsZT0iZG9taW5hbnQtYmFzZWxpbmU6IG1pZGRsZTsgZm9udC1zaXplOiAxMC4ycHg7IiB0cmFuc2Zvcm09InRyYW5zbGF0ZSg1LDIzNC4yMDAwMDA3NjI5Mzk0NSkiIHk9IjAiIHg9IjAiIGlkPSJ0ZXh0LWVudGl0eS1DT0xMRUNUSU9OU0NIRURVTEVTLTdmNjcyMzZlLTEzYmEtNTY0Zi1iNDUyLTRmZDlhNTYxZWRjZC1hdHRyLTEwLXR5cGUiIGNsYXNzPSJlciBlbnRpdHlMYWJlbCI+c3RyaW5nPC90ZXh0PjxyZWN0IGhlaWdodD0iMjIiIHdpZHRoPSI5NC43MDAwMDQ1Nzc2MzY3MiIgeT0iMjIzLjIwMDAwMDc2MjkzOTQ1IiB4PSIzNi4yMTkxNDEwMDY0Njk3MyIgY2xhc3M9ImVyIGF0dHJpYnV0ZUJveEV2ZW4iPjwvcmVjdD48dGV4dCBzdHlsZT0iZG9taW5hbnQtYmFzZWxpbmU6IG1pZGRsZTsgZm9udC1zaXplOiAxMC4ycHg7IiB0cmFuc2Zvcm09InRyYW5zbGF0ZSg0MS4yMTkxNDEwMDY0Njk3MywyMzQuMjAwMDAwNzYyOTM5NDUpIiB5PSIwIiB4PSIwIiBpZD0idGV4dC1lbnRpdHktQ09MTEVDVElPTlNDSEVEVUxFUy03ZjY3MjM2ZS0xM2JhLTU2NGYtYjQ1Mi00ZmQ5YTU2MWVkY2QtYXR0ci0xMC1uYW1lIiBjbGFzcz0iZXIgZW50aXR5TGFiZWwiPm5vdGVfemg8L3RleHQ+PHJlY3QgaGVpZ2h0PSIyMiIgd2lkdGg9IjIyLjA4NzY5NTEyMTc2NTEzNyIgeT0iMjIzLjIwMDAwMDc2MjkzOTQ1IiB4PSIxMzAuOTE5MTQ1NTg0MTA2NDUiIGNsYXNzPSJlciBhdHRyaWJ1dGVCb3hFdmVuIj48L3JlY3Q+PHRleHQgc3R5bGU9ImRvbWluYW50LWJhc2VsaW5lOiBtaWRkbGU7IGZvbnQtc2l6ZTogMTAuMnB4OyIgdHJhbnNmb3JtPSJ0cmFuc2xhdGUoMTM1LjkxOTE0NTU4NDEwNjQ1LDIzNC4yMDAwMDA3NjI5Mzk0NSkiIHk9IjAiIHg9IjAiIGlkPSJ0ZXh0LWVudGl0eS1DT0xMRUNUSU9OU0NIRURVTEVTLTdmNjcyMzZlLTEzYmEtNTY0Zi1iNDUyLTRmZDlhNTYxZWRjZC1hdHRyLTEwLWtleSIgY2xhc3M9ImVyIGVudGl0eUxhYmVsIj48L3RleHQ+PHJlY3QgaGVpZ2h0PSIyMiIgd2lkdGg9IjEyMS45MDQ5ODM1MjA1MDc4MSIgeT0iMjIzLjIwMDAwMDc2MjkzOTQ1IiB4PSIxNTMuMDA2ODQwNzA1ODcxNTgiIGNsYXNzPSJlciBhdHRyaWJ1dGVCb3hFdmVuIj48L3JlY3Q+PHRleHQgc3R5bGU9ImRvbWluYW50LWJhc2VsaW5lOiBtaWRkbGU7IGZvbnQtc2l6ZTogMTAuMnB4OyIgdHJhbnNmb3JtPSJ0cmFuc2xhdGUoMTU4LjAwNjg0MDcwNTg3MTU4LDIzNC4yMDAwMDA3NjI5Mzk0NSkiIHk9IjAiIHg9IjAiIGlkPSJ0ZXh0LWVudGl0eS1DT0xMRUNUSU9OU0NIRURVTEVTLTdmNjcyMzZlLTEzYmEtNTY0Zi1iNDUyLTRmZDlhNTYxZWRjZC1hdHRyLTEwLWNvbW1lbnQiIGNsYXNzPSJlciBlbnRpdHlMYWJlbCI+5Lit5Zu96Kqe5YKZ6ICDPC90ZXh0PjwvZz48ZyB0cmFuc2Zvcm09InRyYW5zbGF0ZSg3MTcuNDY1MzA5MTQzMDY2NCwyODYuNjAwMDA2MTAzNTE1NiApIiBpZD0iZW50aXR5LUxFQVJOSU5HTUFURVJJQUxTLTZhZTlhNTM4LTdmZjAtNTA3Yy1iYjdhLTQwOGE5YmZlOWEyZiI+PHJlY3QgaGVpZ2h0PSIyMjIuNDAwMDAwNTcyMjA0NiIgd2lkdGg9IjIxMS45NDA1Mjk4MjMzMDMyMiIgeT0iMCIgeD0iMCIgY2xhc3M9ImVyIGVudGl0eUJveCI+PC9yZWN0Pjx0ZXh0IHN0eWxlPSJkb21pbmFudC1iYXNlbGluZTogbWlkZGxlOyB0ZXh0LWFuY2hvcjogbWlkZGxlOyBmb250LXNpemU6IDEycHg7IiB0cmFuc2Zvcm09InRyYW5zbGF0ZSgxMDUuOTcwMjY0OTExNjUxNjEsMTEuODAwMDAwMTkwNzM0ODYzKSIgeT0iMCIgeD0iMCIgaWQ9InRleHQtZW50aXR5LUxFQVJOSU5HTUFURVJJQUxTLTZhZTlhNTM4LTdmZjAtNTA3Yy1iYjdhLTQwOGE5YmZlOWEyZiIgY2xhc3M9ImVyIGVudGl0eUxhYmVsIj5MRUFSTklOR19NQVRFUklBTFM8L3RleHQ+PHJlY3QgaGVpZ2h0PSIyMiIgd2lkdGg9IjM2LjIxOTE0MTAwNjQ2OTczIiB5PSIyMy42MDAwMDAzODE0Njk3MjciIHg9IjAiIGNsYXNzPSJlciBhdHRyaWJ1dGVCb3hPZGQiPjwvcmVjdD48dGV4dCBzdHlsZT0iZG9taW5hbnQtYmFzZWxpbmU6IG1pZGRsZTsgZm9udC1zaXplOiAxMC4ycHg7IiB0cmFuc2Zvcm09InRyYW5zbGF0ZSg1LDM0LjYwMDAwMDM4MTQ2OTczKSIgeT0iMCIgeD0iMCIgaWQ9InRleHQtZW50aXR5LUxFQVJOSU5HTUFURVJJQUxTLTZhZTlhNTM4LTdmZjAtNTA3Yy1iYjdhLTQwOGE5YmZlOWEyZi1hdHRyLTEtdHlwZSIgY2xhc3M9ImVyIGVudGl0eUxhYmVsIj5pbnQ8L3RleHQ+PHJlY3QgaGVpZ2h0PSIyMiIgd2lkdGg9IjYxLjgzMzY5MDY0MzMxMDU1IiB5PSIyMy42MDAwMDAzODE0Njk3MjciIHg9IjM2LjIxOTE0MTAwNjQ2OTczIiBjbGFzcz0iZXIgYXR0cmlidXRlQm94T2RkIj48L3JlY3Q+PHRleHQgc3R5bGU9ImRvbWluYW50LWJhc2VsaW5lOiBtaWRkbGU7IGZvbnQtc2l6ZTogMTAuMnB4OyIgdHJhbnNmb3JtPSJ0cmFuc2xhdGUoNDEuMjE5MTQxMDA2NDY5NzMsMzQuNjAwMDAwMzgxNDY5NzMpIiB5PSIwIiB4PSIwIiBpZD0idGV4dC1lbnRpdHktTEVBUk5JTkdNQVRFUklBTFMtNmFlOWE1MzgtN2ZmMC01MDdjLWJiN2EtNDA4YTliZmU5YTJmLWF0dHItMS1uYW1lIiBjbGFzcz0iZXIgZW50aXR5TGFiZWwiPmlkPC90ZXh0PjxyZWN0IGhlaWdodD0iMjIiIHdpZHRoPSIyMi4wODc2OTUxMjE3NjUxMzciIHk9IjIzLjYwMDAwMDM4MTQ2OTcyNyIgeD0iOTguMDUyODMxNjQ5NzgwMjciIGNsYXNzPSJlciBhdHRyaWJ1dGVCb3hPZGQiPjwvcmVjdD48dGV4dCBzdHlsZT0iZG9taW5hbnQtYmFzZWxpbmU6IG1pZGRsZTsgZm9udC1zaXplOiAxMC4ycHg7IiB0cmFuc2Zvcm09InRyYW5zbGF0ZSgxMDMuMDUyODMxNjQ5NzgwMjcsMzQuNjAwMDAwMzgxNDY5NzMpIiB5PSIwIiB4PSIwIiBpZD0idGV4dC1lbnRpdHktTEVBUk5JTkdNQVRFUklBTFMtNmFlOWE1MzgtN2ZmMC01MDdjLWJiN2EtNDA4YTliZmU5YTJmLWF0dHItMS1rZXkiIGNsYXNzPSJlciBlbnRpdHlMYWJlbCI+UEs8L3RleHQ+PHJlY3QgaGVpZ2h0PSIyMiIgd2lkdGg9IjkxLjgwMDAwMzA1MTc1NzgxIiB5PSIyMy42MDAwMDAzODE0Njk3MjciIHg9IjEyMC4xNDA1MjY3NzE1NDU0MSIgY2xhc3M9ImVyIGF0dHJpYnV0ZUJveE9kZCI+PC9yZWN0Pjx0ZXh0IHN0eWxlPSJkb21pbmFudC1iYXNlbGluZTogbWlkZGxlOyBmb250LXNpemU6IDEwLjJweDsiIHRyYW5zZm9ybT0idHJhbnNsYXRlKDEyNS4xNDA1MjY3NzE1NDU0MSwzNC42MDAwMDAzODE0Njk3MykiIHk9IjAiIHg9IjAiIGlkPSJ0ZXh0LWVudGl0eS1MRUFSTklOR01BVEVSSUFMUy02YWU5YTUzOC03ZmYwLTUwN2MtYmI3YS00MDhhOWJmZTlhMmYtYXR0ci0xLWNvbW1lbnQiIGNsYXNzPSJlciBlbnRpdHlMYWJlbCI+5pWZ5p2QSUQ8L3RleHQ+PHJlY3QgaGVpZ2h0PSIyMiIgd2lkdGg9IjM2LjIxOTE0MTAwNjQ2OTczIiB5PSI0NS42MDAwMDAzODE0Njk3MyIgeD0iMCIgY2xhc3M9ImVyIGF0dHJpYnV0ZUJveEV2ZW4iPjwvcmVjdD48dGV4dCBzdHlsZT0iZG9taW5hbnQtYmFzZWxpbmU6IG1pZGRsZTsgZm9udC1zaXplOiAxMC4ycHg7IiB0cmFuc2Zvcm09InRyYW5zbGF0ZSg1LDU2LjYwMDAwMDM4MTQ2OTczKSIgeT0iMCIgeD0iMCIgaWQ9InRleHQtZW50aXR5LUxFQVJOSU5HTUFURVJJQUxTLTZhZTlhNTM4LTdmZjAtNTA3Yy1iYjdhLTQwOGE5YmZlOWEyZi1hdHRyLTItdHlwZSIgY2xhc3M9ImVyIGVudGl0eUxhYmVsIj5zdHJpbmc8L3RleHQ+PHJlY3QgaGVpZ2h0PSIyMiIgd2lkdGg9IjYxLjgzMzY5MDY0MzMxMDU1IiB5PSI0NS42MDAwMDAzODE0Njk3MyIgeD0iMzYuMjE5MTQxMDA2NDY5NzMiIGNsYXNzPSJlciBhdHRyaWJ1dGVCb3hFdmVuIj48L3JlY3Q+PHRleHQgc3R5bGU9ImRvbWluYW50LWJhc2VsaW5lOiBtaWRkbGU7IGZvbnQtc2l6ZTogMTAuMnB4OyIgdHJhbnNmb3JtPSJ0cmFuc2xhdGUoNDEuMjE5MTQxMDA2NDY5NzMsNTYuNjAwMDAwMzgxNDY5NzMpIiB5PSIwIiB4PSIwIiBpZD0idGV4dC1lbnRpdHktTEVBUk5JTkdNQVRFUklBTFMtNmFlOWE1MzgtN2ZmMC01MDdjLWJiN2EtNDA4YTliZmU5YTJmLWF0dHItMi1uYW1lIiBjbGFzcz0iZXIgZW50aXR5TGFiZWwiPnRpdGxlX2phPC90ZXh0PjxyZWN0IGhlaWdodD0iMjIiIHdpZHRoPSIyMi4wODc2OTUxMjE3NjUxMzciIHk9IjQ1LjYwMDAwMDM4MTQ2OTczIiB4PSI5OC4wNTI4MzE2NDk3ODAyNyIgY2xhc3M9ImVyIGF0dHJpYnV0ZUJveEV2ZW4iPjwvcmVjdD48dGV4dCBzdHlsZT0iZG9taW5hbnQtYmFzZWxpbmU6IG1pZGRsZTsgZm9udC1zaXplOiAxMC4ycHg7IiB0cmFuc2Zvcm09InRyYW5zbGF0ZSgxMDMuMDUyODMxNjQ5NzgwMjcsNTYuNjAwMDAwMzgxNDY5NzMpIiB5PSIwIiB4PSIwIiBpZD0idGV4dC1lbnRpdHktTEVBUk5JTkdNQVRFUklBTFMtNmFlOWE1MzgtN2ZmMC01MDdjLWJiN2EtNDA4YTliZmU5YTJmLWF0dHItMi1rZXkiIGNsYXNzPSJlciBlbnRpdHlMYWJlbCI+PC90ZXh0PjxyZWN0IGhlaWdodD0iMjIiIHdpZHRoPSI5MS44MDAwMDMwNTE3NTc4MSIgeT0iNDUuNjAwMDAwMzgxNDY5NzMiIHg9IjEyMC4xNDA1MjY3NzE1NDU0MSIgY2xhc3M9ImVyIGF0dHJpYnV0ZUJveEV2ZW4iPjwvcmVjdD48dGV4dCBzdHlsZT0iZG9taW5hbnQtYmFzZWxpbmU6IG1pZGRsZTsgZm9udC1zaXplOiAxMC4ycHg7IiB0cmFuc2Zvcm09InRyYW5zbGF0ZSgxMjUuMTQwNTI2NzcxNTQ1NDEsNTYuNjAwMDAwMzgxNDY5NzMpIiB5PSIwIiB4PSIwIiBpZD0idGV4dC1lbnRpdHktTEVBUk5JTkdNQVRFUklBTFMtNmFlOWE1MzgtN2ZmMC01MDdjLWJiN2EtNDA4YTliZmU5YTJmLWF0dHItMi1jb21tZW50IiBjbGFzcz0iZXIgZW50aXR5TGFiZWwiPuaXpeacrOiqnuOCv+OCpOODiOODqzwvdGV4dD48cmVjdCBoZWlnaHQ9IjIyIiB3aWR0aD0iMzYuMjE5MTQxMDA2NDY5NzMiIHk9IjY3LjYwMDAwMDM4MTQ2OTczIiB4PSIwIiBjbGFzcz0iZXIgYXR0cmlidXRlQm94T2RkIj48L3JlY3Q+PHRleHQgc3R5bGU9ImRvbWluYW50LWJhc2VsaW5lOiBtaWRkbGU7IGZvbnQtc2l6ZTogMTAuMnB4OyIgdHJhbnNmb3JtPSJ0cmFuc2xhdGUoNSw3OC42MDAwMDAzODE0Njk3MykiIHk9IjAiIHg9IjAiIGlkPSJ0ZXh0LWVudGl0eS1MRUFSTklOR01BVEVSSUFMUy02YWU5YTUzOC03ZmYwLTUwN2MtYmI3YS00MDhhOWJmZTlhMmYtYXR0ci0zLXR5cGUiIGNsYXNzPSJlciBlbnRpdHlMYWJlbCI+c3RyaW5nPC90ZXh0PjxyZWN0IGhlaWdodD0iMjIiIHdpZHRoPSI2MS44MzM2OTA2NDMzMTA1NSIgeT0iNjcuNjAwMDAwMzgxNDY5NzMiIHg9IjM2LjIxOTE0MTAwNjQ2OTczIiBjbGFzcz0iZXIgYXR0cmlidXRlQm94T2RkIj48L3JlY3Q+PHRleHQgc3R5bGU9ImRvbWluYW50LWJhc2VsaW5lOiBtaWRkbGU7IGZvbnQtc2l6ZTogMTAuMnB4OyIgdHJhbnNmb3JtPSJ0cmFuc2xhdGUoNDEuMjE5MTQxMDA2NDY5NzMsNzguNjAwMDAwMzgxNDY5NzMpIiB5PSIwIiB4PSIwIiBpZD0idGV4dC1lbnRpdHktTEVBUk5JTkdNQVRFUklBTFMtNmFlOWE1MzgtN2ZmMC01MDdjLWJiN2EtNDA4YTliZmU5YTJmLWF0dHItMy1uYW1lIiBjbGFzcz0iZXIgZW50aXR5TGFiZWwiPnRpdGxlX2VuPC90ZXh0PjxyZWN0IGhlaWdodD0iMjIiIHdpZHRoPSIyMi4wODc2OTUxMjE3NjUxMzciIHk9IjY3LjYwMDAwMDM4MTQ2OTczIiB4PSI5OC4wNTI4MzE2NDk3ODAyNyIgY2xhc3M9ImVyIGF0dHJpYnV0ZUJveE9kZCI+PC9yZWN0Pjx0ZXh0IHN0eWxlPSJkb21pbmFudC1iYXNlbGluZTogbWlkZGxlOyBmb250LXNpemU6IDEwLjJweDsiIHRyYW5zZm9ybT0idHJhbnNsYXRlKDEwMy4wNTI4MzE2NDk3ODAyNyw3OC42MDAwMDAzODE0Njk3MykiIHk9IjAiIHg9IjAiIGlkPSJ0ZXh0LWVudGl0eS1MRUFSTklOR01BVEVSSUFMUy02YWU5YTUzOC03ZmYwLTUwN2MtYmI3YS00MDhhOWJmZTlhMmYtYXR0ci0zLWtleSIgY2xhc3M9ImVyIGVudGl0eUxhYmVsIj48L3RleHQ+PHJlY3QgaGVpZ2h0PSIyMiIgd2lkdGg9IjkxLjgwMDAwMzA1MTc1NzgxIiB5PSI2Ny42MDAwMDAzODE0Njk3MyIgeD0iMTIwLjE0MDUyNjc3MTU0NTQxIiBjbGFzcz0iZXIgYXR0cmlidXRlQm94T2RkIj48L3JlY3Q+PHRleHQgc3R5bGU9ImRvbWluYW50LWJhc2VsaW5lOiBtaWRkbGU7IGZvbnQtc2l6ZTogMTAuMnB4OyIgdHJhbnNmb3JtPSJ0cmFuc2xhdGUoMTI1LjE0MDUyNjc3MTU0NTQxLDc4LjYwMDAwMDM4MTQ2OTczKSIgeT0iMCIgeD0iMCIgaWQ9InRleHQtZW50aXR5LUxFQVJOSU5HTUFURVJJQUxTLTZhZTlhNTM4LTdmZjAtNTA3Yy1iYjdhLTQwOGE5YmZlOWEyZi1hdHRyLTMtY29tbWVudCIgY2xhc3M9ImVyIGVudGl0eUxhYmVsIj7oi7Hoqp7jgr/jgqTjg4jjg6s8L3RleHQ+PHJlY3QgaGVpZ2h0PSIyMiIgd2lkdGg9IjM2LjIxOTE0MTAwNjQ2OTczIiB5PSI4OS42MDAwMDAzODE0Njk3MyIgeD0iMCIgY2xhc3M9ImVyIGF0dHJpYnV0ZUJveEV2ZW4iPjwvcmVjdD48dGV4dCBzdHlsZT0iZG9taW5hbnQtYmFzZWxpbmU6IG1pZGRsZTsgZm9udC1zaXplOiAxMC4ycHg7IiB0cmFuc2Zvcm09InRyYW5zbGF0ZSg1LDEwMC42MDAwMDAzODE0Njk3MykiIHk9IjAiIHg9IjAiIGlkPSJ0ZXh0LWVudGl0eS1MRUFSTklOR01BVEVSSUFMUy02YWU5YTUzOC03ZmYwLTUwN2MtYmI3YS00MDhhOWJmZTlhMmYtYXR0ci00LXR5cGUiIGNsYXNzPSJlciBlbnRpdHlMYWJlbCI+c3RyaW5nPC90ZXh0PjxyZWN0IGhlaWdodD0iMjIiIHdpZHRoPSI2MS44MzM2OTA2NDMzMTA1NSIgeT0iODkuNjAwMDAwMzgxNDY5NzMiIHg9IjM2LjIxOTE0MTAwNjQ2OTczIiBjbGFzcz0iZXIgYXR0cmlidXRlQm94RXZlbiI+PC9yZWN0Pjx0ZXh0IHN0eWxlPSJkb21pbmFudC1iYXNlbGluZTogbWlkZGxlOyBmb250LXNpemU6IDEwLjJweDsiIHRyYW5zZm9ybT0idHJhbnNsYXRlKDQxLjIxOTE0MTAwNjQ2OTczLDEwMC42MDAwMDAzODE0Njk3MykiIHk9IjAiIHg9IjAiIGlkPSJ0ZXh0LWVudGl0eS1MRUFSTklOR01BVEVSSUFMUy02YWU5YTUzOC03ZmYwLTUwN2MtYmI3YS00MDhhOWJmZTlhMmYtYXR0ci00LW5hbWUiIGNsYXNzPSJlciBlbnRpdHlMYWJlbCI+dGl0bGVfemg8L3RleHQ+PHJlY3QgaGVpZ2h0PSIyMiIgd2lkdGg9IjIyLjA4NzY5NTEyMTc2NTEzNyIgeT0iODkuNjAwMDAwMzgxNDY5NzMiIHg9Ijk4LjA1MjgzMTY0OTc4MDI3IiBjbGFzcz0iZXIgYXR0cmlidXRlQm94RXZlbiI+PC9yZWN0Pjx0ZXh0IHN0eWxlPSJkb21pbmFudC1iYXNlbGluZTogbWlkZGxlOyBmb250LXNpemU6IDEwLjJweDsiIHRyYW5zZm9ybT0idHJhbnNsYXRlKDEwMy4wNTI4MzE2NDk3ODAyNywxMDAuNjAwMDAwMzgxNDY5NzMpIiB5PSIwIiB4PSIwIiBpZD0idGV4dC1lbnRpdHktTEVBUk5JTkdNQVRFUklBTFMtNmFlOWE1MzgtN2ZmMC01MDdjLWJiN2EtNDA4YTliZmU5YTJmLWF0dHItNC1rZXkiIGNsYXNzPSJlciBlbnRpdHlMYWJlbCI+PC90ZXh0PjxyZWN0IGhlaWdodD0iMjIiIHdpZHRoPSI5MS44MDAwMDMwNTE3NTc4MSIgeT0iODkuNjAwMDAwMzgxNDY5NzMiIHg9IjEyMC4xNDA1MjY3NzE1NDU0MSIgY2xhc3M9ImVyIGF0dHJpYnV0ZUJveEV2ZW4iPjwvcmVjdD48dGV4dCBzdHlsZT0iZG9taW5hbnQtYmFzZWxpbmU6IG1pZGRsZTsgZm9udC1zaXplOiAxMC4ycHg7IiB0cmFuc2Zvcm09InRyYW5zbGF0ZSgxMjUuMTQwNTI2NzcxNTQ1NDEsMTAwLjYwMDAwMDM4MTQ2OTczKSIgeT0iMCIgeD0iMCIgaWQ9InRleHQtZW50aXR5LUxFQVJOSU5HTUFURVJJQUxTLTZhZTlhNTM4LTdmZjAtNTA3Yy1iYjdhLTQwOGE5YmZlOWEyZi1hdHRyLTQtY29tbWVudCIgY2xhc3M9ImVyIGVudGl0eUxhYmVsIj7kuK3lm73oqp7jgr/jgqTjg4jjg6s8L3RleHQ+PHJlY3QgaGVpZ2h0PSIyMiIgd2lkdGg9IjM2LjIxOTE0MTAwNjQ2OTczIiB5PSIxMTEuNjAwMDAwMzgxNDY5NzMiIHg9IjAiIGNsYXNzPSJlciBhdHRyaWJ1dGVCb3hPZGQiPjwvcmVjdD48dGV4dCBzdHlsZT0iZG9taW5hbnQtYmFzZWxpbmU6IG1pZGRsZTsgZm9udC1zaXplOiAxMC4ycHg7IiB0cmFuc2Zvcm09InRyYW5zbGF0ZSg1LDEyMi42MDAwMDAzODE0Njk3MykiIHk9IjAiIHg9IjAiIGlkPSJ0ZXh0LWVudGl0eS1MRUFSTklOR01BVEVSSUFMUy02YWU5YTUzOC03ZmYwLTUwN2MtYmI3YS00MDhhOWJmZTlhMmYtYXR0ci01LXR5cGUiIGNsYXNzPSJlciBlbnRpdHlMYWJlbCI+c3RyaW5nPC90ZXh0PjxyZWN0IGhlaWdodD0iMjIiIHdpZHRoPSI2MS44MzM2OTA2NDMzMTA1NSIgeT0iMTExLjYwMDAwMDM4MTQ2OTczIiB4PSIzNi4yMTkxNDEwMDY0Njk3MyIgY2xhc3M9ImVyIGF0dHJpYnV0ZUJveE9kZCI+PC9yZWN0Pjx0ZXh0IHN0eWxlPSJkb21pbmFudC1iYXNlbGluZTogbWlkZGxlOyBmb250LXNpemU6IDEwLjJweDsiIHRyYW5zZm9ybT0idHJhbnNsYXRlKDQxLjIxOTE0MTAwNjQ2OTczLDEyMi42MDAwMDAzODE0Njk3MykiIHk9IjAiIHg9IjAiIGlkPSJ0ZXh0LWVudGl0eS1MRUFSTklOR01BVEVSSUFMUy02YWU5YTUzOC03ZmYwLTUwN2MtYmI3YS00MDhhOWJmZTlhMmYtYXR0ci01LW5hbWUiIGNsYXNzPSJlciBlbnRpdHlMYWJlbCI+Y29udGVudF9qYTwvdGV4dD48cmVjdCBoZWlnaHQ9IjIyIiB3aWR0aD0iMjIuMDg3Njk1MTIxNzY1MTM3IiB5PSIxMTEuNjAwMDAwMzgxNDY5NzMiIHg9Ijk4LjA1MjgzMTY0OTc4MDI3IiBjbGFzcz0iZXIgYXR0cmlidXRlQm94T2RkIj48L3JlY3Q+PHRleHQgc3R5bGU9ImRvbWluYW50LWJhc2VsaW5lOiBtaWRkbGU7IGZvbnQtc2l6ZTogMTAuMnB4OyIgdHJhbnNmb3JtPSJ0cmFuc2xhdGUoMTAzLjA1MjgzMTY0OTc4MDI3LDEyMi42MDAwMDAzODE0Njk3MykiIHk9IjAiIHg9IjAiIGlkPSJ0ZXh0LWVudGl0eS1MRUFSTklOR01BVEVSSUFMUy02YWU5YTUzOC03ZmYwLTUwN2MtYmI3YS00MDhhOWJmZTlhMmYtYXR0ci01LWtleSIgY2xhc3M9ImVyIGVudGl0eUxhYmVsIj48L3RleHQ+PHJlY3QgaGVpZ2h0PSIyMiIgd2lkdGg9IjkxLjgwMDAwMzA1MTc1NzgxIiB5PSIxMTEuNjAwMDAwMzgxNDY5NzMiIHg9IjEyMC4xNDA1MjY3NzE1NDU0MSIgY2xhc3M9ImVyIGF0dHJpYnV0ZUJveE9kZCI+PC9yZWN0Pjx0ZXh0IHN0eWxlPSJkb21pbmFudC1iYXNlbGluZTogbWlkZGxlOyBmb250LXNpemU6IDEwLjJweDsiIHRyYW5zZm9ybT0idHJhbnNsYXRlKDEyNS4xNDA1MjY3NzE1NDU0MSwxMjIuNjAwMDAwMzgxNDY5NzMpIiB5PSIwIiB4PSIwIiBpZD0idGV4dC1lbnRpdHktTEVBUk5JTkdNQVRFUklBTFMtNmFlOWE1MzgtN2ZmMC01MDdjLWJiN2EtNDA4YTliZmU5YTJmLWF0dHItNS1jb21tZW50IiBjbGFzcz0iZXIgZW50aXR5TGFiZWwiPuaXpeacrOiqnuOCs+ODs+ODhuODs+ODhDwvdGV4dD48cmVjdCBoZWlnaHQ9IjIyIiB3aWR0aD0iMzYuMjE5MTQxMDA2NDY5NzMiIHk9IjEzMy42MDAwMDAzODE0Njk3MyIgeD0iMCIgY2xhc3M9ImVyIGF0dHJpYnV0ZUJveEV2ZW4iPjwvcmVjdD48dGV4dCBzdHlsZT0iZG9taW5hbnQtYmFzZWxpbmU6IG1pZGRsZTsgZm9udC1zaXplOiAxMC4ycHg7IiB0cmFuc2Zvcm09InRyYW5zbGF0ZSg1LDE0NC42MDAwMDAzODE0Njk3MykiIHk9IjAiIHg9IjAiIGlkPSJ0ZXh0LWVudGl0eS1MRUFSTklOR01BVEVSSUFMUy02YWU5YTUzOC03ZmYwLTUwN2MtYmI3YS00MDhhOWJmZTlhMmYtYXR0ci02LXR5cGUiIGNsYXNzPSJlciBlbnRpdHlMYWJlbCI+c3RyaW5nPC90ZXh0PjxyZWN0IGhlaWdodD0iMjIiIHdpZHRoPSI2MS44MzM2OTA2NDMzMTA1NSIgeT0iMTMzLjYwMDAwMDM4MTQ2OTczIiB4PSIzNi4yMTkxNDEwMDY0Njk3MyIgY2xhc3M9ImVyIGF0dHJpYnV0ZUJveEV2ZW4iPjwvcmVjdD48dGV4dCBzdHlsZT0iZG9taW5hbnQtYmFzZWxpbmU6IG1pZGRsZTsgZm9udC1zaXplOiAxMC4ycHg7IiB0cmFuc2Zvcm09InRyYW5zbGF0ZSg0MS4yMTkxNDEwMDY0Njk3MywxNDQuNjAwMDAwMzgxNDY5NzMpIiB5PSIwIiB4PSIwIiBpZD0idGV4dC1lbnRpdHktTEVBUk5JTkdNQVRFUklBTFMtNmFlOWE1MzgtN2ZmMC01MDdjLWJiN2EtNDA4YTliZmU5YTJmLWF0dHItNi1uYW1lIiBjbGFzcz0iZXIgZW50aXR5TGFiZWwiPmNvbnRlbnRfZW48L3RleHQ+PHJlY3QgaGVpZ2h0PSIyMiIgd2lkdGg9IjIyLjA4NzY5NTEyMTc2NTEzNyIgeT0iMTMzLjYwMDAwMDM4MTQ2OTczIiB4PSI5OC4wNTI4MzE2NDk3ODAyNyIgY2xhc3M9ImVyIGF0dHJpYnV0ZUJveEV2ZW4iPjwvcmVjdD48dGV4dCBzdHlsZT0iZG9taW5hbnQtYmFzZWxpbmU6IG1pZGRsZTsgZm9udC1zaXplOiAxMC4ycHg7IiB0cmFuc2Zvcm09InRyYW5zbGF0ZSgxMDMuMDUyODMxNjQ5NzgwMjcsMTQ0LjYwMDAwMDM4MTQ2OTczKSIgeT0iMCIgeD0iMCIgaWQ9InRleHQtZW50aXR5LUxFQVJOSU5HTUFURVJJQUxTLTZhZTlhNTM4LTdmZjAtNTA3Yy1iYjdhLTQwOGE5YmZlOWEyZi1hdHRyLTYta2V5IiBjbGFzcz0iZXIgZW50aXR5TGFiZWwiPjwvdGV4dD48cmVjdCBoZWlnaHQ9IjIyIiB3aWR0aD0iOTEuODAwMDAzMDUxNzU3ODEiIHk9IjEzMy42MDAwMDAzODE0Njk3MyIgeD0iMTIwLjE0MDUyNjc3MTU0NTQxIiBjbGFzcz0iZXIgYXR0cmlidXRlQm94RXZlbiI+PC9yZWN0Pjx0ZXh0IHN0eWxlPSJkb21pbmFudC1iYXNlbGluZTogbWlkZGxlOyBmb250LXNpemU6IDEwLjJweDsiIHRyYW5zZm9ybT0idHJhbnNsYXRlKDEyNS4xNDA1MjY3NzE1NDU0MSwxNDQuNjAwMDAwMzgxNDY5NzMpIiB5PSIwIiB4PSIwIiBpZD0idGV4dC1lbnRpdHktTEVBUk5JTkdNQVRFUklBTFMtNmFlOWE1MzgtN2ZmMC01MDdjLWJiN2EtNDA4YTliZmU5YTJmLWF0dHItNi1jb21tZW50IiBjbGFzcz0iZXIgZW50aXR5TGFiZWwiPuiLseiqnuOCs+ODs+ODhuODs+ODhDwvdGV4dD48cmVjdCBoZWlnaHQ9IjIyIiB3aWR0aD0iMzYuMjE5MTQxMDA2NDY5NzMiIHk9IjE1NS42MDAwMDAzODE0Njk3MyIgeD0iMCIgY2xhc3M9ImVyIGF0dHJpYnV0ZUJveE9kZCI+PC9yZWN0Pjx0ZXh0IHN0eWxlPSJkb21pbmFudC1iYXNlbGluZTogbWlkZGxlOyBmb250LXNpemU6IDEwLjJweDsiIHRyYW5zZm9ybT0idHJhbnNsYXRlKDUsMTY2LjYwMDAwMDM4MTQ2OTczKSIgeT0iMCIgeD0iMCIgaWQ9InRleHQtZW50aXR5LUxFQVJOSU5HTUFURVJJQUxTLTZhZTlhNTM4LTdmZjAtNTA3Yy1iYjdhLTQwOGE5YmZlOWEyZi1hdHRyLTctdHlwZSIgY2xhc3M9ImVyIGVudGl0eUxhYmVsIj5zdHJpbmc8L3RleHQ+PHJlY3QgaGVpZ2h0PSIyMiIgd2lkdGg9IjYxLjgzMzY5MDY0MzMxMDU1IiB5PSIxNTUuNjAwMDAwMzgxNDY5NzMiIHg9IjM2LjIxOTE0MTAwNjQ2OTczIiBjbGFzcz0iZXIgYXR0cmlidXRlQm94T2RkIj48L3JlY3Q+PHRleHQgc3R5bGU9ImRvbWluYW50LWJhc2VsaW5lOiBtaWRkbGU7IGZvbnQtc2l6ZTogMTAuMnB4OyIgdHJhbnNmb3JtPSJ0cmFuc2xhdGUoNDEuMjE5MTQxMDA2NDY5NzMsMTY2LjYwMDAwMDM4MTQ2OTczKSIgeT0iMCIgeD0iMCIgaWQ9InRleHQtZW50aXR5LUxFQVJOSU5HTUFURVJJQUxTLTZhZTlhNTM4LTdmZjAtNTA3Yy1iYjdhLTQwOGE5YmZlOWEyZi1hdHRyLTctbmFtZSIgY2xhc3M9ImVyIGVudGl0eUxhYmVsIj5jb250ZW50X3poPC90ZXh0PjxyZWN0IGhlaWdodD0iMjIiIHdpZHRoPSIyMi4wODc2OTUxMjE3NjUxMzciIHk9IjE1NS42MDAwMDAzODE0Njk3MyIgeD0iOTguMDUyODMxNjQ5NzgwMjciIGNsYXNzPSJlciBhdHRyaWJ1dGVCb3hPZGQiPjwvcmVjdD48dGV4dCBzdHlsZT0iZG9taW5hbnQtYmFzZWxpbmU6IG1pZGRsZTsgZm9udC1zaXplOiAxMC4ycHg7IiB0cmFuc2Zvcm09InRyYW5zbGF0ZSgxMDMuMDUyODMxNjQ5NzgwMjcsMTY2LjYwMDAwMDM4MTQ2OTczKSIgeT0iMCIgeD0iMCIgaWQ9InRleHQtZW50aXR5LUxFQVJOSU5HTUFURVJJQUxTLTZhZTlhNTM4LTdmZjAtNTA3Yy1iYjdhLTQwOGE5YmZlOWEyZi1hdHRyLTcta2V5IiBjbGFzcz0iZXIgZW50aXR5TGFiZWwiPjwvdGV4dD48cmVjdCBoZWlnaHQ9IjIyIiB3aWR0aD0iOTEuODAwMDAzMDUxNzU3ODEiIHk9IjE1NS42MDAwMDAzODE0Njk3MyIgeD0iMTIwLjE0MDUyNjc3MTU0NTQxIiBjbGFzcz0iZXIgYXR0cmlidXRlQm94T2RkIj48L3JlY3Q+PHRleHQgc3R5bGU9ImRvbWluYW50LWJhc2VsaW5lOiBtaWRkbGU7IGZvbnQtc2l6ZTogMTAuMnB4OyIgdHJhbnNmb3JtPSJ0cmFuc2xhdGUoMTI1LjE0MDUyNjc3MTU0NTQxLDE2Ni42MDAwMDAzODE0Njk3MykiIHk9IjAiIHg9IjAiIGlkPSJ0ZXh0LWVudGl0eS1MRUFSTklOR01BVEVSSUFMUy02YWU5YTUzOC03ZmYwLTUwN2MtYmI3YS00MDhhOWJmZTlhMmYtYXR0ci03LWNvbW1lbnQiIGNsYXNzPSJlciBlbnRpdHlMYWJlbCI+5Lit5Zu96Kqe44Kz44Oz44OG44Oz44OEPC90ZXh0PjxyZWN0IGhlaWdodD0iMjIiIHdpZHRoPSIzNi4yMTkxNDEwMDY0Njk3MyIgeT0iMTc3LjYwMDAwMDM4MTQ2OTczIiB4PSIwIiBjbGFzcz0iZXIgYXR0cmlidXRlQm94RXZlbiI+PC9yZWN0Pjx0ZXh0IHN0eWxlPSJkb21pbmFudC1iYXNlbGluZTogbWlkZGxlOyBmb250LXNpemU6IDEwLjJweDsiIHRyYW5zZm9ybT0idHJhbnNsYXRlKDUsMTg4LjYwMDAwMDM4MTQ2OTczKSIgeT0iMCIgeD0iMCIgaWQ9InRleHQtZW50aXR5LUxFQVJOSU5HTUFURVJJQUxTLTZhZTlhNTM4LTdmZjAtNTA3Yy1iYjdhLTQwOGE5YmZlOWEyZi1hdHRyLTgtdHlwZSIgY2xhc3M9ImVyIGVudGl0eUxhYmVsIj5zdHJpbmc8L3RleHQ+PHJlY3QgaGVpZ2h0PSIyMiIgd2lkdGg9IjYxLjgzMzY5MDY0MzMxMDU1IiB5PSIxNzcuNjAwMDAwMzgxNDY5NzMiIHg9IjM2LjIxOTE0MTAwNjQ2OTczIiBjbGFzcz0iZXIgYXR0cmlidXRlQm94RXZlbiI+PC9yZWN0Pjx0ZXh0IHN0eWxlPSJkb21pbmFudC1iYXNlbGluZTogbWlkZGxlOyBmb250LXNpemU6IDEwLjJweDsiIHRyYW5zZm9ybT0idHJhbnNsYXRlKDQxLjIxOTE0MTAwNjQ2OTczLDE4OC42MDAwMDAzODE0Njk3MykiIHk9IjAiIHg9IjAiIGlkPSJ0ZXh0LWVudGl0eS1MRUFSTklOR01BVEVSSUFMUy02YWU5YTUzOC03ZmYwLTUwN2MtYmI3YS00MDhhOWJmZTlhMmYtYXR0ci04LW5hbWUiIGNsYXNzPSJlciBlbnRpdHlMYWJlbCI+aW1hZ2VfdXJsPC90ZXh0PjxyZWN0IGhlaWdodD0iMjIiIHdpZHRoPSIyMi4wODc2OTUxMjE3NjUxMzciIHk9IjE3Ny42MDAwMDAzODE0Njk3MyIgeD0iOTguMDUyODMxNjQ5NzgwMjciIGNsYXNzPSJlciBhdHRyaWJ1dGVCb3hFdmVuIj48L3JlY3Q+PHRleHQgc3R5bGU9ImRvbWluYW50LWJhc2VsaW5lOiBtaWRkbGU7IGZvbnQtc2l6ZTogMTAuMnB4OyIgdHJhbnNmb3JtPSJ0cmFuc2xhdGUoMTAzLjA1MjgzMTY0OTc4MDI3LDE4OC42MDAwMDAzODE0Njk3MykiIHk9IjAiIHg9IjAiIGlkPSJ0ZXh0LWVudGl0eS1MRUFSTklOR01BVEVSSUFMUy02YWU5YTUzOC03ZmYwLTUwN2MtYmI3YS00MDhhOWJmZTlhMmYtYXR0ci04LWtleSIgY2xhc3M9ImVyIGVudGl0eUxhYmVsIj48L3RleHQ+PHJlY3QgaGVpZ2h0PSIyMiIgd2lkdGg9IjkxLjgwMDAwMzA1MTc1NzgxIiB5PSIxNzcuNjAwMDAwMzgxNDY5NzMiIHg9IjEyMC4xNDA1MjY3NzE1NDU0MSIgY2xhc3M9ImVyIGF0dHJpYnV0ZUJveEV2ZW4iPjwvcmVjdD48dGV4dCBzdHlsZT0iZG9taW5hbnQtYmFzZWxpbmU6IG1pZGRsZTsgZm9udC1zaXplOiAxMC4ycHg7IiB0cmFuc2Zvcm09InRyYW5zbGF0ZSgxMjUuMTQwNTI2NzcxNTQ1NDEsMTg4LjYwMDAwMDM4MTQ2OTczKSIgeT0iMCIgeD0iMCIgaWQ9InRleHQtZW50aXR5LUxFQVJOSU5HTUFURVJJQUxTLTZhZTlhNTM4LTdmZjAtNTA3Yy1iYjdhLTQwOGE5YmZlOWEyZi1hdHRyLTgtY29tbWVudCIgY2xhc3M9ImVyIGVudGl0eUxhYmVsIj7nlLvlg49VUkw8L3RleHQ+PHJlY3QgaGVpZ2h0PSIyMi44MDAwMDAxOTA3MzQ4NjMiIHdpZHRoPSIzNi4yMTkxNDEwMDY0Njk3MyIgeT0iMTk5LjYwMDAwMDM4MTQ2OTczIiB4PSIwIiBjbGFzcz0iZXIgYXR0cmlidXRlQm94T2RkIj48L3JlY3Q+PHRleHQgc3R5bGU9ImRvbWluYW50LWJhc2VsaW5lOiBtaWRkbGU7IGZvbnQtc2l6ZTogMTAuMnB4OyIgdHJhbnNmb3JtPSJ0cmFuc2xhdGUoNSwyMTEuMDAwMDAwNDc2ODM3MTYpIiB5PSIwIiB4PSIwIiBpZD0idGV4dC1lbnRpdHktTEVBUk5JTkdNQVRFUklBTFMtNmFlOWE1MzgtN2ZmMC01MDdjLWJiN2EtNDA4YTliZmU5YTJmLWF0dHItOS10eXBlIiBjbGFzcz0iZXIgZW50aXR5TGFiZWwiPmludDwvdGV4dD48cmVjdCBoZWlnaHQ9IjIyLjgwMDAwMDE5MDczNDg2MyIgd2lkdGg9IjYxLjgzMzY5MDY0MzMxMDU1IiB5PSIxOTkuNjAwMDAwMzgxNDY5NzMiIHg9IjM2LjIxOTE0MTAwNjQ2OTczIiBjbGFzcz0iZXIgYXR0cmlidXRlQm94T2RkIj48L3JlY3Q+PHRleHQgc3R5bGU9ImRvbWluYW50LWJhc2VsaW5lOiBtaWRkbGU7IGZvbnQtc2l6ZTogMTAuMnB4OyIgdHJhbnNmb3JtPSJ0cmFuc2xhdGUoNDEuMjE5MTQxMDA2NDY5NzMsMjExLjAwMDAwMDQ3NjgzNzE2KSIgeT0iMCIgeD0iMCIgaWQ9InRleHQtZW50aXR5LUxFQVJOSU5HTUFURVJJQUxTLTZhZTlhNTM4LTdmZjAtNTA3Yy1iYjdhLTQwOGE5YmZlOWEyZi1hdHRyLTktbmFtZSIgY2xhc3M9ImVyIGVudGl0eUxhYmVsIj5kaWZmaWN1bHR5PC90ZXh0PjxyZWN0IGhlaWdodD0iMjIuODAwMDAwMTkwNzM0ODYzIiB3aWR0aD0iMjIuMDg3Njk1MTIxNzY1MTM3IiB5PSIxOTkuNjAwMDAwMzgxNDY5NzMiIHg9Ijk4LjA1MjgzMTY0OTc4MDI3IiBjbGFzcz0iZXIgYXR0cmlidXRlQm94T2RkIj48L3JlY3Q+PHRleHQgc3R5bGU9ImRvbWluYW50LWJhc2VsaW5lOiBtaWRkbGU7IGZvbnQtc2l6ZTogMTAuMnB4OyIgdHJhbnNmb3JtPSJ0cmFuc2xhdGUoMTAzLjA1MjgzMTY0OTc4MDI3LDIxMS4wMDAwMDA0NzY4MzcxNikiIHk9IjAiIHg9IjAiIGlkPSJ0ZXh0LWVudGl0eS1MRUFSTklOR01BVEVSSUFMUy02YWU5YTUzOC03ZmYwLTUwN2MtYmI3YS00MDhhOWJmZTlhMmYtYXR0ci05LWtleSIgY2xhc3M9ImVyIGVudGl0eUxhYmVsIj48L3RleHQ+PHJlY3QgaGVpZ2h0PSIyMi44MDAwMDAxOTA3MzQ4NjMiIHdpZHRoPSI5MS44MDAwMDMwNTE3NTc4MSIgeT0iMTk5LjYwMDAwMDM4MTQ2OTczIiB4PSIxMjAuMTQwNTI2NzcxNTQ1NDEiIGNsYXNzPSJlciBhdHRyaWJ1dGVCb3hPZGQiPjwvcmVjdD48dGV4dCBzdHlsZT0iZG9taW5hbnQtYmFzZWxpbmU6IG1pZGRsZTsgZm9udC1zaXplOiAxMC4ycHg7IiB0cmFuc2Zvcm09InRyYW5zbGF0ZSgxMjUuMTQwNTI2NzcxNTQ1NDEsMjExLjAwMDAwMDQ3NjgzNzE2KSIgeT0iMCIgeD0iMCIgaWQ9InRleHQtZW50aXR5LUxFQVJOSU5HTUFURVJJQUxTLTZhZTlhNTM4LTdmZjAtNTA3Yy1iYjdhLTQwOGE5YmZlOWEyZi1hdHRyLTktY29tbWVudCIgY2xhc3M9ImVyIGVudGl0eUxhYmVsIj7pm6PmmJPluqYoMS0zKTwvdGV4dD48L2c+PGcgdHJhbnNmb3JtPSJ0cmFuc2xhdGUoMTAzOS42MTI0MTkxMjg0MTgsMzEgKSIgaWQ9ImVudGl0eS1QUkVGRUNUVVJFUy1jNDRjOGRlOC0yMzYyLTU1NjgtYWQwNS1lMTUyNDg5YWFiNWUiPjxyZWN0IGhlaWdodD0iMTMzLjYwMDAwMDM4MTQ2OTczIiB3aWR0aD0iMTkyLjE4MTE1MzI5NzQyNDMyIiB5PSIwIiB4PSIwIiBjbGFzcz0iZXIgZW50aXR5Qm94Ij48L3JlY3Q+PHRleHQgc3R5bGU9ImRvbWluYW50LWJhc2VsaW5lOiBtaWRkbGU7IHRleHQtYW5jaG9yOiBtaWRkbGU7IGZvbnQtc2l6ZTogMTJweDsiIHRyYW5zZm9ybT0idHJhbnNsYXRlKDk2LjA5MDU3NjY0ODcxMjE2LDExLjgwMDAwMDE5MDczNDg2MykiIHk9IjAiIHg9IjAiIGlkPSJ0ZXh0LWVudGl0eS1QUkVGRUNUVVJFUy1jNDRjOGRlOC0yMzYyLTU1NjgtYWQwNS1lMTUyNDg5YWFiNWUiIGNsYXNzPSJlciBlbnRpdHlMYWJlbCI+UFJFRkVDVFVSRVM8L3RleHQ+PHJlY3QgaGVpZ2h0PSIyMiIgd2lkdGg9IjM2LjIxOTE0MTAwNjQ2OTczIiB5PSIyMy42MDAwMDAzODE0Njk3MjciIHg9IjAiIGNsYXNzPSJlciBhdHRyaWJ1dGVCb3hPZGQiPjwvcmVjdD48dGV4dCBzdHlsZT0iZG9taW5hbnQtYmFzZWxpbmU6IG1pZGRsZTsgZm9udC1zaXplOiAxMC4ycHg7IiB0cmFuc2Zvcm09InRyYW5zbGF0ZSg1LDM0LjYwMDAwMDM4MTQ2OTczKSIgeT0iMCIgeD0iMCIgaWQ9InRleHQtZW50aXR5LVBSRUZFQ1RVUkVTLWM0NGM4ZGU4LTIzNjItNTU2OC1hZDA1LWUxNTI0ODlhYWI1ZS1hdHRyLTEtdHlwZSIgY2xhc3M9ImVyIGVudGl0eUxhYmVsIj5pbnQ8L3RleHQ+PHJlY3QgaGVpZ2h0PSIyMiIgd2lkdGg9IjUxLjQ3NDMxNTY0MzMxMDU1IiB5PSIyMy42MDAwMDAzODE0Njk3MjciIHg9IjM2LjIxOTE0MTAwNjQ2OTczIiBjbGFzcz0iZXIgYXR0cmlidXRlQm94T2RkIj48L3JlY3Q+PHRleHQgc3R5bGU9ImRvbWluYW50LWJhc2VsaW5lOiBtaWRkbGU7IGZvbnQtc2l6ZTogMTAuMnB4OyIgdHJhbnNmb3JtPSJ0cmFuc2xhdGUoNDEuMjE5MTQxMDA2NDY5NzMsMzQuNjAwMDAwMzgxNDY5NzMpIiB5PSIwIiB4PSIwIiBpZD0idGV4dC1lbnRpdHktUFJFRkVDVFVSRVMtYzQ0YzhkZTgtMjM2Mi01NTY4LWFkMDUtZTE1MjQ4OWFhYjVlLWF0dHItMS1uYW1lIiBjbGFzcz0iZXIgZW50aXR5TGFiZWwiPmlkPC90ZXh0PjxyZWN0IGhlaWdodD0iMjIiIHdpZHRoPSIyMi4wODc2OTUxMjE3NjUxMzciIHk9IjIzLjYwMDAwMDM4MTQ2OTcyNyIgeD0iODcuNjkzNDU2NjQ5NzgwMjciIGNsYXNzPSJlciBhdHRyaWJ1dGVCb3hPZGQiPjwvcmVjdD48dGV4dCBzdHlsZT0iZG9taW5hbnQtYmFzZWxpbmU6IG1pZGRsZTsgZm9udC1zaXplOiAxMC4ycHg7IiB0cmFuc2Zvcm09InRyYW5zbGF0ZSg5Mi42OTM0NTY2NDk3ODAyNywzNC42MDAwMDAzODE0Njk3MykiIHk9IjAiIHg9IjAiIGlkPSJ0ZXh0LWVudGl0eS1QUkVGRUNUVVJFUy1jNDRjOGRlOC0yMzYyLTU1NjgtYWQwNS1lMTUyNDg5YWFiNWUtYXR0ci0xLWtleSIgY2xhc3M9ImVyIGVudGl0eUxhYmVsIj5QSzwvdGV4dD48cmVjdCBoZWlnaHQ9IjIyIiB3aWR0aD0iODIuNDAwMDAxNTI1ODc4OSIgeT0iMjMuNjAwMDAwMzgxNDY5NzI3IiB4PSIxMDkuNzgxMTUxNzcxNTQ1NDEiIGNsYXNzPSJlciBhdHRyaWJ1dGVCb3hPZGQiPjwvcmVjdD48dGV4dCBzdHlsZT0iZG9taW5hbnQtYmFzZWxpbmU6IG1pZGRsZTsgZm9udC1zaXplOiAxMC4ycHg7IiB0cmFuc2Zvcm09InRyYW5zbGF0ZSgxMTQuNzgxMTUxNzcxNTQ1NDEsMzQuNjAwMDAwMzgxNDY5NzMpIiB5PSIwIiB4PSIwIiBpZD0idGV4dC1lbnRpdHktUFJFRkVDVFVSRVMtYzQ0YzhkZTgtMjM2Mi01NTY4LWFkMDUtZTE1MjQ4OWFhYjVlLWF0dHItMS1jb21tZW50IiBjbGFzcz0iZXIgZW50aXR5TGFiZWwiPumDvemBk+W6nOecjElEPC90ZXh0PjxyZWN0IGhlaWdodD0iMjIiIHdpZHRoPSIzNi4yMTkxNDEwMDY0Njk3MyIgeT0iNDUuNjAwMDAwMzgxNDY5NzMiIHg9IjAiIGNsYXNzPSJlciBhdHRyaWJ1dGVCb3hFdmVuIj48L3JlY3Q+PHRleHQgc3R5bGU9ImRvbWluYW50LWJhc2VsaW5lOiBtaWRkbGU7IGZvbnQtc2l6ZTogMTAuMnB4OyIgdHJhbnNmb3JtPSJ0cmFuc2xhdGUoNSw1Ni42MDAwMDAzODE0Njk3MykiIHk9IjAiIHg9IjAiIGlkPSJ0ZXh0LWVudGl0eS1QUkVGRUNUVVJFUy1jNDRjOGRlOC0yMzYyLTU1NjgtYWQwNS1lMTUyNDg5YWFiNWUtYXR0ci0yLXR5cGUiIGNsYXNzPSJlciBlbnRpdHlMYWJlbCI+c3RyaW5nPC90ZXh0PjxyZWN0IGhlaWdodD0iMjIiIHdpZHRoPSI1MS40NzQzMTU2NDMzMTA1NSIgeT0iNDUuNjAwMDAwMzgxNDY5NzMiIHg9IjM2LjIxOTE0MTAwNjQ2OTczIiBjbGFzcz0iZXIgYXR0cmlidXRlQm94RXZlbiI+PC9yZWN0Pjx0ZXh0IHN0eWxlPSJkb21pbmFudC1iYXNlbGluZTogbWlkZGxlOyBmb250LXNpemU6IDEwLjJweDsiIHRyYW5zZm9ybT0idHJhbnNsYXRlKDQxLjIxOTE0MTAwNjQ2OTczLDU2LjYwMDAwMDM4MTQ2OTczKSIgeT0iMCIgeD0iMCIgaWQ9InRleHQtZW50aXR5LVBSRUZFQ1RVUkVTLWM0NGM4ZGU4LTIzNjItNTU2OC1hZDA1LWUxNTI0ODlhYWI1ZS1hdHRyLTItbmFtZSIgY2xhc3M9ImVyIGVudGl0eUxhYmVsIj5jb2RlPC90ZXh0PjxyZWN0IGhlaWdodD0iMjIiIHdpZHRoPSIyMi4wODc2OTUxMjE3NjUxMzciIHk9IjQ1LjYwMDAwMDM4MTQ2OTczIiB4PSI4Ny42OTM0NTY2NDk3ODAyNyIgY2xhc3M9ImVyIGF0dHJpYnV0ZUJveEV2ZW4iPjwvcmVjdD48dGV4dCBzdHlsZT0iZG9taW5hbnQtYmFzZWxpbmU6IG1pZGRsZTsgZm9udC1zaXplOiAxMC4ycHg7IiB0cmFuc2Zvcm09InRyYW5zbGF0ZSg5Mi42OTM0NTY2NDk3ODAyNyw1Ni42MDAwMDAzODE0Njk3MykiIHk9IjAiIHg9IjAiIGlkPSJ0ZXh0LWVudGl0eS1QUkVGRUNUVVJFUy1jNDRjOGRlOC0yMzYyLTU1NjgtYWQwNS1lMTUyNDg5YWFiNWUtYXR0ci0yLWtleSIgY2xhc3M9ImVyIGVudGl0eUxhYmVsIj48L3RleHQ+PHJlY3QgaGVpZ2h0PSIyMiIgd2lkdGg9IjgyLjQwMDAwMTUyNTg3ODkiIHk9IjQ1LjYwMDAwMDM4MTQ2OTczIiB4PSIxMDkuNzgxMTUxNzcxNTQ1NDEiIGNsYXNzPSJlciBhdHRyaWJ1dGVCb3hFdmVuIj48L3JlY3Q+PHRleHQgc3R5bGU9ImRvbWluYW50LWJhc2VsaW5lOiBtaWRkbGU7IGZvbnQtc2l6ZTogMTAuMnB4OyIgdHJhbnNmb3JtPSJ0cmFuc2xhdGUoMTE0Ljc4MTE1MTc3MTU0NTQxLDU2LjYwMDAwMDM4MTQ2OTczKSIgeT0iMCIgeD0iMCIgaWQ9InRleHQtZW50aXR5LVBSRUZFQ1RVUkVTLWM0NGM4ZGU4LTIzNjItNTU2OC1hZDA1LWUxNTI0ODlhYWI1ZS1hdHRyLTItY29tbWVudCIgY2xhc3M9ImVyIGVudGl0eUxhYmVsIj7pg73pgZPlupznnIzjgrPjg7zjg4k8L3RleHQ+PHJlY3QgaGVpZ2h0PSIyMiIgd2lkdGg9IjM2LjIxOTE0MTAwNjQ2OTczIiB5PSI2Ny42MDAwMDAzODE0Njk3MyIgeD0iMCIgY2xhc3M9ImVyIGF0dHJpYnV0ZUJveE9kZCI+PC9yZWN0Pjx0ZXh0IHN0eWxlPSJkb21pbmFudC1iYXNlbGluZTogbWlkZGxlOyBmb250LXNpemU6IDEwLjJweDsiIHRyYW5zZm9ybT0idHJhbnNsYXRlKDUsNzguNjAwMDAwMzgxNDY5NzMpIiB5PSIwIiB4PSIwIiBpZD0idGV4dC1lbnRpdHktUFJFRkVDVFVSRVMtYzQ0YzhkZTgtMjM2Mi01NTY4LWFkMDUtZTE1MjQ4OWFhYjVlLWF0dHItMy10eXBlIiBjbGFzcz0iZXIgZW50aXR5TGFiZWwiPnN0cmluZzwvdGV4dD48cmVjdCBoZWlnaHQ9IjIyIiB3aWR0aD0iNTEuNDc0MzE1NjQzMzEwNTUiIHk9IjY3LjYwMDAwMDM4MTQ2OTczIiB4PSIzNi4yMTkxNDEwMDY0Njk3MyIgY2xhc3M9ImVyIGF0dHJpYnV0ZUJveE9kZCI+PC9yZWN0Pjx0ZXh0IHN0eWxlPSJkb21pbmFudC1iYXNlbGluZTogbWlkZGxlOyBmb250LXNpemU6IDEwLjJweDsiIHRyYW5zZm9ybT0idHJhbnNsYXRlKDQxLjIxOTE0MTAwNjQ2OTczLDc4LjYwMDAwMDM4MTQ2OTczKSIgeT0iMCIgeD0iMCIgaWQ9InRleHQtZW50aXR5LVBSRUZFQ1RVUkVTLWM0NGM4ZGU4LTIzNjItNTU2OC1hZDA1LWUxNTI0ODlhYWI1ZS1hdHRyLTMtbmFtZSIgY2xhc3M9ImVyIGVudGl0eUxhYmVsIj5uYW1lX2phPC90ZXh0PjxyZWN0IGhlaWdodD0iMjIiIHdpZHRoPSIyMi4wODc2OTUxMjE3NjUxMzciIHk9IjY3LjYwMDAwMDM4MTQ2OTczIiB4PSI4Ny42OTM0NTY2NDk3ODAyNyIgY2xhc3M9ImVyIGF0dHJpYnV0ZUJveE9kZCI+PC9yZWN0Pjx0ZXh0IHN0eWxlPSJkb21pbmFudC1iYXNlbGluZTogbWlkZGxlOyBmb250LXNpemU6IDEwLjJweDsiIHRyYW5zZm9ybT0idHJhbnNsYXRlKDkyLjY5MzQ1NjY0OTc4MDI3LDc4LjYwMDAwMDM4MTQ2OTczKSIgeT0iMCIgeD0iMCIgaWQ9InRleHQtZW50aXR5LVBSRUZFQ1RVUkVTLWM0NGM4ZGU4LTIzNjItNTU2OC1hZDA1LWUxNTI0ODlhYWI1ZS1hdHRyLTMta2V5IiBjbGFzcz0iZXIgZW50aXR5TGFiZWwiPjwvdGV4dD48cmVjdCBoZWlnaHQ9IjIyIiB3aWR0aD0iODIuNDAwMDAxNTI1ODc4OSIgeT0iNjcuNjAwMDAwMzgxNDY5NzMiIHg9IjEwOS43ODExNTE3NzE1NDU0MSIgY2xhc3M9ImVyIGF0dHJpYnV0ZUJveE9kZCI+PC9yZWN0Pjx0ZXh0IHN0eWxlPSJkb21pbmFudC1iYXNlbGluZTogbWlkZGxlOyBmb250LXNpemU6IDEwLjJweDsiIHRyYW5zZm9ybT0idHJhbnNsYXRlKDExNC43ODExNTE3NzE1NDU0MSw3OC42MDAwMDAzODE0Njk3MykiIHk9IjAiIHg9IjAiIGlkPSJ0ZXh0LWVudGl0eS1QUkVGRUNUVVJFUy1jNDRjOGRlOC0yMzYyLTU1NjgtYWQwNS1lMTUyNDg5YWFiNWUtYXR0ci0zLWNvbW1lbnQiIGNsYXNzPSJlciBlbnRpdHlMYWJlbCI+5pel5pys6Kqe5ZCNPC90ZXh0PjxyZWN0IGhlaWdodD0iMjIiIHdpZHRoPSIzNi4yMTkxNDEwMDY0Njk3MyIgeT0iODkuNjAwMDAwMzgxNDY5NzMiIHg9IjAiIGNsYXNzPSJlciBhdHRyaWJ1dGVCb3hFdmVuIj48L3JlY3Q+PHRleHQgc3R5bGU9ImRvbWluYW50LWJhc2VsaW5lOiBtaWRkbGU7IGZvbnQtc2l6ZTogMTAuMnB4OyIgdHJhbnNmb3JtPSJ0cmFuc2xhdGUoNSwxMDAuNjAwMDAwMzgxNDY5NzMpIiB5PSIwIiB4PSIwIiBpZD0idGV4dC1lbnRpdHktUFJFRkVDVFVSRVMtYzQ0YzhkZTgtMjM2Mi01NTY4LWFkMDUtZTE1MjQ4OWFhYjVlLWF0dHItNC10eXBlIiBjbGFzcz0iZXIgZW50aXR5TGFiZWwiPnN0cmluZzwvdGV4dD48cmVjdCBoZWlnaHQ9IjIyIiB3aWR0aD0iNTEuNDc0MzE1NjQzMzEwNTUiIHk9Ijg5LjYwMDAwMDM4MTQ2OTczIiB4PSIzNi4yMTkxNDEwMDY0Njk3MyIgY2xhc3M9ImVyIGF0dHJpYnV0ZUJveEV2ZW4iPjwvcmVjdD48dGV4dCBzdHlsZT0iZG9taW5hbnQtYmFzZWxpbmU6IG1pZGRsZTsgZm9udC1zaXplOiAxMC4ycHg7IiB0cmFuc2Zvcm09InRyYW5zbGF0ZSg0MS4yMTkxNDEwMDY0Njk3MywxMDAuNjAwMDAwMzgxNDY5NzMpIiB5PSIwIiB4PSIwIiBpZD0idGV4dC1lbnRpdHktUFJFRkVDVFVSRVMtYzQ0YzhkZTgtMjM2Mi01NTY4LWFkMDUtZTE1MjQ4OWFhYjVlLWF0dHItNC1uYW1lIiBjbGFzcz0iZXIgZW50aXR5TGFiZWwiPm5hbWVfZW48L3RleHQ+PHJlY3QgaGVpZ2h0PSIyMiIgd2lkdGg9IjIyLjA4NzY5NTEyMTc2NTEzNyIgeT0iODkuNjAwMDAwMzgxNDY5NzMiIHg9Ijg3LjY5MzQ1NjY0OTc4MDI3IiBjbGFzcz0iZXIgYXR0cmlidXRlQm94RXZlbiI+PC9yZWN0Pjx0ZXh0IHN0eWxlPSJkb21pbmFudC1iYXNlbGluZTogbWlkZGxlOyBmb250LXNpemU6IDEwLjJweDsiIHRyYW5zZm9ybT0idHJhbnNsYXRlKDkyLjY5MzQ1NjY0OTc4MDI3LDEwMC42MDAwMDAzODE0Njk3MykiIHk9IjAiIHg9IjAiIGlkPSJ0ZXh0LWVudGl0eS1QUkVGRUNUVVJFUy1jNDRjOGRlOC0yMzYyLTU1NjgtYWQwNS1lMTUyNDg5YWFiNWUtYXR0ci00LWtleSIgY2xhc3M9ImVyIGVudGl0eUxhYmVsIj48L3RleHQ+PHJlY3QgaGVpZ2h0PSIyMiIgd2lkdGg9IjgyLjQwMDAwMTUyNTg3ODkiIHk9Ijg5LjYwMDAwMDM4MTQ2OTczIiB4PSIxMDkuNzgxMTUxNzcxNTQ1NDEiIGNsYXNzPSJlciBhdHRyaWJ1dGVCb3hFdmVuIj48L3JlY3Q+PHRleHQgc3R5bGU9ImRvbWluYW50LWJhc2VsaW5lOiBtaWRkbGU7IGZvbnQtc2l6ZTogMTAuMnB4OyIgdHJhbnNmb3JtPSJ0cmFuc2xhdGUoMTE0Ljc4MTE1MTc3MTU0NTQxLDEwMC42MDAwMDAzODE0Njk3MykiIHk9IjAiIHg9IjAiIGlkPSJ0ZXh0LWVudGl0eS1QUkVGRUNUVVJFUy1jNDRjOGRlOC0yMzYyLTU1NjgtYWQwNS1lMTUyNDg5YWFiNWUtYXR0ci00LWNvbW1lbnQiIGNsYXNzPSJlciBlbnRpdHlMYWJlbCI+6Iux6Kqe5ZCNPC90ZXh0PjxyZWN0IGhlaWdodD0iMjIiIHdpZHRoPSIzNi4yMTkxNDEwMDY0Njk3MyIgeT0iMTExLjYwMDAwMDM4MTQ2OTczIiB4PSIwIiBjbGFzcz0iZXIgYXR0cmlidXRlQm94T2RkIj48L3JlY3Q+PHRleHQgc3R5bGU9ImRvbWluYW50LWJhc2VsaW5lOiBtaWRkbGU7IGZvbnQtc2l6ZTogMTAuMnB4OyIgdHJhbnNmb3JtPSJ0cmFuc2xhdGUoNSwxMjIuNjAwMDAwMzgxNDY5NzMpIiB5PSIwIiB4PSIwIiBpZD0idGV4dC1lbnRpdHktUFJFRkVDVFVSRVMtYzQ0YzhkZTgtMjM2Mi01NTY4LWFkMDUtZTE1MjQ4OWFhYjVlLWF0dHItNS10eXBlIiBjbGFzcz0iZXIgZW50aXR5TGFiZWwiPnN0cmluZzwvdGV4dD48cmVjdCBoZWlnaHQ9IjIyIiB3aWR0aD0iNTEuNDc0MzE1NjQzMzEwNTUiIHk9IjExMS42MDAwMDAzODE0Njk3MyIgeD0iMzYuMjE5MTQxMDA2NDY5NzMiIGNsYXNzPSJlciBhdHRyaWJ1dGVCb3hPZGQiPjwvcmVjdD48dGV4dCBzdHlsZT0iZG9taW5hbnQtYmFzZWxpbmU6IG1pZGRsZTsgZm9udC1zaXplOiAxMC4ycHg7IiB0cmFuc2Zvcm09InRyYW5zbGF0ZSg0MS4yMTkxNDEwMDY0Njk3MywxMjIuNjAwMDAwMzgxNDY5NzMpIiB5PSIwIiB4PSIwIiBpZD0idGV4dC1lbnRpdHktUFJFRkVDVFVSRVMtYzQ0YzhkZTgtMjM2Mi01NTY4LWFkMDUtZTE1MjQ4OWFhYjVlLWF0dHItNS1uYW1lIiBjbGFzcz0iZXIgZW50aXR5TGFiZWwiPm5hbWVfemg8L3RleHQ+PHJlY3QgaGVpZ2h0PSIyMiIgd2lkdGg9IjIyLjA4NzY5NTEyMTc2NTEzNyIgeT0iMTExLjYwMDAwMDM4MTQ2OTczIiB4PSI4Ny42OTM0NTY2NDk3ODAyNyIgY2xhc3M9ImVyIGF0dHJpYnV0ZUJveE9kZCI+PC9yZWN0Pjx0ZXh0IHN0eWxlPSJkb21pbmFudC1iYXNlbGluZTogbWlkZGxlOyBmb250LXNpemU6IDEwLjJweDsiIHRyYW5zZm9ybT0idHJhbnNsYXRlKDkyLjY5MzQ1NjY0OTc4MDI3LDEyMi42MDAwMDAzODE0Njk3MykiIHk9IjAiIHg9IjAiIGlkPSJ0ZXh0LWVudGl0eS1QUkVGRUNUVVJFUy1jNDRjOGRlOC0yMzYyLTU1NjgtYWQwNS1lMTUyNDg5YWFiNWUtYXR0ci01LWtleSIgY2xhc3M9ImVyIGVudGl0eUxhYmVsIj48L3RleHQ+PHJlY3QgaGVpZ2h0PSIyMiIgd2lkdGg9IjgyLjQwMDAwMTUyNTg3ODkiIHk9IjExMS42MDAwMDAzODE0Njk3MyIgeD0iMTA5Ljc4MTE1MTc3MTU0NTQxIiBjbGFzcz0iZXIgYXR0cmlidXRlQm94T2RkIj48L3JlY3Q+PHRleHQgc3R5bGU9ImRvbWluYW50LWJhc2VsaW5lOiBtaWRkbGU7IGZvbnQtc2l6ZTogMTAuMnB4OyIgdHJhbnNmb3JtPSJ0cmFuc2xhdGUoMTE0Ljc4MTE1MTc3MTU0NTQxLDEyMi42MDAwMDAzODE0Njk3MykiIHk9IjAiIHg9IjAiIGlkPSJ0ZXh0LWVudGl0eS1QUkVGRUNUVVJFUy1jNDRjOGRlOC0yMzYyLTU1NjgtYWQwNS1lMTUyNDg5YWFiNWUtYXR0ci01LWNvbW1lbnQiIGNsYXNzPSJlciBlbnRpdHlMYWJlbCI+5Lit5Zu96Kqe5ZCNPC90ZXh0PjwvZz48ZyB0cmFuc2Zvcm09InRyYW5zbGF0ZSgxMDI5LjQwNTgzMDM4MzMwMDgsMzIwICkiIGlkPSJlbnRpdHktTVVOSUNJUEFMSVRJRVMtYWRmYmFlYWUtNTllOC01ZmFkLTkyYmMtMjJhOTc4ZjUyNzEyIj48cmVjdCBoZWlnaHQ9IjE1NS42MDAwMDAzODE0Njk3MyIgd2lkdGg9IjIxMi41OTQzMzQ2MDIzNTU5NiIgeT0iMCIgeD0iMCIgY2xhc3M9ImVyIGVudGl0eUJveCI+PC9yZWN0Pjx0ZXh0IHN0eWxlPSJkb21pbmFudC1iYXNlbGluZTogbWlkZGxlOyB0ZXh0LWFuY2hvcjogbWlkZGxlOyBmb250LXNpemU6IDEycHg7IiB0cmFuc2Zvcm09InRyYW5zbGF0ZSgxMDYuMjk3MTY3MzAxMTc3OTgsMTEuODAwMDAwMTkwNzM0ODYzKSIgeT0iMCIgeD0iMCIgaWQ9InRleHQtZW50aXR5LU1VTklDSVBBTElUSUVTLWFkZmJhZWFlLTU5ZTgtNWZhZC05MmJjLTIyYTk3OGY1MjcxMiIgY2xhc3M9ImVyIGVudGl0eUxhYmVsIj5NVU5JQ0lQQUxJVElFUzwvdGV4dD48cmVjdCBoZWlnaHQ9IjIyIiB3aWR0aD0iMzYuMjE5MTQxMDA2NDY5NzMiIHk9IjIzLjYwMDAwMDM4MTQ2OTcyNyIgeD0iMCIgY2xhc3M9ImVyIGF0dHJpYnV0ZUJveE9kZCI+PC9yZWN0Pjx0ZXh0IHN0eWxlPSJkb21pbmFudC1iYXNlbGluZTogbWlkZGxlOyBmb250LXNpemU6IDEwLjJweDsiIHRyYW5zZm9ybT0idHJhbnNsYXRlKDUsMzQuNjAwMDAwMzgxNDY5NzMpIiB5PSIwIiB4PSIwIiBpZD0idGV4dC1lbnRpdHktTVVOSUNJUEFMSVRJRVMtYWRmYmFlYWUtNTllOC01ZmFkLTkyYmMtMjJhOTc4ZjUyNzEyLWF0dHItMS10eXBlIiBjbGFzcz0iZXIgZW50aXR5TGFiZWwiPmludDwvdGV4dD48cmVjdCBoZWlnaHQ9IjIyIiB3aWR0aD0iNzIuNjg3NSIgeT0iMjMuNjAwMDAwMzgxNDY5NzI3IiB4PSIzNi4yMTkxNDEwMDY0Njk3MyIgY2xhc3M9ImVyIGF0dHJpYnV0ZUJveE9kZCI+PC9yZWN0Pjx0ZXh0IHN0eWxlPSJkb21pbmFudC1iYXNlbGluZTogbWlkZGxlOyBmb250LXNpemU6IDEwLjJweDsiIHRyYW5zZm9ybT0idHJhbnNsYXRlKDQxLjIxOTE0MTAwNjQ2OTczLDM0LjYwMDAwMDM4MTQ2OTczKSIgeT0iMCIgeD0iMCIgaWQ9InRleHQtZW50aXR5LU1VTklDSVBBTElUSUVTLWFkZmJhZWFlLTU5ZTgtNWZhZC05MmJjLTIyYTk3OGY1MjcxMi1hdHRyLTEtbmFtZSIgY2xhc3M9ImVyIGVudGl0eUxhYmVsIj5pZDwvdGV4dD48cmVjdCBoZWlnaHQ9IjIyIiB3aWR0aD0iMjIuMDg3Njk1MTIxNzY1MTM3IiB5PSIyMy42MDAwMDAzODE0Njk3MjciIHg9IjEwOC45MDY2NDEwMDY0Njk3MyIgY2xhc3M9ImVyIGF0dHJpYnV0ZUJveE9kZCI+PC9yZWN0Pjx0ZXh0IHN0eWxlPSJkb21pbmFudC1iYXNlbGluZTogbWlkZGxlOyBmb250LXNpemU6IDEwLjJweDsiIHRyYW5zZm9ybT0idHJhbnNsYXRlKDExMy45MDY2NDEwMDY0Njk3MywzNC42MDAwMDAzODE0Njk3MykiIHk9IjAiIHg9IjAiIGlkPSJ0ZXh0LWVudGl0eS1NVU5JQ0lQQUxJVElFUy1hZGZiYWVhZS01OWU4LTVmYWQtOTJiYy0yMmE5NzhmNTI3MTItYXR0ci0xLWtleSIgY2xhc3M9ImVyIGVudGl0eUxhYmVsIj5QSzwvdGV4dD48cmVjdCBoZWlnaHQ9IjIyIiB3aWR0aD0iODEuNTk5OTk4NDc0MTIxMSIgeT0iMjMuNjAwMDAwMzgxNDY5NzI3IiB4PSIxMzAuOTk0MzM2MTI4MjM0ODYiIGNsYXNzPSJlciBhdHRyaWJ1dGVCb3hPZGQiPjwvcmVjdD48dGV4dCBzdHlsZT0iZG9taW5hbnQtYmFzZWxpbmU6IG1pZGRsZTsgZm9udC1zaXplOiAxMC4ycHg7IiB0cmFuc2Zvcm09InRyYW5zbGF0ZSgxMzUuOTk0MzM2MTI4MjM0ODYsMzQuNjAwMDAwMzgxNDY5NzMpIiB5PSIwIiB4PSIwIiBpZD0idGV4dC1lbnRpdHktTVVOSUNJUEFMSVRJRVMtYWRmYmFlYWUtNTllOC01ZmFkLTkyYmMtMjJhOTc4ZjUyNzEyLWF0dHItMS1jb21tZW50IiBjbGFzcz0iZXIgZW50aXR5TGFiZWwiPuW4guWMuueUuuadkUlEPC90ZXh0PjxyZWN0IGhlaWdodD0iMjIiIHdpZHRoPSIzNi4yMTkxNDEwMDY0Njk3MyIgeT0iNDUuNjAwMDAwMzgxNDY5NzMiIHg9IjAiIGNsYXNzPSJlciBhdHRyaWJ1dGVCb3hFdmVuIj48L3JlY3Q+PHRleHQgc3R5bGU9ImRvbWluYW50LWJhc2VsaW5lOiBtaWRkbGU7IGZvbnQtc2l6ZTogMTAuMnB4OyIgdHJhbnNmb3JtPSJ0cmFuc2xhdGUoNSw1Ni42MDAwMDAzODE0Njk3MykiIHk9IjAiIHg9IjAiIGlkPSJ0ZXh0LWVudGl0eS1NVU5JQ0lQQUxJVElFUy1hZGZiYWVhZS01OWU4LTVmYWQtOTJiYy0yMmE5NzhmNTI3MTItYXR0ci0yLXR5cGUiIGNsYXNzPSJlciBlbnRpdHlMYWJlbCI+aW50PC90ZXh0PjxyZWN0IGhlaWdodD0iMjIiIHdpZHRoPSI3Mi42ODc1IiB5PSI0NS42MDAwMDAzODE0Njk3MyIgeD0iMzYuMjE5MTQxMDA2NDY5NzMiIGNsYXNzPSJlciBhdHRyaWJ1dGVCb3hFdmVuIj48L3JlY3Q+PHRleHQgc3R5bGU9ImRvbWluYW50LWJhc2VsaW5lOiBtaWRkbGU7IGZvbnQtc2l6ZTogMTAuMnB4OyIgdHJhbnNmb3JtPSJ0cmFuc2xhdGUoNDEuMjE5MTQxMDA2NDY5NzMsNTYuNjAwMDAwMzgxNDY5NzMpIiB5PSIwIiB4PSIwIiBpZD0idGV4dC1lbnRpdHktTVVOSUNJUEFMSVRJRVMtYWRmYmFlYWUtNTllOC01ZmFkLTkyYmMtMjJhOTc4ZjUyNzEyLWF0dHItMi1uYW1lIiBjbGFzcz0iZXIgZW50aXR5TGFiZWwiPnByZWZlY3R1cmVfaWQ8L3RleHQ+PHJlY3QgaGVpZ2h0PSIyMiIgd2lkdGg9IjIyLjA4NzY5NTEyMTc2NTEzNyIgeT0iNDUuNjAwMDAwMzgxNDY5NzMiIHg9IjEwOC45MDY2NDEwMDY0Njk3MyIgY2xhc3M9ImVyIGF0dHJpYnV0ZUJveEV2ZW4iPjwvcmVjdD48dGV4dCBzdHlsZT0iZG9taW5hbnQtYmFzZWxpbmU6IG1pZGRsZTsgZm9udC1zaXplOiAxMC4ycHg7IiB0cmFuc2Zvcm09InRyYW5zbGF0ZSgxMTMuOTA2NjQxMDA2NDY5NzMsNTYuNjAwMDAwMzgxNDY5NzMpIiB5PSIwIiB4PSIwIiBpZD0idGV4dC1lbnRpdHktTVVOSUNJUEFMSVRJRVMtYWRmYmFlYWUtNTllOC01ZmFkLTkyYmMtMjJhOTc4ZjUyNzEyLWF0dHItMi1rZXkiIGNsYXNzPSJlciBlbnRpdHlMYWJlbCI+Rks8L3RleHQ+PHJlY3QgaGVpZ2h0PSIyMiIgd2lkdGg9IjgxLjU5OTk5ODQ3NDEyMTEiIHk9IjQ1LjYwMDAwMDM4MTQ2OTczIiB4PSIxMzAuOTk0MzM2MTI4MjM0ODYiIGNsYXNzPSJlciBhdHRyaWJ1dGVCb3hFdmVuIj48L3JlY3Q+PHRleHQgc3R5bGU9ImRvbWluYW50LWJhc2VsaW5lOiBtaWRkbGU7IGZvbnQtc2l6ZTogMTAuMnB4OyIgdHJhbnNmb3JtPSJ0cmFuc2xhdGUoMTM1Ljk5NDMzNjEyODIzNDg2LDU2LjYwMDAwMDM4MTQ2OTczKSIgeT0iMCIgeD0iMCIgaWQ9InRleHQtZW50aXR5LU1VTklDSVBBTElUSUVTLWFkZmJhZWFlLTU5ZTgtNWZhZC05MmJjLTIyYTk3OGY1MjcxMi1hdHRyLTItY29tbWVudCIgY2xhc3M9ImVyIGVudGl0eUxhYmVsIj7pg73pgZPlupznnIxJRDwvdGV4dD48cmVjdCBoZWlnaHQ9IjIyIiB3aWR0aD0iMzYuMjE5MTQxMDA2NDY5NzMiIHk9IjY3LjYwMDAwMDM4MTQ2OTczIiB4PSIwIiBjbGFzcz0iZXIgYXR0cmlidXRlQm94T2RkIj48L3JlY3Q+PHRleHQgc3R5bGU9ImRvbWluYW50LWJhc2VsaW5lOiBtaWRkbGU7IGZvbnQtc2l6ZTogMTAuMnB4OyIgdHJhbnNmb3JtPSJ0cmFuc2xhdGUoNSw3OC42MDAwMDAzODE0Njk3MykiIHk9IjAiIHg9IjAiIGlkPSJ0ZXh0LWVudGl0eS1NVU5JQ0lQQUxJVElFUy1hZGZiYWVhZS01OWU4LTVmYWQtOTJiYy0yMmE5NzhmNTI3MTItYXR0ci0zLXR5cGUiIGNsYXNzPSJlciBlbnRpdHlMYWJlbCI+c3RyaW5nPC90ZXh0PjxyZWN0IGhlaWdodD0iMjIiIHdpZHRoPSI3Mi42ODc1IiB5PSI2Ny42MDAwMDAzODE0Njk3MyIgeD0iMzYuMjE5MTQxMDA2NDY5NzMiIGNsYXNzPSJlciBhdHRyaWJ1dGVCb3hPZGQiPjwvcmVjdD48dGV4dCBzdHlsZT0iZG9taW5hbnQtYmFzZWxpbmU6IG1pZGRsZTsgZm9udC1zaXplOiAxMC4ycHg7IiB0cmFuc2Zvcm09InRyYW5zbGF0ZSg0MS4yMTkxNDEwMDY0Njk3Myw3OC42MDAwMDAzODE0Njk3MykiIHk9IjAiIHg9IjAiIGlkPSJ0ZXh0LWVudGl0eS1NVU5JQ0lQQUxJVElFUy1hZGZiYWVhZS01OWU4LTVmYWQtOTJiYy0yMmE5NzhmNTI3MTItYXR0ci0zLW5hbWUiIGNsYXNzPSJlciBlbnRpdHlMYWJlbCI+Y29kZTwvdGV4dD48cmVjdCBoZWlnaHQ9IjIyIiB3aWR0aD0iMjIuMDg3Njk1MTIxNzY1MTM3IiB5PSI2Ny42MDAwMDAzODE0Njk3MyIgeD0iMTA4LjkwNjY0MTAwNjQ2OTczIiBjbGFzcz0iZXIgYXR0cmlidXRlQm94T2RkIj48L3JlY3Q+PHRleHQgc3R5bGU9ImRvbWluYW50LWJhc2VsaW5lOiBtaWRkbGU7IGZvbnQtc2l6ZTogMTAuMnB4OyIgdHJhbnNmb3JtPSJ0cmFuc2xhdGUoMTEzLjkwNjY0MTAwNjQ2OTczLDc4LjYwMDAwMDM4MTQ2OTczKSIgeT0iMCIgeD0iMCIgaWQ9InRleHQtZW50aXR5LU1VTklDSVBBTElUSUVTLWFkZmJhZWFlLTU5ZTgtNWZhZC05MmJjLTIyYTk3OGY1MjcxMi1hdHRyLTMta2V5IiBjbGFzcz0iZXIgZW50aXR5TGFiZWwiPjwvdGV4dD48cmVjdCBoZWlnaHQ9IjIyIiB3aWR0aD0iODEuNTk5OTk4NDc0MTIxMSIgeT0iNjcuNjAwMDAwMzgxNDY5NzMiIHg9IjEzMC45OTQzMzYxMjgyMzQ4NiIgY2xhc3M9ImVyIGF0dHJpYnV0ZUJveE9kZCI+PC9yZWN0Pjx0ZXh0IHN0eWxlPSJkb21pbmFudC1iYXNlbGluZTogbWlkZGxlOyBmb250LXNpemU6IDEwLjJweDsiIHRyYW5zZm9ybT0idHJhbnNsYXRlKDEzNS45OTQzMzYxMjgyMzQ4Niw3OC42MDAwMDAzODE0Njk3MykiIHk9IjAiIHg9IjAiIGlkPSJ0ZXh0LWVudGl0eS1NVU5JQ0lQQUxJVElFUy1hZGZiYWVhZS01OWU4LTVmYWQtOTJiYy0yMmE5NzhmNTI3MTItYXR0ci0zLWNvbW1lbnQiIGNsYXNzPSJlciBlbnRpdHlMYWJlbCI+5biC5Yy655S65p2R44Kz44O844OJPC90ZXh0PjxyZWN0IGhlaWdodD0iMjIiIHdpZHRoPSIzNi4yMTkxNDEwMDY0Njk3MyIgeT0iODkuNjAwMDAwMzgxNDY5NzMiIHg9IjAiIGNsYXNzPSJlciBhdHRyaWJ1dGVCb3hFdmVuIj48L3JlY3Q+PHRleHQgc3R5bGU9ImRvbWluYW50LWJhc2VsaW5lOiBtaWRkbGU7IGZvbnQtc2l6ZTogMTAuMnB4OyIgdHJhbnNmb3JtPSJ0cmFuc2xhdGUoNSwxMDAuNjAwMDAwMzgxNDY5NzMpIiB5PSIwIiB4PSIwIiBpZD0idGV4dC1lbnRpdHktTVVOSUNJUEFMSVRJRVMtYWRmYmFlYWUtNTllOC01ZmFkLTkyYmMtMjJhOTc4ZjUyNzEyLWF0dHItNC10eXBlIiBjbGFzcz0iZXIgZW50aXR5TGFiZWwiPnN0cmluZzwvdGV4dD48cmVjdCBoZWlnaHQ9IjIyIiB3aWR0aD0iNzIuNjg3NSIgeT0iODkuNjAwMDAwMzgxNDY5NzMiIHg9IjM2LjIxOTE0MTAwNjQ2OTczIiBjbGFzcz0iZXIgYXR0cmlidXRlQm94RXZlbiI+PC9yZWN0Pjx0ZXh0IHN0eWxlPSJkb21pbmFudC1iYXNlbGluZTogbWlkZGxlOyBmb250LXNpemU6IDEwLjJweDsiIHRyYW5zZm9ybT0idHJhbnNsYXRlKDQxLjIxOTE0MTAwNjQ2OTczLDEwMC42MDAwMDAzODE0Njk3MykiIHk9IjAiIHg9IjAiIGlkPSJ0ZXh0LWVudGl0eS1NVU5JQ0lQQUxJVElFUy1hZGZiYWVhZS01OWU4LTVmYWQtOTJiYy0yMmE5NzhmNTI3MTItYXR0ci00LW5hbWUiIGNsYXNzPSJlciBlbnRpdHlMYWJlbCI+bmFtZV9qYTwvdGV4dD48cmVjdCBoZWlnaHQ9IjIyIiB3aWR0aD0iMjIuMDg3Njk1MTIxNzY1MTM3IiB5PSI4OS42MDAwMDAzODE0Njk3MyIgeD0iMTA4LjkwNjY0MTAwNjQ2OTczIiBjbGFzcz0iZXIgYXR0cmlidXRlQm94RXZlbiI+PC9yZWN0Pjx0ZXh0IHN0eWxlPSJkb21pbmFudC1iYXNlbGluZTogbWlkZGxlOyBmb250LXNpemU6IDEwLjJweDsiIHRyYW5zZm9ybT0idHJhbnNsYXRlKDExMy45MDY2NDEwMDY0Njk3MywxMDAuNjAwMDAwMzgxNDY5NzMpIiB5PSIwIiB4PSIwIiBpZD0idGV4dC1lbnRpdHktTVVOSUNJUEFMSVRJRVMtYWRmYmFlYWUtNTllOC01ZmFkLTkyYmMtMjJhOTc4ZjUyNzEyLWF0dHItNC1rZXkiIGNsYXNzPSJlciBlbnRpdHlMYWJlbCI+PC90ZXh0PjxyZWN0IGhlaWdodD0iMjIiIHdpZHRoPSI4MS41OTk5OTg0NzQxMjExIiB5PSI4OS42MDAwMDAzODE0Njk3MyIgeD0iMTMwLjk5NDMzNjEyODIzNDg2IiBjbGFzcz0iZXIgYXR0cmlidXRlQm94RXZlbiI+PC9yZWN0Pjx0ZXh0IHN0eWxlPSJkb21pbmFudC1iYXNlbGluZTogbWlkZGxlOyBmb250LXNpemU6IDEwLjJweDsiIHRyYW5zZm9ybT0idHJhbnNsYXRlKDEzNS45OTQzMzYxMjgyMzQ4NiwxMDAuNjAwMDAwMzgxNDY5NzMpIiB5PSIwIiB4PSIwIiBpZD0idGV4dC1lbnRpdHktTVVOSUNJUEFMSVRJRVMtYWRmYmFlYWUtNTllOC01ZmFkLTkyYmMtMjJhOTc4ZjUyNzEyLWF0dHItNC1jb21tZW50IiBjbGFzcz0iZXIgZW50aXR5TGFiZWwiPuaXpeacrOiqnuWQjTwvdGV4dD48cmVjdCBoZWlnaHQ9IjIyIiB3aWR0aD0iMzYuMjE5MTQxMDA2NDY5NzMiIHk9IjExMS42MDAwMDAzODE0Njk3MyIgeD0iMCIgY2xhc3M9ImVyIGF0dHJpYnV0ZUJveE9kZCI+PC9yZWN0Pjx0ZXh0IHN0eWxlPSJkb21pbmFudC1iYXNlbGluZTogbWlkZGxlOyBmb250LXNpemU6IDEwLjJweDsiIHRyYW5zZm9ybT0idHJhbnNsYXRlKDUsMTIyLjYwMDAwMDM4MTQ2OTczKSIgeT0iMCIgeD0iMCIgaWQ9InRleHQtZW50aXR5LU1VTklDSVBBTElUSUVTLWFkZmJhZWFlLTU5ZTgtNWZhZC05MmJjLTIyYTk3OGY1MjcxMi1hdHRyLTUtdHlwZSIgY2xhc3M9ImVyIGVudGl0eUxhYmVsIj5zdHJpbmc8L3RleHQ+PHJlY3QgaGVpZ2h0PSIyMiIgd2lkdGg9IjcyLjY4NzUiIHk9IjExMS42MDAwMDAzODE0Njk3MyIgeD0iMzYuMjE5MTQxMDA2NDY5NzMiIGNsYXNzPSJlciBhdHRyaWJ1dGVCb3hPZGQiPjwvcmVjdD48dGV4dCBzdHlsZT0iZG9taW5hbnQtYmFzZWxpbmU6IG1pZGRsZTsgZm9udC1zaXplOiAxMC4ycHg7IiB0cmFuc2Zvcm09InRyYW5zbGF0ZSg0MS4yMTkxNDEwMDY0Njk3MywxMjIuNjAwMDAwMzgxNDY5NzMpIiB5PSIwIiB4PSIwIiBpZD0idGV4dC1lbnRpdHktTVVOSUNJUEFMSVRJRVMtYWRmYmFlYWUtNTllOC01ZmFkLTkyYmMtMjJhOTc4ZjUyNzEyLWF0dHItNS1uYW1lIiBjbGFzcz0iZXIgZW50aXR5TGFiZWwiPm5hbWVfZW48L3RleHQ+PHJlY3QgaGVpZ2h0PSIyMiIgd2lkdGg9IjIyLjA4NzY5NTEyMTc2NTEzNyIgeT0iMTExLjYwMDAwMDM4MTQ2OTczIiB4PSIxMDguOTA2NjQxMDA2NDY5NzMiIGNsYXNzPSJlciBhdHRyaWJ1dGVCb3hPZGQiPjwvcmVjdD48dGV4dCBzdHlsZT0iZG9taW5hbnQtYmFzZWxpbmU6IG1pZGRsZTsgZm9udC1zaXplOiAxMC4ycHg7IiB0cmFuc2Zvcm09InRyYW5zbGF0ZSgxMTMuOTA2NjQxMDA2NDY5NzMsMTIyLjYwMDAwMDM4MTQ2OTczKSIgeT0iMCIgeD0iMCIgaWQ9InRleHQtZW50aXR5LU1VTklDSVBBTElUSUVTLWFkZmJhZWFlLTU5ZTgtNWZhZC05MmJjLTIyYTk3OGY1MjcxMi1hdHRyLTUta2V5IiBjbGFzcz0iZXIgZW50aXR5TGFiZWwiPjwvdGV4dD48cmVjdCBoZWlnaHQ9IjIyIiB3aWR0aD0iODEuNTk5OTk4NDc0MTIxMSIgeT0iMTExLjYwMDAwMDM4MTQ2OTczIiB4PSIxMzAuOTk0MzM2MTI4MjM0ODYiIGNsYXNzPSJlciBhdHRyaWJ1dGVCb3hPZGQiPjwvcmVjdD48dGV4dCBzdHlsZT0iZG9taW5hbnQtYmFzZWxpbmU6IG1pZGRsZTsgZm9udC1zaXplOiAxMC4ycHg7IiB0cmFuc2Zvcm09InRyYW5zbGF0ZSgxMzUuOTk0MzM2MTI4MjM0ODYsMTIyLjYwMDAwMDM4MTQ2OTczKSIgeT0iMCIgeD0iMCIgaWQ9InRleHQtZW50aXR5LU1VTklDSVBBTElUSUVTLWFkZmJhZWFlLTU5ZTgtNWZhZC05MmJjLTIyYTk3OGY1MjcxMi1hdHRyLTUtY29tbWVudCIgY2xhc3M9ImVyIGVudGl0eUxhYmVsIj7oi7Hoqp7lkI08L3RleHQ+PHJlY3QgaGVpZ2h0PSIyMiIgd2lkdGg9IjM2LjIxOTE0MTAwNjQ2OTczIiB5PSIxMzMuNjAwMDAwMzgxNDY5NzMiIHg9IjAiIGNsYXNzPSJlciBhdHRyaWJ1dGVCb3hFdmVuIj48L3JlY3Q+PHRleHQgc3R5bGU9ImRvbWluYW50LWJhc2VsaW5lOiBtaWRkbGU7IGZvbnQtc2l6ZTogMTAuMnB4OyIgdHJhbnNmb3JtPSJ0cmFuc2xhdGUoNSwxNDQuNjAwMDAwMzgxNDY5NzMpIiB5PSIwIiB4PSIwIiBpZD0idGV4dC1lbnRpdHktTVVOSUNJUEFMSVRJRVMtYWRmYmFlYWUtNTllOC01ZmFkLTkyYmMtMjJhOTc4ZjUyNzEyLWF0dHItNi10eXBlIiBjbGFzcz0iZXIgZW50aXR5TGFiZWwiPnN0cmluZzwvdGV4dD48cmVjdCBoZWlnaHQ9IjIyIiB3aWR0aD0iNzIuNjg3NSIgeT0iMTMzLjYwMDAwMDM4MTQ2OTczIiB4PSIzNi4yMTkxNDEwMDY0Njk3MyIgY2xhc3M9ImVyIGF0dHJpYnV0ZUJveEV2ZW4iPjwvcmVjdD48dGV4dCBzdHlsZT0iZG9taW5hbnQtYmFzZWxpbmU6IG1pZGRsZTsgZm9udC1zaXplOiAxMC4ycHg7IiB0cmFuc2Zvcm09InRyYW5zbGF0ZSg0MS4yMTkxNDEwMDY0Njk3MywxNDQuNjAwMDAwMzgxNDY5NzMpIiB5PSIwIiB4PSIwIiBpZD0idGV4dC1lbnRpdHktTVVOSUNJUEFMSVRJRVMtYWRmYmFlYWUtNTllOC01ZmFkLTkyYmMtMjJhOTc4ZjUyNzEyLWF0dHItNi1uYW1lIiBjbGFzcz0iZXIgZW50aXR5TGFiZWwiPm5hbWVfemg8L3RleHQ+PHJlY3QgaGVpZ2h0PSIyMiIgd2lkdGg9IjIyLjA4NzY5NTEyMTc2NTEzNyIgeT0iMTMzLjYwMDAwMDM4MTQ2OTczIiB4PSIxMDguOTA2NjQxMDA2NDY5NzMiIGNsYXNzPSJlciBhdHRyaWJ1dGVCb3hFdmVuIj48L3JlY3Q+PHRleHQgc3R5bGU9ImRvbWluYW50LWJhc2VsaW5lOiBtaWRkbGU7IGZvbnQtc2l6ZTogMTAuMnB4OyIgdHJhbnNmb3JtPSJ0cmFuc2xhdGUoMTEzLjkwNjY0MTAwNjQ2OTczLDE0NC42MDAwMDAzODE0Njk3MykiIHk9IjAiIHg9IjAiIGlkPSJ0ZXh0LWVudGl0eS1NVU5JQ0lQQUxJVElFUy1hZGZiYWVhZS01OWU4LTVmYWQtOTJiYy0yMmE5NzhmNTI3MTItYXR0ci02LWtleSIgY2xhc3M9ImVyIGVudGl0eUxhYmVsIj48L3RleHQ+PHJlY3QgaGVpZ2h0PSIyMiIgd2lkdGg9IjgxLjU5OTk5ODQ3NDEyMTEiIHk9IjEzMy42MDAwMDAzODE0Njk3MyIgeD0iMTMwLjk5NDMzNjEyODIzNDg2IiBjbGFzcz0iZXIgYXR0cmlidXRlQm94RXZlbiI+PC9yZWN0Pjx0ZXh0IHN0eWxlPSJkb21pbmFudC1iYXNlbGluZTogbWlkZGxlOyBmb250LXNpemU6IDEwLjJweDsiIHRyYW5zZm9ybT0idHJhbnNsYXRlKDEzNS45OTQzMzYxMjgyMzQ4NiwxNDQuNjAwMDAwMzgxNDY5NzMpIiB5PSIwIiB4PSIwIiBpZD0idGV4dC1lbnRpdHktTVVOSUNJUEFMSVRJRVMtYWRmYmFlYWUtNTllOC01ZmFkLTkyYmMtMjJhOTc4ZjUyNzEyLWF0dHItNi1jb21tZW50IiBjbGFzcz0iZXIgZW50aXR5TGFiZWwiPuS4reWbveiqnuWQjTwvdGV4dD48L2c+PGcgdHJhbnNmb3JtPSJ0cmFuc2xhdGUoMTMzMS43OTM1NzE0NzIxNjgsMjAgKSIgaWQ9ImVudGl0eS1QT1NUQUxDT0RFQ0FDSEUtN2Y2YjkxMWEtMmYyZC01YzI0LWIzMTQtNzg1MTQ3OTRkNjE5Ij48cmVjdCBoZWlnaHQ9IjE1NS42MDAwMDAzODE0Njk3MyIgd2lkdGg9IjIyNS42MTg3NTQzODY5MDE4NiIgeT0iMCIgeD0iMCIgY2xhc3M9ImVyIGVudGl0eUJveCI+PC9yZWN0Pjx0ZXh0IHN0eWxlPSJkb21pbmFudC1iYXNlbGluZTogbWlkZGxlOyB0ZXh0LWFuY2hvcjogbWlkZGxlOyBmb250LXNpemU6IDEycHg7IiB0cmFuc2Zvcm09InRyYW5zbGF0ZSgxMTIuODA5Mzc3MTkzNDUwOTMsMTEuODAwMDAwMTkwNzM0ODYzKSIgeT0iMCIgeD0iMCIgaWQ9InRleHQtZW50aXR5LVBPU1RBTENPREVDQUNIRS03ZjZiOTExYS0yZjJkLTVjMjQtYjMxNC03ODUxNDc5NGQ2MTkiIGNsYXNzPSJlciBlbnRpdHlMYWJlbCI+UE9TVEFMX0NPREVfQ0FDSEU8L3RleHQ+PHJlY3QgaGVpZ2h0PSIyMiIgd2lkdGg9IjUxLjY2ODU1NjIxMzM3ODkwNiIgeT0iMjMuNjAwMDAwMzgxNDY5NzI3IiB4PSIwIiBjbGFzcz0iZXIgYXR0cmlidXRlQm94T2RkIj48L3JlY3Q+PHRleHQgc3R5bGU9ImRvbWluYW50LWJhc2VsaW5lOiBtaWRkbGU7IGZvbnQtc2l6ZTogMTAuMnB4OyIgdHJhbnNmb3JtPSJ0cmFuc2xhdGUoNSwzNC42MDAwMDAzODE0Njk3MykiIHk9IjAiIHg9IjAiIGlkPSJ0ZXh0LWVudGl0eS1QT1NUQUxDT0RFQ0FDSEUtN2Y2YjkxMWEtMmYyZC01YzI0LWIzMTQtNzg1MTQ3OTRkNjE5LWF0dHItMS10eXBlIiBjbGFzcz0iZXIgZW50aXR5TGFiZWwiPnN0cmluZzwvdGV4dD48cmVjdCBoZWlnaHQ9IjIyIiB3aWR0aD0iODAuNDYyNTAxNTI1ODc4OSIgeT0iMjMuNjAwMDAwMzgxNDY5NzI3IiB4PSI1MS42Njg1NTYyMTMzNzg5MDYiIGNsYXNzPSJlciBhdHRyaWJ1dGVCb3hPZGQiPjwvcmVjdD48dGV4dCBzdHlsZT0iZG9taW5hbnQtYmFzZWxpbmU6IG1pZGRsZTsgZm9udC1zaXplOiAxMC4ycHg7IiB0cmFuc2Zvcm09InRyYW5zbGF0ZSg1Ni42Njg1NTYyMTMzNzg5MDYsMzQuNjAwMDAwMzgxNDY5NzMpIiB5PSIwIiB4PSIwIiBpZD0idGV4dC1lbnRpdHktUE9TVEFMQ09ERUNBQ0hFLTdmNmI5MTFhLTJmMmQtNWMyNC1iMzE0LTc4NTE0Nzk0ZDYxOS1hdHRyLTEtbmFtZSIgY2xhc3M9ImVyIGVudGl0eUxhYmVsIj5wb3N0YWxfY29kZTwvdGV4dD48cmVjdCBoZWlnaHQ9IjIyIiB3aWR0aD0iMjIuMDg3Njk1MTIxNzY1MTM3IiB5PSIyMy42MDAwMDAzODE0Njk3MjciIHg9IjEzMi4xMzEwNTc3MzkyNTc4IiBjbGFzcz0iZXIgYXR0cmlidXRlQm94T2RkIj48L3JlY3Q+PHRleHQgc3R5bGU9ImRvbWluYW50LWJhc2VsaW5lOiBtaWRkbGU7IGZvbnQtc2l6ZTogMTAuMnB4OyIgdHJhbnNmb3JtPSJ0cmFuc2xhdGUoMTM3LjEzMTA1NzczOTI1NzgsMzQuNjAwMDAwMzgxNDY5NzMpIiB5PSIwIiB4PSIwIiBpZD0idGV4dC1lbnRpdHktUE9TVEFMQ09ERUNBQ0hFLTdmNmI5MTFhLTJmMmQtNWMyNC1iMzE0LTc4NTE0Nzk0ZDYxOS1hdHRyLTEta2V5IiBjbGFzcz0iZXIgZW50aXR5TGFiZWwiPlBLPC90ZXh0PjxyZWN0IGhlaWdodD0iMjIiIHdpZHRoPSI3MS40MDAwMDE1MjU4Nzg5IiB5PSIyMy42MDAwMDAzODE0Njk3MjciIHg9IjE1NC4yMTg3NTI4NjEwMjI5NSIgY2xhc3M9ImVyIGF0dHJpYnV0ZUJveE9kZCI+PC9yZWN0Pjx0ZXh0IHN0eWxlPSJkb21pbmFudC1iYXNlbGluZTogbWlkZGxlOyBmb250LXNpemU6IDEwLjJweDsiIHRyYW5zZm9ybT0idHJhbnNsYXRlKDE1OS4yMTg3NTI4NjEwMjI5NSwzNC42MDAwMDAzODE0Njk3MykiIHk9IjAiIHg9IjAiIGlkPSJ0ZXh0LWVudGl0eS1QT1NUQUxDT0RFQ0FDSEUtN2Y2YjkxMWEtMmYyZC01YzI0LWIzMTQtNzg1MTQ3OTRkNjE5LWF0dHItMS1jb21tZW50IiBjbGFzcz0iZXIgZW50aXR5TGFiZWwiPumDteS+v+eVquWPtzwvdGV4dD48cmVjdCBoZWlnaHQ9IjIyIiB3aWR0aD0iNTEuNjY4NTU2MjEzMzc4OTA2IiB5PSI0NS42MDAwMDAzODE0Njk3MyIgeD0iMCIgY2xhc3M9ImVyIGF0dHJpYnV0ZUJveEV2ZW4iPjwvcmVjdD48dGV4dCBzdHlsZT0iZG9taW5hbnQtYmFzZWxpbmU6IG1pZGRsZTsgZm9udC1zaXplOiAxMC4ycHg7IiB0cmFuc2Zvcm09InRyYW5zbGF0ZSg1LDU2LjYwMDAwMDM4MTQ2OTczKSIgeT0iMCIgeD0iMCIgaWQ9InRleHQtZW50aXR5LVBPU1RBTENPREVDQUNIRS03ZjZiOTExYS0yZjJkLTVjMjQtYjMxNC03ODUxNDc5NGQ2MTktYXR0ci0yLXR5cGUiIGNsYXNzPSJlciBlbnRpdHlMYWJlbCI+aW50PC90ZXh0PjxyZWN0IGhlaWdodD0iMjIiIHdpZHRoPSI4MC40NjI1MDE1MjU4Nzg5IiB5PSI0NS42MDAwMDAzODE0Njk3MyIgeD0iNTEuNjY4NTU2MjEzMzc4OTA2IiBjbGFzcz0iZXIgYXR0cmlidXRlQm94RXZlbiI+PC9yZWN0Pjx0ZXh0IHN0eWxlPSJkb21pbmFudC1iYXNlbGluZTogbWlkZGxlOyBmb250LXNpemU6IDEwLjJweDsiIHRyYW5zZm9ybT0idHJhbnNsYXRlKDU2LjY2ODU1NjIxMzM3ODkwNiw1Ni42MDAwMDAzODE0Njk3MykiIHk9IjAiIHg9IjAiIGlkPSJ0ZXh0LWVudGl0eS1QT1NUQUxDT0RFQ0FDSEUtN2Y2YjkxMWEtMmYyZC01YzI0LWIzMTQtNzg1MTQ3OTRkNjE5LWF0dHItMi1uYW1lIiBjbGFzcz0iZXIgZW50aXR5TGFiZWwiPnByZWZlY3R1cmVfaWQ8L3RleHQ+PHJlY3QgaGVpZ2h0PSIyMiIgd2lkdGg9IjIyLjA4NzY5NTEyMTc2NTEzNyIgeT0iNDUuNjAwMDAwMzgxNDY5NzMiIHg9IjEzMi4xMzEwNTc3MzkyNTc4IiBjbGFzcz0iZXIgYXR0cmlidXRlQm94RXZlbiI+PC9yZWN0Pjx0ZXh0IHN0eWxlPSJkb21pbmFudC1iYXNlbGluZTogbWlkZGxlOyBmb250LXNpemU6IDEwLjJweDsiIHRyYW5zZm9ybT0idHJhbnNsYXRlKDEzNy4xMzEwNTc3MzkyNTc4LDU2LjYwMDAwMDM4MTQ2OTczKSIgeT0iMCIgeD0iMCIgaWQ9InRleHQtZW50aXR5LVBPU1RBTENPREVDQUNIRS03ZjZiOTExYS0yZjJkLTVjMjQtYjMxNC03ODUxNDc5NGQ2MTktYXR0ci0yLWtleSIgY2xhc3M9ImVyIGVudGl0eUxhYmVsIj5GSzwvdGV4dD48cmVjdCBoZWlnaHQ9IjIyIiB3aWR0aD0iNzEuNDAwMDAxNTI1ODc4OSIgeT0iNDUuNjAwMDAwMzgxNDY5NzMiIHg9IjE1NC4yMTg3NTI4NjEwMjI5NSIgY2xhc3M9ImVyIGF0dHJpYnV0ZUJveEV2ZW4iPjwvcmVjdD48dGV4dCBzdHlsZT0iZG9taW5hbnQtYmFzZWxpbmU6IG1pZGRsZTsgZm9udC1zaXplOiAxMC4ycHg7IiB0cmFuc2Zvcm09InRyYW5zbGF0ZSgxNTkuMjE4NzUyODYxMDIyOTUsNTYuNjAwMDAwMzgxNDY5NzMpIiB5PSIwIiB4PSIwIiBpZD0idGV4dC1lbnRpdHktUE9TVEFMQ09ERUNBQ0hFLTdmNmI5MTFhLTJmMmQtNWMyNC1iMzE0LTc4NTE0Nzk0ZDYxOS1hdHRyLTItY29tbWVudCIgY2xhc3M9ImVyIGVudGl0eUxhYmVsIj7pg73pgZPlupznnIxJRDwvdGV4dD48cmVjdCBoZWlnaHQ9IjIyIiB3aWR0aD0iNTEuNjY4NTU2MjEzMzc4OTA2IiB5PSI2Ny42MDAwMDAzODE0Njk3MyIgeD0iMCIgY2xhc3M9ImVyIGF0dHJpYnV0ZUJveE9kZCI+PC9yZWN0Pjx0ZXh0IHN0eWxlPSJkb21pbmFudC1iYXNlbGluZTogbWlkZGxlOyBmb250LXNpemU6IDEwLjJweDsiIHRyYW5zZm9ybT0idHJhbnNsYXRlKDUsNzguNjAwMDAwMzgxNDY5NzMpIiB5PSIwIiB4PSIwIiBpZD0idGV4dC1lbnRpdHktUE9TVEFMQ09ERUNBQ0hFLTdmNmI5MTFhLTJmMmQtNWMyNC1iMzE0LTc4NTE0Nzk0ZDYxOS1hdHRyLTMtdHlwZSIgY2xhc3M9ImVyIGVudGl0eUxhYmVsIj5pbnQ8L3RleHQ+PHJlY3QgaGVpZ2h0PSIyMiIgd2lkdGg9IjgwLjQ2MjUwMTUyNTg3ODkiIHk9IjY3LjYwMDAwMDM4MTQ2OTczIiB4PSI1MS42Njg1NTYyMTMzNzg5MDYiIGNsYXNzPSJlciBhdHRyaWJ1dGVCb3hPZGQiPjwvcmVjdD48dGV4dCBzdHlsZT0iZG9taW5hbnQtYmFzZWxpbmU6IG1pZGRsZTsgZm9udC1zaXplOiAxMC4ycHg7IiB0cmFuc2Zvcm09InRyYW5zbGF0ZSg1Ni42Njg1NTYyMTMzNzg5MDYsNzguNjAwMDAwMzgxNDY5NzMpIiB5PSIwIiB4PSIwIiBpZD0idGV4dC1lbnRpdHktUE9TVEFMQ09ERUNBQ0hFLTdmNmI5MTFhLTJmMmQtNWMyNC1iMzE0LTc4NTE0Nzk0ZDYxOS1hdHRyLTMtbmFtZSIgY2xhc3M9ImVyIGVudGl0eUxhYmVsIj5tdW5pY2lwYWxpdHlfaWQ8L3RleHQ+PHJlY3QgaGVpZ2h0PSIyMiIgd2lkdGg9IjIyLjA4NzY5NTEyMTc2NTEzNyIgeT0iNjcuNjAwMDAwMzgxNDY5NzMiIHg9IjEzMi4xMzEwNTc3MzkyNTc4IiBjbGFzcz0iZXIgYXR0cmlidXRlQm94T2RkIj48L3JlY3Q+PHRleHQgc3R5bGU9ImRvbWluYW50LWJhc2VsaW5lOiBtaWRkbGU7IGZvbnQtc2l6ZTogMTAuMnB4OyIgdHJhbnNmb3JtPSJ0cmFuc2xhdGUoMTM3LjEzMTA1NzczOTI1NzgsNzguNjAwMDAwMzgxNDY5NzMpIiB5PSIwIiB4PSIwIiBpZD0idGV4dC1lbnRpdHktUE9TVEFMQ09ERUNBQ0hFLTdmNmI5MTFhLTJmMmQtNWMyNC1iMzE0LTc4NTE0Nzk0ZDYxOS1hdHRyLTMta2V5IiBjbGFzcz0iZXIgZW50aXR5TGFiZWwiPkZLPC90ZXh0PjxyZWN0IGhlaWdodD0iMjIiIHdpZHRoPSI3MS40MDAwMDE1MjU4Nzg5IiB5PSI2Ny42MDAwMDAzODE0Njk3MyIgeD0iMTU0LjIxODc1Mjg2MTAyMjk1IiBjbGFzcz0iZXIgYXR0cmlidXRlQm94T2RkIj48L3JlY3Q+PHRleHQgc3R5bGU9ImRvbWluYW50LWJhc2VsaW5lOiBtaWRkbGU7IGZvbnQtc2l6ZTogMTAuMnB4OyIgdHJhbnNmb3JtPSJ0cmFuc2xhdGUoMTU5LjIxODc1Mjg2MTAyMjk1LDc4LjYwMDAwMDM4MTQ2OTczKSIgeT0iMCIgeD0iMCIgaWQ9InRleHQtZW50aXR5LVBPU1RBTENPREVDQUNIRS03ZjZiOTExYS0yZjJkLTVjMjQtYjMxNC03ODUxNDc5NGQ2MTktYXR0ci0zLWNvbW1lbnQiIGNsYXNzPSJlciBlbnRpdHlMYWJlbCI+5biC5Yy655S65p2RSUQ8L3RleHQ+PHJlY3QgaGVpZ2h0PSIyMiIgd2lkdGg9IjUxLjY2ODU1NjIxMzM3ODkwNiIgeT0iODkuNjAwMDAwMzgxNDY5NzMiIHg9IjAiIGNsYXNzPSJlciBhdHRyaWJ1dGVCb3hFdmVuIj48L3JlY3Q+PHRleHQgc3R5bGU9ImRvbWluYW50LWJhc2VsaW5lOiBtaWRkbGU7IGZvbnQtc2l6ZTogMTAuMnB4OyIgdHJhbnNmb3JtPSJ0cmFuc2xhdGUoNSwxMDAuNjAwMDAwMzgxNDY5NzMpIiB5PSIwIiB4PSIwIiBpZD0idGV4dC1lbnRpdHktUE9TVEFMQ09ERUNBQ0hFLTdmNmI5MTFhLTJmMmQtNWMyNC1iMzE0LTc4NTE0Nzk0ZDYxOS1hdHRyLTQtdHlwZSIgY2xhc3M9ImVyIGVudGl0eUxhYmVsIj5zdHJpbmc8L3RleHQ+PHJlY3QgaGVpZ2h0PSIyMiIgd2lkdGg9IjgwLjQ2MjUwMTUyNTg3ODkiIHk9Ijg5LjYwMDAwMDM4MTQ2OTczIiB4PSI1MS42Njg1NTYyMTMzNzg5MDYiIGNsYXNzPSJlciBhdHRyaWJ1dGVCb3hFdmVuIj48L3JlY3Q+PHRleHQgc3R5bGU9ImRvbWluYW50LWJhc2VsaW5lOiBtaWRkbGU7IGZvbnQtc2l6ZTogMTAuMnB4OyIgdHJhbnNmb3JtPSJ0cmFuc2xhdGUoNTYuNjY4NTU2MjEzMzc4OTA2LDEwMC42MDAwMDAzODE0Njk3MykiIHk9IjAiIHg9IjAiIGlkPSJ0ZXh0LWVudGl0eS1QT1NUQUxDT0RFQ0FDSEUtN2Y2YjkxMWEtMmYyZC01YzI0LWIzMTQtNzg1MTQ3OTRkNjE5LWF0dHItNC1uYW1lIiBjbGFzcz0iZXIgZW50aXR5TGFiZWwiPnRvd248L3RleHQ+PHJlY3QgaGVpZ2h0PSIyMiIgd2lkdGg9IjIyLjA4NzY5NTEyMTc2NTEzNyIgeT0iODkuNjAwMDAwMzgxNDY5NzMiIHg9IjEzMi4xMzEwNTc3MzkyNTc4IiBjbGFzcz0iZXIgYXR0cmlidXRlQm94RXZlbiI+PC9yZWN0Pjx0ZXh0IHN0eWxlPSJkb21pbmFudC1iYXNlbGluZTogbWlkZGxlOyBmb250LXNpemU6IDEwLjJweDsiIHRyYW5zZm9ybT0idHJhbnNsYXRlKDEzNy4xMzEwNTc3MzkyNTc4LDEwMC42MDAwMDAzODE0Njk3MykiIHk9IjAiIHg9IjAiIGlkPSJ0ZXh0LWVudGl0eS1QT1NUQUxDT0RFQ0FDSEUtN2Y2YjkxMWEtMmYyZC01YzI0LWIzMTQtNzg1MTQ3OTRkNjE5LWF0dHItNC1rZXkiIGNsYXNzPSJlciBlbnRpdHlMYWJlbCI+PC90ZXh0PjxyZWN0IGhlaWdodD0iMjIiIHdpZHRoPSI3MS40MDAwMDE1MjU4Nzg5IiB5PSI4OS42MDAwMDAzODE0Njk3MyIgeD0iMTU0LjIxODc1Mjg2MTAyMjk1IiBjbGFzcz0iZXIgYXR0cmlidXRlQm94RXZlbiI+PC9yZWN0Pjx0ZXh0IHN0eWxlPSJkb21pbmFudC1iYXNlbGluZTogbWlkZGxlOyBmb250LXNpemU6IDEwLjJweDsiIHRyYW5zZm9ybT0idHJhbnNsYXRlKDE1OS4yMTg3NTI4NjEwMjI5NSwxMDAuNjAwMDAwMzgxNDY5NzMpIiB5PSIwIiB4PSIwIiBpZD0idGV4dC1lbnRpdHktUE9TVEFMQ09ERUNBQ0hFLTdmNmI5MTFhLTJmMmQtNWMyNC1iMzE0LTc4NTE0Nzk0ZDYxOS1hdHRyLTQtY29tbWVudCIgY2xhc3M9ImVyIGVudGl0eUxhYmVsIj7nlLrln588L3RleHQ+PHJlY3QgaGVpZ2h0PSIyMiIgd2lkdGg9IjUxLjY2ODU1NjIxMzM3ODkwNiIgeT0iMTExLjYwMDAwMDM4MTQ2OTczIiB4PSIwIiBjbGFzcz0iZXIgYXR0cmlidXRlQm94T2RkIj48L3JlY3Q+PHRleHQgc3R5bGU9ImRvbWluYW50LWJhc2VsaW5lOiBtaWRkbGU7IGZvbnQtc2l6ZTogMTAuMnB4OyIgdHJhbnNmb3JtPSJ0cmFuc2xhdGUoNSwxMjIuNjAwMDAwMzgxNDY5NzMpIiB5PSIwIiB4PSIwIiBpZD0idGV4dC1lbnRpdHktUE9TVEFMQ09ERUNBQ0hFLTdmNmI5MTFhLTJmMmQtNWMyNC1iMzE0LTc4NTE0Nzk0ZDYxOS1hdHRyLTUtdHlwZSIgY2xhc3M9ImVyIGVudGl0eUxhYmVsIj5zdHJpbmc8L3RleHQ+PHJlY3QgaGVpZ2h0PSIyMiIgd2lkdGg9IjgwLjQ2MjUwMTUyNTg3ODkiIHk9IjExMS42MDAwMDAzODE0Njk3MyIgeD0iNTEuNjY4NTU2MjEzMzc4OTA2IiBjbGFzcz0iZXIgYXR0cmlidXRlQm94T2RkIj48L3JlY3Q+PHRleHQgc3R5bGU9ImRvbWluYW50LWJhc2VsaW5lOiBtaWRkbGU7IGZvbnQtc2l6ZTogMTAuMnB4OyIgdHJhbnNmb3JtPSJ0cmFuc2xhdGUoNTYuNjY4NTU2MjEzMzc4OTA2LDEyMi42MDAwMDAzODE0Njk3MykiIHk9IjAiIHg9IjAiIGlkPSJ0ZXh0LWVudGl0eS1QT1NUQUxDT0RFQ0FDSEUtN2Y2YjkxMWEtMmYyZC01YzI0LWIzMTQtNzg1MTQ3OTRkNjE5LWF0dHItNS1uYW1lIiBjbGFzcz0iZXIgZW50aXR5TGFiZWwiPnN0cmVldDwvdGV4dD48cmVjdCBoZWlnaHQ9IjIyIiB3aWR0aD0iMjIuMDg3Njk1MTIxNzY1MTM3IiB5PSIxMTEuNjAwMDAwMzgxNDY5NzMiIHg9IjEzMi4xMzEwNTc3MzkyNTc4IiBjbGFzcz0iZXIgYXR0cmlidXRlQm94T2RkIj48L3JlY3Q+PHRleHQgc3R5bGU9ImRvbWluYW50LWJhc2VsaW5lOiBtaWRkbGU7IGZvbnQtc2l6ZTogMTAuMnB4OyIgdHJhbnNmb3JtPSJ0cmFuc2xhdGUoMTM3LjEzMTA1NzczOTI1NzgsMTIyLjYwMDAwMDM4MTQ2OTczKSIgeT0iMCIgeD0iMCIgaWQ9InRleHQtZW50aXR5LVBPU1RBTENPREVDQUNIRS03ZjZiOTExYS0yZjJkLTVjMjQtYjMxNC03ODUxNDc5NGQ2MTktYXR0ci01LWtleSIgY2xhc3M9ImVyIGVudGl0eUxhYmVsIj48L3RleHQ+PHJlY3QgaGVpZ2h0PSIyMiIgd2lkdGg9IjcxLjQwMDAwMTUyNTg3ODkiIHk9IjExMS42MDAwMDAzODE0Njk3MyIgeD0iMTU0LjIxODc1Mjg2MTAyMjk1IiBjbGFzcz0iZXIgYXR0cmlidXRlQm94T2RkIj48L3JlY3Q+PHRleHQgc3R5bGU9ImRvbWluYW50LWJhc2VsaW5lOiBtaWRkbGU7IGZvbnQtc2l6ZTogMTAuMnB4OyIgdHJhbnNmb3JtPSJ0cmFuc2xhdGUoMTU5LjIxODc1Mjg2MTAyMjk1LDEyMi42MDAwMDAzODE0Njk3MykiIHk9IjAiIHg9IjAiIGlkPSJ0ZXh0LWVudGl0eS1QT1NUQUxDT0RFQ0FDSEUtN2Y2YjkxMWEtMmYyZC01YzI0LWIzMTQtNzg1MTQ3OTRkNjE5LWF0dHItNS1jb21tZW50IiBjbGFzcz0iZXIgZW50aXR5TGFiZWwiPueVquWcsOetiTwvdGV4dD48cmVjdCBoZWlnaHQ9IjIyIiB3aWR0aD0iNTEuNjY4NTU2MjEzMzc4OTA2IiB5PSIxMzMuNjAwMDAwMzgxNDY5NzMiIHg9IjAiIGNsYXNzPSJlciBhdHRyaWJ1dGVCb3hFdmVuIj48L3JlY3Q+PHRleHQgc3R5bGU9ImRvbWluYW50LWJhc2VsaW5lOiBtaWRkbGU7IGZvbnQtc2l6ZTogMTAuMnB4OyIgdHJhbnNmb3JtPSJ0cmFuc2xhdGUoNSwxNDQuNjAwMDAwMzgxNDY5NzMpIiB5PSIwIiB4PSIwIiBpZD0idGV4dC1lbnRpdHktUE9TVEFMQ09ERUNBQ0hFLTdmNmI5MTFhLTJmMmQtNWMyNC1iMzE0LTc4NTE0Nzk0ZDYxOS1hdHRyLTYtdHlwZSIgY2xhc3M9ImVyIGVudGl0eUxhYmVsIj5kYXRldGltZTwvdGV4dD48cmVjdCBoZWlnaHQ9IjIyIiB3aWR0aD0iODAuNDYyNTAxNTI1ODc4OSIgeT0iMTMzLjYwMDAwMDM4MTQ2OTczIiB4PSI1MS42Njg1NTYyMTMzNzg5MDYiIGNsYXNzPSJlciBhdHRyaWJ1dGVCb3hFdmVuIj48L3JlY3Q+PHRleHQgc3R5bGU9ImRvbWluYW50LWJhc2VsaW5lOiBtaWRkbGU7IGZvbnQtc2l6ZTogMTAuMnB4OyIgdHJhbnNmb3JtPSJ0cmFuc2xhdGUoNTYuNjY4NTU2MjEzMzc4OTA2LDE0NC42MDAwMDAzODE0Njk3MykiIHk9IjAiIHg9IjAiIGlkPSJ0ZXh0LWVudGl0eS1QT1NUQUxDT0RFQ0FDSEUtN2Y2YjkxMWEtMmYyZC01YzI0LWIzMTQtNzg1MTQ3OTRkNjE5LWF0dHItNi1uYW1lIiBjbGFzcz0iZXIgZW50aXR5TGFiZWwiPmxhc3RfdXBkYXRlZDwvdGV4dD48cmVjdCBoZWlnaHQ9IjIyIiB3aWR0aD0iMjIuMDg3Njk1MTIxNzY1MTM3IiB5PSIxMzMuNjAwMDAwMzgxNDY5NzMiIHg9IjEzMi4xMzEwNTc3MzkyNTc4IiBjbGFzcz0iZXIgYXR0cmlidXRlQm94RXZlbiI+PC9yZWN0Pjx0ZXh0IHN0eWxlPSJkb21pbmFudC1iYXNlbGluZTogbWlkZGxlOyBmb250LXNpemU6IDEwLjJweDsiIHRyYW5zZm9ybT0idHJhbnNsYXRlKDEzNy4xMzEwNTc3MzkyNTc4LDE0NC42MDAwMDAzODE0Njk3MykiIHk9IjAiIHg9IjAiIGlkPSJ0ZXh0LWVudGl0eS1QT1NUQUxDT0RFQ0FDSEUtN2Y2YjkxMWEtMmYyZC01YzI0LWIzMTQtNzg1MTQ3OTRkNjE5LWF0dHItNi1rZXkiIGNsYXNzPSJlciBlbnRpdHlMYWJlbCI+PC90ZXh0PjxyZWN0IGhlaWdodD0iMjIiIHdpZHRoPSI3MS40MDAwMDE1MjU4Nzg5IiB5PSIxMzMuNjAwMDAwMzgxNDY5NzMiIHg9IjE1NC4yMTg3NTI4NjEwMjI5NSIgY2xhc3M9ImVyIGF0dHJpYnV0ZUJveEV2ZW4iPjwvcmVjdD48dGV4dCBzdHlsZT0iZG9taW5hbnQtYmFzZWxpbmU6IG1pZGRsZTsgZm9udC1zaXplOiAxMC4ycHg7IiB0cmFuc2Zvcm09InRyYW5zbGF0ZSgxNTkuMjE4NzUyODYxMDIyOTUsMTQ0LjYwMDAwMDM4MTQ2OTczKSIgeT0iMCIgeD0iMCIgaWQ9InRleHQtZW50aXR5LVBPU1RBTENPREVDQUNIRS03ZjZiOTExYS0yZjJkLTVjMjQtYjMxNC03ODUxNDc5NGQ2MTktYXR0ci02LWNvbW1lbnQiIGNsYXNzPSJlciBlbnRpdHlMYWJlbCI+5pyA57WC5pu05paw5pel5pmCPC90ZXh0PjwvZz48cmVjdCBoZWlnaHQ9IjEzLjYwMDAwMDM4MTQ2OTcyNyIgd2lkdGg9IjcyLjgwMDAwMzA1MTc1NzgxIiB5PSI3NjIuNjMwMjk3NjYwODI3NiIgeD0iLTY5LjI5MTA0NjE0MjU3ODEyIiBjbGFzcz0iZXIgcmVsYXRpb25zaGlwTGFiZWxCb3giPjwvcmVjdD48dGV4dCBzdHlsZT0idGV4dC1hbmNob3I6IG1pZGRsZTsgZG9taW5hbnQtYmFzZWxpbmU6IG1pZGRsZTsgZm9udC1zaXplOiAxMnB4OyIgeT0iNzY5LjQzMDI5Nzg1MTU2MjUiIHg9Ii0zMi44OTEwNDQ2MTY2OTkyMiIgaWQ9InJlbDEiIGNsYXNzPSJlciByZWxhdGlvbnNoaXBMYWJlbCI+44K544Kt44Oj44Oz44GZ44KLPC90ZXh0PjxyZWN0IGhlaWdodD0iMTMuNjAwMDAwMzgxNDY5NzI3IiB3aWR0aD0iNDgiIHk9IjU5NS45OTk5ODc2MDIyMzM5IiB4PSIxODYuODc2OTk4OTAxMzY3MiIgY2xhc3M9ImVyIHJlbGF0aW9uc2hpcExhYmVsQm94Ij48L3JlY3Q+PHRleHQgc3R5bGU9InRleHQtYW5jaG9yOiBtaWRkbGU7IGRvbWluYW50LWJhc2VsaW5lOiBtaWRkbGU7IGZvbnQtc2l6ZTogMTJweDsiIHk9IjYwMi43OTk5ODc3OTI5Njg4IiB4PSIyMTAuODc2OTk4OTAxMzY3MiIgaWQ9InJlbDIiIGNsYXNzPSJlciByZWxhdGlvbnNoaXBMYWJlbCI+6Kit5a6a44GZ44KLPC90ZXh0PjxyZWN0IGhlaWdodD0iMTMuNjAwMDAwMzgxNDY5NzI3IiB3aWR0aD0iNDguNzk5OTk5MjM3MDYwNTUiIHk9IjU2NC41MTM1OTg0NDIwNzc2IiB4PSI0MTQuMTE1ODA4NDg2OTM4NSIgY2xhc3M9ImVyIHJlbGF0aW9uc2hpcExhYmVsQm94Ij48L3JlY3Q+PHRleHQgc3R5bGU9InRleHQtYW5jaG9yOiBtaWRkbGU7IGRvbWluYW50LWJhc2VsaW5lOiBtaWRkbGU7IGZvbnQtc2l6ZTogMTJweDsiIHk9IjU3MS4zMTM1OTg2MzI4MTI1IiB4PSI0MzguNTE1ODA4MTA1NDY4NzUiIGlkPSJyZWwzIiBjbGFzcz0iZXIgcmVsYXRpb25zaGlwTGFiZWwiPuaJgOWxnuOBmeOCizwvdGV4dD48cmVjdCBoZWlnaHQ9IjEzLjYwMDAwMDM4MTQ2OTcyNyIgd2lkdGg9IjYwIiB5PSIxMDE3Ljk3MzA3MTA5ODMyNzYiIHg9IjU5My40MTUzNDQyMzgyODEyIiBjbGFzcz0iZXIgcmVsYXRpb25zaGlwTGFiZWxCb3giPjwvcmVjdD48dGV4dCBzdHlsZT0idGV4dC1hbmNob3I6IG1pZGRsZTsgZG9taW5hbnQtYmFzZWxpbmU6IG1pZGRsZTsgZm9udC1zaXplOiAxMnB4OyIgeT0iMTAyNC43NzMwNzEyODkwNjI1IiB4PSI2MjMuNDE1MzQ0MjM4MjgxMiIgaWQ9InJlbDQiIGNsYXNzPSJlciByZWxhdGlvbnNoaXBMYWJlbCI+5YiG6aGe44GV44KM44KLPC90ZXh0PjxyZWN0IGhlaWdodD0iMTMuNjAwMDAwMzgxNDY5NzI3IiB3aWR0aD0iMjQiIHk9IjkzMC4wMzAyMDAwMDQ1Nzc2IiB4PSI1NzEuNzA4NjE4MTY0MDYyNSIgY2xhc3M9ImVyIHJlbGF0aW9uc2hpcExhYmVsQm94Ij48L3JlY3Q+PHRleHQgc3R5bGU9InRleHQtYW5jaG9yOiBtaWRkbGU7IGRvbWluYW50LWJhc2VsaW5lOiBtaWRkbGU7IGZvbnQtc2l6ZTogMTJweDsiIHk9IjkzNi44MzAyMDAxOTUzMTI1IiB4PSI1ODMuNzA4NjE4MTY0MDYyNSIgaWQ9InJlbDUiIGNsYXNzPSJlciByZWxhdGlvbnNoaXBMYWJlbCI+5oyB44GkPC90ZXh0PjxyZWN0IGhlaWdodD0iMTMuNjAwMDAwMzgxNDY5NzI3IiB3aWR0aD0iNjAiIHk9Ijk5OC43MTg0MzI0MjY0NTI2IiB4PSI4OTAuNTA4NDgzODg2NzE4OCIgY2xhc3M9ImVyIHJlbGF0aW9uc2hpcExhYmVsQm94Ij48L3JlY3Q+PHRleHQgc3R5bGU9InRleHQtYW5jaG9yOiBtaWRkbGU7IGRvbWluYW50LWJhc2VsaW5lOiBtaWRkbGU7IGZvbnQtc2l6ZTogMTJweDsiIHk9IjEwMDUuNTE4NDMyNjE3MTg3NSIgeD0iOTIwLjUwODQ4Mzg4NjcxODgiIGlkPSJyZWw2IiBjbGFzcz0iZXIgcmVsYXRpb25zaGlwTGFiZWwiPuWPjumbhuOBleOCjOOCizwvdGV4dD48cmVjdCBoZWlnaHQ9IjEzLjYwMDAwMDM4MTQ2OTcyNyIgd2lkdGg9IjQ4IiB5PSI1NjAuMTA0NTQwODI0ODkwMSIgeD0iODAzLjc0MDA1MTI2OTUzMTIiIGNsYXNzPSJlciByZWxhdGlvbnNoaXBMYWJlbEJveCI+PC9yZWN0Pjx0ZXh0IHN0eWxlPSJ0ZXh0LWFuY2hvcjogbWlkZGxlOyBkb21pbmFudC1iYXNlbGluZTogbWlkZGxlOyBmb250LXNpemU6IDEycHg7IiB5PSI1NjYuOTA0NTQxMDE1NjI1IiB4PSI4MjcuNzQwMDUxMjY5NTMxMiIgaWQ9InJlbDciIGNsYXNzPSJlciByZWxhdGlvbnNoaXBMYWJlbCI+6Zai6YCj44GZ44KLPC90ZXh0PjxyZWN0IGhlaWdodD0iMTMuNjAwMDAwMzgxNDY5NzI3IiB3aWR0aD0iMjQuODAwMDAxMTQ0NDA5MTgiIHk9IjIzNS41MDAwMDI4NjEwMjI5NSIgeD0iMTEyMy4zMDMwMDIzNTc0ODMiIGNsYXNzPSJlciByZWxhdGlvbnNoaXBMYWJlbEJveCI+PC9yZWN0Pjx0ZXh0IHN0eWxlPSJ0ZXh0LWFuY2hvcjogbWlkZGxlOyBkb21pbmFudC1iYXNlbGluZTogbWlkZGxlOyBmb250LXNpemU6IDEycHg7IiB5PSIyNDIuMzAwMDAzMDUxNzU3OCIgeD0iMTEzNS43MDMwMDI5Mjk2ODc1IiBpZD0icmVsOCIgY2xhc3M9ImVyIHJlbGF0aW9uc2hpcExhYmVsIj7lkKvjgoA8L3RleHQ+PHJlY3QgaGVpZ2h0PSIxMy42MDAwMDAzODE0Njk3MjciIHdpZHRoPSIyNC44MDAwMDExNDQ0MDkxOCIgeT0iNjI0LjE0NTQ5NTQxNDczMzkiIHg9IjkzOS43NjA3MDQ5OTQyMDE3IiBjbGFzcz0iZXIgcmVsYXRpb25zaGlwTGFiZWxCb3giPjwvcmVjdD48dGV4dCBzdHlsZT0idGV4dC1hbmNob3I6IG1pZGRsZTsgZG9taW5hbnQtYmFzZWxpbmU6IG1pZGRsZTsgZm9udC1zaXplOiAxMnB4OyIgeT0iNjMwLjk0NTQ5NTYwNTQ2ODgiIHg9Ijk1Mi4xNjA3MDU1NjY0MDYyIiBpZD0icmVsOSIgY2xhc3M9ImVyIHJlbGF0aW9uc2hpcExhYmVsIj7lkKvjgoA8L3RleHQ+PC9zdmc+;" parent="1" vertex="1">
                        <mxGeometry x="-500" y="-3010" width="1667.1033935546875" height="1272.800048828125" as="geometry"/>
                    </mxCell>
                </UserObject>
            </root>
        </mxGraphModel>
    </diagram>
</mxfile>